<?xml version="1.0" encoding="utf-8"?>
<!DOCTYPE svg PUBLIC "-//W3C//DTD SVG 1.1//EN" "http://www.w3.org/Graphics/SVG/1.1/DTD/svg11.dtd">
<svg xmlns="http://www.w3.org/2000/svg" xmlns:xlink="http://www.w3.org/1999/xlink" version="1.1" baseProfile="full" width="450" height="100" viewBox="0 0 450.00 100.00" enable-background="new 0 0 450.00 100.00" xml:space="preserve">
	<path fill="#FFFFFF" fill-opacity="1" stroke-width="1.33333" stroke-linejoin="miter" d="M 64.9891,34.4771C 68.9948,34.4771 72.6677,35.9235 75.5181,38.319L 79.3969,33.6961C 75.4969,30.4179 70.4713,28.4388 64.9891,28.4388C 52.6219,28.4388 42.5604,38.5003 42.5604,50.8675C 42.5604,63.2343 52.6219,73.295 64.9891,73.295C 70.4713,73.295 75.4969,71.3153 79.3969,68.038L 75.5181,63.4147C 72.6677,65.8094 68.9948,67.2561 64.9891,67.2561C 55.9516,67.2561 48.5991,59.9045 48.5991,50.8675C 48.5991,41.83 55.9516,34.4771 64.9891,34.4771 Z "/>
	<path fill="#FFFFFF" fill-opacity="1" stroke-width="1.33333" stroke-linejoin="miter" d="M 189.145,29.7331L 177.068,29.7331C 175.401,29.7331 174.049,31.085 174.049,32.752L 174.049,68.9825C 174.049,70.6495 175.401,72.0014 177.068,72.0014L 189.145,72.0014C 200.799,72.0014 210.279,62.5211 210.279,50.8675C 210.279,39.2134 200.799,29.7331 189.145,29.7331 Z M 189.145,65.9635L 180.087,65.9635L 180.087,35.7714L 189.145,35.7714C 197.469,35.7714 204.241,42.5433 204.241,50.8675C 204.241,59.1912 197.469,65.9635 189.145,65.9635 Z "/>
	<path fill="#FFFFFF" fill-opacity="1" stroke-width="1.33333" stroke-linejoin="miter" d="M 226.628,32.752L 226.628,68.9825C 226.628,70.6495 227.98,72.0014 229.647,72.0014L 254.807,72.0014L 254.807,65.9635L 232.667,65.9635L 232.667,53.886L 246.756,53.886L 246.756,47.8481L 232.667,47.8481L 232.667,35.7714L 254.807,35.7714L 254.807,29.7331L 229.647,29.7331C 227.98,29.7331 226.628,31.085 226.628,32.752 Z "/>
	<path fill="#FFFFFF" fill-opacity="1" stroke-width="1.33333" stroke-linejoin="miter" d="M 318.02,32.752L 318.02,68.9825C 318.02,70.6495 319.372,72.0014 321.039,72.0014L 346.199,72.0014L 346.199,65.9635L 324.058,65.9635L 324.058,53.886L 338.148,53.886L 338.148,47.8481L 324.058,47.8481L 324.058,35.7714L 346.199,35.7714L 346.199,29.7331L 321.039,29.7331C 319.372,29.7331 318.02,31.085 318.02,32.752 Z "/>
	<path fill="#FFFFFF" fill-opacity="1" stroke-width="1.33333" stroke-linejoin="miter" d="M 289.287,29.7331L 276.203,29.7331C 274.536,29.7331 273.184,31.085 273.184,32.752L 273.184,72.0014L 279.223,72.0014L 279.223,53.886L 289.287,53.886C 295.945,53.886 301.363,48.4686 301.363,41.8097C 301.363,35.1505 295.945,29.7331 289.287,29.7331 Z M 289.287,47.8481L 279.223,47.8481L 279.223,35.7714L 289.287,35.7714C 292.616,35.7714 295.324,38.4799 295.324,41.8097C 295.324,45.1396 292.616,47.8481 289.287,47.8481 Z "/>
	<path fill="#FFFFFF" fill-opacity="1" stroke-width="1.33333" stroke-linejoin="miter" d="M 393.402,29.7331L 393.402,60.6439L 368.549,30.8194C 367.735,29.8419 366.397,29.4794 365.202,29.9131C 364.007,30.3464 363.21,31.481 363.21,32.752L 363.21,72.0014L 369.249,72.0014L 369.249,41.0914L 394.102,70.9155C 394.688,71.6169 395.543,72.0014 396.422,72.0014C 396.766,72.0014 397.114,71.9438 397.45,71.8219C 398.645,71.3882 399.441,70.254 399.441,68.9825L 399.441,29.7331L 393.402,29.7331 Z "/>
	<path fill="#FFFFFF" fill-opacity="1" stroke-width="1.33333" stroke-linejoin="miter" d="M 156.897,40.5739C 156.883,40.4956 156.869,40.418 156.849,40.3418C 156.836,40.296 156.82,40.2524 156.806,40.2071C 156.784,40.1393 156.761,40.0716 156.734,40.0055C 156.715,39.9598 156.694,39.9153 156.673,39.8708C 156.643,39.8081 156.612,39.7467 156.578,39.687C 156.553,39.643 156.526,39.601 156.499,39.5587C 156.462,39.5011 156.424,39.4451 156.382,39.3905C 156.352,39.3499 156.32,39.3105 156.287,39.2715C 156.244,39.2194 156.197,39.1699 156.15,39.1212C 156.114,39.0843 156.077,39.0479 156.039,39.0132C 155.989,38.9675 155.936,38.9243 155.882,38.8818C 155.841,38.8497 155.8,38.817 155.711,38.7522L 126.274,19.1273C 125.345,18.5073 124.133,18.5073 123.204,19.1273L 93.7208,38.7869C 93.6776,38.817 93.637,38.8497 93.5955,38.8818C 93.5421,38.9243 93.4887,38.9675 93.4388,39.0132C 93.4007,39.0479 93.3643,39.0843 93.3286,39.1212C 93.2804,39.1699 93.2346,39.2194 93.1906,39.2715C 93.1575,39.3105 93.1262,39.3499 93.0957,39.3905C 93.0541,39.4451 93.0161,39.5011 92.9788,39.5587C 92.9517,39.601 92.9246,39.643 92.9,39.687C 92.8653,39.7467 92.8348,39.8081 92.806,39.8708C 92.7848,39.9153 92.7628,39.9598 92.7441,40.0055C 92.7171,40.0716 92.6942,40.1393 92.6721,40.2071C 92.6577,40.2524 92.6417,40.296 92.6298,40.3418C 92.6094,40.418 92.595,40.4956 92.5815,40.5739C 92.5739,40.6137 92.5646,40.6531 92.5587,40.6933C 92.5434,40.8128 92.5341,40.9331 92.5341,41.055L 92.5341,60.6795C 92.5341,60.8015 92.5434,60.9218 92.5587,61.0412C 92.5646,61.0819 92.5739,61.1208 92.5815,61.1607C 92.595,61.2386 92.6094,61.3165 92.6298,61.3928C 92.6417,61.4385 92.6577,61.4825 92.6721,61.5274C 92.6942,61.5952 92.7171,61.663 92.7441,61.7299C 92.7628,61.7757 92.7848,61.8197 92.806,61.8637C 92.8348,61.9264 92.8653,61.9874 92.9,62.0484C 92.9246,62.0916 92.9517,62.134 92.9788,62.1754C 93.0161,62.233 93.0541,62.289 93.0957,62.3441C 93.1262,62.3855 93.1575,62.4245 93.1906,62.4634C 93.2346,62.5151 93.2804,62.5651 93.3286,62.6134C 93.3643,62.6498 93.4007,62.6871 93.4388,62.7209C 93.4887,62.7667 93.5421,62.8107 93.5955,62.8531C 93.637,62.8853 93.6776,62.9175 93.7665,62.9819L 123.204,82.6068C 123.669,82.9168 124.204,83.0727 124.739,83.0727C 125.274,83.0727 125.81,82.9168 126.274,82.6068L 155.757,62.9479C 155.8,62.9175 155.841,62.8853 155.882,62.8531C 155.936,62.8107 155.989,62.7667 156.039,62.7209C 156.077,62.6871 156.114,62.6498 156.15,62.6134C 156.197,62.5651 156.244,62.5151 156.287,62.4634C 156.32,62.4245 156.352,62.3855 156.382,62.3441C 156.424,62.289 156.462,62.233 156.499,62.1754C 156.526,62.134 156.553,62.0916 156.578,62.0484C 156.612,61.9874 156.643,61.9264 156.673,61.8637C 156.694,61.8197 156.715,61.7757 156.734,61.7299C 156.761,61.663 156.784,61.5952 156.806,61.5274C 156.82,61.4825 156.836,61.4385 156.849,61.3928C 156.869,61.3165 156.883,61.2386 156.897,61.1607C 156.904,61.1208 156.914,61.0819 156.919,61.0412C 156.934,60.9218 156.944,60.8015 156.944,60.6795L 156.944,41.055C 156.944,40.9331 156.934,40.8128 156.919,40.6933C 156.914,40.6531 156.904,40.6137 156.897,40.5739 Z M 124.739,57.4149L 114.95,50.8675L 124.739,44.3197L 134.528,50.8675L 124.739,57.4149 Z M 121.971,39.5121L 109.972,47.5376L 100.286,41.0588L 121.971,26.6019L 121.971,39.5121 Z M 104.994,50.8675L 98.0697,55.4989L 98.0697,46.2357L 104.994,50.8675 Z M 109.972,54.1978L 121.971,62.2229L 121.971,75.1331L 100.286,60.6761L 109.972,54.1978 Z M 127.506,62.2229L 139.506,54.1978L 149.193,60.6761L 127.506,75.1331L 127.506,62.2229 Z M 144.484,50.8675L 151.409,46.2357L 151.409,55.4989L 144.484,50.8675 Z M 139.506,47.5376L 127.506,39.5121L 127.506,26.6019L 149.193,41.0588L 139.506,47.5376 Z "/>
</svg>
