<?xml version="1.0" encoding="utf-8"?>
<!DOCTYPE svg PUBLIC "-//W3C//DTD SVG 1.1//EN" "http://www.w3.org/Graphics/SVG/1.1/DTD/svg11.dtd">
<svg xmlns="http://www.w3.org/2000/svg" xmlns:xlink="http://www.w3.org/1999/xlink" version="1.1" baseProfile="full" width="420" height="140" viewBox="0 0 420.00 140.00" enable-background="new 0 0 420.00 140.00" xml:space="preserve">
	<g>
		<path fill="#646464" fill-opacity="0.803922" stroke-width="0.2" stroke-linejoin="round" d="M 4.19833,132.988L 6.04166,132.988L 6.04166,127.762L 8.79943,127.762L 11.5206,132.988L 13.583,132.988L 10.8267,127.892C 10.5801,127.504 10.4523,127.318 10.4431,127.334L 10.4431,127.3C 11.1549,127.074 11.7171,126.637 12.1297,125.99C 12.5423,125.343 12.7529,124.563 12.7617,123.65C 12.7533,122.714 12.5556,121.936 12.1685,121.316C 11.7813,120.696 11.2549,120.268 10.5892,120.032C 10.3575,119.946 10.063,119.879 9.70574,119.831C 9.34847,119.783 8.83938,119.759 8.17848,119.758L 4.19833,119.758L 4.19833,132.988 Z M 6.04166,126.292L 6.04166,121.228L 8.12368,121.228C 8.61527,121.229 8.99271,121.258 9.25601,121.314C 9.51931,121.369 9.73238,121.448 9.89523,121.549C 10.565,121.956 10.906,122.683 10.9183,123.73C 10.9111,124.529 10.7063,125.153 10.304,125.604C 9.90177,126.054 9.34544,126.284 8.63506,126.292L 6.04166,126.292 Z "/>
		<path fill="#646464" fill-opacity="0.803922" stroke-width="0.2" stroke-linejoin="round" d="M 15.025,128.262C 15.0473,129.714 15.5052,130.889 16.3988,131.787C 17.2923,132.686 18.4875,133.148 19.9844,133.175C 21.1184,133.122 22.006,132.913 22.6472,132.545C 23.2883,132.178 23.6146,131.967 23.626,131.915L 22.8813,130.576C 22.866,130.623 22.6035,130.811 22.0936,131.14C 21.5837,131.47 20.9178,131.658 20.0957,131.705C 19.2367,131.705 18.5017,131.437 17.8908,130.903C 17.2799,130.37 16.939,129.571 16.8683,128.508L 23.7191,128.508C 23.7215,128.492 23.7308,128.397 23.7471,128.225C 23.7634,128.052 23.7727,127.901 23.775,127.77C 23.7713,126.51 23.4249,125.461 22.7357,124.624C 22.0466,123.787 21.0367,123.353 19.7062,123.321C 18.3426,123.34 17.2285,123.791 16.364,124.672C 15.4994,125.553 15.0531,126.749 15.025,128.262 Z M 16.924,127.225C 17.0662,126.428 17.3846,125.819 17.8792,125.397C 18.3738,124.975 18.9705,124.762 19.6691,124.759C 20.2874,124.758 20.8083,124.961 21.2317,125.368C 21.6552,125.776 21.8885,126.395 21.9317,127.225L 16.924,127.225 Z "/>
		<path fill="#646464" fill-opacity="0.803922" stroke-width="0.2" stroke-linejoin="round" d="M 26.9414,134.759L 26.344,136.173C 26.8077,136.395 27.3192,136.573 27.8786,136.705C 28.438,136.837 29.0071,136.905 29.5859,136.908C 30.8376,136.929 31.9398,136.607 32.8927,135.942C 33.8456,135.277 34.3472,134.143 34.3975,132.539L 34.3975,123.492L 32.6272,123.492L 32.6272,124.31C 32.6336,124.481 32.6399,124.574 32.6463,124.588L 32.6082,124.588C 32.627,124.548 32.4158,124.337 31.9746,123.958C 31.5334,123.578 30.7497,123.36 29.6235,123.305C 28.3021,123.328 27.2842,123.764 26.5696,124.614C 25.855,125.464 25.4936,126.591 25.4853,127.996C 25.4963,129.414 25.871,130.563 26.6093,131.442C 27.3477,132.322 28.3837,132.775 29.7173,132.802C 31.0594,132.778 31.9979,132.318 32.5329,131.419L 32.5704,131.419C 32.5696,131.425 32.5665,131.483 32.561,131.594C 32.5556,131.705 32.5524,131.833 32.5516,131.979L 32.5516,132.627C 32.5298,133.633 32.2357,134.356 31.6694,134.795C 31.1032,135.234 30.3962,135.448 29.5484,135.438C 28.8157,135.41 28.2028,135.297 27.7099,135.099C 27.217,134.901 26.9608,134.787 26.9414,134.759 Z M 30.074,131.332C 29.2117,131.316 28.5383,131.004 28.0538,130.395C 27.5693,129.787 27.3229,128.974 27.3147,127.958C 27.3194,126.966 27.5447,126.19 27.9905,125.63C 28.4362,125.07 29.0744,124.785 29.905,124.775C 30.6656,124.753 31.2983,124.978 31.8032,125.452C 32.308,125.925 32.57,126.779 32.5892,128.015C 32.5665,129.254 32.3115,130.121 31.8243,130.617C 31.337,131.112 30.7536,131.351 30.074,131.332 Z "/>
		<path fill="#646464" fill-opacity="0.803922" stroke-width="0.2" stroke-linejoin="round" d="M 37.0679,129.568C 37.0702,130.813 37.341,131.727 37.8805,132.31C 38.42,132.893 39.2147,133.181 40.2646,133.175C 41.1717,133.144 41.9148,132.903 42.4939,132.451C 43.073,132 43.4608,131.527 43.6573,131.031L 43.6946,131.031C 43.6931,131.038 43.6868,131.106 43.6759,131.235C 43.6651,131.364 43.6588,131.53 43.6573,131.731L 43.6573,132.988L 45.412,132.988L 45.412,123.492L 43.6013,123.492L 43.6013,127.94C 43.5941,128.908 43.3305,129.738 42.8105,130.431C 42.2905,131.124 41.5573,131.486 40.611,131.518C 39.8927,131.502 39.4193,131.272 39.191,130.829C 38.9627,130.386 38.8586,129.828 38.8787,129.155L 38.8787,123.492L 37.0679,123.492L 37.0679,129.568 Z "/>
		<path fill="#646464" fill-opacity="0.803922" stroke-width="0.2" stroke-linejoin="round" d="M 48.2679,130.48C 48.3096,131.571 48.6044,132.271 49.1523,132.58C 49.7003,132.889 50.2518,133.025 50.8068,132.988C 50.9705,132.987 51.1097,132.981 51.2245,132.971C 51.3392,132.962 51.3991,132.956 51.4041,132.955L 51.4041,131.499C 51.3824,131.506 51.2766,131.512 51.0868,131.518C 50.7998,131.534 50.5617,131.451 50.3727,131.271C 50.1837,131.09 50.0857,130.72 50.0787,130.159L 50.0787,119.758L 48.2679,119.758L 48.2679,130.48 Z "/>
		<path fill="#646464" fill-opacity="0.803922" stroke-width="0.2" stroke-linejoin="round" d="M 52.5519,130.337C 52.5835,131.26 52.917,131.963 53.5524,132.443C 54.1879,132.924 54.9356,133.165 55.7957,133.168C 56.9364,133.091 57.7415,132.782 58.2109,132.241C 58.6803,131.7 58.9072,131.391 58.8917,131.314L 58.9285,131.314C 58.9162,131.391 58.9039,131.654 58.8917,132.103L 58.8917,132.988L 60.5483,132.988L 60.5483,127.143C 60.5438,125.851 60.2215,124.889 59.5815,124.257C 58.9414,123.625 58.0108,123.31 56.7895,123.312C 55.6702,123.356 54.7957,123.534 54.166,123.845C 53.5363,124.155 53.2161,124.333 53.2053,124.377L 53.952,125.771C 53.9707,125.73 54.2318,125.562 54.7353,125.27C 55.2388,124.977 55.8726,124.81 56.6366,124.768C 57.2602,124.757 57.7666,124.923 58.156,125.267C 58.5454,125.611 58.7461,126.203 58.7581,127.041L 58.7581,127.225L 58.3376,127.225C 57.3858,127.168 56.2184,127.313 54.8356,127.66C 53.4527,128.007 52.6915,128.899 52.5519,130.337 Z M 54.3814,130.246C 54.4574,129.453 54.936,128.958 55.8172,128.76C 56.6983,128.562 57.5257,128.478 58.2994,128.508L 58.7772,128.508L 58.7772,128.798C 58.7676,129.513 58.5335,130.169 58.0748,130.764C 57.6161,131.359 56.9902,131.675 56.197,131.712C 55.5946,131.697 55.1415,131.546 54.8377,131.257C 54.5339,130.969 54.3818,130.632 54.3814,130.246 Z "/>
		<path fill="#646464" fill-opacity="0.803922" stroke-width="0.2" stroke-linejoin="round" d="M 63.2013,132.988L 65.012,132.988L 65.012,129.004C 65.0027,128.401 65.0774,127.817 65.2361,127.252C 65.462,126.525 65.8128,125.963 66.2885,125.566C 66.7641,125.168 67.2969,124.967 67.8869,124.962C 68.0312,124.964 68.1533,124.974 68.2532,124.99C 68.3532,125.007 68.4053,125.017 68.4096,125.019L 68.4096,123.34C 68.4053,123.339 68.3579,123.333 68.2672,123.322C 68.1766,123.312 68.0685,123.306 67.9429,123.305C 67.2082,123.319 66.5821,123.544 66.0644,123.98C 65.5468,124.417 65.1773,124.981 64.956,125.674L 64.9187,125.674C 64.9203,125.756 64.9265,125.74 64.9374,125.625C 64.9483,125.51 64.9545,125.349 64.956,125.144L 64.956,123.492L 63.2013,123.492L 63.2013,132.988 Z "/>
	</g>
	<path fill="none" stroke-width="2" stroke-linejoin="round" stroke="#646464" stroke-opacity="0.501961" d="M 5,1.00002L 109,1.00002C 111.209,1.00002 113,2.79088 113,5.00002L 113,109C 113,111.209 111.209,113 109,113L 5,113C 2.79086,113 1,111.209 1,109L 1,5.00002C 1,2.79088 2.79086,1.00002 5,1.00002 Z "/>
	<path fill="#646464" fill-opacity="1" stroke-width="0.2" stroke-linejoin="round" d="M 57,20.3333C 67.1252,20.3333 75.3334,28.5414 75.3334,38.6667C 75.3334,48.7919 67.1252,57 57,57C 46.8748,57 38.6667,48.7919 38.6667,38.6667C 38.6667,28.5414 46.8748,20.3333 57,20.3333 Z M 57,66.1666C 77.2505,66.1666 93.6667,74.3748 93.6667,84.5L 93.6667,93.6667L 20.3333,93.6667L 20.3334,84.5C 20.3334,74.3748 36.7496,66.1666 57,66.1666 Z "/>
	<path fill="#646464" fill-opacity="1" stroke-width="0.2" stroke-linejoin="round" d="M 196.997,61.5745C 184.773,61.5745 160.33,67.6932 160.33,79.9078L 160.33,93.6578L 233.664,93.6578L 233.664,79.9078C 233.664,67.6932 209.221,61.5745 196.997,61.5745 Z M 196.997,20.3245C 186.877,20.3245 178.664,28.5378 178.664,38.6578C 178.664,48.7732 186.877,56.9911 196.997,56.9911C 207.117,56.9911 215.33,48.7732 215.33,38.6578C 215.33,28.5378 207.117,20.3245 196.997,20.3245 Z M 196.997,70.2828C 210.628,70.2828 224.955,76.9607 224.955,79.9078L 224.955,84.9495L 169.039,84.9495L 169.039,79.9078C 169.039,76.9607 183.366,70.2828 196.997,70.2828 Z M 196.997,29.0328C 202.305,29.0328 206.622,33.3503 206.622,38.6578C 206.622,43.9653 202.305,48.2828 196.997,48.2828C 191.69,48.2828 187.372,43.9653 187.372,38.6578C 187.372,33.3503 191.69,29.0328 196.997,29.0328 Z "/>
	<path fill="#646464" fill-opacity="1" stroke-width="0.2" stroke-linejoin="round" d="M 360.708,66.1667C 379.693,66.1667 395.083,73.3488 395.083,82.2083L 395.083,93.6667L 326.333,93.6667L 326.333,82.2083C 326.333,73.3488 341.724,66.1667 360.708,66.1667 Z M 390.5,82.2083C 390.5,75.8801 377.162,70.75 360.708,70.75C 344.255,70.75 330.917,75.8801 330.917,82.2083L 330.917,89.0833L 390.5,89.0833L 390.5,82.2083 Z M 360.708,24.9167C 369.568,24.9167 376.75,32.0988 376.75,40.9584C 376.75,49.8179 369.568,57 360.708,57C 351.849,57 344.667,49.8179 344.667,40.9584C 344.667,32.0988 351.849,24.9167 360.708,24.9167 Z M 360.708,29.5C 354.38,29.5 349.25,34.6301 349.25,40.9584C 349.25,47.2866 354.38,52.4167 360.708,52.4167C 367.037,52.4167 372.167,47.2866 372.167,40.9584C 372.167,34.6301 367.037,29.5 360.708,29.5 Z "/>
	<path fill="none" stroke-width="2" stroke-linejoin="round" stroke="#646464" stroke-opacity="0.501961" d="M 311,1L 415,1C 417.209,1 419,2.79086 419,5L 419,109C 419,111.209 417.209,113 415,113L 311,113C 308.791,113 307,111.209 307,109L 307,5C 307,2.79086 308.791,1 311,1 Z "/>
	<g>
		<path fill="#646464" fill-opacity="0.803922" stroke-linejoin="round" d="M 310.905,132.988L 318.261,132.988L 318.261,131.892L 312.175,131.892L 312.175,119.945L 310.905,119.945L 310.905,132.988 Z "/>
		<path fill="#646464" fill-opacity="0.803922" stroke-linejoin="round" d="M 320.201,121.584L 321.527,121.584L 321.527,119.963L 320.201,119.963L 320.201,121.584 Z M 320.239,132.988L 321.508,132.988L 321.508,123.678L 320.239,123.678L 320.239,132.988 Z "/>
		<path fill="#646464" fill-opacity="0.803922" stroke-linejoin="round" d="M 325.26,135.162L 324.788,136.189C 325.718,136.654 326.737,136.893 327.847,136.908C 329.035,136.924 330.069,136.614 330.949,135.98C 331.829,135.346 332.291,134.294 332.335,132.827L 332.335,123.678L 331.103,123.678L 331.103,124.659C 331.109,124.858 331.115,124.959 331.121,124.962L 331.084,124.962C 331.11,124.918 330.905,124.677 330.468,124.241C 330.031,123.805 329.207,123.555 327.995,123.492C 326.729,123.51 325.744,123.939 325.042,124.779C 324.339,125.619 323.983,126.757 323.972,128.193C 323.987,129.633 324.363,130.787 325.098,131.654C 325.833,132.521 326.836,132.966 328.107,132.988C 329.54,132.968 330.526,132.433 331.065,131.385L 331.103,131.385C 331.101,131.391 331.095,131.458 331.084,131.588C 331.073,131.718 331.067,131.873 331.065,132.053L 331.065,132.88C 331.043,133.911 330.725,134.659 330.112,135.125C 329.499,135.59 328.725,135.819 327.791,135.812C 327.083,135.785 326.489,135.676 326.009,135.487C 325.529,135.297 325.279,135.189 325.26,135.162 Z M 328.312,131.892C 327.37,131.878 326.625,131.54 326.079,130.878C 325.532,130.216 325.253,129.315 325.241,128.174C 325.248,127.039 325.5,126.16 326,125.536C 326.499,124.913 327.208,124.597 328.126,124.588C 328.974,124.566 329.674,124.822 330.226,125.356C 330.778,125.889 331.064,126.835 331.084,128.193C 331.06,129.563 330.782,130.526 330.249,131.084C 329.716,131.642 329.07,131.911 328.312,131.892 Z "/>
		<path fill="#646464" fill-opacity="0.803922" stroke-linejoin="round" d="M 335.359,132.988L 336.628,132.988L 336.628,128.5C 336.622,128.046 336.672,127.631 336.778,127.252C 337.01,126.456 337.435,125.817 338.054,125.333C 338.673,124.85 339.394,124.602 340.217,124.588C 341.1,124.612 341.669,124.891 341.925,125.424C 342.18,125.958 342.294,126.604 342.265,127.364L 342.265,132.988L 343.535,132.988L 343.535,127.028C 343.549,125.871 343.315,124.992 342.833,124.394C 342.351,123.795 341.536,123.495 340.386,123.492C 339.315,123.529 338.465,123.789 337.838,124.273C 337.21,124.756 336.807,125.24 336.628,125.725L 336.591,125.725C 336.592,125.72 336.599,125.646 336.609,125.503C 336.62,125.361 336.627,125.18 336.628,124.961L 336.628,119.945L 335.359,119.945L 335.359,132.988 Z "/>
		<path fill="#646464" fill-opacity="0.803922" stroke-linejoin="round" d="M 346.745,129.545C 346.814,131.045 347.223,132.007 347.973,132.43C 348.723,132.853 349.402,133.039 350.012,132.988C 350.361,132.976 350.541,132.964 350.554,132.952L 350.554,131.854C 350.541,131.867 350.398,131.879 350.124,131.892C 349.726,131.926 349.286,131.788 348.804,131.477C 348.321,131.167 348.058,130.479 348.015,129.415L 348.015,124.759L 350.367,124.759L 350.367,123.695L 348.015,123.695L 348.015,120.988L 346.764,120.988L 346.764,123.695L 345.513,123.695L 345.513,124.759L 346.745,124.759L 346.745,129.545 Z "/>
	</g>
	<g>
		<path fill="#646464" fill-opacity="0.603922" stroke-width="0.2" stroke-linejoin="round" d="M 118.286,4.71399C 118.226,4.71968 117.987,5.04091 117.568,5.67767C 117.149,6.31444 116.91,7.23256 116.85,8.43207C 116.871,9.55626 117.176,10.4281 117.764,11.0476C 118.353,11.667 119.098,11.9812 119.999,11.99C 121.696,11.7633 122.768,10.8567 123.215,9.27C 123.663,7.68333 124.4,6.77666 125.427,6.55C 125.892,6.5603 126.282,6.75104 126.598,7.12219C 126.913,7.49336 127.077,7.98315 127.09,8.59157C 127.049,9.32234 126.885,9.91283 126.598,10.363C 126.31,10.8132 126.146,11.0448 126.105,11.0578L 127.414,11.7689C 127.46,11.7669 127.642,11.4982 127.962,10.9629C 128.282,10.4275 128.464,9.63704 128.51,8.59157C 128.491,7.51295 128.193,6.6443 127.617,5.9856C 127.041,5.32689 126.3,4.98836 125.394,4.97C 123.788,5.19667 122.752,6.10333 122.284,7.69C 121.817,9.27666 121.039,10.1833 119.95,10.41C 119.407,10.3947 118.991,10.202 118.704,9.83174C 118.417,9.46152 118.272,9.0056 118.27,8.46397C 118.321,7.61203 118.526,6.9257 118.884,6.40498C 119.242,5.88426 119.447,5.61661 119.498,5.60204L 118.286,4.71399 Z "/>
		<path fill="#646464" fill-opacity="0.603922" stroke-width="0.2" stroke-linejoin="round" d="M 121.096,13.45C 119.814,13.4805 118.79,13.9074 118.026,14.7306C 117.261,15.5537 116.869,16.5903 116.85,17.8401C 116.869,19.0899 117.261,20.1264 118.026,20.9495C 118.79,21.7727 119.814,22.1995 121.096,22.23C 122.37,22.1995 123.386,21.7727 124.145,20.9495C 124.903,20.1264 125.291,19.0899 125.31,17.8401C 125.291,16.5903 124.903,15.5537 124.145,14.7306C 123.386,13.9073 122.37,13.4805 121.096,13.45 Z M 121.096,15.03C 121.973,15.0512 122.681,15.3278 123.219,15.8597C 123.758,16.3916 124.035,17.0518 124.05,17.8401C 124.035,18.6355 123.758,19.2976 123.219,19.8264C 122.681,20.3553 121.973,20.6298 121.096,20.65C 120.211,20.6298 119.496,20.3553 118.951,19.8264C 118.406,19.2976 118.126,18.6355 118.11,17.8401C 118.126,17.0518 118.406,16.3916 118.951,15.8597C 119.496,15.3278 120.211,15.0512 121.096,15.03 Z "/>
		<path fill="#646464" fill-opacity="0.603922" stroke-width="0.2" stroke-linejoin="round" d="M 119.16,23.864C 118.225,23.8996 117.625,24.1523 117.36,24.622C 117.096,25.0917 116.979,25.5644 117.01,26.0401C 117.011,26.1804 117.016,26.2998 117.024,26.3981C 117.033,26.4964 117.038,26.5478 117.039,26.5521L 118.286,26.5521C 118.281,26.5334 118.275,26.4428 118.27,26.2801C 118.257,26.0341 118.328,25.8301 118.482,25.6681C 118.637,25.5061 118.955,25.4221 119.435,25.416L 128.35,25.416L 128.35,23.864L 119.16,23.864 Z "/>
		<path fill="#646464" fill-opacity="0.603922" stroke-width="0.2" stroke-linejoin="round" d="M 126.77,28.1679L 126.77,29.736L 128.35,29.736L 128.35,28.1679L 126.77,28.1679 Z M 117.01,28.184L 117.01,29.736L 125.15,29.736L 125.15,28.184L 117.01,28.184 Z "/>
		<path fill="#646464" fill-opacity="0.603922" stroke-width="0.2" stroke-linejoin="round" d="M 121.08,31.69C 119.777,31.7006 118.75,32.0225 117.999,32.6555C 117.248,33.2885 116.865,34.1689 116.85,35.2965C 116.909,36.3032 117.147,37.0105 117.562,37.4183C 117.977,37.8261 118.215,38.0227 118.274,38.008L 118.178,38.032C 118.085,38.0273 117.955,38.0246 117.789,38.024L 117.01,38.024L 117.01,39.496L 128.35,39.496L 128.35,37.9439L 124.62,37.9439C 124.474,37.9453 124.353,37.9506 124.258,37.96C 124.163,37.9693 124.113,37.9746 124.11,37.976L 124.11,37.9439C 124.16,37.9572 124.36,37.7713 124.71,37.3863C 125.06,37.0012 125.26,36.3373 125.31,35.3946C 125.299,34.2828 124.924,33.3918 124.186,32.7216C 123.447,32.0515 122.412,31.7076 121.08,31.69 Z M 121.08,33.27C 122.029,33.2877 122.76,33.5219 123.273,33.9727C 123.785,34.4235 124.044,34.9846 124.05,35.656C 124.019,36.4398 123.712,37.0252 123.127,37.4123C 122.542,37.7995 121.866,37.9927 121.096,37.992C 120.046,37.9692 119.284,37.7249 118.809,37.2591C 118.335,36.7933 118.102,36.2426 118.11,35.607C 118.121,34.909 118.39,34.3479 118.918,33.9237C 119.446,33.4995 120.167,33.2816 121.08,33.27 Z "/>
	</g>
	<g>
		<path fill="#646464" fill-opacity="0.603922" stroke-width="0.2" stroke-linejoin="round" d="M 262.753,3.81C 261.045,3.84581 259.643,4.39729 258.548,5.46445C 257.453,6.5316 256.887,7.89951 256.85,9.56816C 256.887,11.2361 257.453,12.6013 258.548,13.6637C 259.643,14.7261 261.045,15.2749 262.753,15.31C 264.419,15.2749 265.787,14.7261 266.854,13.6637C 267.922,12.6013 268.474,11.2361 268.51,9.56816C 268.474,7.89951 267.922,6.5316 266.854,5.46445C 265.787,4.39729 264.419,3.84581 262.753,3.81 Z M 262.753,5.39C 264.016,5.42001 265.048,5.82823 265.849,6.61464C 266.65,7.40105 267.064,8.38554 267.09,9.56816C 267.064,10.7501 266.65,11.7319 265.849,12.5135C 265.048,13.2952 264.016,13.7007 262.753,13.73C 261.448,13.7007 260.382,13.2952 259.553,12.5135C 258.725,11.7319 258.297,10.7501 258.27,9.56816C 258.297,8.38554 258.725,7.40105 259.553,6.61464C 260.382,5.82823 261.448,5.42001 262.753,5.39 Z "/>
		<path fill="#646464" fill-opacity="0.603922" stroke-width="0.2" stroke-linejoin="round" d="M 259.942,17.2639C 258.874,17.2659 258.091,17.498 257.591,17.9605C 257.092,18.4229 256.845,19.104 256.85,20.0039C 256.877,20.7815 257.084,21.4184 257.47,21.9148C 257.857,22.4111 258.263,22.7435 258.688,22.9119L 258.688,22.9439C 258.682,22.9426 258.623,22.9373 258.513,22.9279C 258.402,22.9186 258.26,22.9133 258.088,22.9119L 257.01,22.9119L 257.01,24.416L 265.15,24.416L 265.15,22.8639L 261.337,22.8639C 260.507,22.8578 259.796,22.6318 259.202,22.1861C 258.608,21.7404 258.298,21.112 258.27,20.3009C 258.284,19.6851 258.481,19.2794 258.861,19.0837C 259.24,18.888 259.719,18.7988 260.295,18.816L 265.15,18.816L 265.15,17.2639L 259.942,17.2639 Z "/>
		<path fill="#646464" fill-opacity="0.603922" stroke-width="0.2" stroke-linejoin="round" d="M 259.931,27.344C 258.659,27.4083 257.844,27.7956 257.485,28.506C 257.126,29.2164 256.967,29.8638 257.01,30.4481C 257.02,30.7895 257.03,30.9708 257.039,30.9922L 258.302,30.9922C 258.292,30.9815 258.281,30.8588 258.27,30.6242C 258.245,30.2931 258.348,29.9311 258.578,29.5381C 258.809,29.1451 259.319,28.9311 260.108,28.896L 263.736,28.896L 263.736,30.8482L 264.984,30.8482L 264.984,28.896L 267.32,28.896L 267.32,27.392L 264.984,27.392L 264.984,26.2879L 263.736,26.2879L 263.736,27.344L 259.931,27.344 Z "/>
		<path fill="#646464" fill-opacity="0.603922" stroke-width="0.2" stroke-linejoin="round" d="M 259.16,32.6239C 258.225,32.6596 257.625,32.9123 257.36,33.382C 257.096,33.8517 256.979,34.3244 257.01,34.8001C 257.011,34.9404 257.016,35.0598 257.024,35.1581C 257.033,35.2564 257.038,35.3078 257.039,35.3121L 258.286,35.3121C 258.281,35.2934 258.275,35.2028 258.27,35.0401C 258.257,34.7941 258.328,34.5901 258.482,34.428C 258.637,34.266 258.955,34.182 259.435,34.176L 268.35,34.176L 268.35,32.6239L 259.16,32.6239 Z "/>
		<path fill="#646464" fill-opacity="0.603922" stroke-width="0.2" stroke-linejoin="round" d="M 266.77,36.9279L 266.77,38.496L 268.35,38.496L 268.35,36.9279L 266.77,36.9279 Z M 257.01,36.9439L 257.01,38.496L 265.15,38.496L 265.15,36.9439L 257.01,36.9439 Z "/>
		<path fill="#646464" fill-opacity="0.603922" stroke-width="0.2" stroke-linejoin="round" d="M 257.01,40.9439L 257.01,42.496L 260.811,42.496C 261.215,42.4905 261.578,42.5346 261.901,42.6284C 262.497,42.8111 262.974,43.1365 263.335,43.6046C 263.695,44.0727 263.88,44.6297 263.89,45.2757C 263.876,45.9282 263.679,46.3604 263.299,46.5724C 262.918,46.7843 262.436,46.8815 261.853,46.864L 257.01,46.864L 257.01,48.416L 262.206,48.416C 263.24,48.4199 264.015,48.1922 264.533,47.7328C 265.051,47.2734 265.31,46.5591 265.31,45.59C 265.277,44.6834 265.056,43.9734 264.648,43.46C 264.239,42.9466 263.842,42.6093 263.457,42.448L 263.457,42.416C 263.587,42.4267 263.812,42.4374 264.132,42.448L 265.15,42.448L 265.15,40.9439L 257.01,40.9439 Z "/>
		<path fill="#646464" fill-opacity="0.603922" stroke-width="0.2" stroke-linejoin="round" d="M 261.061,50.05C 259.817,50.0691 258.81,50.4616 258.04,51.2275C 257.269,51.9934 256.873,53.0179 256.85,54.3009C 256.895,55.2729 257.075,56.0337 257.39,56.5833C 257.705,57.1329 257.885,57.4125 257.93,57.4223L 259.078,56.7839C 259.038,56.7709 258.876,56.5459 258.594,56.1088C 258.312,55.6718 258.15,55.1009 258.11,54.3963C 258.11,53.66 258.339,53.0301 258.797,52.5064C 259.255,51.9827 259.939,51.6906 260.85,51.63L 260.85,57.5021C 260.864,57.5041 260.945,57.5121 261.093,57.526C 261.241,57.54 261.371,57.548 261.483,57.55C 262.563,57.5468 263.462,57.2499 264.179,56.6592C 264.896,56.0685 265.269,55.2029 265.296,54.0625C 265.28,52.8937 264.894,51.9388 264.139,51.1977C 263.384,50.4567 262.358,50.0741 261.061,50.05 Z M 261.95,51.6777C 262.633,51.7996 263.155,52.0725 263.517,52.4965C 263.879,52.9204 264.061,53.4318 264.064,54.0307C 264.065,54.5606 263.891,55.0071 263.542,55.3701C 263.192,55.7331 262.662,55.933 261.95,55.97L 261.95,51.6777 Z "/>
	</g>
	<path fill="none" stroke-width="2" stroke-linejoin="round" stroke="#646464" stroke-opacity="0.501961" d="M 145,1L 249,1C 251.209,1 253,2.79088 253,5.00002L 253,109C 253,111.209 251.209,113 249,113L 145,113C 142.791,113 141,111.209 141,109L 141,5.00002C 141,2.79088 142.791,1 145,1 Z "/>
	<ellipse fill="#646464" fill-opacity="0.603922" stroke-width="0.2" stroke-linejoin="round" cx="123" cy="105" rx="7" ry="7"/>
	<path fill="#646464" fill-opacity="0.603922" stroke-width="0.2" stroke-linejoin="round" d="M 263,98C 266.866,98 270,101.134 270,105C 270,108.866 266.866,112 263,112C 259.134,112 256,108.866 256,105C 256,101.134 259.134,98 263,98 Z M 263,100C 260.239,100 258,102.239 258,105C 258,107.761 260.239,110 263,110C 265.761,110 268,107.761 268,105C 268,102.239 265.761,100 263,100 Z "/>
	<path fill="#646464" fill-opacity="0.603922" stroke-width="0.2" stroke-linejoin="round" d="M 297,98C 300.866,98 304,101.134 304,105C 304,108.866 300.866,112 297,112C 293.134,112 290,108.866 290,105C 290,101.134 293.134,98 297,98 Z M 297,99C 293.686,99 291,101.686 291,105C 291,108.314 293.686,111 297,111C 300.314,111 303,108.314 303,105C 303,101.686 300.314,99 297,99 Z "/>
</svg>
