<?xml version="1.0" encoding="utf-8"?>
<!DOCTYPE svg PUBLIC "-//W3C//DTD SVG 1.1//EN" "http://www.w3.org/Graphics/SVG/1.1/DTD/svg11.dtd">
<svg xmlns="http://www.w3.org/2000/svg" xmlns:xlink="http://www.w3.org/1999/xlink" version="1.1" baseProfile="full" width="420" height="140" viewBox="0 0 420.00 140.00" enable-background="new 0 0 420.00 140.00" xml:space="preserve">
	<path fill="#000000" fill-opacity="1" stroke-width="0.2" stroke-linejoin="round" d="M 59.5805,46.2411L 84.7889,46.2411L 59.5805,21.0328L 59.5805,46.2411 Z M 27.4972,14.1578L 64.1639,14.1578L 91.6639,41.6578L 91.6639,96.6578C 91.6639,101.718 87.5572,105.824 82.4972,105.824L 27.4513,105.824C 22.3913,105.824 18.3305,101.718 18.3305,96.6578L 18.3764,23.3245C 18.3764,18.2645 22.4325,14.1578 27.4972,14.1578 Z M 50.4167,23.3333L 27.5,23.3333L 27.5,96.6667L 50.4167,96.6667L 82.5,96.6667L 82.5,55.4167L 50.4167,55.4167L 50.4167,23.3333 Z "/>
	<path fill="#646464" fill-opacity="0.603922" stroke-width="0.2" stroke-linejoin="round" d="M 4,5.00005L 106,5.00005C 108.209,5.00005 110,6.79091 110,9.00005L 110,111C 110,113.209 108.209,115 106,115L 4,115C 1.79086,115 0,113.209 0,111L 0,9.00005C 0,6.79091 1.79086,5.00005 4,5.00005 Z "/>
	<g>
		<path fill="#000000" fill-opacity="1" stroke-linejoin="round" d="M 28.6,124.777C 28.0817,125.349 27.2817,126.369 26.2,127.838C 25.1183,129.301 24.3579,130.243 23.9187,130.664C 23.4796,131.085 23.1183,131.295 22.835,131.295C 22.6217,131.295 22.4129,131.135 22.2087,130.816C 22.0046,130.497 21.74,129.852 21.415,128.88C 20.7467,126.903 20.3258,125.764 20.1525,125.463C 20.0908,125.639 20.0208,125.927 19.9425,126.327C 19.7742,127.168 19.5517,128.193 19.275,129.402C 18.7367,131.723 18.4308,133.259 18.3575,134.012C 18.3475,134.106 18.2629,134.207 18.1038,134.316C 17.9446,134.425 17.8158,134.48 17.7175,134.48C 17.5292,134.48 17.3558,134.386 17.1975,134.199C 17.0392,134.011 16.96,133.828 16.96,133.65C 16.96,133.192 17.1125,132.392 17.4175,131.25L 18.1075,128.685C 18.5292,127.068 18.79,125.88 18.89,125.119C 18.99,124.358 19.04,123.758 19.04,123.32C 19.04,122.867 19.3942,122.64 20.1025,122.64C 20.2508,122.64 20.4079,122.772 20.5737,123.035C 20.7396,123.298 20.8483,123.528 20.9,123.725C 20.9667,123.923 21.0467,124.145 21.14,124.39L 22.1775,127.32C 22.5858,128.518 22.8379,129.194 22.9337,129.348C 23.0296,129.501 23.1083,129.577 23.17,129.577C 23.4333,129.521 24.365,128.378 25.965,126.147C 27.7483,123.702 28.7658,122.48 29.0175,122.48C 29.2242,122.48 29.4529,122.561 29.7037,122.724C 29.9546,122.886 30.08,123.027 30.08,123.145C 30.08,123.197 29.9458,124.329 29.6775,126.543C 29.5792,127.364 29.4883,128.349 29.405,129.496C 29.3217,130.644 29.28,131.29 29.28,131.435C 29.28,131.698 29.3083,131.992 29.365,132.318C 29.415,132.607 29.44,132.84 29.44,133.015C 29.44,133.153 29.415,133.355 29.365,133.621C 29.315,133.887 29.2054,134.043 29.0362,134.09C 28.8671,134.137 28.7325,134.16 28.6325,134.16C 28.1042,134.16 27.84,133.709 27.84,132.807C 27.84,131.984 28.0375,129.969 28.4325,126.762C 28.4608,126.504 28.475,126.344 28.475,126.283C 28.475,126.243 28.5067,126.07 28.57,125.765C 28.6167,125.508 28.64,125.293 28.64,125.118C 28.64,124.948 28.6267,124.834 28.6,124.777 Z "/>
		<path fill="#000000" fill-opacity="1" stroke-linejoin="round" d="M 37.44,131.262C 36.7117,132.227 35.9908,132.952 35.2775,133.435C 34.5642,133.918 33.91,134.16 33.315,134.16C 32.915,134.16 32.5692,133.99 32.2775,133.65C 31.9858,133.31 31.84,132.873 31.84,132.34C 31.84,130.967 32.4613,129.487 33.7037,127.9C 34.9462,126.313 36.1808,125.52 37.4075,125.52C 37.8525,125.52 38.1833,125.76 38.4,126.24C 38.4683,126.4 38.5767,126.48 38.725,126.48C 39.1483,126.48 39.36,126.645 39.36,126.975C 39.36,127.14 39.3267,127.366 39.26,127.652C 38.9,129.221 38.72,130.327 38.72,130.973C 38.72,132.259 38.9725,133.03 39.4775,133.285C 39.7192,133.41 39.84,133.563 39.84,133.745C 39.84,133.907 39.7267,134.07 39.5,134.234C 39.2733,134.398 39.0542,134.48 38.8425,134.48C 38.4358,134.48 38.1004,134.201 37.8362,133.644C 37.5721,133.086 37.44,132.292 37.44,131.262 Z M 37.03,126.8C 36.345,126.8 35.5487,127.449 34.6412,128.746C 33.7337,130.044 33.28,131.12 33.28,131.975C 33.28,132.578 33.4767,132.88 33.87,132.88C 34.4417,132.88 35.2329,132.298 36.2437,131.134C 37.2546,129.97 37.76,128.9 37.76,127.925C 37.76,127.175 37.5167,126.8 37.03,126.8 Z "/>
		<path fill="#000000" fill-opacity="1" stroke-linejoin="round" d="M 43.2575,130.895C 43.3092,130.8 43.3717,130.668 43.445,130.5C 43.7983,129.682 44.1238,129.04 44.4213,128.575C 44.7188,128.11 45.0458,127.665 45.4025,127.24C 45.7592,126.815 46.0846,126.492 46.3788,126.271C 46.6729,126.05 46.9396,125.897 47.1788,125.81C 47.4179,125.723 47.65,125.68 47.875,125.68C 48.3283,125.68 48.6979,125.822 48.9838,126.106C 49.2696,126.39 49.4125,126.723 49.4125,127.103C 49.4125,127.269 49.3621,127.42 49.2612,127.556C 49.1604,127.692 49.0058,127.76 48.7975,127.76C 48.5775,127.76 48.3767,127.653 48.195,127.44C 48.0067,127.227 47.8117,127.12 47.61,127.12C 47.0683,127.12 46.3183,127.781 45.36,129.104C 44.4017,130.426 43.8183,131.883 43.61,133.473C 43.5567,133.883 43.4571,134.153 43.3113,134.284C 43.1654,134.415 42.96,134.48 42.695,134.48C 42.44,134.48 42.255,134.287 42.14,133.901C 42.025,133.515 41.9675,132.864 41.9675,131.947C 41.9675,131.699 41.9808,131.152 42.0075,130.305C 42.0392,129.307 42.1017,128.5 42.195,127.885C 42.21,127.785 42.2358,127.55 42.2725,127.18C 42.3092,126.772 42.355,126.488 42.41,126.33C 42.465,126.172 42.5771,126.024 42.7463,125.886C 42.9154,125.749 43.0992,125.68 43.2975,125.68C 43.4892,125.68 43.6333,125.743 43.73,125.868C 43.8267,125.993 43.875,126.127 43.875,126.27C 43.875,126.477 43.8225,126.769 43.7175,127.147C 43.5975,127.568 43.5275,127.857 43.5075,128.018C 43.4925,128.197 43.4642,128.386 43.4225,128.583C 43.3692,128.811 43.3167,129.412 43.265,130.385L 43.2575,130.68L 43.2575,130.895 Z "/>
		<path fill="#000000" fill-opacity="1" stroke-linejoin="round" d="M 51.29,130.41C 51.3583,130.322 51.8242,129.902 52.6875,129.15C 53.5058,128.413 54.0758,127.878 54.3975,127.545C 55.6008,126.302 56.465,125.68 56.99,125.68C 57.3967,125.68 57.6,125.875 57.6,126.265C 57.6,126.708 57.3992,127.034 56.9975,127.243C 56.4758,127.509 55.7792,127.952 54.9075,128.572C 54.0358,129.193 53.6,129.631 53.6,129.887C 53.6,129.991 53.905,130.381 54.515,131.059C 55.125,131.736 55.6525,132.236 56.0975,132.557C 56.5425,132.879 56.9742,133.04 57.3925,133.04L 57.6475,133.033C 57.8292,133.023 57.92,133.102 57.92,133.273C 57.92,133.501 57.7783,133.732 57.495,133.967C 57.2117,134.202 56.8383,134.32 56.375,134.32C 56.0767,134.32 55.7742,134.217 55.4675,134.012C 55.1608,133.807 54.6167,133.253 53.835,132.35C 53.2117,131.605 52.8225,131.16 52.6675,131.016C 52.5125,130.872 52.3842,130.8 52.2825,130.8C 52.2258,130.8 52.0454,130.933 51.7413,131.2C 51.4371,131.467 51.2708,131.669 51.2425,131.807C 51.2142,131.946 51.2,132.473 51.2,133.39L 51.2,133.75C 51.2,133.94 51.1071,134.109 50.9212,134.258C 50.7354,134.406 50.5342,134.48 50.3175,134.48C 50.0942,134.48 49.9188,134.417 49.7912,134.29C 49.6638,134.163 49.6,134.033 49.6,133.898C 49.6,133.711 49.67,133.27 49.81,132.575C 50.0067,131.573 50.1875,130.232 50.3525,128.553C 50.7425,124.586 51.0433,122.342 51.255,121.821C 51.4667,121.3 51.7675,121.04 52.1575,121.04C 52.2942,121.04 52.4088,121.113 52.5013,121.259C 52.5938,121.405 52.64,121.592 52.64,121.823C 52.64,122.239 52.4567,123.346 52.09,125.143C 51.7217,126.946 51.455,128.702 51.29,130.41 Z "/>
		<path fill="#000000" fill-opacity="1" stroke-linejoin="round" d="M 64.8375,130.745C 64.1458,131.838 63.4133,132.681 62.64,133.273C 61.8667,133.864 61.155,134.16 60.505,134.16C 60.005,134.16 59.6092,133.968 59.3175,133.585C 59.0258,133.202 58.88,132.692 58.88,132.055C 58.88,130.753 59.4112,129.419 60.4737,128.051C 61.5362,126.684 62.6833,126 63.915,126C 64.4533,126 64.9525,126.235 65.4125,126.705L 66.525,121.603C 66.6033,121.254 66.7479,121.02 66.9587,120.9C 67.1696,120.78 67.3342,120.72 67.4525,120.72C 67.8175,120.72 68,121.042 68,121.685C 68,121.798 67.8825,122.223 67.6475,122.96C 67.2725,124.1 66.9175,125.501 66.5825,127.162C 66.2475,128.824 66.08,130.158 66.08,131.165C 66.08,132.202 66.31,132.72 66.77,132.72C 67.0667,132.72 67.3742,132.613 67.6925,132.398C 67.8242,132.292 67.9483,132.24 68.065,132.24C 68.235,132.24 68.32,132.348 68.32,132.565C 68.32,132.828 68.0804,133.133 67.6012,133.48C 67.1221,133.827 66.63,134 66.125,134C 65.2417,134 64.8,133.192 64.8,131.575C 64.8,131.302 64.8125,131.025 64.8375,130.745 Z M 63.875,127.12C 63.04,127.12 62.2121,127.682 61.3912,128.806C 60.5704,129.93 60.16,130.968 60.16,131.92C 60.16,132.56 60.3742,132.88 60.8025,132.88C 61.2058,132.88 61.695,132.67 62.27,132.25C 62.845,131.83 63.4371,131.16 64.0462,130.241C 64.6554,129.322 64.96,128.633 64.96,128.173C 64.96,127.948 64.8554,127.716 64.6462,127.478C 64.4371,127.239 64.18,127.12 63.875,127.12 Z "/>
		<path fill="#000000" fill-opacity="1" stroke-linejoin="round" d="M 72.0975,134.48C 71.3742,134.48 70.7771,134.208 70.3063,133.663C 69.8354,133.117 69.6,132.444 69.6,131.643C 69.6,130.292 70.0588,128.961 70.9762,127.649C 71.8938,126.336 72.9925,125.68 74.2725,125.68C 75.1192,125.68 75.8054,126.002 76.3312,126.646C 76.8571,127.29 77.12,128.057 77.12,128.947C 77.12,130.311 76.5767,131.574 75.49,132.736C 74.4033,133.899 73.2725,134.48 72.0975,134.48 Z M 71.04,131.42C 71.04,131.943 71.1525,132.371 71.3775,132.702C 71.6025,133.034 71.9008,133.2 72.2725,133.2C 73.0608,133.2 73.8525,132.777 74.6475,131.93C 75.4425,131.083 75.84,130.142 75.84,129.105C 75.84,128.468 75.6875,127.952 75.3825,127.555C 75.0775,127.158 74.6683,126.96 74.155,126.96C 73.3017,126.96 72.5692,127.472 71.9575,128.495C 71.3458,129.518 71.04,130.493 71.04,131.42 Z "/>
		<path fill="#000000" fill-opacity="1" stroke-linejoin="round" d="M 85.1325,128.695C 84.9975,128.7 84.6733,129.307 84.16,130.515C 83.6983,131.51 83.2258,132.42 82.7425,133.244C 82.2592,134.068 81.905,134.48 81.68,134.48C 81.0283,134.48 80.4254,133.51 79.8713,131.571C 79.3171,129.632 79.04,128.07 79.04,126.885C 79.04,126.502 79.1379,126.184 79.3337,125.931C 79.5296,125.679 79.7625,125.542 80.0325,125.52C 80.0692,125.515 80.1358,125.516 80.2325,125.524C 80.3292,125.531 80.4475,125.618 80.5875,125.785C 80.7275,125.952 80.7975,126.115 80.7975,126.275L 80.7975,126.305C 80.7975,126.368 80.7683,126.633 80.71,127.1C 80.6633,127.443 80.64,127.863 80.64,128.36C 80.64,129.148 80.7879,130.019 81.0837,130.971C 81.3796,131.924 81.6283,132.4 81.83,132.4C 81.975,132.4 82.455,131.602 83.27,130.005C 83.7833,128.99 84.1517,128.291 84.375,127.908L 84.6075,127.435C 84.9742,126.742 85.3217,126.263 85.65,126C 86.0433,126.057 86.24,126.28 86.24,126.67C 86.24,126.8 86.24,126.909 86.24,126.997C 86.24,127.086 86.24,127.195 86.24,127.325C 86.24,128.285 86.49,129.291 86.99,130.342C 87.49,131.394 87.8467,131.92 88.06,131.92C 88.2167,131.92 88.4642,131.369 88.8025,130.268C 89.2592,128.773 89.6808,127.651 90.0675,126.902C 90.4542,126.154 90.7379,125.71 90.9188,125.57C 91.0996,125.43 91.3042,125.36 91.5325,125.36C 91.6625,125.36 91.7729,125.415 91.8637,125.526C 91.9546,125.637 92,125.757 92,125.885C 92,126.075 91.9717,126.207 91.915,126.28C 91.2733,127.118 90.6583,128.429 90.07,130.212C 89.5583,131.741 89.2075,132.701 89.0175,133.092C 88.8275,133.484 88.6692,133.68 88.5425,133.68C 87.9042,133.68 87.3821,133.45 86.9762,132.989C 86.5704,132.528 86.0325,131.303 85.3625,129.313C 85.2825,129.077 85.2058,128.872 85.1325,128.695 Z "/>
		<path fill="#000000" fill-opacity="1" stroke-linejoin="round" d="M 98.3725,128.08C 98.1058,128.08 97.8146,128.257 97.4987,128.611C 97.1829,128.965 96.7025,129.759 96.0575,130.992C 95.1842,132.649 94.62,133.592 94.365,133.821C 94.11,134.05 93.8983,134.165 93.73,134.165C 93.11,134.165 92.8,133.868 92.8,133.275C 92.8,133.025 92.8483,132.671 92.945,132.212C 93.275,130.639 93.44,128.973 93.44,127.213C 93.44,127.009 93.5221,126.783 93.6862,126.534C 93.8504,126.285 94.0058,126.16 94.1525,126.16C 94.4158,126.16 94.6029,126.265 94.7137,126.474C 94.8246,126.683 94.88,127.04 94.88,127.545C 94.88,128.072 94.72,129.155 94.4,130.795C 94.2933,131.337 94.24,131.681 94.24,131.827L 94.3025,131.952C 94.3808,131.952 94.745,131.33 95.395,130.085C 96.0367,128.818 96.5987,127.927 97.0812,127.412C 97.5637,126.897 98.095,126.64 98.675,126.64C 99.1367,126.64 99.5125,126.85 99.8025,127.27C 100.092,127.69 100.304,128.457 100.438,129.57C 100.581,130.837 100.71,131.625 100.826,131.935C 100.942,132.245 101.125,132.4 101.375,132.4C 101.535,132.4 101.736,132.342 102.07,132.24C 102.29,132.24 102.4,132.364 102.4,132.613C 102.4,132.833 102.249,133.065 101.946,133.311C 101.644,133.557 101.28,133.68 100.855,133.68C 100.42,133.68 100.083,133.505 99.845,133.156C 99.6067,132.807 99.4175,131.875 99.2775,130.36C 99.1342,128.84 98.8325,128.08 98.3725,128.08 Z "/>
	</g>
	<g>
		<path fill="#000000" fill-opacity="1" stroke-linejoin="round" d="M 148.898,131.717C 147.009,133.239 145.303,134 143.777,134C 142.916,134 142.231,133.74 141.723,133.22C 141.214,132.7 140.96,131.98 140.96,131.06C 140.96,128.85 141.894,126.787 143.762,124.872C 145.631,122.957 147.567,122 149.57,122C 150.16,122 150.632,122.112 150.988,122.335C 151.342,122.558 151.52,122.842 151.52,123.185C 151.52,123.483 151.412,123.814 151.195,124.176C 150.978,124.539 150.768,124.72 150.565,124.72C 150.43,124.72 150.318,124.607 150.23,124.382C 150.087,124.027 149.931,123.782 149.762,123.645C 149.594,123.508 149.336,123.44 148.988,123.44C 148.098,123.44 147.098,123.869 145.989,124.727C 144.88,125.586 144.004,126.57 143.363,127.68C 142.721,128.79 142.4,129.865 142.4,130.905C 142.4,132.115 142.943,132.72 144.03,132.72C 144.532,132.72 145.11,132.591 145.764,132.332C 146.418,132.074 147.118,131.683 147.864,131.159C 148.61,130.635 149.062,130.174 149.221,129.777C 149.38,129.381 149.506,128.84 149.598,128.155C 149.649,127.785 149.92,127.6 150.41,127.6C 150.937,127.6 151.2,127.762 151.2,128.085C 151.2,128.232 151.122,128.492 150.967,128.867C 150.716,129.472 150.528,130.023 150.405,130.519C 150.282,131.015 150.17,131.588 150.07,132.24C 149.97,132.892 149.92,133.356 149.92,133.632C 149.92,133.878 149.967,134.24 150.063,134.72C 150.077,134.818 150.085,134.902 150.085,134.97C 150.085,135.152 150.02,135.329 149.89,135.501C 149.76,135.674 149.599,135.76 149.408,135.76C 149.196,135.76 148.988,135.673 148.785,135.5C 148.582,135.327 148.48,135.133 148.48,134.92C 148.48,134.755 148.577,134.012 148.77,132.69C 148.83,132.275 148.872,131.951 148.898,131.717 Z "/>
		<path fill="#000000" fill-opacity="1" stroke-linejoin="round" d="M 156.05,123.6C 155.943,123.6 155.863,123.485 155.807,123.255C 155.787,123.182 155.76,123.102 155.725,123.015C 155.588,122.682 155.52,122.392 155.52,122.145C 155.52,121.94 155.64,121.731 155.879,121.519C 156.118,121.306 156.384,121.2 156.678,121.2C 156.822,121.2 156.986,121.257 157.167,121.372C 157.349,121.487 157.44,121.599 157.44,121.707C 157.44,121.877 157.378,122.165 157.255,122.57C 157.132,122.975 156.935,123.248 156.665,123.389C 156.395,123.53 156.19,123.6 156.05,123.6 Z M 155.04,132.32C 155.04,132.717 155.085,133.162 155.175,133.658C 155.192,133.753 155.2,133.831 155.2,133.893C 155.2,133.986 155.112,134.107 154.936,134.256C 154.76,134.405 154.573,134.48 154.375,134.48C 153.858,134.48 153.6,134.015 153.6,133.085C 153.6,132.125 153.798,130.607 154.195,128.53C 154.332,127.803 154.4,127.357 154.4,127.19C 154.4,126.862 154.462,126.581 154.586,126.349C 154.71,126.116 154.885,126 155.11,126C 155.385,126 155.602,126.064 155.761,126.191C 155.92,126.319 156,126.461 156,126.617C 156,126.774 155.964,126.981 155.893,127.237C 155.509,128.616 155.271,129.602 155.179,130.197C 155.086,130.792 155.04,131.5 155.04,132.32 Z "/>
		<path fill="#000000" fill-opacity="1" stroke-linejoin="round" d="M 161.387,126.16C 161.921,126.13 162.423,126.095 162.895,126.055C 163.36,126.018 163.748,126 164.06,126C 164.453,126 164.702,126.035 164.805,126.104C 164.908,126.173 164.96,126.294 164.96,126.467C 164.96,126.867 164.67,127.085 164.09,127.12C 163.345,127.167 162.659,127.231 162.033,127.313C 161.406,127.394 161.068,127.462 161.019,127.516C 160.97,127.57 160.814,128.182 160.553,129.351C 160.291,130.52 160.16,131.28 160.16,131.63C 160.16,132.195 160.236,132.571 160.387,132.759C 160.539,132.946 160.767,133.04 161.07,133.04C 161.522,133.04 162.148,132.7 162.947,132.02C 163.256,131.74 163.494,131.6 163.663,131.6C 163.887,131.6 164,131.72 164,131.96C 164,132.337 163.633,132.824 162.899,133.423C 162.165,134.021 161.413,134.32 160.645,134.32C 159.362,134.32 158.72,133.602 158.72,132.165C 158.72,131.647 158.855,130.843 159.125,129.755C 159.388,128.672 159.52,128.022 159.52,127.805C 159.52,127.728 159.455,127.69 159.325,127.69L 158.48,127.76C 157.787,127.76 157.44,127.488 157.44,126.945C 157.44,126.635 157.596,126.48 157.908,126.48L 159.535,126.48C 159.647,126.48 159.745,126.43 159.829,126.33C 159.913,126.23 160.037,125.895 160.2,125.324C 160.363,124.753 160.508,124.188 160.635,123.63C 160.76,123.077 161.005,122.8 161.37,122.8C 161.593,122.8 161.768,122.877 161.893,123.03C 162.018,123.183 162.08,123.326 162.08,123.457C 162.08,123.529 161.992,123.894 161.815,124.552L 161.387,126.16 Z "/>
		<path fill="#000000" fill-opacity="1" stroke-linejoin="round" d="M 175.927,122C 176.116,122 176.282,122.071 176.425,122.214C 176.568,122.356 176.64,122.536 176.64,122.752C 176.64,123.121 176.541,123.926 176.342,125.167C 176.099,126.689 175.928,128.31 175.829,130.031C 175.73,131.752 175.68,132.83 175.68,133.265C 175.68,133.503 175.572,133.739 175.356,133.971C 175.14,134.204 174.952,134.32 174.79,134.32C 174.618,134.32 174.457,134.253 174.306,134.12C 174.155,133.987 174.08,133.819 174.08,133.617C 174.08,133.436 174.138,132.794 174.255,131.692C 174.352,130.761 174.4,130.088 174.4,129.675C 174.4,129.433 174.364,129.267 174.291,129.176C 174.219,129.085 174.097,129.04 173.925,129.04C 173.667,129.04 173.159,129.059 172.402,129.097C 171.584,129.166 171.074,129.2 170.872,129.2C 170.659,129.2 170.119,129.233 169.251,129.299C 168.384,129.365 167.905,129.422 167.814,129.471C 167.723,129.52 167.63,129.857 167.534,130.48C 167.438,131.103 167.38,131.622 167.36,132.035C 167.335,132.743 167.257,133.328 167.125,133.789C 166.993,134.25 166.822,134.48 166.612,134.48C 166.467,134.48 166.289,134.361 166.077,134.124C 165.866,133.886 165.76,133.647 165.76,133.408C 165.76,133.199 165.822,132.842 165.947,132.337C 166.119,131.643 166.327,130.403 166.57,128.62C 166.813,126.837 167.023,124.983 167.2,123.06C 167.21,122.933 167.282,122.805 167.417,122.675C 167.552,122.545 167.696,122.48 167.847,122.48C 168.376,122.48 168.64,122.852 168.64,123.597C 168.64,124.036 168.527,124.741 168.3,125.712C 168.1,126.589 168,127.222 168,127.612C 168,127.776 168.052,127.895 168.156,127.969C 168.26,128.043 168.507,128.08 168.897,128.08C 169.751,128.08 170.9,128.011 172.345,127.872C 173.79,127.734 174.568,127.536 174.68,127.277C 174.792,127.019 174.906,126.432 175.024,125.515C 175.141,124.598 175.2,123.641 175.2,122.642C 175.2,122.527 175.277,122.392 175.43,122.235C 175.583,122.078 175.749,122 175.927,122 Z "/>
		<path fill="#000000" fill-opacity="1" stroke-linejoin="round" d="M 184.253,130.592C 183.573,131.726 182.876,132.604 182.164,133.226C 181.451,133.849 180.789,134.16 180.178,134.16C 179.827,134.16 179.47,133.958 179.106,133.555C 178.742,133.152 178.56,132.531 178.56,131.692C 178.56,131.007 178.734,129.997 179.083,128.66C 179.374,127.545 179.52,126.762 179.52,126.313C 179.672,125.997 179.91,125.84 180.235,125.84C 180.457,125.84 180.633,125.916 180.764,126.069C 180.895,126.221 180.96,126.381 180.96,126.547C 180.96,126.911 180.831,127.427 180.573,128.095C 180.084,129.395 179.84,130.512 179.84,131.445C 179.84,132.295 180.042,132.72 180.445,132.72C 180.96,132.72 181.615,132.287 182.41,131.423C 183.205,130.557 183.887,129.352 184.455,127.805C 184.673,127.187 184.852,126.785 184.99,126.599C 185.128,126.413 185.315,126.32 185.55,126.32C 185.903,126.32 186.08,126.557 186.08,127.03C 186.08,127.088 186.028,127.281 185.925,127.607C 185.602,128.761 185.44,129.851 185.44,130.878C 185.44,132.111 185.641,132.909 186.042,133.272C 186.251,133.466 186.355,133.622 186.355,133.742C 186.355,133.887 186.249,134.02 186.037,134.14C 185.826,134.26 185.634,134.32 185.463,134.32C 185.099,134.32 184.805,134.049 184.581,133.507C 184.357,132.966 184.245,132.166 184.245,131.107L 184.245,130.85C 184.245,130.767 184.247,130.681 184.253,130.592 Z "/>
		<path fill="#000000" fill-opacity="1" stroke-linejoin="round" d="M 189.76,129.567C 190.43,128.362 191.23,127.387 192.16,126.64C 193.09,125.893 193.929,125.52 194.678,125.52C 195.091,125.52 195.441,125.71 195.729,126.09C 196.016,126.47 196.16,126.933 196.16,127.48C 196.16,129.098 195.553,130.616 194.339,132.034C 193.125,133.451 191.842,134.16 190.49,134.16C 190.122,134.16 189.784,134.06 189.476,133.861C 189.169,133.662 188.997,133.412 188.96,133.112C 188.942,132.871 188.88,132.69 188.775,132.57C 188.578,132.348 188.48,132.111 188.48,131.857C 188.48,131.387 188.587,130.382 188.8,128.842L 189.625,124.207C 189.91,122.651 190.118,121.689 190.249,121.322C 190.38,120.956 190.525,120.71 190.685,120.586C 190.845,120.462 191.042,120.4 191.278,120.4C 191.653,120.4 191.84,120.711 191.84,121.332C 191.84,121.922 191.625,122.749 191.195,123.812C 190.78,124.834 190.302,126.752 189.76,129.567 Z M 189.6,132.143C 189.87,132.634 190.197,132.88 190.58,132.88C 191.172,132.88 191.797,132.64 192.455,132.161C 193.113,131.682 193.682,131.008 194.161,130.14C 194.64,129.272 194.88,128.538 194.88,127.94C 194.88,127.672 194.831,127.441 194.732,127.249C 194.634,127.056 194.51,126.96 194.36,126.96C 193.638,126.96 192.758,127.536 191.719,128.689C 190.68,129.841 189.973,130.992 189.6,132.143 Z "/>
	</g>
	<g>
		<path fill="#000000" fill-opacity="1" stroke-linejoin="round" d="M 307.293,128.76C 307.497,128.76 307.6,128.883 307.6,129.13C 307.6,129.387 307.31,129.755 306.73,130.234C 306.15,130.713 305.48,131.094 304.719,131.376C 303.958,131.659 303.262,131.8 302.63,131.8C 301.705,131.8 300.862,131.493 300.101,130.88C 299.34,130.267 298.96,129.378 298.96,128.215C 298.96,126.092 299.87,124.025 301.691,122.015C 303.512,120.005 305.267,119 306.955,119C 307.587,119 308.092,119.199 308.471,119.598C 308.85,119.996 309.04,120.459 309.04,120.988C 309.04,121.479 309.012,121.867 308.955,122.15C 308.898,122.433 308.726,122.673 308.438,122.868C 308.149,123.063 307.918,123.16 307.745,123.16C 307.62,123.16 307.511,123.107 307.419,123C 307.326,122.893 307.28,122.749 307.28,122.568C 307.28,122.444 307.333,122.188 307.44,121.798C 307.547,121.412 307.6,121.126 307.6,120.938C 307.6,120.393 307.367,120.12 306.902,120.12C 306.181,120.12 305.288,120.534 304.224,121.363C 303.16,122.191 302.256,123.241 301.514,124.512C 300.771,125.784 300.4,126.956 300.4,128.027C 300.4,128.744 300.613,129.339 301.04,129.811C 301.467,130.284 302.076,130.52 302.867,130.52C 303.324,130.52 303.879,130.41 304.531,130.191C 305.184,129.972 305.783,129.679 306.327,129.313C 306.872,128.944 307.194,128.76 307.293,128.76 Z "/>
		<path fill="#000000" fill-opacity="1" stroke-linejoin="round" d="M 312.498,131.48C 311.774,131.48 311.177,131.208 310.706,130.663C 310.235,130.117 310,129.444 310,128.643C 310,127.293 310.459,125.961 311.376,124.649C 312.294,123.336 313.393,122.68 314.673,122.68C 315.519,122.68 316.205,123.002 316.731,123.646C 317.257,124.29 317.52,125.058 317.52,125.948C 317.52,127.311 316.977,128.574 315.89,129.736C 314.803,130.899 313.673,131.48 312.498,131.48 Z M 311.44,128.42C 311.44,128.943 311.553,129.371 311.777,129.702C 312.003,130.034 312.301,130.2 312.673,130.2C 313.461,130.2 314.253,129.777 315.048,128.93C 315.842,128.083 316.24,127.142 316.24,126.105C 316.24,125.468 316.087,124.952 315.783,124.555C 315.478,124.158 315.068,123.96 314.555,123.96C 313.702,123.96 312.969,124.472 312.358,125.495C 311.746,126.518 311.44,127.493 311.44,128.42 Z "/>
		<path fill="#000000" fill-opacity="1" stroke-linejoin="round" d="M 325.25,124.76C 324.765,124.77 323.728,126.212 322.14,129.085C 321.603,130.053 321.291,130.58 321.202,130.666C 321.114,130.752 320.951,130.829 320.714,130.898C 320.476,130.966 320.279,131 320.122,131C 319.774,131 319.6,130.318 319.6,128.955C 319.6,128.187 319.789,126.797 320.168,124.785C 320.322,123.97 320.4,123.387 320.4,123.037C 320.4,122.693 320.548,122.52 320.845,122.52C 321.402,122.52 321.68,122.938 321.68,123.772C 321.68,124.164 321.582,124.932 321.387,126.075C 321.161,127.382 321.045,128.176 321.04,128.458C 321.358,128.141 321.825,127.448 322.44,126.378C 323.312,124.911 323.954,123.981 324.366,123.589C 324.779,123.196 325.206,123 325.647,123C 325.981,123 326.246,123.23 326.443,123.691C 326.639,124.152 326.758,125.253 326.8,126.993C 326.81,127.427 326.85,127.751 326.919,127.963C 326.988,128.174 327.038,128.28 327.07,128.28C 327.317,128.28 327.854,127.433 328.682,125.74C 329.124,124.845 329.555,124.165 329.974,123.699C 330.393,123.233 330.858,123 331.37,123C 331.797,123 332.108,123.217 332.302,123.651C 332.497,124.085 332.637,124.729 332.723,125.583C 332.802,126.446 332.927,127.236 333.095,127.954C 333.263,128.671 333.572,129.132 334.022,129.335C 334.327,129.475 334.48,129.639 334.48,129.827C 334.48,130.011 334.353,130.199 334.099,130.391C 333.845,130.584 333.612,130.68 333.4,130.68C 332.977,130.68 332.599,130.427 332.266,129.92C 331.934,129.413 331.682,128.317 331.512,126.63C 331.439,125.952 331.368,125.47 331.3,125.186C 331.232,124.902 331.124,124.76 330.978,124.76C 330.759,124.76 330.5,124.973 330.199,125.397C 329.898,125.823 329.413,126.686 328.742,127.988C 328.219,129.001 327.822,129.676 327.552,130.014C 327.283,130.351 327.022,130.52 326.77,130.52C 326.545,130.52 326.344,130.428 326.166,130.245C 325.989,130.062 325.876,129.842 325.829,129.585C 325.781,129.328 325.732,128.696 325.68,127.688C 325.602,126.011 325.458,125.035 325.25,124.76 Z "/>
		<path fill="#000000" fill-opacity="1" stroke-linejoin="round" d="M 341.73,124.76C 341.245,124.77 340.208,126.212 338.62,129.085C 338.083,130.053 337.771,130.58 337.682,130.666C 337.594,130.752 337.431,130.829 337.194,130.898C 336.956,130.966 336.759,131 336.602,131C 336.254,131 336.08,130.318 336.08,128.955C 336.08,128.187 336.269,126.797 336.647,124.785C 336.802,123.97 336.88,123.387 336.88,123.037C 336.88,122.693 337.028,122.52 337.325,122.52C 337.882,122.52 338.16,122.938 338.16,123.772C 338.16,124.164 338.062,124.932 337.867,126.075C 337.641,127.382 337.525,128.176 337.52,128.458C 337.838,128.141 338.305,127.448 338.92,126.378C 339.792,124.911 340.434,123.981 340.846,123.589C 341.259,123.196 341.686,123 342.127,123C 342.461,123 342.726,123.23 342.922,123.691C 343.119,124.152 343.238,125.253 343.28,126.993C 343.29,127.427 343.33,127.751 343.399,127.963C 343.468,128.174 343.518,128.28 343.55,128.28C 343.797,128.28 344.334,127.433 345.162,125.74C 345.604,124.845 346.035,124.165 346.454,123.699C 346.873,123.233 347.338,123 347.85,123C 348.277,123 348.587,123.217 348.782,123.651C 348.977,124.085 349.117,124.729 349.202,125.583C 349.282,126.446 349.407,127.236 349.575,127.954C 349.743,128.671 350.052,129.132 350.502,129.335C 350.807,129.475 350.96,129.639 350.96,129.827C 350.96,130.011 350.833,130.199 350.579,130.391C 350.325,130.584 350.092,130.68 349.88,130.68C 349.457,130.68 349.079,130.427 348.746,129.92C 348.414,129.413 348.162,128.317 347.992,126.63C 347.919,125.952 347.848,125.47 347.78,125.186C 347.712,124.902 347.604,124.76 347.457,124.76C 347.239,124.76 346.98,124.973 346.679,125.397C 346.378,125.823 345.892,126.686 345.223,127.988C 344.699,129.001 344.302,129.676 344.032,130.014C 343.762,130.351 343.502,130.52 343.25,130.52C 343.025,130.52 342.824,130.428 342.646,130.245C 342.469,130.062 342.356,129.842 342.309,129.585C 342.261,129.328 342.212,128.696 342.16,127.688C 342.082,126.011 341.938,125.035 341.73,124.76 Z "/>
		<path fill="#000000" fill-opacity="1" stroke-linejoin="round" d="M 357.932,127.592C 357.252,128.726 356.556,129.604 355.844,130.226C 355.131,130.849 354.469,131.16 353.858,131.16C 353.507,131.16 353.15,130.958 352.786,130.555C 352.422,130.152 352.24,129.531 352.24,128.693C 352.24,128.008 352.414,126.997 352.762,125.66C 353.054,124.545 353.2,123.762 353.2,123.313C 353.352,122.997 353.59,122.84 353.915,122.84C 354.137,122.84 354.313,122.916 354.444,123.069C 354.575,123.221 354.64,123.381 354.64,123.548C 354.64,123.911 354.511,124.427 354.252,125.095C 353.764,126.395 353.52,127.512 353.52,128.445C 353.52,129.295 353.722,129.72 354.125,129.72C 354.64,129.72 355.295,129.288 356.09,128.423C 356.885,127.558 357.567,126.352 358.135,124.805C 358.353,124.187 358.532,123.785 358.67,123.599C 358.808,123.413 358.995,123.32 359.23,123.32C 359.583,123.32 359.76,123.557 359.76,124.03C 359.76,124.088 359.708,124.281 359.605,124.607C 359.282,125.761 359.12,126.851 359.12,127.878C 359.12,129.111 359.321,129.909 359.723,130.273C 359.931,130.466 360.035,130.622 360.035,130.742C 360.035,130.887 359.929,131.02 359.717,131.14C 359.506,131.26 359.314,131.32 359.142,131.32C 358.779,131.32 358.485,131.049 358.261,130.508C 358.037,129.966 357.925,129.166 357.925,128.107L 357.925,127.85C 357.925,127.767 357.927,127.681 357.932,127.592 Z "/>
		<path fill="#000000" fill-opacity="1" stroke-linejoin="round" d="M 367.412,125.08C 367.146,125.08 366.855,125.257 366.539,125.611C 366.223,125.965 365.742,126.759 365.098,127.993C 364.224,129.649 363.66,130.592 363.405,130.821C 363.15,131.05 362.938,131.165 362.77,131.165C 362.15,131.165 361.84,130.868 361.84,130.275C 361.84,130.025 361.888,129.671 361.985,129.212C 362.315,127.639 362.48,125.973 362.48,124.213C 362.48,124.009 362.562,123.783 362.726,123.534C 362.89,123.285 363.046,123.16 363.192,123.16C 363.456,123.16 363.643,123.265 363.754,123.474C 363.865,123.683 363.92,124.04 363.92,124.545C 363.92,125.072 363.76,126.155 363.44,127.795C 363.333,128.337 363.28,128.681 363.28,128.827L 363.342,128.952C 363.421,128.952 363.785,128.33 364.435,127.085C 365.077,125.818 365.639,124.927 366.121,124.412C 366.604,123.897 367.135,123.64 367.715,123.64C 368.177,123.64 368.552,123.85 368.842,124.27C 369.132,124.69 369.344,125.457 369.477,126.57C 369.621,127.837 369.75,128.625 369.866,128.935C 369.982,129.245 370.165,129.4 370.415,129.4C 370.575,129.4 370.776,129.342 371.11,129.24C 371.33,129.24 371.44,129.364 371.44,129.613C 371.44,129.833 371.289,130.065 370.986,130.311C 370.684,130.557 370.32,130.68 369.895,130.68C 369.46,130.68 369.123,130.505 368.885,130.156C 368.647,129.807 368.457,128.875 368.317,127.36C 368.174,125.84 367.872,125.08 367.412,125.08 Z "/>
		<path fill="#000000" fill-opacity="1" stroke-linejoin="round" d="M 375.17,120.6C 375.063,120.6 374.982,120.485 374.927,120.255C 374.907,120.182 374.88,120.102 374.845,120.015C 374.708,119.682 374.64,119.392 374.64,119.145C 374.64,118.94 374.76,118.731 374.999,118.519C 375.238,118.306 375.504,118.2 375.797,118.2C 375.942,118.2 376.106,118.257 376.287,118.373C 376.469,118.488 376.56,118.599 376.56,118.708C 376.56,118.878 376.498,119.165 376.375,119.57C 376.252,119.975 376.055,120.248 375.785,120.389C 375.515,120.53 375.31,120.6 375.17,120.6 Z M 374.16,129.32C 374.16,129.717 374.205,130.163 374.295,130.658C 374.312,130.753 374.32,130.831 374.32,130.893C 374.32,130.986 374.232,131.107 374.056,131.256C 373.88,131.405 373.693,131.48 373.495,131.48C 372.978,131.48 372.72,131.015 372.72,130.085C 372.72,129.125 372.918,127.607 373.315,125.53C 373.452,124.803 373.52,124.357 373.52,124.19C 373.52,123.862 373.582,123.581 373.706,123.349C 373.83,123.116 374.005,123 374.23,123C 374.505,123 374.722,123.064 374.881,123.191C 375.04,123.319 375.12,123.461 375.12,123.618C 375.12,123.774 375.084,123.981 375.012,124.238C 374.629,125.616 374.391,126.603 374.299,127.198C 374.206,127.793 374.16,128.5 374.16,129.32 Z "/>
		<path fill="#000000" fill-opacity="1" stroke-linejoin="round" d="M 380.507,123.16C 381.041,123.13 381.543,123.095 382.015,123.055C 382.48,123.018 382.868,123 383.18,123C 383.573,123 383.822,123.035 383.925,123.104C 384.028,123.173 384.08,123.294 384.08,123.467C 384.08,123.868 383.79,124.085 383.21,124.12C 382.465,124.167 381.779,124.231 381.152,124.313C 380.526,124.394 380.188,124.462 380.139,124.516C 380.09,124.57 379.934,125.182 379.672,126.351C 379.411,127.52 379.28,128.28 379.28,128.63C 379.28,129.195 379.356,129.571 379.507,129.759C 379.659,129.946 379.887,130.04 380.19,130.04C 380.642,130.04 381.267,129.7 382.068,129.02C 382.376,128.74 382.614,128.6 382.782,128.6C 383.007,128.6 383.12,128.72 383.12,128.96C 383.12,129.337 382.753,129.824 382.019,130.423C 381.285,131.021 380.533,131.32 379.765,131.32C 378.482,131.32 377.84,130.602 377.84,129.165C 377.84,128.647 377.975,127.843 378.245,126.755C 378.508,125.672 378.64,125.022 378.64,124.805C 378.64,124.728 378.575,124.69 378.445,124.69L 377.6,124.76C 376.907,124.76 376.56,124.488 376.56,123.945C 376.56,123.635 376.716,123.48 377.027,123.48L 378.655,123.48C 378.767,123.48 378.865,123.43 378.949,123.33C 379.033,123.23 379.157,122.895 379.32,122.324C 379.483,121.753 379.628,121.188 379.755,120.63C 379.88,120.077 380.125,119.8 380.49,119.8C 380.713,119.8 380.887,119.877 381.012,120.03C 381.137,120.183 381.2,120.326 381.2,120.458C 381.2,120.529 381.112,120.894 380.935,121.552L 380.507,123.16 Z "/>
		<path fill="#000000" fill-opacity="1" stroke-linejoin="round" d="M 390.595,128.265C 389.622,129.11 388.767,129.724 388.03,130.106C 387.293,130.489 386.729,130.68 386.337,130.68C 385.814,130.68 385.414,130.462 385.136,130.025C 384.859,129.588 384.72,129.078 384.72,128.495C 384.72,127.68 384.888,126.673 385.225,125.474C 385.562,124.275 385.812,123.563 385.976,123.338C 386.14,123.113 386.402,123 386.762,123C 386.914,123 387.038,123.088 387.135,123.262C 387.232,123.438 387.28,123.637 387.28,123.86C 387.28,123.993 387.217,124.166 387.09,124.378C 386.79,124.878 386.633,125.154 386.619,125.208C 386.605,125.261 386.498,125.581 386.299,126.168C 386.1,126.754 386,127.306 386,127.823C 386,128.003 386.043,128.284 386.13,128.666C 386.217,129.049 386.397,129.24 386.67,129.24C 386.96,129.24 387.317,129.152 387.741,128.976C 388.165,128.8 388.643,128.513 389.174,128.114C 389.705,127.715 390.062,127.392 390.246,127.145C 390.43,126.898 390.561,126.618 390.637,126.302C 390.714,125.988 390.768,125.305 390.8,124.255C 390.832,123.205 391.086,122.68 391.563,122.68C 391.846,122.68 392.03,122.755 392.114,122.905C 392.198,123.055 392.24,123.34 392.24,123.76C 392.24,124.108 392.219,124.543 392.177,125.063C 392.126,125.721 392.093,126.189 392.08,126.467C 392.007,127.914 391.82,129.367 391.52,130.827C 391.22,132.288 390.783,133.508 390.21,134.489C 389.637,135.47 388.847,135.96 387.84,135.96C 386.817,135.96 385.908,135.682 385.113,135.125C 384.318,134.568 383.92,134.097 383.92,133.71C 383.92,133.532 383.96,133.355 384.041,133.181C 384.122,133.007 384.225,132.92 384.35,132.92C 384.413,132.92 384.482,132.971 384.555,133.072C 385.232,134.144 386.297,134.68 387.75,134.68C 388.5,134.68 389.13,134.015 389.639,132.684C 390.148,131.353 390.428,130.105 390.48,128.94C 390.5,128.715 390.538,128.49 390.595,128.265 Z "/>
	</g>
</svg>
