<?xml version="1.0" encoding="utf-8"?>
<!DOCTYPE svg PUBLIC "-//W3C//DTD SVG 1.1//EN" "http://www.w3.org/Graphics/SVG/1.1/DTD/svg11.dtd">
<svg xmlns="http://www.w3.org/2000/svg" xmlns:xlink="http://www.w3.org/1999/xlink" version="1.1" baseProfile="full" width="420" height="140" viewBox="0 0 420.00 140.00" enable-background="new 0 0 420.00 140.00" xml:space="preserve">
	<path fill="#000000" fill-opacity="0.101961" stroke-width="0.2" stroke-linejoin="round" d="M 6,4.00002L 108,4.00002C 110.761,4.00002 113,6.2386 113,9.00002L 113,111C 113,113.761 110.761,116 108,116L 6,116C 3.23858,116 1,113.761 1,111L 1,9.00002C 1,6.2386 3.23858,4.00002 6,4.00002 Z "/>
	<path fill="#000000" fill-opacity="0.0509804" stroke-width="0.2" stroke-linejoin="round" d="M 5.99996,7.00005L 108,7.00005C 110.209,7.00005 112,8.79091 112,11L 112,113C 112,115.209 110.209,117 108,117L 5.99996,117C 3.79082,117 1.99996,115.209 1.99996,113L 1.99996,11C 1.99996,8.79091 3.79082,7.00005 5.99996,7.00005 Z "/>
	<path fill="#FFFFFF" fill-opacity="1" stroke-width="0.2" stroke-linejoin="round" d="M 6,5.00005L 108,5.00005C 110.209,5.00005 112,6.79091 112,9.00005L 112,111C 112,113.209 110.209,115 108,115L 6,115C 3.79086,115 2,113.209 2,111L 2,9.00005C 2,6.79091 3.79086,5.00005 6,5.00005 Z "/>
	<g>
		<rect x="6.67235" y="120.74" fill="#646464" fill-opacity="0.803922" stroke-width="0.2" stroke-linejoin="round" width="1.58" height="11.34"/>
		<path fill="#646464" fill-opacity="0.803922" stroke-width="0.2" stroke-linejoin="round" d="M 10.3524,128.01C 10.3738,129.277 10.7779,130.294 11.5644,131.06C 12.3509,131.826 13.3909,132.22 14.6845,132.24C 15.7432,132.189 16.546,131.987 17.0927,131.633C 17.6394,131.278 17.914,131.076 17.9167,131.025L 17.2927,129.864C 17.2827,129.911 17.0547,130.097 16.6086,130.422C 16.1626,130.748 15.5586,130.934 14.7965,130.98C 13.9421,130.961 13.2548,130.675 12.7344,130.121C 12.214,129.566 11.9467,128.857 11.9324,127.994C 11.9477,127.124 12.213,126.418 12.7284,125.877C 13.2438,125.335 13.9171,125.056 14.7485,125.04C 15.4439,125.08 15.9893,125.238 16.3846,125.516C 16.78,125.793 16.9813,125.952 16.9887,125.992L 17.7247,124.89C 17.725,124.844 17.4724,124.659 16.9667,124.335C 16.461,124.011 15.7002,123.826 14.6845,123.78C 13.3909,123.802 12.3509,124.2 11.5644,124.972C 10.7779,125.744 10.3738,126.757 10.3524,128.01 Z "/>
		<path fill="#646464" fill-opacity="0.803922" stroke-width="0.2" stroke-linejoin="round" d="M 19.1523,127.994C 19.1829,129.276 19.6097,130.3 20.4329,131.064C 21.2561,131.829 22.2926,132.221 23.5424,132.24C 24.7922,132.221 25.8287,131.829 26.6519,131.064C 27.475,130.3 27.9018,129.276 27.9324,127.994C 27.9018,126.72 27.475,125.704 26.6519,124.945C 25.8287,124.187 24.7922,123.799 23.5424,123.78C 22.2926,123.799 21.2561,124.187 20.4329,124.945C 19.6097,125.704 19.1829,126.72 19.1523,127.994 Z M 20.7324,127.994C 20.7535,127.117 21.0301,126.409 21.5621,125.871C 22.094,125.332 22.7541,125.055 23.5424,125.04C 24.3378,125.055 24.9999,125.332 25.5288,125.871C 26.0576,126.409 26.3322,127.117 26.3523,127.994C 26.3322,128.879 26.0576,129.594 25.5288,130.139C 24.9999,130.684 24.3378,130.964 23.5424,130.98C 22.7541,130.964 22.094,130.684 21.562,130.139C 21.0301,129.594 20.7535,128.879 20.7324,127.994 Z "/>
		<path fill="#646464" fill-opacity="0.803922" stroke-width="0.2" stroke-linejoin="round" d="M 29.5663,132.08L 31.1184,132.08L 31.1184,128.279C 31.1129,127.875 31.157,127.512 31.2508,127.189C 31.4334,126.593 31.7588,126.116 32.2269,125.755C 32.695,125.395 33.2521,125.21 33.898,125.2C 34.5505,125.214 34.9828,125.411 35.1947,125.791C 35.4067,126.172 35.5039,126.654 35.4863,127.237L 35.4863,132.08L 37.0384,132.08L 37.0384,126.884C 37.0423,125.85 36.8145,125.075 36.3551,124.557C 35.8957,124.039 35.1815,123.78 34.2124,123.78C 33.3058,123.813 32.5958,124.034 32.0824,124.442C 31.5689,124.851 31.2316,125.248 31.0704,125.633L 31.0384,125.633C 31.0491,125.503 31.0597,125.278 31.0704,124.958L 31.0704,123.94L 29.5663,123.94L 29.5663,132.08 Z "/>
		<path fill="#646464" fill-opacity="0.803922" stroke-width="0.2" stroke-linejoin="round" d="M 38.5763,131.13C 38.5802,131.176 38.8439,131.361 39.3673,131.685C 39.8907,132.009 40.6504,132.194 41.6463,132.24C 42.5456,132.229 43.2554,132.015 43.7757,131.599C 44.2959,131.183 44.5615,130.632 44.5723,129.946C 44.399,128.686 43.7057,127.884 42.4924,127.54C 41.279,127.197 40.5857,126.702 40.4123,126.057C 40.4257,125.699 40.5633,125.439 40.825,125.278C 41.0868,125.117 41.3926,125.037 41.7425,125.04C 42.3866,125.071 42.8801,125.194 43.2231,125.409C 43.5661,125.625 43.7392,125.748 43.7424,125.778L 44.3649,124.62C 44.3673,124.585 44.155,124.445 43.7279,124.2C 43.3008,123.955 42.6443,123.815 41.7585,123.78C 40.9289,123.782 40.239,123.973 39.6889,124.353C 39.1387,124.733 38.8532,125.29 38.8323,126.025C 39.0057,127.277 39.699,128.078 40.9123,128.428C 42.1257,128.779 42.819,129.284 42.9924,129.946C 42.9783,130.284 42.8381,130.54 42.5717,130.715C 42.3053,130.891 41.9969,130.979 41.6463,130.98C 40.933,130.94 40.3703,130.778 39.9581,130.496C 39.546,130.214 39.3356,130.052 39.3271,130.012L 38.5763,131.13 Z "/>
	</g>
	<g>
		<path fill="#646464" fill-opacity="0.803922" stroke-width="0.2" stroke-linejoin="round" d="M 164.78,120.74L 162.582,129.126C 162.503,129.453 162.443,129.734 162.403,129.97C 162.363,130.205 162.343,130.329 162.343,130.34L 162.311,130.34C 162.312,130.328 162.295,130.202 162.262,129.964C 162.228,129.725 162.176,129.446 162.104,129.126L 160.114,120.74L 158.49,120.74L 161.356,132.08L 163.187,132.08L 165.13,124.755C 165.227,124.369 165.307,124.008 165.369,123.672C 165.43,123.337 165.462,123.158 165.464,123.136L 165.496,123.136C 165.498,123.158 165.53,123.337 165.592,123.672C 165.653,124.008 165.733,124.369 165.83,124.755L 167.773,132.08L 169.604,132.08L 172.55,120.74L 170.926,120.74L 168.856,129.126C 168.777,129.446 168.723,129.725 168.693,129.964C 168.662,130.202 168.647,130.328 168.649,130.34L 168.617,130.34C 168.617,130.329 168.597,130.205 168.557,129.97C 168.517,129.734 168.458,129.453 168.378,129.126L 166.181,120.74L 164.78,120.74 Z "/>
		<path fill="#646464" fill-opacity="0.803922" stroke-width="0.2" stroke-linejoin="round" d="M 173.45,128.029C 173.469,129.273 173.862,130.28 174.628,131.05C 175.393,131.821 176.418,132.217 177.701,132.24C 178.673,132.195 179.434,132.015 179.983,131.7C 180.533,131.385 180.813,131.205 180.822,131.16L 180.184,130.012C 180.171,130.052 179.946,130.214 179.509,130.496C 179.072,130.778 178.501,130.94 177.796,130.98C 177.06,130.98 176.43,130.751 175.906,130.293C 175.383,129.835 175.091,129.151 175.03,128.24L 180.902,128.24C 180.904,128.226 180.912,128.145 180.926,127.997C 180.94,127.849 180.948,127.719 180.95,127.607C 180.947,126.527 180.65,125.628 180.059,124.911C 179.468,124.194 178.603,123.821 177.462,123.794C 176.294,123.81 175.339,124.196 174.598,124.951C 173.857,125.706 173.474,126.732 173.45,128.029 Z M 175.078,127.14C 175.2,126.457 175.472,125.935 175.896,125.573C 176.32,125.211 176.832,125.029 177.431,125.026C 177.961,125.025 178.407,125.199 178.77,125.548C 179.133,125.898 179.333,126.428 179.37,127.14L 175.078,127.14 Z "/>
		<path fill="#646464" fill-opacity="0.803922" stroke-width="0.2" stroke-linejoin="round" d="M 182.904,132.08L 184.376,132.08L 184.376,131.496C 184.375,131.326 184.369,131.187 184.36,131.08C 184.351,130.973 184.345,130.918 184.344,130.914L 184.376,130.914C 184.369,130.97 184.571,131.191 184.983,131.577C 185.394,131.964 186.059,132.185 186.976,132.24C 188.083,132.228 188.977,131.851 189.656,131.107C 190.335,130.364 190.685,129.326 190.704,127.994C 190.693,126.691 190.371,125.667 189.738,124.921C 189.106,124.175 188.228,123.795 187.107,123.78C 186.144,123.833 185.459,124.046 185.051,124.418C 184.643,124.791 184.445,125.003 184.456,125.056L 184.424,125.056C 184.425,125.053 184.431,124.993 184.44,124.876C 184.449,124.759 184.455,124.606 184.456,124.417L 184.456,120.74L 182.904,120.74L 182.904,132.08 Z M 184.408,128.026C 184.43,126.976 184.672,126.214 185.136,125.739C 185.599,125.265 186.152,125.032 186.796,125.04C 187.495,125.051 188.056,125.32 188.481,125.848C 188.906,126.376 189.124,127.097 189.136,128.01C 189.118,128.959 188.884,129.69 188.432,130.203C 187.981,130.715 187.419,130.974 186.747,130.98C 185.962,130.949 185.376,130.642 184.988,130.057C 184.601,129.472 184.407,128.796 184.408,128.026 Z "/>
		<path fill="#646464" fill-opacity="0.803922" stroke-width="0.2" stroke-linejoin="round" d="M 191.914,131.13C 191.918,131.176 192.182,131.361 192.705,131.685C 193.228,132.009 193.988,132.194 194.984,132.24C 195.883,132.229 196.593,132.015 197.113,131.599C 197.634,131.183 197.899,130.632 197.91,129.946C 197.737,128.686 197.043,127.884 195.83,127.54C 194.617,127.197 193.923,126.702 193.75,126.057C 193.763,125.699 193.901,125.439 194.163,125.278C 194.424,125.117 194.73,125.037 195.08,125.04C 195.724,125.071 196.218,125.194 196.561,125.409C 196.904,125.625 197.077,125.748 197.08,125.778L 197.703,124.62C 197.705,124.585 197.493,124.445 197.065,124.2C 196.638,123.955 195.982,123.815 195.096,123.78C 194.267,123.782 193.577,123.973 193.027,124.353C 192.476,124.733 192.191,125.29 192.17,126.025C 192.343,127.277 193.037,128.078 194.25,128.428C 195.463,128.779 196.157,129.284 196.33,129.946C 196.316,130.284 196.176,130.54 195.909,130.715C 195.643,130.891 195.334,130.979 194.984,130.98C 194.271,130.94 193.708,130.778 193.296,130.496C 192.884,130.214 192.673,130.052 192.665,130.012L 191.914,131.13 Z "/>
		<path fill="#646464" fill-opacity="0.803922" stroke-width="0.2" stroke-linejoin="round" d="M 199.688,122.32L 201.256,122.32L 201.256,120.74L 199.688,120.74L 199.688,122.32 Z M 199.704,132.08L 201.256,132.08L 201.256,123.94L 199.704,123.94L 199.704,132.08 Z "/>
		<path fill="#646464" fill-opacity="0.803922" stroke-width="0.2" stroke-linejoin="round" d="M 204.184,129.159C 204.248,130.431 204.636,131.246 205.346,131.605C 206.056,131.964 206.704,132.123 207.288,132.08C 207.629,132.07 207.811,132.06 207.832,132.051L 207.832,130.788C 207.821,130.799 207.699,130.809 207.464,130.82C 207.133,130.845 206.771,130.742 206.378,130.512C 205.985,130.281 205.771,129.771 205.736,128.982L 205.736,125.354L 207.688,125.354L 207.688,124.106L 205.736,124.106L 205.736,121.77L 204.232,121.77L 204.232,124.106L 203.128,124.106L 203.128,125.354L 204.184,125.354L 204.184,129.159 Z "/>
		<path fill="#646464" fill-opacity="0.803922" stroke-width="0.2" stroke-linejoin="round" d="M 208.97,128.029C 208.989,129.273 209.382,130.28 210.148,131.05C 210.913,131.821 211.938,132.217 213.221,132.24C 214.193,132.195 214.954,132.015 215.503,131.7C 216.053,131.385 216.333,131.205 216.342,131.16L 215.704,130.012C 215.691,130.052 215.466,130.214 215.029,130.496C 214.592,130.778 214.021,130.94 213.316,130.98C 212.58,130.98 211.95,130.751 211.426,130.293C 210.903,129.835 210.611,129.151 210.55,128.24L 216.422,128.24C 216.424,128.226 216.432,128.145 216.446,127.997C 216.46,127.849 216.468,127.719 216.47,127.607C 216.467,126.527 216.17,125.628 215.579,124.911C 214.988,124.194 214.123,123.821 212.982,123.794C 211.814,123.81 210.859,124.196 210.118,124.951C 209.377,125.706 208.994,126.732 208.97,128.029 Z M 210.598,127.14C 210.72,126.457 210.993,125.935 211.416,125.573C 211.84,125.211 212.352,125.029 212.951,125.026C 213.481,125.025 213.927,125.199 214.29,125.548C 214.653,125.898 214.853,126.428 214.89,127.14L 210.598,127.14 Z "/>
	</g>
	<g>
		<rect x="312.59" y="120.74" fill="#646464" fill-opacity="0.803922" stroke-width="0.2" stroke-linejoin="round" width="1.57999" height="11.34"/>
		<path fill="#646464" fill-opacity="0.803922" stroke-width="0.2" stroke-linejoin="round" d="M 316.174,131.13C 316.178,131.176 316.442,131.361 316.965,131.685C 317.488,132.009 318.248,132.194 319.244,132.24C 320.143,132.229 320.853,132.015 321.373,131.599C 321.894,131.183 322.159,130.632 322.17,129.946C 321.997,128.686 321.303,127.884 320.09,127.54C 318.877,127.197 318.183,126.702 318.01,126.057C 318.023,125.699 318.161,125.439 318.423,125.278C 318.685,125.117 318.99,125.037 319.34,125.04C 319.984,125.071 320.478,125.194 320.821,125.409C 321.164,125.625 321.337,125.748 321.34,125.778L 321.963,124.62C 321.965,124.585 321.753,124.445 321.326,124.2C 320.899,123.955 320.242,123.815 319.356,123.78C 318.527,123.782 317.837,123.973 317.287,124.353C 316.736,124.733 316.451,125.29 316.43,126.025C 316.603,127.277 317.297,128.078 318.51,128.428C 319.723,128.779 320.417,129.284 320.59,129.946C 320.576,130.284 320.436,130.54 320.169,130.715C 319.903,130.891 319.595,130.979 319.244,130.98C 318.531,130.94 317.968,130.778 317.556,130.496C 317.144,130.214 316.933,130.052 316.925,130.012L 316.174,131.13 Z "/>
		<path fill="#646464" fill-opacity="0.803922" stroke-width="0.2" stroke-linejoin="round" d="M 323.374,131.13C 323.378,131.176 323.642,131.361 324.165,131.685C 324.688,132.009 325.448,132.194 326.444,132.24C 327.343,132.229 328.053,132.015 328.573,131.599C 329.094,131.183 329.359,130.632 329.37,129.946C 329.197,128.686 328.503,127.884 327.29,127.54C 326.077,127.197 325.383,126.702 325.21,126.057C 325.223,125.699 325.361,125.439 325.623,125.278C 325.884,125.117 326.19,125.037 326.54,125.04C 327.184,125.071 327.678,125.194 328.021,125.409C 328.364,125.625 328.537,125.748 328.54,125.778L 329.163,124.62C 329.165,124.585 328.953,124.445 328.526,124.2C 328.099,123.955 327.442,123.815 326.556,123.78C 325.727,123.782 325.037,123.973 324.487,124.353C 323.936,124.733 323.651,125.29 323.63,126.025C 323.803,127.277 324.497,128.078 325.71,128.428C 326.923,128.779 327.617,129.284 327.79,129.946C 327.776,130.284 327.636,130.54 327.369,130.715C 327.103,130.891 326.795,130.979 326.444,130.98C 325.731,130.94 325.168,130.778 324.756,130.496C 324.344,130.214 324.133,130.052 324.125,130.012L 323.374,131.13 Z "/>
		<path fill="#646464" fill-opacity="0.803922" stroke-width="0.2" stroke-linejoin="round" d="M 331.164,129.148C 331.166,130.216 331.398,130.999 331.861,131.499C 332.323,131.998 333.004,132.245 333.904,132.24C 334.682,132.213 335.319,132.006 335.815,131.62C 336.311,131.233 336.644,130.827 336.812,130.402L 336.844,130.402C 336.843,130.408 336.837,130.467 336.828,130.577C 336.819,130.688 336.813,130.83 336.812,131.002L 336.812,132.08L 338.316,132.08L 338.316,123.94L 336.764,123.94L 336.764,127.753C 336.758,128.583 336.532,129.294 336.086,129.888C 335.641,130.482 335.012,130.792 334.201,130.82C 333.585,130.806 333.18,130.609 332.984,130.229C 332.788,129.85 332.699,129.371 332.716,128.795L 332.716,123.94L 331.164,123.94L 331.164,129.148 Z "/>
		<path fill="#646464" fill-opacity="0.803922" stroke-width="0.2" stroke-linejoin="round" d="M 340.27,128.029C 340.289,129.273 340.682,130.28 341.448,131.05C 342.214,131.821 343.238,132.217 344.521,132.24C 345.493,132.195 346.254,132.015 346.803,131.7C 347.353,131.385 347.633,131.205 347.642,131.16L 347.004,130.012C 346.991,130.052 346.766,130.214 346.329,130.496C 345.892,130.778 345.321,130.94 344.616,130.98C 343.88,130.98 343.25,130.751 342.726,130.293C 342.203,129.835 341.911,129.151 341.85,128.24L 347.722,128.24C 347.724,128.226 347.732,128.145 347.746,127.997C 347.76,127.849 347.768,127.719 347.77,127.607C 347.767,126.527 347.47,125.628 346.879,124.911C 346.289,124.194 345.423,123.821 344.283,123.794C 343.114,123.81 342.159,124.196 341.418,124.951C 340.677,125.706 340.294,126.732 340.27,128.029 Z M 341.898,127.14C 342.02,126.457 342.293,125.935 342.717,125.573C 343.141,125.211 343.652,125.029 344.251,125.026C 344.781,125.025 345.227,125.199 345.59,125.548C 345.953,125.898 346.153,126.428 346.19,127.14L 341.898,127.14 Z "/>
		<path fill="#646464" fill-opacity="0.803922" stroke-width="0.2" stroke-linejoin="round" d="M 349.134,131.13C 349.138,131.176 349.402,131.361 349.925,131.685C 350.448,132.009 351.208,132.194 352.204,132.24C 353.103,132.229 353.813,132.015 354.333,131.599C 354.854,131.183 355.119,130.632 355.13,129.946C 354.957,128.686 354.263,127.884 353.05,127.54C 351.837,127.197 351.143,126.702 350.97,126.057C 350.983,125.699 351.121,125.439 351.383,125.278C 351.645,125.117 351.95,125.037 352.3,125.04C 352.944,125.071 353.438,125.194 353.781,125.409C 354.124,125.625 354.297,125.748 354.3,125.778L 354.923,124.62C 354.925,124.585 354.713,124.445 354.286,124.2C 353.858,123.955 353.202,123.815 352.316,123.78C 351.487,123.782 350.797,123.973 350.247,124.353C 349.696,124.733 349.411,125.29 349.39,126.025C 349.563,127.277 350.257,128.078 351.47,128.428C 352.683,128.779 353.377,129.284 353.55,129.946C 353.536,130.284 353.396,130.54 353.129,130.715C 352.863,130.891 352.555,130.979 352.204,130.98C 351.491,130.94 350.928,130.778 350.516,130.496C 350.104,130.214 349.893,130.052 349.885,130.012L 349.134,131.13 Z "/>
	</g>
	<path fill="#000000" fill-opacity="0.101961" stroke-width="0.2" stroke-linejoin="round" d="M 160,4.00008L 262,4.00008C 264.761,4.00008 267,6.23865 267,9.00008L 267,111C 267,113.761 264.761,116 262,116L 160,116C 157.239,116 155,113.761 155,111L 155,9.00008C 155,6.23865 157.239,4.00008 160,4.00008 Z "/>
	<path fill="#000000" fill-opacity="0.0509804" stroke-width="0.2" stroke-linejoin="round" d="M 160,7.00005L 262,7.00005C 264.209,7.00005 266,8.79091 266,11L 266,113C 266,115.209 264.209,117 262,117L 160,117C 157.791,117 156,115.209 156,113L 156,11C 156,8.79091 157.791,7.00005 160,7.00005 Z "/>
	<path fill="#FFFFFF" fill-opacity="1" stroke-width="0.2" stroke-linejoin="round" d="M 160,5.00005L 262,5.00005C 264.209,5.00005 266,6.79091 266,9.00005L 266,111C 266,113.209 264.209,115 262,115L 160,115C 157.791,115 156,113.209 156,111L 156,9.00005C 156,6.79091 157.791,5.00005 160,5.00005 Z "/>
	<path fill="#000000" fill-opacity="0.101961" stroke-width="0.2" stroke-linejoin="round" d="M 312,4.00005L 414,4.00005C 416.761,4.00005 419,6.23862 419,9.00005L 419,111C 419,113.761 416.761,116 414,116L 312,116C 309.239,116 307,113.761 307,111L 307,9.00005C 307,6.23862 309.239,4.00005 312,4.00005 Z "/>
	<path fill="#000000" fill-opacity="0.0509804" stroke-width="0.2" stroke-linejoin="round" d="M 312,7.00005L 414,7.00005C 416.209,7.00005 418,8.79091 418,11L 418,113C 418,115.209 416.209,117 414,117L 312,117C 309.791,117 308,115.209 308,113L 308,11C 308,8.79091 309.791,7.00005 312,7.00005 Z "/>
	<path fill="#FFFFFF" fill-opacity="1" stroke-width="0.2" stroke-linejoin="round" d="M 312,5.00005L 414,5.00005C 416.209,5.00005 418,6.79091 418,9.00005L 418,111C 418,113.209 416.209,115 414,115L 312,115C 309.791,115 308,113.209 308,111L 308,9.00005C 308,6.79091 309.791,5.00005 312,5.00005 Z "/>
	<path fill="#646464" fill-opacity="1" stroke-width="0.2" stroke-linejoin="round" d="M 230.987,69.1574C 231.362,66.1462 231.624,63.1029 231.624,59.9907C 231.624,56.8786 231.362,53.8352 230.987,50.8241L 246.46,50.8241C 247.221,53.7575 247.665,56.819 247.665,59.9907C 247.665,63.1625 247.221,66.224 246.46,69.1574M 222.883,94.6452C 225.633,89.5441 227.723,84.0533 229.204,78.3241L 242.72,78.3241C 238.325,85.9049 231.303,91.7532 222.883,94.6452 Z M 221.719,69.1574L 200.274,69.1574C 199.838,66.1552 199.54,63.1121 199.54,59.9907C 199.54,56.8694 199.838,53.8263 200.274,50.8241L 221.719,50.8241C 222.155,53.8263 222.457,56.8694 222.457,59.9907C 222.457,63.1121 222.155,66.1552 221.719,69.1574 Z M 210.99,96.4924C 207.176,90.9923 204.197,84.883 202.24,78.3241L 219.753,78.3241C 217.791,84.883 214.812,90.9923 210.99,96.4924 Z M 192.785,41.6574L 179.268,41.6574C 183.659,34.0674 190.681,28.2098 199.105,25.327C 196.355,30.4282 194.265,35.919 192.785,41.6574 Z M 179.268,78.3241L 192.785,78.3241C 194.265,84.0577 196.355,89.5533 199.105,94.6544C 190.681,91.7717 183.659,85.9141 179.268,78.3241 Z M 175.528,69.1574C 174.772,66.224 174.332,63.1625 174.332,59.9907C 174.332,56.819 174.772,53.7575 175.528,50.8241L 191.006,50.8241C 190.63,53.8352 190.374,56.8786 190.374,59.9907C 190.374,63.1029 190.63,66.1462 191.006,69.1574M 210.99,23.4891C 214.812,28.9892 217.791,35.0985 219.753,41.6574L 202.24,41.6574C 204.197,35.0985 207.176,28.9892 210.99,23.4891 Z M 242.72,41.6574L 229.204,41.6574C 227.723,35.9282 225.633,30.4374 222.883,25.3363C 231.303,28.2283 238.325,34.0766 242.72,41.6574 Z M 210.971,14.1574C 185.644,14.1574 165.165,34.6769 165.165,59.9907C 165.165,85.3046 185.644,105.824 210.971,105.824C 236.303,105.824 256.832,85.3046 256.832,59.9907C 256.832,34.6769 236.303,14.1574 210.971,14.1574 Z "/>
	<path fill="#646464" fill-opacity="1" stroke-width="0.2" stroke-linejoin="round" d="M 57,78.3333L 90.7333,52.0708L 98.25,46.25L 57,14.1667L 15.75,46.25L 23.2208,52.0708M 56.9542,89.975L 23.175,63.7125L 15.75,69.4875L 57,101.571L 98.25,69.4875L 90.7792,63.6667L 56.9542,89.975 Z "/>
	<path fill="#646464" fill-opacity="1" stroke-width="0.2" stroke-linejoin="round" d="M 372.167,60L 353.833,60L 353.833,50.8333L 372.167,50.8333M 372.167,78.3333L 353.833,78.3333L 353.833,69.1666L 372.167,69.1666M 399.667,41.6666L 386.788,41.6666C 384.726,38.0916 381.883,35.0208 378.446,32.6833L 385.917,25.2132L 379.453,18.75L 369.508,28.6955C 367.4,28.1916 365.246,27.9166 363,27.9166C 360.754,27.9166 358.6,28.1916 356.538,28.6955L 346.546,18.75L 340.083,25.2132L 347.508,32.6833C 344.117,35.0208 341.275,38.0916 339.212,41.6666L 326.333,41.6666L 326.333,50.8333L 335.913,50.8333C 335.683,52.3458 335.5,53.8583 335.5,55.4166L 335.5,60L 326.333,60L 326.333,69.1666L 335.5,69.1666L 335.5,73.75C 335.5,75.3083 335.683,76.8208 335.913,78.3333L 326.333,78.3333L 326.333,87.5L 339.212,87.5C 343.979,95.7041 352.825,101.25 363,101.25C 373.175,101.25 382.021,95.7041 386.788,87.5L 399.667,87.5L 399.667,78.3333L 390.088,78.3333C 390.317,76.8208 390.5,75.3083 390.5,73.75L 390.5,69.1666L 399.667,69.1666L 399.667,60L 390.5,60L 390.5,55.4166C 390.5,53.8583 390.317,52.3458 390.088,50.8333L 399.667,50.8333L 399.667,41.6666 Z "/>
</svg>
