<?xml version="1.0" encoding="utf-8"?>
<!DOCTYPE svg PUBLIC "-//W3C//DTD SVG 1.1//EN" "http://www.w3.org/Graphics/SVG/1.1/DTD/svg11.dtd">
<svg xmlns="http://www.w3.org/2000/svg" xmlns:xlink="http://www.w3.org/1999/xlink" version="1.1" baseProfile="full" width="420" height="140" viewBox="0 0 420.00 140.00" enable-background="new 0 0 420.00 140.00" xml:space="preserve">
	<g>
		<rect x="36.6809" y="120.74" fill="#646464" fill-opacity="0.803922" stroke-width="0.2" stroke-linejoin="round" width="1.58" height="11.34"/>
		<path fill="#646464" fill-opacity="0.803922" stroke-width="0.2" stroke-linejoin="round" d="M 40.3609,128.01C 40.3824,129.277 40.7864,130.294 41.5729,131.06C 42.3594,131.826 43.3995,132.22 44.693,132.24C 45.7518,132.189 46.5545,131.987 47.1012,131.633C 47.6479,131.278 47.9226,131.076 47.9252,131.025L 47.3012,129.864C 47.2912,129.911 47.0632,130.097 46.6171,130.422C 46.1711,130.748 45.5671,130.934 44.805,130.98C 43.9506,130.961 43.2633,130.675 42.7429,130.121C 42.2225,129.566 41.9552,128.857 41.9409,127.994C 41.9562,127.124 42.2215,126.418 42.7369,125.877C 43.2523,125.335 43.9256,125.056 44.757,125.04C 45.4524,125.08 45.9978,125.238 46.3931,125.516C 46.7885,125.793 46.9898,125.952 46.9972,125.992L 47.7332,124.89C 47.7335,124.844 47.4809,124.659 46.9752,124.335C 46.4695,124.011 45.7088,123.826 44.693,123.78C 43.3995,123.802 42.3594,124.2 41.5729,124.972C 40.7864,125.744 40.3824,126.757 40.3609,128.01 Z "/>
		<path fill="#646464" fill-opacity="0.803922" stroke-width="0.2" stroke-linejoin="round" d="M 49.1609,127.994C 49.1914,129.276 49.6182,130.3 50.4414,131.064C 51.2646,131.829 52.3011,132.221 53.5509,132.24C 54.8008,132.221 55.8372,131.829 56.6604,131.064C 57.4835,130.3 57.9104,129.276 57.9409,127.994C 57.9104,126.72 57.4835,125.704 56.6604,124.945C 55.8372,124.187 54.8008,123.799 53.5509,123.78C 52.3011,123.799 51.2646,124.187 50.4414,124.945C 49.6182,125.704 49.1914,126.72 49.1609,127.994 Z M 50.7409,127.994C 50.7621,127.117 51.0386,126.409 51.5706,125.871C 52.1025,125.332 52.7626,125.055 53.5509,125.04C 54.3463,125.055 55.0084,125.332 55.5373,125.871C 56.0662,126.409 56.3407,127.117 56.3609,127.994C 56.3407,128.879 56.0662,129.594 55.5373,130.139C 55.0084,130.684 54.3463,130.964 53.5509,130.98C 52.7626,130.964 52.1025,130.684 51.5706,130.139C 51.0386,129.594 50.7621,128.879 50.7409,127.994 Z "/>
		<path fill="#646464" fill-opacity="0.803922" stroke-width="0.2" stroke-linejoin="round" d="M 59.5748,132.08L 61.1269,132.08L 61.1269,128.279C 61.1214,127.875 61.1655,127.512 61.2593,127.189C 61.442,126.593 61.7673,126.116 62.2354,125.755C 62.7035,125.395 63.2606,125.21 63.9065,125.2C 64.559,125.214 64.9913,125.411 65.2032,125.791C 65.4152,126.172 65.5124,126.654 65.4948,127.237L 65.4948,132.08L 67.0469,132.08L 67.0469,126.884C 67.0508,125.85 66.823,125.075 66.3636,124.557C 65.9042,124.039 65.19,123.78 64.2209,123.78C 63.3143,123.813 62.6043,124.034 62.0909,124.442C 61.5774,124.851 61.2401,125.248 61.0789,125.633L 61.0469,125.633C 61.0576,125.503 61.0682,125.278 61.0789,124.958L 61.0789,123.94L 59.5748,123.94L 59.5748,132.08 Z "/>
		<path fill="#646464" fill-opacity="0.803922" stroke-width="0.2" stroke-linejoin="round" d="M 68.5848,131.13C 68.5888,131.176 68.8524,131.361 69.3758,131.685C 69.8992,132.009 70.6589,132.194 71.6548,132.24C 72.5541,132.229 73.2639,132.015 73.7842,131.599C 74.3044,131.183 74.57,130.632 74.5809,129.946C 74.4075,128.686 73.7142,127.884 72.5009,127.54C 71.2875,127.197 70.5942,126.702 70.4209,126.057C 70.4342,125.699 70.5718,125.439 70.8335,125.278C 71.0953,125.117 71.4011,125.037 71.751,125.04C 72.3951,125.071 72.8886,125.194 73.2316,125.409C 73.5746,125.625 73.7477,125.748 73.751,125.778L 74.3734,124.62C 74.3758,124.585 74.1635,124.445 73.7364,124.2C 73.3093,123.955 72.6528,123.815 71.767,123.78C 70.9374,123.782 70.2476,123.973 69.6974,124.353C 69.1472,124.733 68.8617,125.29 68.8409,126.025C 69.0142,127.277 69.7075,128.078 70.9209,128.428C 72.1342,128.779 72.8275,129.284 73.0009,129.946C 72.9868,130.284 72.8466,130.54 72.5802,130.715C 72.3138,130.891 72.0054,130.979 71.6548,130.98C 70.9415,130.94 70.3788,130.778 69.9666,130.496C 69.5545,130.214 69.3441,130.052 69.3356,130.012L 68.5848,131.13 Z "/>
	</g>
	<g>
		<path fill="#646464" fill-opacity="0.803922" stroke-width="0.2" stroke-linejoin="round" d="M 187.159,120.74L 184.962,129.126C 184.882,129.453 184.823,129.734 184.783,129.97C 184.743,130.205 184.723,130.329 184.723,130.34L 184.691,130.34C 184.692,130.328 184.675,130.202 184.642,129.964C 184.608,129.725 184.556,129.446 184.484,129.126L 182.494,120.74L 180.87,120.74L 183.736,132.08L 185.567,132.08L 187.51,124.755C 187.607,124.369 187.687,124.008 187.749,123.672C 187.81,123.337 187.842,123.158 187.844,123.136L 187.876,123.136C 187.878,123.158 187.91,123.337 187.971,123.672C 188.033,124.008 188.113,124.369 188.21,124.755L 190.153,132.08L 191.984,132.08L 194.93,120.74L 193.306,120.74L 191.236,129.126C 191.157,129.446 191.103,129.725 191.072,129.964C 191.042,130.202 191.027,130.328 191.029,130.34L 190.997,130.34C 190.997,130.329 190.977,130.205 190.937,129.97C 190.897,129.734 190.838,129.453 190.758,129.126L 188.561,120.74L 187.159,120.74 Z "/>
		<path fill="#646464" fill-opacity="0.803922" stroke-width="0.2" stroke-linejoin="round" d="M 195.83,128.029C 195.849,129.273 196.242,130.28 197.007,131.05C 197.773,131.821 198.798,132.217 200.081,132.24C 201.053,132.195 201.814,132.015 202.363,131.7C 202.913,131.385 203.192,131.205 203.202,131.16L 202.564,130.012C 202.551,130.052 202.326,130.214 201.889,130.496C 201.452,130.778 200.881,130.94 200.176,130.98C 199.44,130.98 198.81,130.751 198.286,130.293C 197.763,129.835 197.471,129.151 197.41,128.24L 203.282,128.24C 203.284,128.226 203.292,128.145 203.306,127.997C 203.32,127.849 203.328,127.719 203.33,127.607C 203.327,126.527 203.03,125.628 202.439,124.911C 201.848,124.194 200.983,123.821 199.842,123.794C 198.674,123.81 197.719,124.196 196.978,124.951C 196.237,125.706 195.854,126.732 195.83,128.029 Z M 197.458,127.14C 197.58,126.457 197.852,125.935 198.276,125.573C 198.7,125.211 199.212,125.029 199.811,125.026C 200.341,125.025 200.787,125.199 201.15,125.548C 201.513,125.898 201.713,126.428 201.75,127.14L 197.458,127.14 Z "/>
		<path fill="#646464" fill-opacity="0.803922" stroke-width="0.2" stroke-linejoin="round" d="M 205.284,132.08L 206.756,132.08L 206.756,131.496C 206.755,131.326 206.749,131.187 206.74,131.08C 206.731,130.973 206.725,130.918 206.724,130.914L 206.756,130.914C 206.749,130.97 206.951,131.191 207.363,131.577C 207.774,131.964 208.439,132.185 209.356,132.24C 210.463,132.228 211.357,131.851 212.036,131.107C 212.715,130.364 213.065,129.326 213.084,127.994C 213.073,126.691 212.751,125.667 212.118,124.921C 211.486,124.175 210.608,123.795 209.487,123.78C 208.524,123.833 207.839,124.046 207.431,124.418C 207.023,124.791 206.825,125.003 206.836,125.056L 206.804,125.056C 206.805,125.053 206.811,124.993 206.82,124.876C 206.829,124.759 206.835,124.606 206.836,124.417L 206.836,120.74L 205.284,120.74L 205.284,132.08 Z M 206.788,128.026C 206.81,126.976 207.052,126.214 207.516,125.739C 207.979,125.265 208.532,125.032 209.176,125.04C 209.875,125.051 210.436,125.32 210.861,125.848C 211.286,126.376 211.504,127.097 211.516,128.01C 211.498,128.959 211.264,129.69 210.812,130.203C 210.361,130.715 209.799,130.974 209.127,130.98C 208.342,130.949 207.756,130.642 207.368,130.057C 206.981,129.472 206.787,128.796 206.788,128.026 Z "/>
		<path fill="#646464" fill-opacity="0.803922" stroke-width="0.2" stroke-linejoin="round" d="M 214.294,131.13C 214.298,131.176 214.561,131.361 215.085,131.685C 215.608,132.009 216.368,132.194 217.364,132.24C 218.263,132.229 218.973,132.015 219.493,131.599C 220.014,131.183 220.279,130.632 220.29,129.946C 220.117,128.686 219.423,127.884 218.21,127.54C 216.997,127.197 216.303,126.702 216.13,126.057C 216.143,125.699 216.281,125.439 216.543,125.278C 216.804,125.117 217.11,125.037 217.46,125.04C 218.104,125.071 218.598,125.194 218.941,125.409C 219.284,125.625 219.457,125.748 219.46,125.778L 220.082,124.62C 220.085,124.585 219.873,124.445 219.445,124.2C 219.018,123.955 218.362,123.815 217.476,123.78C 216.646,123.782 215.957,123.973 215.406,124.353C 214.856,124.733 214.571,125.29 214.55,126.025C 214.723,127.277 215.417,128.078 216.63,128.428C 217.843,128.779 218.537,129.284 218.71,129.946C 218.696,130.284 218.556,130.54 218.289,130.715C 218.023,130.891 217.714,130.979 217.364,130.98C 216.651,130.94 216.088,130.778 215.676,130.496C 215.264,130.214 215.053,130.052 215.045,130.012L 214.294,131.13 Z "/>
		<path fill="#646464" fill-opacity="0.803922" stroke-width="0.2" stroke-linejoin="round" d="M 222.068,122.32L 223.636,122.32L 223.636,120.74L 222.068,120.74L 222.068,122.32 Z M 222.084,132.08L 223.636,132.08L 223.636,123.94L 222.084,123.94L 222.084,132.08 Z "/>
		<path fill="#646464" fill-opacity="0.803922" stroke-width="0.2" stroke-linejoin="round" d="M 226.564,129.159C 226.628,130.431 227.016,131.246 227.726,131.605C 228.436,131.964 229.084,132.123 229.668,132.08C 230.009,132.07 230.191,132.06 230.212,132.051L 230.212,130.788C 230.201,130.799 230.079,130.809 229.844,130.82C 229.513,130.845 229.151,130.742 228.758,130.512C 228.365,130.281 228.151,129.771 228.116,128.982L 228.116,125.354L 230.068,125.354L 230.068,124.106L 228.116,124.106L 228.116,121.77L 226.612,121.77L 226.612,124.106L 225.508,124.106L 225.508,125.354L 226.564,125.354L 226.564,129.159 Z "/>
		<path fill="#646464" fill-opacity="0.803922" stroke-width="0.2" stroke-linejoin="round" d="M 231.35,128.029C 231.369,129.273 231.762,130.28 232.527,131.05C 233.293,131.821 234.318,132.217 235.601,132.24C 236.573,132.195 237.334,132.015 237.883,131.7C 238.433,131.385 238.712,131.205 238.722,131.16L 238.084,130.012C 238.071,130.052 237.846,130.214 237.409,130.496C 236.972,130.778 236.401,130.94 235.696,130.98C 234.96,130.98 234.33,130.751 233.806,130.293C 233.283,129.835 232.991,129.151 232.93,128.24L 238.802,128.24C 238.804,128.226 238.812,128.145 238.826,127.997C 238.84,127.849 238.848,127.719 238.85,127.607C 238.847,126.527 238.55,125.628 237.959,124.911C 237.368,124.194 236.503,123.821 235.362,123.794C 234.194,123.81 233.239,124.196 232.498,124.951C 231.757,125.706 231.374,126.732 231.35,128.029 Z M 232.978,127.14C 233.1,126.457 233.372,125.935 233.796,125.573C 234.22,125.211 234.732,125.029 235.331,125.026C 235.861,125.025 236.307,125.199 236.67,125.548C 237.033,125.898 237.233,126.428 237.27,127.14L 232.978,127.14 Z "/>
	</g>
	<g>
		<rect x="341.25" y="120.74" fill="#646464" fill-opacity="0.803922" stroke-width="0.2" stroke-linejoin="round" width="1.58002" height="11.34"/>
		<path fill="#646464" fill-opacity="0.803922" stroke-width="0.2" stroke-linejoin="round" d="M 344.834,131.13C 344.838,131.176 345.102,131.361 345.625,131.685C 346.148,132.009 346.908,132.194 347.904,132.24C 348.803,132.229 349.513,132.015 350.033,131.599C 350.554,131.183 350.819,130.632 350.83,129.946C 350.657,128.686 349.963,127.884 348.75,127.54C 347.537,127.197 346.843,126.702 346.67,126.057C 346.683,125.699 346.821,125.439 347.083,125.278C 347.344,125.117 347.65,125.037 348,125.04C 348.644,125.071 349.138,125.194 349.481,125.409C 349.824,125.625 349.997,125.748 350,125.778L 350.623,124.62C 350.625,124.585 350.413,124.445 349.986,124.2C 349.558,123.955 348.902,123.815 348.016,123.78C 347.187,123.782 346.497,123.973 345.947,124.353C 345.396,124.733 345.111,125.29 345.09,126.025C 345.263,127.277 345.957,128.078 347.17,128.428C 348.383,128.779 349.077,129.284 349.25,129.946C 349.236,130.284 349.096,130.54 348.829,130.715C 348.563,130.891 348.255,130.979 347.904,130.98C 347.191,130.94 346.628,130.778 346.216,130.496C 345.804,130.214 345.593,130.052 345.585,130.012L 344.834,131.13 Z "/>
		<path fill="#646464" fill-opacity="0.803922" stroke-width="0.2" stroke-linejoin="round" d="M 352.034,131.13C 352.038,131.176 352.302,131.361 352.825,131.685C 353.348,132.009 354.108,132.194 355.104,132.24C 356.003,132.229 356.713,132.015 357.233,131.599C 357.754,131.183 358.019,130.632 358.03,129.946C 357.857,128.686 357.163,127.884 355.95,127.54C 354.737,127.197 354.043,126.702 353.87,126.057C 353.883,125.699 354.021,125.439 354.283,125.278C 354.544,125.117 354.85,125.037 355.2,125.04C 355.844,125.071 356.338,125.194 356.681,125.409C 357.024,125.625 357.197,125.748 357.2,125.778L 357.823,124.62C 357.825,124.585 357.613,124.445 357.186,124.2C 356.758,123.955 356.102,123.815 355.216,123.78C 354.387,123.782 353.697,123.973 353.147,124.353C 352.596,124.733 352.311,125.29 352.29,126.025C 352.463,127.277 353.157,128.078 354.37,128.428C 355.583,128.779 356.277,129.284 356.45,129.946C 356.436,130.284 356.296,130.54 356.029,130.715C 355.763,130.891 355.455,130.979 355.104,130.98C 354.391,130.94 353.828,130.778 353.416,130.496C 353.004,130.214 352.793,130.052 352.785,130.012L 352.034,131.13 Z "/>
		<path fill="#646464" fill-opacity="0.803922" stroke-width="0.2" stroke-linejoin="round" d="M 359.824,129.148C 359.826,130.216 360.058,130.999 360.521,131.499C 360.983,131.998 361.664,132.245 362.564,132.24C 363.342,132.213 363.979,132.006 364.475,131.62C 364.971,131.233 365.304,130.827 365.472,130.402L 365.504,130.402C 365.503,130.408 365.497,130.467 365.488,130.577C 365.479,130.688 365.473,130.83 365.472,131.002L 365.472,132.08L 366.976,132.08L 366.976,123.94L 365.424,123.94L 365.424,127.753C 365.418,128.583 365.192,129.294 364.746,129.888C 364.301,130.482 363.672,130.792 362.861,130.82C 362.245,130.806 361.839,130.609 361.644,130.229C 361.448,129.85 361.359,129.371 361.376,128.795L 361.376,123.94L 359.824,123.94L 359.824,129.148 Z "/>
		<path fill="#646464" fill-opacity="0.803922" stroke-width="0.2" stroke-linejoin="round" d="M 368.93,128.029C 368.949,129.273 369.342,130.28 370.108,131.05C 370.874,131.821 371.898,132.217 373.181,132.24C 374.153,132.195 374.914,132.015 375.463,131.7C 376.013,131.385 376.293,131.205 376.302,131.16L 375.664,130.012C 375.651,130.052 375.426,130.214 374.989,130.496C 374.552,130.778 373.981,130.94 373.276,130.98C 372.54,130.98 371.91,130.751 371.386,130.293C 370.863,129.835 370.571,129.151 370.51,128.24L 376.382,128.24C 376.384,128.226 376.392,128.145 376.406,127.997C 376.42,127.849 376.428,127.719 376.43,127.607C 376.427,126.527 376.13,125.628 375.539,124.911C 374.949,124.194 374.083,123.821 372.943,123.794C 371.774,123.81 370.819,124.196 370.078,124.951C 369.337,125.706 368.954,126.732 368.93,128.029 Z M 370.558,127.14C 370.68,126.457 370.953,125.935 371.377,125.573C 371.801,125.211 372.312,125.029 372.911,125.026C 373.441,125.025 373.887,125.199 374.25,125.548C 374.613,125.898 374.813,126.428 374.85,127.14L 370.558,127.14 Z "/>
		<path fill="#646464" fill-opacity="0.803922" stroke-width="0.2" stroke-linejoin="round" d="M 377.794,131.13C 377.798,131.176 378.062,131.361 378.585,131.685C 379.108,132.009 379.868,132.194 380.864,132.24C 381.763,132.229 382.473,132.015 382.993,131.599C 383.514,131.183 383.779,130.632 383.79,129.946C 383.617,128.686 382.923,127.884 381.71,127.54C 380.497,127.197 379.803,126.702 379.63,126.057C 379.643,125.699 379.781,125.439 380.043,125.278C 380.304,125.117 380.61,125.037 380.96,125.04C 381.604,125.071 382.098,125.194 382.441,125.409C 382.784,125.625 382.957,125.748 382.96,125.778L 383.583,124.62C 383.585,124.585 383.373,124.445 382.946,124.2C 382.518,123.955 381.862,123.815 380.976,123.78C 380.147,123.782 379.457,123.973 378.907,124.353C 378.356,124.733 378.071,125.29 378.05,126.025C 378.223,127.277 378.917,128.078 380.13,128.428C 381.343,128.779 382.037,129.284 382.21,129.946C 382.196,130.284 382.056,130.54 381.789,130.715C 381.523,130.891 381.215,130.979 380.864,130.98C 380.151,130.94 379.588,130.778 379.176,130.496C 378.764,130.214 378.553,130.052 378.545,130.012L 377.794,131.13 Z "/>
	</g>
	<path fill="#646464" fill-opacity="1" stroke-width="0.2" stroke-linejoin="round" d="M 230.987,69.1574C 231.362,66.1462 231.624,63.1029 231.624,59.9907C 231.624,56.8786 231.362,53.8352 230.987,50.8241L 246.46,50.8241C 247.221,53.7575 247.665,56.819 247.665,59.9907C 247.665,63.1625 247.221,66.224 246.46,69.1574M 222.883,94.6452C 225.633,89.5441 227.723,84.0533 229.204,78.3241L 242.72,78.3241C 238.325,85.9049 231.303,91.7532 222.883,94.6452 Z M 221.719,69.1574L 200.274,69.1574C 199.838,66.1552 199.54,63.1121 199.54,59.9907C 199.54,56.8694 199.838,53.8263 200.274,50.8241L 221.719,50.8241C 222.155,53.8263 222.457,56.8694 222.457,59.9907C 222.457,63.1121 222.155,66.1552 221.719,69.1574 Z M 210.99,96.4924C 207.176,90.9923 204.197,84.883 202.24,78.3241L 219.753,78.3241C 217.791,84.883 214.812,90.9923 210.99,96.4924 Z M 192.785,41.6574L 179.268,41.6574C 183.659,34.0674 190.681,28.2098 199.105,25.327C 196.355,30.4282 194.265,35.919 192.785,41.6574 Z M 179.268,78.3241L 192.785,78.3241C 194.265,84.0577 196.355,89.5533 199.105,94.6544C 190.681,91.7717 183.659,85.9141 179.268,78.3241 Z M 175.528,69.1574C 174.772,66.224 174.332,63.1625 174.332,59.9907C 174.332,56.819 174.772,53.7575 175.528,50.8241L 191.006,50.8241C 190.63,53.8352 190.374,56.8786 190.374,59.9907C 190.374,63.1029 190.63,66.1462 191.006,69.1574M 210.99,23.4891C 214.812,28.9892 217.791,35.0985 219.753,41.6574L 202.24,41.6574C 204.197,35.0985 207.176,28.9892 210.99,23.4891 Z M 242.72,41.6574L 229.204,41.6574C 227.723,35.9282 225.633,30.4374 222.883,25.3363C 231.303,28.2283 238.325,34.0766 242.72,41.6574 Z M 210.971,14.1574C 185.644,14.1574 165.165,34.6769 165.165,59.9907C 165.165,85.3046 185.644,105.824 210.971,105.824C 236.303,105.824 256.832,85.3046 256.832,59.9907C 256.832,34.6769 236.303,14.1574 210.971,14.1574 Z "/>
	<path fill="#646464" fill-opacity="1" stroke-width="0.2" stroke-linejoin="round" d="M 57,78.3333L 90.7333,52.0708L 98.25,46.25L 57,14.1667L 15.75,46.25L 23.2208,52.0708M 56.9542,89.975L 23.175,63.7125L 15.75,69.4875L 57,101.571L 98.25,69.4875L 90.7792,63.6667L 56.9542,89.975 Z "/>
	<path fill="#646464" fill-opacity="1" stroke-width="0.2" stroke-linejoin="round" d="M 372.167,60L 353.833,60L 353.833,50.8333L 372.167,50.8333M 372.167,78.3333L 353.833,78.3333L 353.833,69.1666L 372.167,69.1666M 399.667,41.6666L 386.788,41.6666C 384.726,38.0916 381.883,35.0208 378.446,32.6833L 385.917,25.2132L 379.453,18.75L 369.508,28.6955C 367.4,28.1916 365.246,27.9166 363,27.9166C 360.754,27.9166 358.6,28.1916 356.538,28.6955L 346.546,18.75L 340.083,25.2132L 347.508,32.6833C 344.117,35.0208 341.275,38.0916 339.212,41.6666L 326.333,41.6666L 326.333,50.8333L 335.913,50.8333C 335.683,52.3458 335.5,53.8583 335.5,55.4166L 335.5,60L 326.333,60L 326.333,69.1666L 335.5,69.1666L 335.5,73.75C 335.5,75.3083 335.683,76.8208 335.913,78.3333L 326.333,78.3333L 326.333,87.5L 339.212,87.5C 343.979,95.7041 352.825,101.25 363,101.25C 373.175,101.25 382.021,95.7041 386.788,87.5L 399.667,87.5L 399.667,78.3333L 390.088,78.3333C 390.317,76.8208 390.5,75.3083 390.5,73.75L 390.5,69.1666L 399.667,69.1666L 399.667,60L 390.5,60L 390.5,55.4166C 390.5,53.8583 390.317,52.3458 390.088,50.8333L 399.667,50.8333L 399.667,41.6666 Z "/>
</svg>
