<?xml version="1.0" encoding="utf-8"?>
<!DOCTYPE svg PUBLIC "-//W3C//DTD SVG 1.1//EN" "http://www.w3.org/Graphics/SVG/1.1/DTD/svg11.dtd">
<svg xmlns="http://www.w3.org/2000/svg" xmlns:xlink="http://www.w3.org/1999/xlink" version="1.1" baseProfile="full" width="420" height="140" viewBox="0 0 420.00 140.00" enable-background="new 0 0 420.00 140.00" xml:space="preserve">
	<g>
		<path fill="#646464" fill-opacity="0.803922" stroke-width="0.2" stroke-linejoin="round" d="M 6.27208,120.184C 8.07069,119.893 9.38222,119.747 10.2067,119.747C 11.4978,119.747 12.5283,120.053 13.2983,120.667C 14.0683,121.28 14.4533,122.05 14.4533,122.975C 14.4533,123.901 14.0499,124.773 13.2429,125.59C 12.436,126.408 11.4219,127.05 10.2008,127.517C 10.0492,127.575 9.97333,127.636 9.97333,127.7C 9.97333,127.802 10.6004,128.32 11.8546,129.255C 13.1087,130.19 14.2618,130.972 15.3137,131.6C 15.6112,131.783 15.76,132.023 15.76,132.32C 15.76,132.515 15.6569,132.708 15.4508,132.899C 15.2447,133.091 15.0532,133.187 14.8762,133.187C 14.5126,133.187 13.9332,132.897 13.1379,132.319C 12.3426,131.74 11.5182,131.102 10.6646,130.404C 8.81541,128.911 7.78389,128.158 7.57,128.147C 7.15194,128.133 6.85687,128.072 6.68479,127.964C 6.51271,127.856 6.42666,127.662 6.42666,127.38C 6.42666,127.137 6.53604,126.924 6.75479,126.741C 6.97354,126.558 7.23166,126.467 7.52916,126.467C 7.63222,126.467 7.79555,126.481 8.01916,126.51C 8.24472,126.547 8.41194,126.566 8.52083,126.566C 9.00694,126.566 9.83722,126.205 11.0117,125.484C 12.1861,124.762 12.7733,123.914 12.7733,122.938C 12.7733,122.42 12.5113,121.977 11.9873,121.607C 11.4633,121.238 10.7949,121.053 9.98208,121.053C 9.37541,121.053 8.76875,121.096 8.16208,121.182C 7.55541,121.267 7.16896,121.34 7.00271,121.4C 6.83646,121.461 6.7018,121.617 6.59875,121.87C 6.49569,122.123 6.32264,122.928 6.07958,124.285C 5.83652,125.642 5.64694,126.923 5.51083,128.128C 5.37472,129.332 5.30666,130.218 5.30666,130.786C 5.30666,131.224 5.3368,131.604 5.39708,131.927C 5.45152,132.249 5.47875,132.508 5.47875,132.702C 5.47875,132.885 5.38396,133.074 5.19437,133.268C 5.00479,133.463 4.79819,133.56 4.57458,133.56C 3.94264,133.56 3.62666,133.043 3.62666,132.008C 3.62666,129.57 4.05347,126.325 4.90708,122.272C 4.95375,122.061 4.97708,121.936 4.97708,121.899C 4.97708,121.862 4.95375,121.808 4.90708,121.736C 4.67569,121.353 4.56,121.097 4.56,120.969C 4.56,120.737 4.67034,120.537 4.89104,120.366C 5.11173,120.196 5.31152,120.111 5.49041,120.111L 6.27208,120.184 Z "/>
		<path fill="#646464" fill-opacity="0.803922" stroke-width="0.2" stroke-linejoin="round" d="M 24.9067,129.905C 24.9067,130.51 24.3632,131.239 23.2762,132.093C 22.1893,132.947 21.0683,133.373 19.9133,133.373C 18.945,133.373 18.1974,133.088 17.6704,132.519C 17.1435,131.949 16.88,131.155 16.88,130.136C 16.88,128.421 17.4614,126.789 18.6242,125.242C 19.7869,123.694 21.0576,122.92 22.4362,122.92C 22.8893,122.92 23.2587,123.067 23.5446,123.362C 23.8304,123.656 23.9733,124.011 23.9733,124.425C 23.9733,125.351 23.5247,126.237 22.6273,127.084C 21.7299,127.93 20.5287,128.762 19.0237,129.579C 18.7146,129.742 18.56,129.954 18.56,130.215C 18.56,130.718 18.7024,131.122 18.9873,131.425C 19.2722,131.728 19.6936,131.88 20.2517,131.88C 21.5272,131.88 22.829,131.169 24.1571,129.748C 24.3574,129.552 24.51,129.453 24.615,129.453C 24.8094,129.453 24.9067,129.604 24.9067,129.905 Z M 18.7058,128.459C 21.2219,126.93 22.48,125.702 22.48,124.772C 22.48,124.408 22.3196,124.227 21.9987,124.227C 21.4524,124.227 20.8365,124.636 20.151,125.456C 19.4656,126.276 18.9839,127.277 18.7058,128.459 Z "/>
		<path fill="#646464" fill-opacity="0.803922" stroke-width="0.2" stroke-linejoin="round" d="M 33.3679,129.628C 33.294,129.574 33.0879,129.744 32.7496,130.139C 32.1876,130.788 31.4711,131.365 30.6,131.87C 29.7289,132.374 28.92,132.627 28.1733,132.627C 27.6192,132.627 27.1851,132.457 26.871,132.116C 26.557,131.776 26.4,131.304 26.4,130.702C 26.4,129.768 26.7587,128.728 27.4762,127.581C 28.1937,126.434 29.1981,125.432 30.4892,124.577C 31.7803,123.721 32.91,123.293 33.8783,123.293C 34.3878,123.293 34.835,123.439 35.22,123.731C 35.3133,123.803 35.3931,123.863 35.4592,123.912C 35.57,123.989 35.6745,124.148 35.7727,124.387C 35.8709,124.626 35.92,124.819 35.92,124.965C 35.92,125.056 35.8869,125.196 35.8208,125.385C 35.4514,126.39 35.2006,127.223 35.0683,127.883C 34.9361,128.543 34.7912,129.655 34.6337,131.218C 34.486,132.624 34.3256,133.705 34.1525,134.461C 33.9794,135.218 33.6669,135.95 33.2148,136.659C 32.7627,137.368 32.2217,137.9 31.5917,138.254C 30.9617,138.609 30.3122,138.787 29.6433,138.787C 28.4883,138.787 27.3479,138.39 26.2221,137.598C 25.0962,136.806 24.5333,136.17 24.5333,135.692C 24.5333,135.391 24.6481,135.24 24.8775,135.24C 24.9883,135.24 25.3199,135.427 25.8721,135.8C 27.3304,136.796 28.6429,137.293 29.8096,137.293C 30.8265,137.293 31.5999,136.752 32.1298,135.67C 32.6596,134.588 33.0208,132.981 33.2133,130.848C 33.2561,130.369 33.3076,129.963 33.3679,129.628 Z M 33.3125,124.787C 32.8011,124.787 32.1619,125.047 31.3948,125.568C 30.6277,126.089 29.8835,126.853 29.1621,127.858C 28.4407,128.863 28.08,129.706 28.08,130.387C 28.08,130.618 28.1539,130.8 28.3017,130.934C 28.4494,131.067 28.6128,131.133 28.7917,131.133C 29.3283,131.133 30.0283,130.861 30.8917,130.317C 31.755,129.772 32.4978,129.016 33.12,128.049C 33.7422,127.082 34.0533,126.323 34.0533,125.772C 34.0533,125.115 33.8064,124.787 33.3125,124.787 Z "/>
		<path fill="#646464" fill-opacity="0.803922" stroke-width="0.2" stroke-linejoin="round" d="M 44.0546,129.025C 43.2612,130.347 42.449,131.371 41.6177,132.097C 40.7865,132.824 40.014,133.187 39.3004,133.187C 38.8921,133.187 38.4755,132.951 38.0506,132.481C 37.6258,132.01 37.4133,131.286 37.4133,130.308C 37.4133,129.509 37.6165,128.329 38.0229,126.77C 38.3632,125.469 38.5333,124.556 38.5333,124.031C 38.7103,123.664 38.9883,123.48 39.3675,123.48C 39.6261,123.48 39.8317,123.569 39.9844,123.747C 40.137,123.925 40.2133,124.111 40.2133,124.305C 40.2133,124.729 40.0626,125.331 39.7612,126.111C 39.1915,127.628 38.9067,128.93 38.9067,130.019C 38.9067,131.011 39.1419,131.507 39.6125,131.507C 40.2133,131.507 40.9775,131.002 41.905,129.993C 42.8325,128.984 43.6278,127.577 44.2908,125.772C 44.5456,125.051 44.7536,124.582 44.915,124.365C 45.0764,124.148 45.2942,124.04 45.5683,124.04C 45.9805,124.04 46.1867,124.316 46.1867,124.868C 46.1867,124.936 46.1264,125.161 46.0058,125.542C 45.6286,126.888 45.44,128.159 45.44,129.357C 45.44,130.796 45.6743,131.727 46.1429,132.151C 46.386,132.377 46.5075,132.56 46.5075,132.7C 46.5075,132.869 46.384,133.023 46.1371,133.163C 45.8901,133.303 45.6665,133.373 45.4662,133.373C 45.0424,133.373 44.6996,133.057 44.4381,132.425C 44.1766,131.793 44.0458,130.86 44.0458,129.625L 44.0458,129.325C 44.0458,129.228 44.0487,129.128 44.0546,129.025 Z "/>
		<path fill="#646464" fill-opacity="0.803922" stroke-width="0.2" stroke-linejoin="round" d="M 52.23,117.507C 52.6811,117.507 52.9067,117.788 52.9067,118.35C 52.9067,118.851 52.6383,120.043 52.1017,121.925C 51.7633,123.11 51.5018,124.417 51.3171,125.847C 51.1324,127.277 51.04,128.398 51.04,129.211C 51.04,130.218 51.0925,131.22 51.1975,132.215C 51.2169,132.406 51.2267,132.544 51.2267,132.63C 51.2267,132.935 51.1207,133.197 50.9087,133.417C 50.6968,133.637 50.4732,133.747 50.2379,133.747C 49.9074,133.747 49.6784,133.545 49.551,133.141C 49.4237,132.738 49.36,132.087 49.36,131.189C 49.36,129.143 49.6123,126.608 50.1169,123.584C 50.6215,120.559 51.023,118.79 51.3215,118.277C 51.6199,117.763 51.9228,117.507 52.23,117.507 Z "/>
		<path fill="#646464" fill-opacity="0.803922" stroke-width="0.2" stroke-linejoin="round" d="M 60.3733,129.806C 59.5236,130.932 58.6826,131.777 57.8504,132.341C 57.0182,132.905 56.255,133.187 55.5608,133.187C 55.0942,133.187 54.6907,132.988 54.3504,132.592C 54.0101,132.195 53.84,131.686 53.84,131.063C 53.84,129.461 54.5648,127.734 56.0144,125.883C 57.464,124.032 58.9043,123.107 60.3354,123.107C 60.8546,123.107 61.2406,123.387 61.4933,123.947C 61.5731,124.133 61.6994,124.227 61.8725,124.227C 62.3664,124.227 62.6133,124.419 62.6133,124.804C 62.6133,124.997 62.5744,125.26 62.4967,125.595C 62.0767,127.424 61.8667,128.715 61.8667,129.468C 61.8667,130.969 62.1613,131.868 62.7504,132.166C 63.0324,132.312 63.1733,132.491 63.1733,132.702C 63.1733,132.891 63.0411,133.081 62.7767,133.273C 62.5122,133.464 62.2565,133.56 62.0096,133.56C 61.5351,133.56 61.1438,133.235 60.8356,132.584C 60.5274,131.934 60.3733,131.008 60.3733,129.806 Z M 59.895,124.6C 59.0958,124.6 58.1669,125.357 57.1081,126.871C 56.0494,128.384 55.52,129.64 55.52,130.637C 55.52,131.341 55.7494,131.693 56.2083,131.693C 56.8753,131.693 57.7984,131.014 58.9777,129.656C 60.157,128.298 60.7467,127.05 60.7467,125.912C 60.7467,125.037 60.4628,124.6 59.895,124.6 Z "/>
		<path fill="#646464" fill-opacity="0.803922" stroke-width="0.2" stroke-linejoin="round" d="M 67.1604,129.378C 67.2207,129.267 67.2936,129.113 67.3792,128.917C 67.7914,127.962 68.171,127.213 68.5181,126.671C 68.8652,126.128 69.2468,125.609 69.6629,125.113C 70.079,124.618 70.4587,124.241 70.8019,123.983C 71.1451,123.725 71.4562,123.546 71.7352,123.445C 72.0142,123.344 72.285,123.293 72.5475,123.293C 73.0764,123.293 73.5076,123.459 73.841,123.791C 74.1745,124.122 74.3412,124.51 74.3412,124.953C 74.3412,125.147 74.2824,125.324 74.1648,125.482C 74.0471,125.641 73.8668,125.72 73.6237,125.72C 73.3671,125.72 73.1328,125.596 72.9208,125.347C 72.7011,125.098 72.4736,124.973 72.2383,124.973C 71.6064,124.973 70.7314,125.745 69.6133,127.288C 68.4953,128.831 67.8147,130.53 67.5717,132.385C 67.5094,132.863 67.3933,133.178 67.2231,133.331C 67.053,133.484 66.8133,133.56 66.5042,133.56C 66.2067,133.56 65.9908,133.335 65.8567,132.885C 65.7225,132.435 65.6554,131.675 65.6554,130.605C 65.6554,130.316 65.671,129.677 65.7021,128.689C 65.739,127.524 65.8119,126.583 65.9208,125.866C 65.9383,125.749 65.9685,125.475 66.0112,125.043C 66.054,124.567 66.1075,124.236 66.1717,124.052C 66.2358,123.867 66.3666,123.694 66.564,123.534C 66.7613,123.374 66.9757,123.293 67.2071,123.293C 67.4307,123.293 67.5989,123.366 67.7117,123.512C 67.8244,123.658 67.8808,123.814 67.8808,123.982C 67.8808,124.223 67.8196,124.564 67.6971,125.005C 67.5571,125.495 67.4754,125.834 67.4521,126.02C 67.4346,126.23 67.4015,126.45 67.3529,126.68C 67.2907,126.946 67.2294,127.647 67.1692,128.783L 67.1604,129.127L 67.1604,129.378 Z "/>
	</g>
	<path fill="none" stroke-width="2" stroke-linejoin="round" stroke="#646464" stroke-opacity="0.501961" d="M 5,1.00002L 109,1.00002C 111.209,1.00002 113,2.79088 113,5.00002L 113,109C 113,111.209 111.209,113 109,113L 5,113C 2.79086,113 1,111.209 1,109L 1,5.00002C 1,2.79088 2.79086,1.00002 5,1.00002 Z "/>
	<path fill="#646464" fill-opacity="1" stroke-width="0.2" stroke-linejoin="round" d="M 57,20.3333C 67.1252,20.3333 75.3334,28.5414 75.3334,38.6667C 75.3334,48.7919 67.1252,57 57,57C 46.8748,57 38.6667,48.7919 38.6667,38.6667C 38.6667,28.5414 46.8748,20.3333 57,20.3333 Z M 57,66.1666C 77.2505,66.1666 93.6667,74.3748 93.6667,84.5L 93.6667,93.6667L 20.3333,93.6667L 20.3334,84.5C 20.3334,74.3748 36.7496,66.1666 57,66.1666 Z "/>
	<path fill="#646464" fill-opacity="1" stroke-width="0.2" stroke-linejoin="round" d="M 196.997,61.5745C 184.773,61.5745 160.33,67.6932 160.33,79.9078L 160.33,93.6578L 233.664,93.6578L 233.664,79.9078C 233.664,67.6932 209.221,61.5745 196.997,61.5745 Z M 196.997,20.3245C 186.877,20.3245 178.664,28.5378 178.664,38.6578C 178.664,48.7732 186.877,56.9911 196.997,56.9911C 207.117,56.9911 215.33,48.7732 215.33,38.6578C 215.33,28.5378 207.117,20.3245 196.997,20.3245 Z M 196.997,70.2828C 210.628,70.2828 224.955,76.9607 224.955,79.9078L 224.955,84.9495L 169.039,84.9495L 169.039,79.9078C 169.039,76.9607 183.366,70.2828 196.997,70.2828 Z M 196.997,29.0328C 202.305,29.0328 206.622,33.3503 206.622,38.6578C 206.622,43.9653 202.305,48.2828 196.997,48.2828C 191.69,48.2828 187.372,43.9653 187.372,38.6578C 187.372,33.3503 191.69,29.0328 196.997,29.0328 Z "/>
	<path fill="#646464" fill-opacity="1" stroke-width="0.2" stroke-linejoin="round" d="M 360.708,66.1667C 379.693,66.1667 395.083,73.3488 395.083,82.2083L 395.083,93.6667L 326.333,93.6667L 326.333,82.2083C 326.333,73.3488 341.724,66.1667 360.708,66.1667 Z M 390.5,82.2083C 390.5,75.8801 377.162,70.75 360.708,70.75C 344.255,70.75 330.917,75.8801 330.917,82.2083L 330.917,89.0833L 390.5,89.0833L 390.5,82.2083 Z M 360.708,24.9167C 369.568,24.9167 376.75,32.0988 376.75,40.9584C 376.75,49.8179 369.568,57 360.708,57C 351.849,57 344.667,49.8179 344.667,40.9584C 344.667,32.0988 351.849,24.9167 360.708,24.9167 Z M 360.708,29.5C 354.38,29.5 349.25,34.6301 349.25,40.9584C 349.25,47.2866 354.38,52.4167 360.708,52.4167C 367.037,52.4167 372.167,47.2866 372.167,40.9584C 372.167,34.6301 367.037,29.5 360.708,29.5 Z "/>
	<path fill="none" stroke-width="2" stroke-linejoin="round" stroke="#646464" stroke-opacity="0.501961" d="M 311,1L 415,1C 417.209,1 419,2.79086 419,5L 419,109C 419,111.209 417.209,113 415,113L 311,113C 308.791,113 307,111.209 307,109L 307,5C 307,2.79086 308.791,1 311,1 Z "/>
	<g>
		<path fill="#646464" fill-opacity="0.803922" stroke-linejoin="round" d="M 310.513,130.465C 310.513,130.345 310.608,129.604 310.798,128.241C 310.987,126.879 311.168,125.296 311.339,123.492C 311.51,121.687 311.619,120.679 311.666,120.466C 311.712,120.253 311.813,120.08 311.969,119.946C 312.124,119.813 312.367,119.747 312.695,119.747C 312.903,119.747 313.089,119.832 313.254,120.002C 313.418,120.172 313.5,120.357 313.5,120.558C 313.5,120.82 313.446,121.246 313.337,121.835C 313.177,122.642 312.947,124.283 312.646,126.757C 312.344,129.231 312.193,130.632 312.193,130.958C 312.193,131.172 312.226,131.317 312.29,131.393C 312.354,131.469 312.474,131.507 312.651,131.507C 312.939,131.507 313.617,131.419 314.684,131.244C 315.343,131.143 316.59,131.044 318.423,130.947C 318.752,130.935 319.158,130.865 319.64,130.737C 319.731,130.713 319.798,130.702 319.841,130.702C 320.074,130.702 320.258,130.775 320.392,130.922C 320.526,131.069 320.593,131.245 320.593,131.451C 320.593,131.786 320.461,132.051 320.195,132.247C 319.93,132.444 319.634,132.542 319.307,132.542C 319.181,132.542 318.931,132.524 318.558,132.487C 318.177,132.456 317.893,132.44 317.706,132.44C 315.738,132.44 313.839,132.76 312.01,133.4C 311.702,133.507 311.425,133.56 311.178,133.56C 310.906,133.56 310.696,133.442 310.548,133.206C 310.401,132.969 310.327,132.738 310.327,132.513C 310.327,132.381 310.353,132.09 310.406,131.641C 310.464,131.112 310.5,130.72 310.513,130.465 Z "/>
		<path fill="#646464" fill-opacity="0.803922" stroke-linejoin="round" d="M 324.945,120.867C 324.821,120.867 324.726,120.732 324.662,120.464C 324.639,120.379 324.607,120.285 324.566,120.184C 324.407,119.795 324.327,119.457 324.327,119.169C 324.327,118.93 324.466,118.686 324.745,118.439C 325.024,118.191 325.335,118.067 325.677,118.067C 325.846,118.067 326.037,118.134 326.249,118.268C 326.461,118.402 326.567,118.532 326.567,118.659C 326.567,118.857 326.495,119.193 326.351,119.665C 326.207,120.138 325.978,120.456 325.663,120.62C 325.348,120.785 325.108,120.867 324.945,120.867 Z M 323.767,131.04C 323.767,131.503 323.819,132.023 323.924,132.6C 323.944,132.711 323.953,132.803 323.953,132.875C 323.953,132.983 323.851,133.125 323.646,133.299C 323.441,133.473 323.222,133.56 322.991,133.56C 322.388,133.56 322.087,133.018 322.087,131.932C 322.087,130.813 322.318,129.041 322.781,126.618C 322.94,125.771 323.02,125.249 323.02,125.055C 323.02,124.672 323.093,124.345 323.237,124.074C 323.382,123.802 323.586,123.667 323.848,123.667C 324.169,123.667 324.423,123.741 324.608,123.89C 324.794,124.039 324.887,124.204 324.887,124.387C 324.887,124.57 324.845,124.811 324.761,125.11C 324.314,126.718 324.037,127.87 323.929,128.564C 323.821,129.258 323.767,130.083 323.767,131.04 Z "/>
		<path fill="#646464" fill-opacity="0.803922" stroke-linejoin="round" d="M 333.908,129.628C 333.834,129.574 333.628,129.744 333.29,130.139C 332.728,130.788 332.011,131.365 331.14,131.87C 330.269,132.374 329.46,132.627 328.713,132.627C 328.159,132.627 327.725,132.457 327.411,132.116C 327.097,131.776 326.94,131.304 326.94,130.702C 326.94,129.768 327.299,128.728 328.016,127.581C 328.734,126.434 329.738,125.432 331.029,124.577C 332.32,123.721 333.45,123.293 334.418,123.293C 334.928,123.293 335.375,123.439 335.76,123.731C 335.853,123.803 335.933,123.863 335.999,123.912C 336.11,123.989 336.215,124.148 336.313,124.387C 336.411,124.626 336.46,124.819 336.46,124.965C 336.46,125.056 336.427,125.196 336.361,125.385C 335.992,126.39 335.741,127.223 335.608,127.883C 335.476,128.543 335.331,129.655 335.174,131.218C 335.026,132.624 334.866,133.705 334.693,134.461C 334.52,135.218 334.207,135.95 333.755,136.659C 333.303,137.368 332.762,137.9 332.132,138.254C 331.502,138.609 330.852,138.787 330.183,138.787C 329.028,138.787 327.888,138.39 326.762,137.598C 325.636,136.806 325.073,136.17 325.073,135.692C 325.073,135.391 325.188,135.24 325.418,135.24C 325.528,135.24 325.86,135.427 326.412,135.8C 327.871,136.796 329.183,137.293 330.35,137.293C 331.367,137.293 332.14,136.752 332.67,135.67C 333.2,134.588 333.561,132.981 333.753,130.848C 333.796,130.369 333.848,129.963 333.908,129.628 Z M 333.853,124.787C 333.341,124.787 332.702,125.047 331.935,125.568C 331.168,126.089 330.424,126.853 329.702,127.858C 328.981,128.863 328.62,129.706 328.62,130.387C 328.62,130.618 328.694,130.8 328.842,130.934C 328.99,131.067 329.153,131.133 329.332,131.133C 329.868,131.133 330.568,130.861 331.432,130.317C 332.295,129.772 333.038,129.016 333.66,128.049C 334.282,127.082 334.593,126.323 334.593,125.772C 334.593,125.115 334.346,124.787 333.853,124.787 Z "/>
		<path fill="#646464" fill-opacity="0.803922" stroke-linejoin="round" d="M 339.581,130.299C 341.811,126.126 343.649,124.04 345.093,124.04C 345.477,124.04 345.788,124.257 346.028,124.69C 346.268,125.124 346.463,126.086 346.613,127.575C 346.763,129.162 347.101,130.308 347.628,131.014C 347.898,131.377 348.033,131.645 348.033,131.816C 348.033,131.971 347.943,132.114 347.762,132.245C 347.581,132.375 347.388,132.44 347.182,132.44C 346.711,132.44 346.295,132.179 345.932,131.658C 345.569,131.137 345.337,130.221 345.233,128.911C 345.13,127.67 345.022,126.859 344.908,126.478C 344.795,126.097 344.605,125.907 344.341,125.907C 343.709,125.907 342.436,127.543 340.523,130.815C 339.951,131.793 339.53,132.433 339.259,132.735C 338.987,133.036 338.741,133.187 338.519,133.187C 338.255,133.187 338.032,133.108 337.851,132.952C 337.671,132.795 337.58,132.602 337.58,132.373C 337.58,132.206 337.628,131.881 337.723,131.399C 338.456,127.576 339.035,123.795 339.458,120.056C 339.556,119.183 339.712,118.602 339.928,118.313C 340.144,118.024 340.325,117.88 340.471,117.88C 340.731,117.88 340.968,117.987 341.181,118.202C 341.394,118.417 341.5,118.715 341.5,119.096C 341.5,120.226 341.235,121.776 340.704,123.745C 340.443,124.712 340.169,125.94 339.88,127.429C 339.591,128.919 339.447,129.839 339.447,130.191C 339.447,130.263 339.48,130.299 339.546,130.299L 339.581,130.299 Z "/>
		<path fill="#646464" fill-opacity="0.803922" stroke-linejoin="round" d="M 353.572,123.853C 354.194,123.818 354.781,123.778 355.331,123.731C 355.873,123.688 356.327,123.667 356.69,123.667C 357.149,123.667 357.439,123.707 357.559,123.788C 357.68,123.868 357.74,124.01 357.74,124.212C 357.74,124.679 357.402,124.933 356.725,124.973C 355.856,125.028 355.056,125.103 354.325,125.198C 353.594,125.293 353.199,125.372 353.142,125.436C 353.085,125.499 352.903,126.212 352.598,127.576C 352.293,128.94 352.14,129.827 352.14,130.235C 352.14,130.894 352.229,131.333 352.406,131.552C 352.582,131.771 352.848,131.88 353.202,131.88C 353.729,131.88 354.459,131.483 355.392,130.69C 355.752,130.363 356.03,130.2 356.226,130.2C 356.489,130.2 356.62,130.34 356.62,130.62C 356.62,131.059 356.192,131.628 355.335,132.326C 354.479,133.024 353.602,133.373 352.706,133.373C 351.209,133.373 350.46,132.535 350.46,130.859C 350.46,130.254 350.618,129.317 350.933,128.048C 351.24,126.784 351.393,126.025 351.393,125.772C 351.393,125.683 351.318,125.638 351.166,125.638L 350.18,125.72C 349.371,125.72 348.967,125.403 348.967,124.769C 348.967,124.408 349.149,124.227 349.512,124.227L 351.411,124.227C 351.541,124.227 351.655,124.168 351.754,124.052C 351.852,123.935 351.996,123.544 352.187,122.878C 352.377,122.212 352.547,121.553 352.694,120.902C 352.84,120.256 353.126,119.933 353.552,119.933C 353.812,119.933 354.016,120.023 354.161,120.202C 354.307,120.381 354.38,120.547 354.38,120.7C 354.38,120.784 354.277,121.21 354.071,121.978L 353.572,123.853 Z "/>
	</g>
	<g>
		<path fill="#646464" fill-opacity="0.603922" stroke-width="0.2" stroke-linejoin="round" d="M 125.8,12.8C 126.465,12.8 126.871,12.62 127.019,12.26C 127.166,11.9 127.24,11.4517 127.24,10.915C 127.24,9.81 127.022,8.80792 126.585,7.90875C 126.148,7.00958 125.625,6.56 125.015,6.56C 124.575,6.56 124.192,6.76167 123.865,7.16499C 123.538,7.56834 123.179,8.44749 122.787,9.80251C 122.414,11.1158 122.03,12.0504 121.634,12.6063C 121.238,13.1621 120.76,13.44 120.2,13.44C 119.635,13.44 119.025,13.0479 118.369,12.2638C 117.713,11.4796 117.214,10.5342 116.872,9.42751C 116.531,8.32083 116.36,7.38084 116.36,6.6075C 116.36,5.96251 116.43,5.47334 116.57,5.14C 116.71,4.80667 116.886,4.64 117.098,4.64C 117.244,4.64 117.425,4.68916 117.639,4.78751C 117.853,4.88583 117.96,4.98584 117.96,5.08751C 117.96,5.19417 117.944,5.30333 117.912,5.41499C 117.731,5.98334 117.64,6.5475 117.64,7.1075C 117.64,8.1125 117.929,9.17917 118.506,10.3075C 119.084,11.4358 119.623,12 120.125,12C 120.34,12 120.545,11.8292 120.741,11.4875C 120.937,11.1458 121.252,10.28 121.685,8.89C 122.225,7.16667 122.751,6.1075 123.263,5.71251C 123.774,5.3175 124.313,5.12001 124.878,5.12001C 125.969,5.12001 126.849,5.74709 127.517,7.00125C 128.186,8.25542 128.52,9.56667 128.52,10.935C 128.52,11.8433 128.369,12.5413 128.067,13.0287C 127.766,13.5163 127.432,13.76 127.067,13.76C 126.892,13.76 126.638,13.7071 126.302,13.6012C 125.967,13.4954 125.8,13.2283 125.8,12.8 Z "/>
		<path fill="#646464" fill-opacity="0.603922" stroke-width="0.2" stroke-linejoin="round" d="M 116.52,17.5375C 116.52,16.8142 116.793,16.2171 117.338,15.7462C 117.882,15.2754 118.556,15.04 119.358,15.04C 120.707,15.04 122.039,15.4987 123.351,16.4163C 124.664,17.3337 125.32,18.4325 125.32,19.7125C 125.32,20.5592 124.998,21.2454 124.354,21.7712C 123.71,22.2971 122.942,22.56 122.052,22.56C 120.689,22.56 119.426,22.0167 118.264,20.93C 117.101,19.8433 116.52,18.7125 116.52,17.5375 Z M 119.58,16.48C 119.057,16.48 118.629,16.5925 118.297,16.8175C 117.966,17.0425 117.8,17.3408 117.8,17.7125C 117.8,18.5008 118.223,19.2925 119.07,20.0875C 119.917,20.8825 120.858,21.28 121.895,21.28C 122.532,21.28 123.048,21.1275 123.445,20.8225C 123.842,20.5175 124.04,20.1083 124.04,19.595C 124.04,18.7417 123.528,18.0092 122.505,17.3975C 121.482,16.7858 120.507,16.48 119.58,16.48 Z "/>
		<path fill="#646464" fill-opacity="0.603922" stroke-width="0.2" stroke-linejoin="round" d="M 130.28,27.26C 130.28,27.6467 130.039,27.84 129.557,27.84C 129.128,27.84 128.106,27.61 126.493,27.15C 125.478,26.86 124.357,26.6358 123.131,26.4775C 121.905,26.3192 120.944,26.24 120.247,26.24C 119.384,26.24 118.526,26.285 117.672,26.375C 117.509,26.3917 117.391,26.4 117.318,26.4C 117.056,26.4 116.831,26.3092 116.642,26.1275C 116.454,25.9458 116.36,25.7542 116.36,25.5525C 116.36,25.2692 116.533,25.0729 116.879,24.9637C 117.225,24.8546 117.783,24.8 118.552,24.8C 120.306,24.8 122.479,25.0162 125.071,25.4488C 127.664,25.8812 129.18,26.2254 129.62,26.4813C 130.06,26.7371 130.28,26.9967 130.28,27.26 Z "/>
		<path fill="#646464" fill-opacity="0.603922" stroke-width="0.2" stroke-linejoin="round" d="M 127.4,31.57C 127.4,31.4633 127.515,31.3825 127.745,31.3275C 127.818,31.3075 127.898,31.28 127.985,31.245C 128.318,31.1083 128.608,31.04 128.855,31.04C 129.06,31.04 129.269,31.1596 129.481,31.3988C 129.694,31.6379 129.8,31.9042 129.8,32.1975C 129.8,32.3425 129.743,32.5058 129.628,32.6875C 129.512,32.8692 129.401,32.96 129.292,32.96C 129.122,32.96 128.835,32.8983 128.43,32.775C 128.025,32.6517 127.752,32.455 127.611,32.185C 127.47,31.915 127.4,31.71 127.4,31.57 Z M 118.68,30.56C 118.283,30.56 117.838,30.605 117.342,30.695C 117.247,30.7117 117.169,30.72 117.108,30.72C 117.014,30.72 116.893,30.6321 116.744,30.4562C 116.595,30.2804 116.52,30.0933 116.52,29.895C 116.52,29.3783 116.985,29.12 117.915,29.12C 118.875,29.12 120.393,29.3183 122.47,29.715C 123.197,29.8517 123.643,29.92 123.81,29.92C 124.138,29.92 124.419,29.9821 124.651,30.1063C 124.884,30.2304 125,30.405 125,30.63C 125,30.905 124.936,31.1221 124.809,31.2813C 124.681,31.4404 124.539,31.52 124.382,31.52C 124.226,31.52 124.019,31.4842 123.763,31.4125C 122.384,31.0292 121.397,30.7913 120.802,30.6988C 120.207,30.6063 119.5,30.56 118.68,30.56 Z "/>
		<path fill="#646464" fill-opacity="0.603922" stroke-width="0.2" stroke-linejoin="round" d="M 120.255,39.2375C 119.162,38.5458 118.319,37.8133 117.728,37.04C 117.136,36.2667 116.84,35.555 116.84,34.905C 116.84,34.405 117.032,34.0092 117.415,33.7175C 117.798,33.4258 118.308,33.28 118.945,33.28C 120.247,33.28 121.581,33.8112 122.949,34.8737C 124.316,35.9362 125,37.0833 125,38.315C 125,38.8533 124.765,39.3525 124.295,39.8125L 129.398,40.925C 129.746,41.0033 129.98,41.1479 130.1,41.3588C 130.22,41.5696 130.28,41.7342 130.28,41.8525C 130.28,42.2175 129.958,42.4 129.315,42.4C 129.202,42.4 128.777,42.2825 128.04,42.0475C 126.9,41.6725 125.499,41.3175 123.838,40.9825C 122.176,40.6475 120.842,40.48 119.835,40.48C 118.798,40.48 118.28,40.71 118.28,41.17C 118.28,41.4667 118.388,41.7742 118.603,42.0925C 118.707,42.2242 118.76,42.3483 118.76,42.465C 118.76,42.635 118.652,42.72 118.435,42.72C 118.172,42.72 117.867,42.4804 117.52,42.0013C 117.173,41.5221 117,41.03 117,40.525C 117,39.6417 117.808,39.2 119.425,39.2C 119.698,39.2 119.975,39.2125 120.255,39.2375 Z M 123.88,38.275C 123.88,37.44 123.318,36.6121 122.194,35.7913C 121.07,34.9704 120.032,34.56 119.08,34.56C 118.44,34.56 118.12,34.7742 118.12,35.2025C 118.12,35.6058 118.33,36.095 118.75,36.67C 119.17,37.245 119.84,37.8371 120.759,38.4463C 121.678,39.0554 122.368,39.36 122.827,39.36C 123.052,39.36 123.284,39.2554 123.522,39.0463C 123.761,38.8371 123.88,38.58 123.88,38.275 Z "/>
	</g>
	<g>
		<path fill="#646464" fill-opacity="0.603922" stroke-width="0.2" stroke-linejoin="round" d="M 256.36,7.00499C 256.36,6.17 256.774,5.42708 257.603,4.77625C 258.431,4.12541 259.29,3.8 260.18,3.8C 261.232,3.8 262.432,4.12125 263.781,4.76375C 265.13,5.40625 266.231,6.24458 267.082,7.27875C 267.934,8.31291 268.36,9.38916 268.36,10.5075C 268.36,11.3642 268.255,12.0775 268.044,12.6475C 267.833,13.2175 267.53,13.7296 267.134,14.1837C 266.738,14.6379 266.332,14.9408 265.915,15.0925C 265.498,15.2442 264.915,15.32 264.165,15.32C 263.457,15.32 262.628,15.1058 261.68,14.6775C 260.732,14.2492 259.807,13.5817 258.906,12.675C 258.005,11.7683 257.356,10.91 256.957,10.1C 256.559,9.28999 256.36,8.25833 256.36,7.00499 Z M 260.228,5.24001C 259.499,5.24001 258.886,5.47041 258.387,5.93124C 257.889,6.39207 257.64,6.92583 257.64,7.5325C 257.64,9.11417 258.369,10.5675 259.826,11.8925C 261.284,13.2175 262.83,13.88 264.465,13.88C 265.088,13.88 265.58,13.7583 265.939,13.515C 266.298,13.2717 266.605,12.8804 266.859,12.3412C 267.113,11.8021 267.24,11.1967 267.24,10.525C 267.24,9.35333 266.443,8.17958 264.85,7.00374C 263.257,5.82791 261.716,5.24001 260.228,5.24001 Z "/>
		<path fill="#646464" fill-opacity="0.603922" stroke-width="0.2" stroke-linejoin="round" d="M 260.408,22.4525C 259.274,21.7725 258.396,21.0762 257.774,20.3637C 257.151,19.6512 256.84,18.9892 256.84,18.3775C 256.84,18.0275 257.042,17.6704 257.445,17.3062C 257.848,16.9421 258.469,16.76 259.307,16.76C 259.992,16.76 261.003,16.9342 262.34,17.2825C 263.455,17.5742 264.238,17.72 264.688,17.72C 265.003,17.8717 265.16,18.11 265.16,18.435C 265.16,18.6567 265.084,18.8329 264.931,18.9637C 264.779,19.0946 264.619,19.16 264.452,19.16C 264.089,19.16 263.573,19.0308 262.905,18.7725C 261.605,18.2842 260.488,18.04 259.555,18.04C 258.705,18.04 258.28,18.2417 258.28,18.645C 258.28,19.16 258.712,19.815 259.577,20.61C 260.443,21.405 261.648,22.0867 263.195,22.655C 263.813,22.8733 264.215,23.0517 264.401,23.19C 264.587,23.3283 264.68,23.515 264.68,23.75C 264.68,24.1033 264.443,24.28 263.97,24.28C 263.912,24.28 263.719,24.2283 263.392,24.125C 262.239,23.8017 261.149,23.64 260.122,23.64C 258.889,23.64 258.091,23.8408 257.728,24.2425C 257.534,24.4508 257.378,24.555 257.258,24.555C 257.113,24.555 256.98,24.4492 256.86,24.2375C 256.74,24.0258 256.68,23.8342 256.68,23.6625C 256.68,23.2992 256.951,23.0054 257.492,22.7812C 258.034,22.5571 258.834,22.445 259.892,22.445L 260.15,22.445C 260.233,22.445 260.319,22.4475 260.408,22.4525 Z "/>
		<path fill="#646464" fill-opacity="0.603922" stroke-width="0.2" stroke-linejoin="round" d="M 264.84,29.8275C 264.87,30.3608 264.905,30.8633 264.945,31.335C 264.982,31.8 265,32.1883 265,32.5C 265,32.8933 264.965,33.1417 264.896,33.245C 264.827,33.3483 264.706,33.4 264.533,33.4C 264.133,33.4 263.915,33.11 263.88,32.53C 263.833,31.785 263.769,31.0992 263.688,30.4725C 263.606,29.8458 263.538,29.5079 263.484,29.4587C 263.43,29.4096 262.818,29.2542 261.649,28.9925C 260.48,28.7308 259.72,28.6 259.37,28.6C 258.805,28.6 258.429,28.6758 258.241,28.8275C 258.054,28.9792 257.96,29.2067 257.96,29.51C 257.96,29.9617 258.3,30.5875 258.98,31.3875C 259.26,31.6958 259.4,31.9342 259.4,32.1025C 259.4,32.3275 259.28,32.44 259.04,32.44C 258.663,32.44 258.176,32.0729 257.577,31.3387C 256.979,30.6046 256.68,29.8533 256.68,29.085C 256.68,27.8017 257.398,27.16 258.835,27.16C 259.353,27.16 260.157,27.295 261.245,27.565C 262.328,27.8283 262.978,27.96 263.195,27.96C 263.272,27.96 263.31,27.895 263.31,27.765L 263.24,26.92C 263.24,26.2267 263.512,25.88 264.055,25.88C 264.365,25.88 264.52,26.0358 264.52,26.3475L 264.52,27.975C 264.52,28.0867 264.57,28.1846 264.67,28.2687C 264.77,28.3529 265.105,28.4767 265.676,28.64C 266.247,28.8033 266.812,28.9483 267.37,29.075C 267.923,29.2 268.2,29.445 268.2,29.81C 268.2,30.0333 268.123,30.2075 267.97,30.3325C 267.817,30.4575 267.674,30.52 267.543,30.52C 267.471,30.52 267.106,30.4317 266.447,30.255L 264.84,29.8275 Z "/>
		<path fill="#646464" fill-opacity="0.603922" stroke-width="0.2" stroke-linejoin="round" d="M 270.28,37.38C 270.28,37.7667 270.039,37.96 269.557,37.96C 269.128,37.96 268.106,37.73 266.492,37.27C 265.478,36.98 264.357,36.7558 263.131,36.5975C 261.905,36.4392 260.944,36.36 260.247,36.36C 259.384,36.36 258.526,36.405 257.673,36.495C 257.509,36.5117 257.391,36.52 257.318,36.52C 257.056,36.52 256.831,36.4292 256.642,36.2475C 256.454,36.0658 256.36,35.8742 256.36,35.6725C 256.36,35.3892 256.533,35.1929 256.879,35.0837C 257.225,34.9746 257.783,34.92 258.552,34.92C 260.306,34.92 262.479,35.1362 265.071,35.5687C 267.664,36.0012 269.18,36.3454 269.62,36.6012C 270.06,36.8571 270.28,37.1167 270.28,37.38 Z "/>
		<path fill="#646464" fill-opacity="0.603922" stroke-width="0.2" stroke-linejoin="round" d="M 267.4,41.69C 267.4,41.5833 267.515,41.5025 267.745,41.4475C 267.818,41.4275 267.898,41.4 267.985,41.365C 268.318,41.2283 268.608,41.16 268.855,41.16C 269.06,41.16 269.269,41.2796 269.481,41.5187C 269.694,41.7579 269.8,42.0242 269.8,42.3175C 269.8,42.4625 269.742,42.6258 269.628,42.8075C 269.512,42.9892 269.401,43.08 269.293,43.08C 269.122,43.08 268.835,43.0183 268.43,42.895C 268.025,42.7717 267.752,42.575 267.611,42.305C 267.47,42.035 267.4,41.83 267.4,41.69 Z M 258.68,40.68C 258.283,40.68 257.837,40.725 257.342,40.815C 257.247,40.8317 257.169,40.84 257.108,40.84C 257.014,40.84 256.893,40.7521 256.744,40.5762C 256.595,40.4004 256.52,40.2133 256.52,40.015C 256.52,39.4983 256.985,39.24 257.915,39.24C 258.875,39.24 260.393,39.4383 262.47,39.835C 263.197,39.9717 263.643,40.04 263.81,40.04C 264.138,40.04 264.419,40.1021 264.651,40.2262C 264.884,40.3504 265,40.525 265,40.75C 265,41.025 264.936,41.2421 264.809,41.4012C 264.681,41.5604 264.539,41.64 264.383,41.64C 264.226,41.64 264.019,41.6042 263.762,41.5325C 262.384,41.1492 261.397,40.9112 260.802,40.8187C 260.207,40.7262 259.5,40.68 258.68,40.68 Z "/>
		<path fill="#646464" fill-opacity="0.603922" stroke-width="0.2" stroke-linejoin="round" d="M 262.92,49.1325C 262.92,48.8658 262.743,48.5746 262.389,48.2587C 262.035,47.9429 261.241,47.4625 260.008,46.8175C 258.351,45.9442 257.408,45.38 257.179,45.125C 256.95,44.87 256.835,44.6583 256.835,44.49C 256.835,43.87 257.132,43.56 257.725,43.56C 257.975,43.56 258.329,43.6083 258.788,43.705C 260.361,44.035 262.027,44.2 263.788,44.2C 263.991,44.2 264.217,44.2821 264.466,44.4462C 264.715,44.6104 264.84,44.7658 264.84,44.9125C 264.84,45.1758 264.735,45.3629 264.526,45.4737C 264.317,45.5846 263.96,45.64 263.455,45.64C 262.928,45.64 261.845,45.48 260.205,45.16C 259.663,45.0533 259.319,45 259.173,45L 259.048,45.0625C 259.048,45.1408 259.67,45.505 260.915,46.155C 262.182,46.7967 263.072,47.3587 263.587,47.8412C 264.103,48.3237 264.36,48.855 264.36,49.435C 264.36,49.8966 264.15,50.2725 263.73,50.5625C 263.31,50.8525 262.543,51.0641 261.43,51.1975C 260.163,51.3408 259.375,51.4704 259.065,51.5862C 258.755,51.7021 258.6,51.885 258.6,52.135C 258.6,52.295 258.658,52.4958 258.76,52.83C 258.76,53.05 258.636,53.16 258.387,53.16C 258.168,53.16 257.935,53.0087 257.689,52.7062C 257.443,52.4037 257.32,52.04 257.32,51.615C 257.32,51.18 257.495,50.8433 257.844,50.605C 258.193,50.3666 259.125,50.1775 260.64,50.0375C 262.16,49.8942 262.92,49.5925 262.92,49.1325 Z "/>
		<path fill="#646464" fill-opacity="0.603922" stroke-width="0.2" stroke-linejoin="round" d="M 259.652,61C 259.134,61 258.509,60.5342 257.777,59.6025C 257.046,58.6708 256.68,57.71 256.68,56.72C 256.68,55.89 256.924,55.2492 257.413,54.7975C 257.901,54.3458 258.582,54.12 259.455,54.12C 260.925,54.12 262.323,54.6183 263.65,55.615C 264.977,56.6117 265.64,57.7008 265.64,58.8825C 265.64,59.2708 265.514,59.5875 265.261,59.8325C 265.009,60.0775 264.705,60.2 264.35,60.2C 263.557,60.2 262.797,59.8154 262.071,59.0462C 261.345,58.2771 260.633,57.2475 259.932,55.9575C 259.793,55.6925 259.611,55.56 259.387,55.56C 258.956,55.56 258.61,55.6821 258.35,55.9262C 258.09,56.1704 257.96,56.5317 257.96,57.01C 257.96,58.1033 258.569,59.2192 259.788,60.3575C 259.956,60.5292 260.04,60.66 260.04,60.75C 260.04,60.9167 259.911,61 259.652,61 Z M 260.892,55.685C 262.202,57.8417 263.256,58.92 264.052,58.92C 264.364,58.92 264.52,58.7825 264.52,58.5075C 264.52,58.0392 264.169,57.5112 263.466,56.9237C 262.764,56.3362 261.906,55.9233 260.892,55.685 Z "/>
	</g>
	<path fill="none" stroke-width="2" stroke-linejoin="round" stroke="#646464" stroke-opacity="0.501961" d="M 145,1L 249,1C 251.209,1 253,2.79088 253,5.00002L 253,109C 253,111.209 251.209,113 249,113L 145,113C 142.791,113 141,111.209 141,109L 141,5.00002C 141,2.79088 142.791,1 145,1 Z "/>
	<ellipse fill="#646464" fill-opacity="0.603922" stroke-width="0.2" stroke-linejoin="round" cx="123" cy="105" rx="7" ry="7"/>
	<path fill="#646464" fill-opacity="0.603922" stroke-width="0.2" stroke-linejoin="round" d="M 263,98C 266.866,98 270,101.134 270,105C 270,108.866 266.866,112 263,112C 259.134,112 256,108.866 256,105C 256,101.134 259.134,98 263,98 Z M 263,100C 260.239,100 258,102.239 258,105C 258,107.761 260.239,110 263,110C 265.761,110 268,107.761 268,105C 268,102.239 265.761,100 263,100 Z "/>
	<path fill="#646464" fill-opacity="0.603922" stroke-width="0.2" stroke-linejoin="round" d="M 297,98C 300.866,98 304,101.134 304,105C 304,108.866 300.866,112 297,112C 293.134,112 290,108.866 290,105C 290,101.134 293.134,98 297,98 Z M 297,99C 293.686,99 291,101.686 291,105C 291,108.314 293.686,111 297,111C 300.314,111 303,108.314 303,105C 303,101.686 300.314,99 297,99 Z "/>
</svg>
