<?xml version="1.0" encoding="utf-8"?>
<!DOCTYPE svg PUBLIC "-//W3C//DTD SVG 1.1//EN" "http://www.w3.org/Graphics/SVG/1.1/DTD/svg11.dtd">
<svg xmlns="http://www.w3.org/2000/svg" xmlns:xlink="http://www.w3.org/1999/xlink" version="1.1" baseProfile="full" width="420" height="140" viewBox="0 0 420.00 140.00" enable-background="new 0 0 420.00 140.00" xml:space="preserve">
	<g>
		<path fill="#646464" fill-opacity="0.803922" stroke-width="0.2" stroke-linejoin="round" d="M 3.93,131.99L 5.51,131.99L 5.51,127.51L 7.8738,127.51L 10.2063,131.99L 11.974,131.99L 9.61142,127.622C 9.40009,127.289 9.29051,127.13 9.28268,127.144L 9.28268,127.114C 9.89276,126.92 10.3746,126.546 10.7283,125.992C 11.0819,125.437 11.2625,124.769 11.27,123.986C 11.2628,123.183 11.0934,122.516 10.7615,121.985C 10.4297,121.454 9.97851,121.087 9.40792,120.884C 9.2093,120.811 8.95688,120.753 8.65064,120.712C 8.3444,120.671 7.90804,120.651 7.34155,120.65L 3.93,120.65L 3.93,131.99 Z M 5.51,126.25L 5.51,121.91L 7.29459,121.91C 7.71595,121.911 8.03947,121.935 8.26515,121.983C 8.49084,122.031 8.67347,122.098 8.81305,122.185C 9.38715,122.533 9.67946,123.157 9.69,124.054C 9.68379,124.739 9.50828,125.274 9.16347,125.66C 8.81866,126.047 8.34181,126.243 7.73291,126.25L 5.51,126.25 Z "/>
		<path fill="#646464" fill-opacity="0.803922" stroke-width="0.2" stroke-linejoin="round" d="M 13.21,127.939C 13.2291,129.183 13.6216,130.19 14.3875,130.96C 15.1534,131.731 16.1779,132.127 17.4609,132.15C 18.4329,132.105 19.1937,131.925 19.7433,131.61C 20.2929,131.295 20.5725,131.115 20.5823,131.07L 19.9439,129.922C 19.9309,129.962 19.7059,130.124 19.2688,130.406C 18.8318,130.688 18.2609,130.85 17.5563,130.89C 16.82,130.89 16.1901,130.661 15.6664,130.203C 15.1427,129.745 14.8506,129.061 14.79,128.15L 20.6621,128.15C 20.6641,128.136 20.6721,128.055 20.6861,127.907C 20.7,127.759 20.708,127.629 20.71,127.517C 20.7068,126.437 20.4099,125.538 19.8192,124.821C 19.2285,124.104 18.3629,123.731 17.2225,123.704C 16.0537,123.72 15.0988,124.106 14.3577,124.861C 13.6167,125.616 13.2341,126.642 13.21,127.939 Z M 14.8377,127.05C 14.9596,126.367 15.2325,125.845 15.6565,125.483C 16.0804,125.121 16.5918,124.939 17.1907,124.936C 17.7206,124.935 18.1671,125.109 18.5301,125.458C 18.8931,125.808 19.093,126.338 19.13,127.05L 14.8377,127.05 Z "/>
		<path fill="#646464" fill-opacity="0.803922" stroke-width="0.2" stroke-linejoin="round" d="M 23.424,133.508L 22.912,134.72C 23.3095,134.91 23.7479,135.062 24.2274,135.176C 24.7068,135.289 25.1946,135.347 25.6908,135.35C 26.7636,135.368 27.7084,135.092 28.5252,134.522C 29.3419,133.952 29.7719,132.979 29.815,131.605L 29.815,123.85L 28.2976,123.85L 28.2976,124.551C 28.3031,124.698 28.3085,124.778 28.3139,124.79L 28.2813,124.79C 28.2974,124.755 28.1164,124.575 27.7382,124.249C 27.3601,123.924 26.6883,123.737 25.723,123.69C 24.5904,123.709 23.7179,124.083 23.1054,124.812C 22.4929,125.541 22.1831,126.507 22.176,127.711C 22.1854,128.926 22.5065,129.911 23.1394,130.665C 23.7723,131.419 24.6603,131.807 25.8034,131.83C 26.9538,131.81 27.7582,131.415 28.2168,130.645L 28.2489,130.645C 28.2483,130.65 28.2456,130.7 28.2409,130.795C 28.2362,130.89 28.2335,131 28.2328,131.125L 28.2328,131.68C 28.2141,132.543 27.962,133.162 27.4767,133.538C 26.9913,133.915 26.3853,134.098 25.6586,134.09C 25.0306,134.066 24.5053,133.969 24.0828,133.799C 23.6603,133.629 23.4407,133.532 23.424,133.508 Z M 26.1091,130.57C 25.37,130.557 24.7928,130.289 24.3775,129.767C 23.9622,129.246 23.7511,128.549 23.744,127.678C 23.7481,126.828 23.9411,126.163 24.3232,125.683C 24.7054,125.203 25.2524,124.958 25.9643,124.95C 26.6162,124.931 27.1586,125.124 27.5913,125.53C 28.024,125.936 28.2486,126.668 28.265,127.727C 28.2456,128.789 28.027,129.533 27.6094,129.957C 27.1918,130.382 26.6917,130.586 26.1091,130.57 Z "/>
		<path fill="#646464" fill-opacity="0.803922" stroke-width="0.2" stroke-linejoin="round" d="M 32.104,129.058C 32.1059,130.126 32.338,130.909 32.8005,131.409C 33.2629,131.908 33.944,132.155 34.8439,132.15C 35.6215,132.123 36.2584,131.916 36.7548,131.53C 37.2511,131.143 37.5835,130.737 37.752,130.312L 37.784,130.312C 37.7826,130.318 37.7773,130.377 37.768,130.487C 37.7586,130.598 37.7533,130.74 37.752,130.912L 37.752,131.99L 39.256,131.99L 39.256,123.85L 37.704,123.85L 37.704,127.663C 37.6978,128.493 37.4718,129.204 37.0261,129.798C 36.5804,130.392 35.952,130.702 35.1409,130.73C 34.5251,130.716 34.1194,130.519 33.9237,130.139C 33.728,129.76 33.6388,129.281 33.656,128.705L 33.656,123.85L 32.104,123.85L 32.104,129.058 Z "/>
		<path fill="#646464" fill-opacity="0.803922" stroke-width="0.2" stroke-linejoin="round" d="M 41.704,129.84C 41.7396,130.775 41.9923,131.375 42.462,131.64C 42.9317,131.904 43.4044,132.021 43.8801,131.99C 44.0204,131.989 44.1398,131.984 44.2381,131.976C 44.3364,131.967 44.3878,131.962 44.3921,131.961L 44.3921,130.714C 44.3734,130.719 44.2828,130.725 44.1201,130.73C 43.8741,130.743 43.6701,130.672 43.5081,130.518C 43.3461,130.363 43.2621,130.045 43.256,129.565L 43.256,120.65L 41.704,120.65L 41.704,129.84 Z "/>
		<path fill="#646464" fill-opacity="0.803922" stroke-width="0.2" stroke-linejoin="round" d="M 45.3759,129.717C 45.403,130.509 45.6889,131.111 46.2335,131.523C 46.7782,131.934 47.4191,132.142 48.1563,132.144C 49.1341,132.078 49.8241,131.813 50.2265,131.349C 50.6288,130.886 50.8233,130.621 50.81,130.555L 50.8416,130.555C 50.831,130.621 50.8205,130.846 50.81,131.231L 50.81,131.99L 52.23,131.99L 52.23,126.98C 52.2261,125.872 51.9499,125.048 51.4013,124.506C 50.8527,123.964 50.055,123.694 49.0082,123.696C 48.0488,123.734 47.2992,123.886 46.7595,124.153C 46.2197,124.419 45.9452,124.571 45.936,124.609L 46.576,125.804C 46.592,125.768 46.8158,125.625 47.2474,125.374C 47.679,125.123 48.2222,124.98 48.8771,124.944C 49.4116,124.934 49.8457,125.077 50.1795,125.372C 50.5132,125.667 50.6852,126.174 50.6955,126.892L 50.6955,127.05L 50.3351,127.05C 49.5193,127.001 48.5187,127.125 47.3333,127.423C 46.148,127.721 45.4955,128.485 45.3759,129.717 Z M 46.944,129.639C 47.0092,128.96 47.4195,128.535 48.1747,128.365C 48.93,128.196 49.6392,128.124 50.3023,128.15L 50.7119,128.15L 50.7119,128.398C 50.7037,129.011 50.503,129.573 50.1098,130.083C 49.7167,130.594 49.1802,130.865 48.5003,130.896C 47.984,130.883 47.5956,130.753 47.3352,130.506C 47.0748,130.259 46.9444,129.97 46.944,129.639 Z "/>
		<path fill="#646464" fill-opacity="0.803922" stroke-width="0.2" stroke-linejoin="round" d="M 54.504,131.99L 56.056,131.99L 56.056,128.575C 56.048,128.058 56.112,127.557 56.2481,127.073C 56.4417,126.45 56.7424,125.968 57.1501,125.628C 57.5578,125.287 58.0145,125.114 58.5202,125.11C 58.6439,125.112 58.7485,125.12 58.8342,125.135C 58.9199,125.149 58.9646,125.157 58.9682,125.159L 58.9682,123.72L 58.8462,123.705C 58.7685,123.696 58.6759,123.691 58.5682,123.69C 57.9385,123.702 57.4018,123.895 56.9581,124.269C 56.5144,124.643 56.1977,125.127 56.008,125.72L 55.976,125.72C 55.9774,125.791 55.9827,125.777 55.992,125.679C 56.0014,125.58 56.0067,125.442 56.008,125.266L 56.008,123.85L 54.504,123.85L 54.504,131.99 Z "/>
	</g>
	<g>
		<path fill="#646464" fill-opacity="0.803922" stroke-width="0.2" stroke-linejoin="round" d="M 310.636,131.99L 316.94,131.99L 316.94,131.05L 311.724,131.05L 311.724,120.81L 310.636,120.81L 310.636,131.99 Z "/>
		<path fill="#646464" fill-opacity="0.803922" stroke-width="0.2" stroke-linejoin="round" d="M 318.604,122.215L 319.74,122.215L 319.74,120.825L 318.604,120.825L 318.604,122.215 Z M 318.636,131.99L 319.724,131.99L 319.724,124.01L 318.636,124.01L 318.636,131.99 Z "/>
		<path fill="#646464" fill-opacity="0.803922" stroke-width="0.2" stroke-linejoin="round" d="M 322.94,133.853L 322.536,134.734C 323.333,135.132 324.206,135.337 325.157,135.35C 326.176,135.363 327.062,135.098 327.816,134.554C 328.571,134.011 328.966,133.11 329.004,131.851L 329.004,124.01L 327.948,124.01L 327.948,124.85C 327.953,125.021 327.959,125.107 327.964,125.11L 327.932,125.11C 327.954,125.072 327.778,124.866 327.404,124.493C 327.029,124.119 326.323,123.905 325.285,123.85C 324.199,123.866 323.355,124.234 322.753,124.953C 322.151,125.673 321.845,126.648 321.836,127.88C 321.849,129.114 322.171,130.103 322.801,130.846C 323.431,131.589 324.291,131.971 325.38,131.99C 326.609,131.973 327.454,131.514 327.916,130.615L 327.948,130.615C 327.947,130.621 327.941,130.679 327.932,130.79C 327.923,130.901 327.917,131.034 327.916,131.189L 327.916,131.898C 327.897,132.781 327.624,133.422 327.099,133.821C 326.573,134.22 325.91,134.417 325.109,134.41C 324.503,134.387 323.993,134.294 323.582,134.131C 323.171,133.969 322.957,133.876 322.94,133.853 Z M 325.556,131.05C 324.748,131.038 324.11,130.748 323.642,130.181C 323.173,129.614 322.934,128.841 322.924,127.863C 322.929,126.89 323.146,126.137 323.574,125.603C 324.002,125.068 324.609,124.797 325.396,124.79C 326.123,124.771 326.723,124.99 327.197,125.448C 327.67,125.905 327.915,126.716 327.932,127.88C 327.912,129.054 327.673,129.88 327.216,130.358C 326.76,130.836 326.206,131.067 325.556,131.05 Z "/>
		<path fill="#646464" fill-opacity="0.803922" stroke-width="0.2" stroke-linejoin="round" d="M 331.596,131.99L 332.684,131.99L 332.684,128.143C 332.679,127.754 332.722,127.398 332.813,127.073C 333.011,126.391 333.376,125.843 333.906,125.429C 334.437,125.014 335.055,124.801 335.76,124.79C 336.517,124.81 337.005,125.049 337.224,125.506C 337.443,125.964 337.541,126.518 337.516,127.169L 337.516,131.99L 338.604,131.99L 338.604,126.881C 338.616,125.889 338.416,125.136 338.003,124.623C 337.59,124.11 336.891,123.853 335.905,123.85C 334.987,123.882 334.259,124.105 333.721,124.52C 333.183,124.934 332.837,125.349 332.684,125.764L 332.652,125.764C 332.653,125.76 332.659,125.696 332.668,125.574C 332.677,125.452 332.683,125.297 332.684,125.109L 332.684,120.81L 331.596,120.81L 331.596,131.99 Z "/>
		<path fill="#646464" fill-opacity="0.803922" stroke-width="0.2" stroke-linejoin="round" d="M 341.356,129.038C 341.415,130.325 341.765,131.149 342.408,131.511C 343.051,131.874 343.634,132.033 344.156,131.99C 344.455,131.98 344.61,131.969 344.62,131.959L 344.62,131.018C 344.61,131.029 344.487,131.039 344.252,131.05C 343.911,131.079 343.534,130.961 343.12,130.695C 342.707,130.429 342.481,129.839 342.444,128.927L 342.444,124.936L 344.46,124.936L 344.46,124.024L 342.444,124.024L 342.444,121.704L 341.372,121.704L 341.372,124.024L 340.3,124.024L 340.3,124.936L 341.356,124.936L 341.356,129.038 Z "/>
	</g>
	<g>
		<path fill="#646464" fill-opacity="0.603922" stroke-width="0.2" stroke-linejoin="round" d="M 118.286,8.71397C 118.226,8.71968 117.987,9.04091 117.568,9.67767C 117.149,10.3144 116.91,11.2326 116.85,12.4321C 116.871,13.5563 117.176,14.4281 117.764,15.0476C 118.353,15.667 119.098,15.9812 119.999,15.99C 121.696,15.7633 122.768,14.8567 123.215,13.27C 123.663,11.6833 124.4,10.7767 125.427,10.55C 125.892,10.5603 126.282,10.751 126.598,11.1222C 126.913,11.4934 127.077,11.9831 127.09,12.5916C 127.049,13.3223 126.885,13.9128 126.598,14.363C 126.31,14.8132 126.146,15.0448 126.105,15.0578L 127.414,15.7689C 127.46,15.7669 127.642,15.4983 127.962,14.9629C 128.282,14.4275 128.464,13.637 128.51,12.5916C 128.491,11.513 128.193,10.6443 127.617,9.9856C 127.041,9.32689 126.3,8.98836 125.394,8.97C 123.788,9.19667 122.752,10.1033 122.284,11.69C 121.817,13.2767 121.039,14.1833 119.95,14.41C 119.407,14.3947 118.991,14.202 118.704,13.8317C 118.417,13.4615 118.272,13.0056 118.27,12.464C 118.321,11.612 118.526,10.9257 118.884,10.405C 119.242,9.88426 119.447,9.61661 119.498,9.60204L 118.286,8.71397 Z "/>
		<path fill="#646464" fill-opacity="0.603922" stroke-width="0.2" stroke-linejoin="round" d="M 121.096,17.45C 119.814,17.4805 118.79,17.9074 118.026,18.7306C 117.261,19.5537 116.869,20.5903 116.85,21.8401C 116.869,23.0899 117.261,24.1264 118.026,24.9495C 118.79,25.7727 119.814,26.1995 121.096,26.23C 122.37,26.1995 123.386,25.7727 124.145,24.9495C 124.903,24.1264 125.291,23.0899 125.31,21.8401C 125.291,20.5903 124.903,19.5537 124.145,18.7306C 123.386,17.9073 122.37,17.4805 121.096,17.45 Z M 121.096,19.03C 121.973,19.0512 122.681,19.3278 123.219,19.8597C 123.758,20.3916 124.035,21.0518 124.05,21.8401C 124.035,22.6355 123.758,23.2976 123.219,23.8264C 122.681,24.3553 121.973,24.6298 121.096,24.65C 120.211,24.6298 119.496,24.3553 118.951,23.8264C 118.406,23.2976 118.126,22.6355 118.11,21.8401C 118.126,21.0518 118.406,20.3916 118.951,19.8597C 119.496,19.3278 120.211,19.0512 121.096,19.03 Z "/>
		<path fill="#646464" fill-opacity="0.603922" stroke-width="0.2" stroke-linejoin="round" d="M 119.16,27.864C 118.225,27.8996 117.625,28.1523 117.36,28.622C 117.096,29.0917 116.979,29.5644 117.01,30.0401C 117.011,30.1804 117.016,30.2998 117.024,30.3981C 117.033,30.4964 117.038,30.5478 117.039,30.5521L 118.286,30.5521C 118.281,30.5334 118.275,30.4428 118.27,30.2801C 118.257,30.0341 118.328,29.8301 118.482,29.6681C 118.637,29.5061 118.955,29.4221 119.435,29.416L 128.35,29.416L 128.35,27.864L 119.16,27.864 Z "/>
		<path fill="#646464" fill-opacity="0.603922" stroke-width="0.2" stroke-linejoin="round" d="M 126.77,32.1679L 126.77,33.736L 128.35,33.736L 128.35,32.1679L 126.77,32.1679 Z M 117.01,32.184L 117.01,33.736L 125.15,33.736L 125.15,32.184L 117.01,32.184 Z "/>
		<path fill="#646464" fill-opacity="0.603922" stroke-width="0.2" stroke-linejoin="round" d="M 121.08,35.69C 119.777,35.7006 118.75,36.0225 117.999,36.6555C 117.248,37.2885 116.865,38.1689 116.85,39.2965C 116.909,40.3032 117.147,41.0105 117.562,41.4183C 117.977,41.8261 118.215,42.0227 118.274,42.008L 118.178,42.032C 118.085,42.0273 117.955,42.0246 117.789,42.024L 117.01,42.024L 117.01,43.496L 128.35,43.496L 128.35,41.9439L 124.62,41.9439C 124.474,41.9453 124.353,41.9506 124.258,41.96C 124.163,41.9693 124.113,41.9746 124.11,41.976L 124.11,41.9439C 124.16,41.9572 124.36,41.7713 124.71,41.3863C 125.06,41.0012 125.26,40.3373 125.31,39.3946C 125.299,38.2828 124.924,37.3918 124.186,36.7216C 123.447,36.0515 122.412,35.7076 121.08,35.69 Z M 121.08,37.27C 122.029,37.2877 122.76,37.5219 123.273,37.9727C 123.785,38.4235 124.044,38.9846 124.05,39.656C 124.019,40.4398 123.712,41.0252 123.127,41.4123C 122.542,41.7995 121.866,41.9927 121.096,41.992C 120.046,41.9692 119.284,41.7249 118.809,41.2591C 118.335,40.7933 118.102,40.2426 118.11,39.607C 118.121,38.909 118.39,38.3479 118.918,37.9237C 119.446,37.4995 120.167,37.2816 121.08,37.27 Z "/>
	</g>
	<g>
		<path fill="#646464" fill-opacity="0.603922" stroke-width="0.2" stroke-linejoin="round" d="M 262.753,7.81C 261.045,7.84581 259.643,8.39729 258.548,9.46445C 257.453,10.5316 256.887,11.8995 256.85,13.5682C 256.887,15.2361 257.453,16.6013 258.548,17.6637C 259.643,18.7261 261.045,19.2749 262.753,19.31C 264.419,19.2749 265.787,18.7261 266.854,17.6637C 267.922,16.6013 268.474,15.2361 268.51,13.5682C 268.474,11.8995 267.922,10.5316 266.854,9.46445C 265.787,8.39729 264.419,7.84581 262.753,7.81 Z M 262.753,9.39C 264.016,9.42001 265.048,9.82823 265.849,10.6146C 266.65,11.401 267.064,12.3856 267.09,13.5682C 267.064,14.7501 266.65,15.7319 265.849,16.5135C 265.048,17.2952 264.016,17.7007 262.753,17.73C 261.448,17.7007 260.382,17.2952 259.553,16.5135C 258.725,15.7319 258.297,14.7501 258.27,13.5682C 258.297,12.3856 258.725,11.401 259.553,10.6146C 260.382,9.82823 261.448,9.42001 262.753,9.39 Z "/>
		<path fill="#646464" fill-opacity="0.603922" stroke-width="0.2" stroke-linejoin="round" d="M 259.942,21.264C 258.874,21.2659 258.091,21.498 257.591,21.9605C 257.092,22.4229 256.845,23.104 256.85,24.0039C 256.877,24.7815 257.084,25.4184 257.47,25.9148C 257.857,26.4111 258.263,26.7435 258.688,26.912L 258.688,26.944C 258.682,26.9426 258.623,26.9373 258.513,26.928C 258.402,26.9186 258.26,26.9133 258.088,26.912L 257.01,26.912L 257.01,28.4161L 265.15,28.4161L 265.15,26.864L 261.337,26.864C 260.507,26.8578 259.796,26.6318 259.202,26.1861C 258.608,25.7404 258.298,25.112 258.27,24.3009C 258.284,23.6851 258.481,23.2794 258.861,23.0837C 259.24,22.888 259.719,22.7988 260.295,22.816L 265.15,22.816L 265.15,21.264L 259.942,21.264 Z "/>
		<path fill="#646464" fill-opacity="0.603922" stroke-width="0.2" stroke-linejoin="round" d="M 259.931,31.344C 258.659,31.4083 257.844,31.7956 257.485,32.506C 257.126,33.2164 256.967,33.8638 257.01,34.4481C 257.02,34.7895 257.03,34.9708 257.039,34.9922L 258.302,34.9922C 258.292,34.9815 258.281,34.8588 258.27,34.6242C 258.245,34.2931 258.348,33.9311 258.578,33.5381C 258.809,33.1451 259.319,32.9311 260.108,32.896L 263.736,32.896L 263.736,34.8482L 264.984,34.8482L 264.984,32.896L 267.32,32.896L 267.32,31.392L 264.984,31.392L 264.984,30.2879L 263.736,30.2879L 263.736,31.344L 259.931,31.344 Z "/>
		<path fill="#646464" fill-opacity="0.603922" stroke-width="0.2" stroke-linejoin="round" d="M 259.16,36.624C 258.225,36.6596 257.625,36.9123 257.36,37.382C 257.096,37.8517 256.979,38.3244 257.01,38.8001C 257.011,38.9404 257.016,39.0598 257.024,39.1581C 257.033,39.2564 257.038,39.3078 257.039,39.3121L 258.286,39.3121C 258.281,39.2934 258.275,39.2028 258.27,39.0401C 258.257,38.7941 258.328,38.5901 258.482,38.4281C 258.637,38.2661 258.955,38.182 259.435,38.176L 268.35,38.176L 268.35,36.624L 259.16,36.624 Z "/>
		<path fill="#646464" fill-opacity="0.603922" stroke-width="0.2" stroke-linejoin="round" d="M 266.77,40.9279L 266.77,42.496L 268.35,42.496L 268.35,40.9279L 266.77,40.9279 Z M 257.01,40.9439L 257.01,42.496L 265.15,42.496L 265.15,40.9439L 257.01,40.9439 Z "/>
		<path fill="#646464" fill-opacity="0.603922" stroke-width="0.2" stroke-linejoin="round" d="M 257.01,44.9439L 257.01,46.496L 260.811,46.496C 261.215,46.4905 261.578,46.5346 261.901,46.6284C 262.497,46.8111 262.974,47.1365 263.335,47.6046C 263.695,48.0727 263.88,48.6297 263.89,49.2757C 263.876,49.9282 263.679,50.3604 263.299,50.5724C 262.918,50.7843 262.436,50.8815 261.853,50.864L 257.01,50.864L 257.01,52.416L 262.206,52.416C 263.24,52.4199 264.015,52.1922 264.533,51.7328C 265.051,51.2734 265.31,50.5591 265.31,49.59C 265.277,48.6834 265.056,47.9734 264.648,47.46C 264.239,46.9466 263.842,46.6093 263.457,46.448L 263.457,46.416C 263.587,46.4267 263.812,46.4374 264.132,46.448L 265.15,46.448L 265.15,44.9439L 257.01,44.9439 Z "/>
		<path fill="#646464" fill-opacity="0.603922" stroke-width="0.2" stroke-linejoin="round" d="M 261.061,54.05C 259.817,54.0691 258.81,54.4616 258.04,55.2275C 257.269,55.9934 256.873,57.0179 256.85,58.3009C 256.895,59.2729 257.075,60.0337 257.39,60.5833C 257.705,61.1329 257.885,61.4125 257.93,61.4223L 259.078,60.7839C 259.038,60.7709 258.876,60.5459 258.594,60.1088C 258.312,59.6718 258.15,59.1009 258.11,58.3963C 258.11,57.66 258.339,57.0301 258.797,56.5064C 259.255,55.9827 259.939,55.6906 260.85,55.63L 260.85,61.5021C 260.864,61.5041 260.945,61.5121 261.093,61.5261C 261.241,61.54 261.371,61.548 261.483,61.55C 262.563,61.5469 263.462,61.2499 264.179,60.6592C 264.896,60.0685 265.269,59.2029 265.296,58.0625C 265.28,56.8937 264.894,55.9388 264.139,55.1977C 263.384,54.4567 262.358,54.0741 261.061,54.05 Z M 261.95,55.6777C 262.633,55.7996 263.155,56.0725 263.517,56.4965C 263.879,56.9204 264.061,57.4318 264.064,58.0307C 264.065,58.5606 263.891,59.0071 263.542,59.3701C 263.192,59.7331 262.662,59.933 261.95,59.97L 261.95,55.6777 Z "/>
	</g>
	<ellipse fill="#646464" fill-opacity="0.603922" stroke-width="0.2" stroke-linejoin="round" cx="123" cy="109" rx="7" ry="7"/>
	<path fill="#646464" fill-opacity="0.603922" stroke-width="0.2" stroke-linejoin="round" d="M 263,102C 266.866,102 270,105.134 270,109C 270,112.866 266.866,116 263,116C 259.134,116 256,112.866 256,109C 256,105.134 259.134,102 263,102 Z M 263,104C 260.239,104 258,106.239 258,109C 258,111.761 260.239,114 263,114C 265.761,114 268,111.761 268,109C 268,106.239 265.761,104 263,104 Z "/>
	<path fill="#646464" fill-opacity="0.603922" stroke-width="0.2" stroke-linejoin="round" d="M 297,102C 300.866,102 304,105.134 304,109C 304,112.866 300.866,116 297,116C 293.134,116 290,112.866 290,109C 290,105.134 293.134,102 297,102 Z M 297,103C 293.686,103 291,105.686 291,109C 291,112.314 293.686,115 297,115C 300.314,115 303,112.314 303,109C 303,105.686 300.314,103 297,103 Z "/>
	<path fill="#000000" fill-opacity="0.101961" stroke-width="0.2" stroke-linejoin="round" d="M 6,5.00027L 108,5.00027C 110.761,5.00027 113,7.23885 113,10.0003L 113,112C 113,114.761 110.761,117 108,117L 6,117C 3.23857,117 0.999998,114.761 0.999998,112L 0.999998,10.0003C 0.999998,7.23885 3.23857,5.00027 6,5.00027 Z "/>
	<path fill="#000000" fill-opacity="0.0509804" stroke-width="0.2" stroke-linejoin="round" d="M 5.99996,8.00005L 108,8.00005C 110.209,8.00005 112,9.79091 112,12.0001L 112,114C 112,116.209 110.209,118 108,118L 5.99996,118C 3.79082,118 1.99996,116.209 1.99996,114L 1.99996,12.0001C 1.99996,9.79091 3.79082,8.00005 5.99996,8.00005 Z "/>
	<path fill="#FFFFFF" fill-opacity="1" stroke-width="0.2" stroke-linejoin="round" d="M 6,6.00005L 108,6.00005C 110.209,6.00005 112,7.79091 112,10L 112,112C 112,114.209 110.209,116 108,116L 6,116C 3.79086,116 2,114.209 2,112L 2,10C 2,7.79091 3.79086,6.00005 6,6.00005 Z "/>
	<path fill="#000000" fill-opacity="0.101961" stroke-width="0.2" stroke-linejoin="round" d="M 146,5.00038L 248,5.00038C 250.761,5.00038 253,7.23897 253,10.0004L 253,112C 253,114.762 250.761,117 248,117L 146,117C 143.239,117 141,114.762 141,112L 141,10.0004C 141,7.23897 143.239,5.00038 146,5.00038 Z "/>
	<path fill="#000000" fill-opacity="0.0509804" stroke-width="0.2" stroke-linejoin="round" d="M 146,8.00005L 248,8.00005C 250.209,8.00005 252,9.79091 252,12.0001L 252,114C 252,116.209 250.209,118 248,118L 146,118C 143.791,118 142,116.209 142,114L 142,12.0001C 142,9.79091 143.791,8.00005 146,8.00005 Z "/>
	<path fill="#FFFFFF" fill-opacity="1" stroke-width="0.2" stroke-linejoin="round" d="M 146,6.00005L 248,6.00005C 250.209,6.00005 252,7.79091 252,10L 252,112C 252,114.209 250.209,116 248,116L 146,116C 143.791,116 142,114.209 142,112L 142,10C 142,7.79091 143.791,6.00005 146,6.00005 Z "/>
	<path fill="#000000" fill-opacity="0.101961" stroke-width="0.2" stroke-linejoin="round" d="M 312,5.00029L 414,5.00029C 416.761,5.00029 419,7.23888 419,10.0003L 419,112C 419,114.761 416.761,117 414,117L 312,117C 309.239,117 307,114.761 307,112L 307,10.0003C 307,7.23888 309.239,5.00029 312,5.00029 Z "/>
	<path fill="#000000" fill-opacity="0.0509804" stroke-width="0.2" stroke-linejoin="round" d="M 312,8.00005L 414,8.00005C 416.209,8.00005 418,9.79091 418,12.0001L 418,114C 418,116.209 416.209,118 414,118L 312,118C 309.791,118 308,116.209 308,114L 308,12.0001C 308,9.79091 309.791,8.00005 312,8.00005 Z "/>
	<path fill="#FFFFFF" fill-opacity="1" stroke-width="0.2" stroke-linejoin="round" d="M 312,6.00005L 414,6.00005C 416.209,6.00005 418,7.79091 418,10L 418,112C 418,114.209 416.209,116 414,116L 312,116C 309.791,116 308,114.209 308,112L 308,10C 308,7.79091 309.791,6.00005 312,6.00005 Z "/>
	<path fill="#646464" fill-opacity="1" stroke-width="0.2" stroke-linejoin="round" d="M 360.708,70.1667C 379.693,70.1667 395.083,77.3488 395.083,86.2083L 395.083,97.6667L 326.333,97.6667L 326.333,86.2083C 326.333,77.3488 341.724,70.1667 360.708,70.1667 Z M 390.5,86.2083C 390.5,79.8801 377.162,74.75 360.708,74.75C 344.255,74.75 330.917,79.8801 330.917,86.2083L 330.917,93.0833L 390.5,93.0833L 390.5,86.2083 Z M 360.708,28.9167C 369.568,28.9167 376.75,36.0988 376.75,44.9584C 376.75,53.8179 369.568,61 360.708,61C 351.849,61 344.667,53.8179 344.667,44.9584C 344.667,36.0988 351.849,28.9167 360.708,28.9167 Z M 360.708,33.5C 354.38,33.5 349.25,38.6301 349.25,44.9584C 349.25,51.2866 354.38,56.4167 360.708,56.4167C 367.037,56.4167 372.167,51.2866 372.167,44.9584C 372.167,38.6301 367.037,33.5 360.708,33.5 Z "/>
	<path fill="#646464" fill-opacity="1" stroke-width="0.2" stroke-linejoin="round" d="M 57,24.3333C 67.1252,24.3333 75.3334,32.5414 75.3334,42.6667C 75.3334,52.7919 67.1252,61 57,61C 46.8748,61 38.6667,52.7919 38.6667,42.6667C 38.6667,32.5414 46.8748,24.3333 57,24.3333 Z M 57,70.1666C 77.2505,70.1666 93.6667,78.3748 93.6667,88.5L 93.6667,97.6667L 20.3333,97.6667L 20.3334,88.5C 20.3334,78.3748 36.7496,70.1666 57,70.1666 Z "/>
	<path fill="#646464" fill-opacity="1" stroke-width="0.2" stroke-linejoin="round" d="M 196.997,65.5745C 184.773,65.5745 160.33,71.6932 160.33,83.9078L 160.33,97.6578L 233.664,97.6578L 233.664,83.9078C 233.664,71.6932 209.221,65.5745 196.997,65.5745 Z M 196.997,24.3245C 186.877,24.3245 178.664,32.5378 178.664,42.6578C 178.664,52.7732 186.877,60.9911 196.997,60.9911C 207.117,60.9911 215.33,52.7732 215.33,42.6578C 215.33,32.5378 207.117,24.3245 196.997,24.3245 Z M 196.997,74.2828C 210.628,74.2828 224.955,80.9607 224.955,83.9078L 224.955,88.9495L 169.039,88.9495L 169.039,83.9078C 169.039,80.9607 183.366,74.2828 196.997,74.2828 Z M 196.997,33.0328C 202.305,33.0328 206.622,37.3503 206.622,42.6578C 206.622,47.9653 202.305,52.2828 196.997,52.2828C 191.69,52.2828 187.372,47.9653 187.372,42.6578C 187.372,37.3503 191.69,33.0328 196.997,33.0328 Z "/>
</svg>
