<?xml version="1.0" encoding="utf-8"?>
<!DOCTYPE svg PUBLIC "-//W3C//DTD SVG 1.1//EN" "http://www.w3.org/Graphics/SVG/1.1/DTD/svg11.dtd">
<svg xmlns="http://www.w3.org/2000/svg" xmlns:xlink="http://www.w3.org/1999/xlink" version="1.1" baseProfile="full" width="420" height="140" viewBox="0 0 420.00 140.00" enable-background="new 0 0 420.00 140.00" xml:space="preserve">
	<g>
		<path fill="#646464" fill-opacity="0.803922" stroke-width="0.2" stroke-linejoin="round" d="M 114.385,131.99L 115.965,131.99L 115.965,127.51L 118.328,127.51L 120.661,131.99L 122.429,131.99L 120.066,127.622C 119.855,127.289 119.745,127.13 119.737,127.144L 119.737,127.114C 120.347,126.92 120.829,126.546 121.183,125.992C 121.536,125.437 121.717,124.769 121.725,123.986C 121.717,123.183 121.548,122.516 121.216,121.985C 120.884,121.454 120.433,121.087 119.862,120.884C 119.664,120.811 119.411,120.753 119.105,120.712C 118.799,120.671 118.363,120.651 117.796,120.65L 114.385,120.65L 114.385,131.99 Z M 115.965,126.25L 115.965,121.91L 117.749,121.91C 118.17,121.911 118.494,121.935 118.72,121.983C 118.945,122.031 119.128,122.098 119.268,122.185C 119.842,122.533 120.134,123.157 120.145,124.054C 120.138,124.739 119.963,125.274 119.618,125.66C 119.273,126.047 118.796,126.243 118.187,126.25L 115.965,126.25 Z "/>
		<path fill="#646464" fill-opacity="0.803922" stroke-width="0.2" stroke-linejoin="round" d="M 123.665,127.939C 123.684,129.183 124.076,130.19 124.842,130.96C 125.608,131.731 126.632,132.127 127.915,132.15C 128.887,132.105 129.648,131.925 130.198,131.61C 130.747,131.295 131.027,131.115 131.037,131.07L 130.398,129.922C 130.385,129.962 130.16,130.124 129.723,130.406C 129.286,130.688 128.715,130.85 128.011,130.89C 127.275,130.89 126.645,130.661 126.121,130.203C 125.597,129.745 125.305,129.061 125.245,128.15L 131.117,128.15C 131.119,128.136 131.127,128.055 131.141,127.907C 131.155,127.759 131.163,127.629 131.165,127.517C 131.161,126.437 130.864,125.538 130.274,124.821C 129.683,124.104 128.817,123.731 127.677,123.704C 126.508,123.72 125.553,124.106 124.812,124.861C 124.071,125.616 123.689,126.642 123.665,127.939 Z M 125.292,127.05C 125.414,126.367 125.687,125.845 126.111,125.483C 126.535,125.121 127.046,124.939 127.645,124.936C 128.175,124.935 128.622,125.109 128.985,125.458C 129.348,125.808 129.548,126.338 129.585,127.05L 125.292,127.05 Z "/>
		<path fill="#646464" fill-opacity="0.803922" stroke-width="0.2" stroke-linejoin="round" d="M 133.879,133.508L 133.367,134.72C 133.764,134.91 134.202,135.062 134.682,135.176C 135.161,135.289 135.649,135.347 136.145,135.35C 137.218,135.368 138.163,135.092 138.98,134.522C 139.796,133.952 140.226,132.979 140.27,131.605L 140.27,123.85L 138.752,123.85L 138.752,124.551C 138.758,124.698 138.763,124.778 138.768,124.79L 138.736,124.79C 138.752,124.755 138.571,124.575 138.193,124.249C 137.815,123.924 137.143,123.737 136.178,123.69C 135.045,123.709 134.172,124.083 133.56,124.812C 132.947,125.541 132.638,126.507 132.63,127.711C 132.64,128.926 132.961,129.911 133.594,130.665C 134.227,131.419 135.115,131.807 136.258,131.83C 137.408,131.81 138.213,131.415 138.671,130.645L 138.703,130.645C 138.703,130.65 138.7,130.7 138.695,130.795C 138.691,130.89 138.688,131 138.687,131.125L 138.687,131.68C 138.669,132.543 138.417,133.162 137.931,133.538C 137.446,133.915 136.84,134.098 136.113,134.09C 135.485,134.066 134.96,133.969 134.537,133.799C 134.115,133.629 133.895,133.532 133.879,133.508 Z M 136.564,130.57C 135.825,130.557 135.247,130.289 134.832,129.767C 134.417,129.246 134.206,128.549 134.199,127.678C 134.203,126.828 134.396,126.163 134.778,125.683C 135.16,125.203 135.707,124.958 136.419,124.95C 137.071,124.931 137.613,125.124 138.046,125.53C 138.479,125.936 138.703,126.668 138.72,127.727C 138.7,128.789 138.482,129.533 138.064,129.957C 137.646,130.382 137.146,130.586 136.564,130.57 Z "/>
		<path fill="#646464" fill-opacity="0.803922" stroke-width="0.2" stroke-linejoin="round" d="M 142.558,129.058C 142.56,130.126 142.793,130.909 143.255,131.409C 143.717,131.908 144.399,132.155 145.298,132.15C 146.076,132.123 146.713,131.916 147.209,131.53C 147.706,131.143 148.038,130.737 148.206,130.312L 148.238,130.312C 148.237,130.318 148.232,130.377 148.222,130.487C 148.213,130.598 148.208,130.74 148.206,130.912L 148.206,131.99L 149.711,131.99L 149.711,123.85L 148.158,123.85L 148.158,127.663C 148.152,128.493 147.926,129.204 147.481,129.798C 147.035,130.392 146.407,130.702 145.595,130.73C 144.98,130.716 144.574,130.519 144.378,130.139C 144.183,129.76 144.093,129.281 144.111,128.705L 144.111,123.85L 142.558,123.85L 142.558,129.058 Z "/>
		<path fill="#646464" fill-opacity="0.803922" stroke-width="0.2" stroke-linejoin="round" d="M 152.158,129.84C 152.194,130.775 152.447,131.375 152.917,131.64C 153.386,131.904 153.859,132.021 154.335,131.99C 154.475,131.989 154.594,131.984 154.693,131.976C 154.791,131.967 154.842,131.962 154.847,131.961L 154.847,130.714C 154.828,130.719 154.737,130.725 154.575,130.73C 154.329,130.743 154.125,130.672 153.963,130.518C 153.801,130.363 153.717,130.045 153.711,129.565L 153.711,120.65L 152.158,120.65L 152.158,129.84 Z "/>
		<path fill="#646464" fill-opacity="0.803922" stroke-width="0.2" stroke-linejoin="round" d="M 155.83,129.717C 155.858,130.509 156.143,131.111 156.688,131.523C 157.233,131.934 157.874,132.142 158.611,132.144C 159.589,132.078 160.279,131.813 160.681,131.349C 161.083,130.886 161.278,130.621 161.265,130.555L 161.296,130.555C 161.286,130.621 161.275,130.846 161.265,131.231L 161.265,131.99L 162.685,131.99L 162.685,126.98C 162.681,125.872 162.404,125.048 161.856,124.506C 161.307,123.964 160.51,123.694 159.463,123.696C 158.503,123.734 157.754,123.886 157.214,124.153C 156.674,124.419 156.4,124.571 156.391,124.609L 157.031,125.804C 157.047,125.768 157.27,125.625 157.702,125.374C 158.133,125.123 158.677,124.98 159.332,124.944C 159.866,124.934 160.3,125.077 160.634,125.372C 160.968,125.667 161.14,126.174 161.15,126.892L 161.15,127.05L 160.79,127.05C 159.974,127.001 158.973,127.125 157.788,127.423C 156.603,127.721 155.95,128.485 155.83,129.717 Z M 157.399,129.639C 157.464,128.96 157.874,128.535 158.629,128.365C 159.385,128.196 160.094,128.124 160.757,128.15L 161.166,128.15L 161.166,128.398C 161.158,129.011 160.958,129.573 160.564,130.083C 160.171,130.594 159.635,130.865 158.955,130.896C 158.438,130.883 158.05,130.753 157.79,130.506C 157.529,130.259 157.399,129.97 157.399,129.639 Z "/>
		<path fill="#646464" fill-opacity="0.803922" stroke-width="0.2" stroke-linejoin="round" d="M 164.958,131.99L 166.511,131.99L 166.511,128.575C 166.503,128.058 166.567,127.557 166.703,127.073C 166.896,126.45 167.197,125.968 167.605,125.628C 168.012,125.287 168.469,125.114 168.975,125.11C 169.098,125.112 169.203,125.12 169.289,125.135C 169.374,125.149 169.419,125.157 169.423,125.159L 169.423,123.72L 169.301,123.705C 169.223,123.696 169.13,123.691 169.023,123.69C 168.393,123.702 167.856,123.895 167.413,124.269C 166.969,124.643 166.652,125.127 166.463,125.72L 166.431,125.72C 166.432,125.791 166.437,125.777 166.447,125.679C 166.456,125.58 166.461,125.442 166.463,125.266L 166.463,123.85L 164.958,123.85L 164.958,131.99 Z "/>
	</g>
	<g>
		<path fill="#646464" fill-opacity="0.803922" stroke-width="0.2" stroke-linejoin="round" d="M 344.596,131.99L 350.9,131.99L 350.9,131.05L 345.684,131.05L 345.684,120.81L 344.596,120.81L 344.596,131.99 Z "/>
		<path fill="#646464" fill-opacity="0.803922" stroke-width="0.2" stroke-linejoin="round" d="M 352.564,122.215L 353.7,122.215L 353.7,120.825L 352.564,120.825L 352.564,122.215 Z M 352.596,131.99L 353.684,131.99L 353.684,124.01L 352.596,124.01L 352.596,131.99 Z "/>
		<path fill="#646464" fill-opacity="0.803922" stroke-width="0.2" stroke-linejoin="round" d="M 356.9,133.853L 356.495,134.734C 357.292,135.132 358.166,135.337 359.117,135.35C 360.136,135.363 361.022,135.098 361.776,134.554C 362.53,134.011 362.926,133.11 362.964,131.851L 362.964,124.01L 361.908,124.01L 361.908,124.85C 361.913,125.021 361.919,125.107 361.924,125.11L 361.892,125.11C 361.914,125.072 361.738,124.866 361.364,124.493C 360.989,124.119 360.283,123.905 359.245,123.85C 358.159,123.866 357.315,124.234 356.713,124.953C 356.111,125.673 355.805,126.648 355.796,127.88C 355.809,129.114 356.131,130.103 356.761,130.846C 357.391,131.589 358.251,131.971 359.34,131.99C 360.568,131.973 361.414,131.514 361.876,130.615L 361.908,130.615C 361.907,130.621 361.901,130.679 361.892,130.79C 361.883,130.901 361.877,131.034 361.876,131.189L 361.876,131.898C 361.857,132.781 361.584,133.422 361.059,133.821C 360.533,134.22 359.87,134.417 359.069,134.41C 358.462,134.387 357.953,134.294 357.542,134.131C 357.131,133.969 356.917,133.876 356.9,133.853 Z M 359.516,131.05C 358.708,131.038 358.07,130.748 357.602,130.181C 357.133,129.614 356.894,128.841 356.884,127.863C 356.889,126.89 357.106,126.137 357.534,125.603C 357.962,125.068 358.569,124.797 359.356,124.79C 360.083,124.771 360.683,124.99 361.156,125.448C 361.63,125.905 361.875,126.716 361.892,127.88C 361.872,129.054 361.633,129.88 361.176,130.358C 360.72,130.836 360.166,131.067 359.516,131.05 Z "/>
		<path fill="#646464" fill-opacity="0.803922" stroke-width="0.2" stroke-linejoin="round" d="M 365.556,131.99L 366.644,131.99L 366.644,128.143C 366.639,127.754 366.682,127.398 366.773,127.073C 366.971,126.391 367.336,125.843 367.866,125.429C 368.397,125.014 369.015,124.801 369.72,124.79C 370.477,124.81 370.965,125.049 371.184,125.506C 371.403,125.964 371.5,126.518 371.476,127.169L 371.476,131.99L 372.564,131.99L 372.564,126.881C 372.576,125.889 372.376,125.136 371.963,124.623C 371.55,124.11 370.85,123.853 369.865,123.85C 368.947,123.882 368.219,124.105 367.681,124.52C 367.143,124.934 366.797,125.349 366.644,125.764L 366.612,125.764C 366.613,125.76 366.619,125.696 366.628,125.574C 366.637,125.452 366.643,125.297 366.644,125.109L 366.644,120.81L 365.556,120.81L 365.556,131.99 Z "/>
		<path fill="#646464" fill-opacity="0.803922" stroke-width="0.2" stroke-linejoin="round" d="M 375.316,129.038C 375.375,130.325 375.725,131.149 376.368,131.511C 377.011,131.874 377.593,132.033 378.116,131.99C 378.415,131.98 378.569,131.969 378.58,131.959L 378.58,131.018C 378.569,131.029 378.447,131.039 378.212,131.05C 377.871,131.079 377.493,130.961 377.08,130.695C 376.667,130.429 376.441,129.839 376.404,128.927L 376.404,124.936L 378.42,124.936L 378.42,124.024L 376.404,124.024L 376.404,121.704L 375.332,121.704L 375.332,124.024L 374.26,124.024L 374.26,124.936L 375.316,124.936L 375.316,129.038 Z "/>
	</g>
	<g>
		<path fill="#646464" fill-opacity="0.603922" stroke-width="0.2" stroke-linejoin="round" d="M 118.286,8.71397C 118.226,8.71968 117.987,9.04091 117.568,9.67767C 117.149,10.3144 116.91,11.2326 116.85,12.4321C 116.871,13.5563 117.176,14.4281 117.764,15.0476C 118.353,15.667 119.098,15.9812 119.999,15.99C 121.696,15.7633 122.768,14.8567 123.215,13.27C 123.663,11.6833 124.4,10.7767 125.427,10.55C 125.892,10.5603 126.282,10.751 126.598,11.1222C 126.913,11.4934 127.077,11.9831 127.09,12.5916C 127.049,13.3223 126.885,13.9128 126.598,14.363C 126.31,14.8132 126.146,15.0448 126.105,15.0578L 127.414,15.7689C 127.46,15.7669 127.642,15.4983 127.962,14.9629C 128.282,14.4275 128.464,13.637 128.51,12.5916C 128.491,11.513 128.193,10.6443 127.617,9.9856C 127.041,9.32689 126.3,8.98836 125.394,8.97C 123.788,9.19667 122.752,10.1033 122.284,11.69C 121.817,13.2767 121.039,14.1833 119.95,14.41C 119.407,14.3947 118.991,14.202 118.704,13.8317C 118.417,13.4615 118.272,13.0056 118.27,12.464C 118.321,11.612 118.526,10.9257 118.884,10.405C 119.242,9.88426 119.447,9.61661 119.498,9.60204L 118.286,8.71397 Z "/>
		<path fill="#646464" fill-opacity="0.603922" stroke-width="0.2" stroke-linejoin="round" d="M 121.096,17.45C 119.814,17.4805 118.79,17.9074 118.026,18.7306C 117.261,19.5537 116.869,20.5903 116.85,21.8401C 116.869,23.0899 117.261,24.1264 118.026,24.9495C 118.79,25.7727 119.814,26.1995 121.096,26.23C 122.37,26.1995 123.386,25.7727 124.145,24.9495C 124.903,24.1264 125.291,23.0899 125.31,21.8401C 125.291,20.5903 124.903,19.5537 124.145,18.7306C 123.386,17.9073 122.37,17.4805 121.096,17.45 Z M 121.096,19.03C 121.973,19.0512 122.681,19.3278 123.219,19.8597C 123.758,20.3916 124.035,21.0518 124.05,21.8401C 124.035,22.6355 123.758,23.2976 123.219,23.8264C 122.681,24.3553 121.973,24.6298 121.096,24.65C 120.211,24.6298 119.496,24.3553 118.951,23.8264C 118.406,23.2976 118.126,22.6355 118.11,21.8401C 118.126,21.0518 118.406,20.3916 118.951,19.8597C 119.496,19.3278 120.211,19.0512 121.096,19.03 Z "/>
		<path fill="#646464" fill-opacity="0.603922" stroke-width="0.2" stroke-linejoin="round" d="M 119.16,27.864C 118.225,27.8996 117.625,28.1523 117.36,28.622C 117.096,29.0917 116.979,29.5644 117.01,30.0401C 117.011,30.1804 117.016,30.2998 117.024,30.3981C 117.033,30.4964 117.038,30.5478 117.039,30.5521L 118.286,30.5521C 118.281,30.5334 118.275,30.4428 118.27,30.2801C 118.257,30.0341 118.328,29.8301 118.482,29.6681C 118.637,29.5061 118.955,29.4221 119.435,29.416L 128.35,29.416L 128.35,27.864L 119.16,27.864 Z "/>
		<path fill="#646464" fill-opacity="0.603922" stroke-width="0.2" stroke-linejoin="round" d="M 126.77,32.1679L 126.77,33.736L 128.35,33.736L 128.35,32.1679L 126.77,32.1679 Z M 117.01,32.184L 117.01,33.736L 125.15,33.736L 125.15,32.184L 117.01,32.184 Z "/>
		<path fill="#646464" fill-opacity="0.603922" stroke-width="0.2" stroke-linejoin="round" d="M 121.08,35.69C 119.777,35.7006 118.75,36.0225 117.999,36.6555C 117.248,37.2885 116.865,38.1689 116.85,39.2965C 116.909,40.3032 117.147,41.0105 117.562,41.4183C 117.977,41.8261 118.215,42.0227 118.274,42.008L 118.178,42.032C 118.085,42.0273 117.955,42.0246 117.789,42.024L 117.01,42.024L 117.01,43.496L 128.35,43.496L 128.35,41.9439L 124.62,41.9439C 124.474,41.9453 124.353,41.9506 124.258,41.96C 124.163,41.9693 124.113,41.9746 124.11,41.976L 124.11,41.9439C 124.16,41.9572 124.36,41.7713 124.71,41.3863C 125.06,41.0012 125.26,40.3373 125.31,39.3946C 125.299,38.2828 124.924,37.3918 124.186,36.7216C 123.447,36.0515 122.412,35.7076 121.08,35.69 Z M 121.08,37.27C 122.029,37.2877 122.76,37.5219 123.273,37.9727C 123.785,38.4235 124.044,38.9846 124.05,39.656C 124.019,40.4398 123.712,41.0252 123.127,41.4123C 122.542,41.7995 121.866,41.9927 121.096,41.992C 120.046,41.9692 119.284,41.7249 118.809,41.2591C 118.335,40.7933 118.102,40.2426 118.11,39.607C 118.121,38.909 118.39,38.3479 118.918,37.9237C 119.446,37.4995 120.167,37.2816 121.08,37.27 Z "/>
	</g>
	<g>
		<path fill="#646464" fill-opacity="0.603922" stroke-width="0.2" stroke-linejoin="round" d="M 262.753,7.81C 261.045,7.84581 259.643,8.39729 258.548,9.46445C 257.453,10.5316 256.887,11.8995 256.85,13.5682C 256.887,15.2361 257.453,16.6013 258.548,17.6637C 259.643,18.7261 261.045,19.2749 262.753,19.31C 264.419,19.2749 265.787,18.7261 266.854,17.6637C 267.922,16.6013 268.474,15.2361 268.51,13.5682C 268.474,11.8995 267.922,10.5316 266.854,9.46445C 265.787,8.39729 264.419,7.84581 262.753,7.81 Z M 262.753,9.39C 264.016,9.42001 265.048,9.82823 265.849,10.6146C 266.65,11.401 267.064,12.3856 267.09,13.5682C 267.064,14.7501 266.65,15.7319 265.849,16.5135C 265.048,17.2952 264.016,17.7007 262.753,17.73C 261.448,17.7007 260.382,17.2952 259.553,16.5135C 258.725,15.7319 258.297,14.7501 258.27,13.5682C 258.297,12.3856 258.725,11.401 259.553,10.6146C 260.382,9.82823 261.448,9.42001 262.753,9.39 Z "/>
		<path fill="#646464" fill-opacity="0.603922" stroke-width="0.2" stroke-linejoin="round" d="M 259.942,21.264C 258.874,21.2659 258.091,21.498 257.591,21.9605C 257.092,22.4229 256.845,23.104 256.85,24.0039C 256.877,24.7815 257.084,25.4184 257.47,25.9148C 257.857,26.4111 258.263,26.7435 258.688,26.912L 258.688,26.944C 258.682,26.9426 258.623,26.9373 258.513,26.928C 258.402,26.9186 258.26,26.9133 258.088,26.912L 257.01,26.912L 257.01,28.4161L 265.15,28.4161L 265.15,26.864L 261.337,26.864C 260.507,26.8578 259.796,26.6318 259.202,26.1861C 258.608,25.7404 258.298,25.112 258.27,24.3009C 258.284,23.6851 258.481,23.2794 258.861,23.0837C 259.24,22.888 259.719,22.7988 260.295,22.816L 265.15,22.816L 265.15,21.264L 259.942,21.264 Z "/>
		<path fill="#646464" fill-opacity="0.603922" stroke-width="0.2" stroke-linejoin="round" d="M 259.931,31.344C 258.659,31.4083 257.844,31.7956 257.485,32.506C 257.126,33.2164 256.967,33.8638 257.01,34.4481C 257.02,34.7895 257.03,34.9708 257.039,34.9922L 258.302,34.9922C 258.292,34.9815 258.281,34.8588 258.27,34.6242C 258.245,34.2931 258.348,33.9311 258.578,33.5381C 258.809,33.1451 259.319,32.9311 260.108,32.896L 263.736,32.896L 263.736,34.8482L 264.984,34.8482L 264.984,32.896L 267.32,32.896L 267.32,31.392L 264.984,31.392L 264.984,30.2879L 263.736,30.2879L 263.736,31.344L 259.931,31.344 Z "/>
		<path fill="#646464" fill-opacity="0.603922" stroke-width="0.2" stroke-linejoin="round" d="M 259.16,36.624C 258.225,36.6596 257.625,36.9123 257.36,37.382C 257.096,37.8517 256.979,38.3244 257.01,38.8001C 257.011,38.9404 257.016,39.0598 257.024,39.1581C 257.033,39.2564 257.038,39.3078 257.039,39.3121L 258.286,39.3121C 258.281,39.2934 258.275,39.2028 258.27,39.0401C 258.257,38.7941 258.328,38.5901 258.482,38.4281C 258.637,38.2661 258.955,38.182 259.435,38.176L 268.35,38.176L 268.35,36.624L 259.16,36.624 Z "/>
		<path fill="#646464" fill-opacity="0.603922" stroke-width="0.2" stroke-linejoin="round" d="M 266.77,40.9279L 266.77,42.496L 268.35,42.496L 268.35,40.9279L 266.77,40.9279 Z M 257.01,40.9439L 257.01,42.496L 265.15,42.496L 265.15,40.9439L 257.01,40.9439 Z "/>
		<path fill="#646464" fill-opacity="0.603922" stroke-width="0.2" stroke-linejoin="round" d="M 257.01,44.9439L 257.01,46.496L 260.811,46.496C 261.215,46.4905 261.578,46.5346 261.901,46.6284C 262.497,46.8111 262.974,47.1365 263.335,47.6046C 263.695,48.0727 263.88,48.6297 263.89,49.2757C 263.876,49.9282 263.679,50.3604 263.299,50.5724C 262.918,50.7843 262.436,50.8815 261.853,50.864L 257.01,50.864L 257.01,52.416L 262.206,52.416C 263.24,52.4199 264.015,52.1922 264.533,51.7328C 265.051,51.2734 265.31,50.5591 265.31,49.59C 265.277,48.6834 265.056,47.9734 264.648,47.46C 264.239,46.9466 263.842,46.6093 263.457,46.448L 263.457,46.416C 263.587,46.4267 263.812,46.4374 264.132,46.448L 265.15,46.448L 265.15,44.9439L 257.01,44.9439 Z "/>
		<path fill="#646464" fill-opacity="0.603922" stroke-width="0.2" stroke-linejoin="round" d="M 261.061,54.05C 259.817,54.0691 258.81,54.4616 258.04,55.2275C 257.269,55.9934 256.873,57.0179 256.85,58.3009C 256.895,59.2729 257.075,60.0337 257.39,60.5833C 257.705,61.1329 257.885,61.4125 257.93,61.4223L 259.078,60.7839C 259.038,60.7709 258.876,60.5459 258.594,60.1088C 258.312,59.6718 258.15,59.1009 258.11,58.3963C 258.11,57.66 258.339,57.0301 258.797,56.5064C 259.255,55.9827 259.939,55.6906 260.85,55.63L 260.85,61.5021C 260.864,61.5041 260.945,61.5121 261.093,61.5261C 261.241,61.54 261.371,61.548 261.483,61.55C 262.563,61.5469 263.462,61.2499 264.179,60.6592C 264.896,60.0685 265.269,59.2029 265.296,58.0625C 265.28,56.8937 264.894,55.9388 264.139,55.1977C 263.384,54.4567 262.358,54.0741 261.061,54.05 Z M 261.95,55.6777C 262.633,55.7996 263.155,56.0725 263.517,56.4965C 263.879,56.9204 264.061,57.4318 264.064,58.0307C 264.065,58.5606 263.891,59.0071 263.542,59.3701C 263.192,59.7331 262.662,59.933 261.95,59.97L 261.95,55.6777 Z "/>
	</g>
	<ellipse fill="#646464" fill-opacity="0.603922" stroke-width="0.2" stroke-linejoin="round" cx="123" cy="106" rx="7" ry="7"/>
	<path fill="#646464" fill-opacity="0.603922" stroke-width="0.2" stroke-linejoin="round" d="M 263,99C 266.866,99 270,102.134 270,106C 270,109.866 266.866,113 263,113C 259.134,113 256,109.866 256,106C 256,102.134 259.134,99 263,99 Z M 263,101C 260.239,101 258,103.239 258,106C 258,108.761 260.239,111 263,111C 265.761,111 268,108.761 268,106C 268,103.239 265.761,101 263,101 Z "/>
	<path fill="#646464" fill-opacity="0.603922" stroke-width="0.2" stroke-linejoin="round" d="M 297,99C 300.866,99 304,102.134 304,106C 304,109.866 300.866,113 297,113C 293.134,113 290,109.866 290,106C 290,102.134 293.134,99 297,99 Z M 297,100C 293.686,100 291,102.686 291,106C 291,109.314 293.686,112 297,112C 300.314,112 303,109.314 303,106C 303,102.686 300.314,100 297,100 Z "/>
	<path fill="#646464" fill-opacity="1" stroke-width="0.2" stroke-linejoin="round" d="M 360.708,70.1667C 379.693,70.1667 395.083,77.3488 395.083,86.2083L 395.083,97.6667L 326.333,97.6667L 326.333,86.2083C 326.333,77.3488 341.724,70.1667 360.708,70.1667 Z M 390.5,86.2083C 390.5,79.8801 377.162,74.75 360.708,74.75C 344.255,74.75 330.917,79.8801 330.917,86.2083L 330.917,93.0833L 390.5,93.0833L 390.5,86.2083 Z M 360.708,28.9167C 369.568,28.9167 376.75,36.0988 376.75,44.9584C 376.75,53.8179 369.568,61 360.708,61C 351.849,61 344.667,53.8179 344.667,44.9584C 344.667,36.0988 351.849,28.9167 360.708,28.9167 Z M 360.708,33.5C 354.38,33.5 349.25,38.6301 349.25,44.9584C 349.25,51.2866 354.38,56.4167 360.708,56.4167C 367.037,56.4167 372.167,51.2866 372.167,44.9584C 372.167,38.6301 367.037,33.5 360.708,33.5 Z "/>
	<path fill="#646464" fill-opacity="1" stroke-width="0.2" stroke-linejoin="round" d="M 57,24.3333C 67.1252,24.3333 75.3334,32.5414 75.3334,42.6667C 75.3334,52.7919 67.1252,61 57,61C 46.8748,61 38.6667,52.7919 38.6667,42.6667C 38.6667,32.5414 46.8748,24.3333 57,24.3333 Z M 57,70.1666C 77.2505,70.1666 93.6667,78.3748 93.6667,88.5L 93.6667,97.6667L 20.3333,97.6667L 20.3334,88.5C 20.3334,78.3748 36.7496,70.1666 57,70.1666 Z "/>
	<path fill="#646464" fill-opacity="1" stroke-width="0.2" stroke-linejoin="round" d="M 196.997,65.5745C 184.773,65.5745 160.33,71.6932 160.33,83.9078L 160.33,97.6578L 233.664,97.6578L 233.664,83.9078C 233.664,71.6932 209.221,65.5745 196.997,65.5745 Z M 196.997,24.3245C 186.877,24.3245 178.664,32.5378 178.664,42.6578C 178.664,52.7732 186.877,60.9911 196.997,60.9911C 207.117,60.9911 215.33,52.7732 215.33,42.6578C 215.33,32.5378 207.117,24.3245 196.997,24.3245 Z M 196.997,74.2828C 210.628,74.2828 224.955,80.9607 224.955,83.9078L 224.955,88.9495L 169.039,88.9495L 169.039,83.9078C 169.039,80.9607 183.366,74.2828 196.997,74.2828 Z M 196.997,33.0328C 202.305,33.0328 206.622,37.3503 206.622,42.6578C 206.622,47.9653 202.305,52.2828 196.997,52.2828C 191.69,52.2828 187.372,47.9653 187.372,42.6578C 187.372,37.3503 191.69,33.0328 196.997,33.0328 Z "/>
	<path fill="none" stroke-width="2" stroke-linejoin="round" stroke="#646464" stroke-opacity="0.603922" d="M 271,113L 271,117L 2,117L 2,113"/>
	<path fill="none" stroke-width="2" stroke-linejoin="round" stroke="#646464" stroke-opacity="0.603922" d="M 418,113L 418,117L 289.001,117L 289.001,113"/>
</svg>
