<?xml version="1.0" encoding="utf-8"?>
<!DOCTYPE svg PUBLIC "-//W3C//DTD SVG 1.1//EN" "http://www.w3.org/Graphics/SVG/1.1/DTD/svg11.dtd">
<svg xmlns="http://www.w3.org/2000/svg" xmlns:xlink="http://www.w3.org/1999/xlink" version="1.1" baseProfile="full" width="420" height="140" viewBox="0 0 420.00 140.00" enable-background="new 0 0 420.00 140.00" xml:space="preserve">
	<g>
		<path fill="#646464" fill-opacity="0.803922" stroke-width="0.2" stroke-linejoin="round" d="M 18.1556,132.08L 19.7397,132.08L 20.2838,124.942C 20.3061,124.568 20.3174,124.197 20.3178,123.829C 20.3181,123.461 20.3174,123.263 20.3158,123.235L 20.3478,123.235C 20.3571,123.268 20.4265,123.476 20.5558,123.859C 20.6851,124.242 20.8185,124.603 20.9558,124.942L 23.196,130L 24.604,130L 26.8602,124.942C 27.0045,124.598 27.1399,124.24 27.2662,123.869C 27.3925,123.499 27.4599,123.298 27.4682,123.268L 27.5002,123.268C 27.4979,123.294 27.4946,123.487 27.4902,123.845C 27.4859,124.204 27.4946,124.57 27.5162,124.942L 28.0763,132.08L 29.6443,132.08L 28.7323,120.74L 27.0682,120.74L 24.476,126.89C 24.3407,127.229 24.2153,127.562 24.1,127.891C 23.9847,128.219 23.9233,128.396 23.916,128.42L 23.884,128.42C 23.8767,128.396 23.8153,128.219 23.7,127.891C 23.5846,127.562 23.4593,127.229 23.324,126.89L 20.7318,120.74L 19.0677,120.74L 18.1556,132.08 Z "/>
		<path fill="#646464" fill-opacity="0.803922" stroke-width="0.2" stroke-linejoin="round" d="M 31.4359,129.807C 31.463,130.599 31.7489,131.201 32.2935,131.613C 32.8382,132.024 33.4791,132.232 34.2163,132.234C 35.1941,132.168 35.8841,131.903 36.2865,131.439C 36.6888,130.976 36.8833,130.711 36.87,130.645L 36.9016,130.645C 36.891,130.711 36.8805,130.936 36.87,131.321L 36.87,132.08L 38.29,132.08L 38.29,127.07C 38.2861,125.962 38.0099,125.138 37.4613,124.596C 36.9127,124.054 36.115,123.784 35.0682,123.786C 34.1088,123.824 33.3592,123.976 32.8195,124.243C 32.2797,124.509 32.0052,124.661 31.996,124.699L 32.636,125.894C 32.652,125.858 32.8758,125.715 33.3074,125.464C 33.739,125.213 34.2822,125.07 34.9371,125.034C 35.4716,125.024 35.9057,125.167 36.2395,125.462C 36.5732,125.757 36.7452,126.264 36.7555,126.982L 36.7555,127.14L 36.3951,127.14C 35.5793,127.091 34.5787,127.215 33.3933,127.513C 32.208,127.811 31.5555,128.575 31.4359,129.807 Z M 33.004,129.729C 33.0692,129.05 33.4795,128.625 34.2347,128.455C 34.99,128.286 35.6992,128.214 36.3623,128.24L 36.7719,128.24L 36.7719,128.488C 36.7637,129.102 36.563,129.663 36.1698,130.173C 35.7767,130.684 35.2402,130.955 34.5603,130.986C 34.0439,130.973 33.6556,130.843 33.3952,130.596C 33.1348,130.349 33.0044,130.06 33.004,129.729 Z "/>
		<path fill="#646464" fill-opacity="0.803922" stroke-width="0.2" stroke-linejoin="round" d="M 40.564,132.08L 42.116,132.08L 42.116,128.665C 42.108,128.148 42.172,127.647 42.3081,127.163C 42.5017,126.54 42.8024,126.058 43.2101,125.718C 43.6178,125.377 44.0745,125.204 44.5802,125.2C 44.7039,125.202 44.8085,125.21 44.8942,125.225C 44.9799,125.239 45.0246,125.247 45.0282,125.249L 45.0282,123.81L 44.9062,123.795C 44.8285,123.786 44.7359,123.781 44.6282,123.78C 43.9985,123.792 43.4618,123.985 43.0181,124.359C 42.5744,124.733 42.2577,125.217 42.068,125.81L 42.036,125.81C 42.0374,125.881 42.0427,125.867 42.052,125.769C 42.0614,125.67 42.0667,125.532 42.068,125.356L 42.068,123.94L 40.564,123.94L 40.564,132.08 Z "/>
		<path fill="#646464" fill-opacity="0.803922" stroke-width="0.2" stroke-linejoin="round" d="M 46.6439,132.08L 48.196,132.08L 48.196,128.234L 49.3641,128.234L 51.7963,132.08L 53.6044,132.08L 50.6122,127.58L 50.6122,127.549L 53.3004,123.94L 51.5402,123.94L 49.3321,126.986L 48.196,126.986L 48.196,120.74L 46.6439,120.74L 46.6439,132.08 Z "/>
		<path fill="#646464" fill-opacity="0.803922" stroke-width="0.2" stroke-linejoin="round" d="M 54.63,128.01C 54.6406,129.313 54.9625,130.34 55.5955,131.091C 56.2285,131.842 57.1089,132.225 58.2365,132.24C 59.2432,132.181 59.9505,131.943 60.3583,131.528C 60.7661,131.113 60.9627,130.875 60.948,130.816L 60.972,130.912C 60.9673,131.005 60.9646,131.135 60.964,131.301L 60.964,132.08L 62.436,132.08L 62.436,120.74L 60.8839,120.74L 60.8839,124.47C 60.8853,124.616 60.8906,124.737 60.8999,124.832C 60.9093,124.927 60.9146,124.977 60.916,124.98L 60.8839,124.98C 60.8972,124.93 60.7113,124.73 60.3263,124.38C 59.9412,124.03 59.2773,123.83 58.3346,123.78C 57.2228,123.791 56.3318,124.166 55.6616,124.904C 54.9915,125.643 54.6476,126.678 54.63,128.01 Z M 56.21,128.01C 56.2277,127.061 56.4619,126.33 56.9127,125.817C 57.3635,125.305 57.9246,125.046 58.596,125.04C 59.3798,125.071 59.9652,125.378 60.3523,125.963C 60.7395,126.548 60.9327,127.224 60.9319,127.994C 60.9092,129.044 60.6649,129.806 60.1991,130.281C 59.7333,130.755 59.1826,130.988 58.547,130.98C 57.849,130.969 57.2879,130.7 56.8637,130.172C 56.4395,129.644 56.2216,128.923 56.21,128.01 Z "/>
		<path fill="#646464" fill-opacity="0.803922" stroke-width="0.2" stroke-linejoin="round" d="M 64.23,127.994C 64.2605,129.276 64.6874,130.3 65.5106,131.064C 66.3337,131.829 67.3703,132.221 68.6201,132.24C 69.8699,132.221 70.9064,131.829 71.7295,131.064C 72.5527,130.3 72.9795,129.276 73.01,127.994C 72.9795,126.72 72.5527,125.704 71.7295,124.945C 70.9064,124.187 69.8699,123.799 68.6201,123.78C 67.3703,123.799 66.3337,124.187 65.5106,124.945C 64.6874,125.704 64.2605,126.72 64.23,127.994 Z M 65.81,127.994C 65.8312,127.117 66.1078,126.409 66.6397,125.871C 67.1716,125.332 67.8318,125.055 68.6201,125.04C 69.4155,125.055 70.0776,125.332 70.6064,125.871C 71.1353,126.409 71.4098,127.117 71.43,127.994C 71.4098,128.879 71.1353,129.594 70.6064,130.139C 70.0776,130.684 69.4155,130.964 68.6201,130.98C 67.8318,130.964 67.1716,130.684 66.6397,130.139C 66.1078,129.594 65.8312,128.879 65.81,127.994 Z "/>
		<path fill="#646464" fill-opacity="0.803922" stroke-width="0.2" stroke-linejoin="round" d="M 76.4338,132.08L 78.159,132.08L 79.8203,126.914C 79.8855,126.689 79.9388,126.485 79.98,126.302C 80.0213,126.118 80.0426,126.021 80.0439,126.01L 80.0759,126.01C 80.0772,126.021 80.0985,126.118 80.1398,126.302C 80.181,126.485 80.2343,126.689 80.2995,126.914L 81.9768,132.08L 83.686,132.08L 86.29,123.94L 84.6604,123.94L 82.9672,129.773C 82.9033,129.997 82.8554,130.198 82.8234,130.377C 82.7915,130.555 82.7755,130.65 82.7755,130.66L 82.7436,130.66C 82.7422,130.65 82.7209,130.555 82.6796,130.377C 82.6384,130.198 82.5851,129.997 82.5199,129.773L 80.7787,123.94L 79.357,123.94L 77.5999,129.771C 77.5353,129.995 77.4847,130.197 77.4481,130.376C 77.4115,130.555 77.3929,130.65 77.3922,130.66L 77.3603,130.66C 77.3526,130.65 77.332,130.555 77.2984,130.376C 77.2648,130.197 77.2162,129.995 77.1526,129.771L 75.4753,123.94L 73.83,123.94L 76.4338,132.08 Z "/>
		<path fill="#646464" fill-opacity="0.803922" stroke-width="0.2" stroke-linejoin="round" d="M 87.6039,132.08L 89.156,132.08L 89.156,128.279C 89.1505,127.875 89.1946,127.512 89.2884,127.189C 89.4711,126.593 89.7965,126.116 90.2646,125.755C 90.7327,125.395 91.2897,125.21 91.9357,125.2C 92.5882,125.214 93.0204,125.411 93.2324,125.791C 93.4443,126.172 93.5415,126.654 93.5239,127.237L 93.5239,132.08L 95.076,132.08L 95.076,126.884C 95.0799,125.85 94.8521,125.075 94.3928,124.557C 93.9334,124.039 93.2191,123.78 92.25,123.78C 91.3434,123.813 90.6334,124.034 90.12,124.442C 89.6066,124.851 89.2693,125.248 89.108,125.633L 89.076,125.633C 89.0867,125.503 89.0974,125.278 89.108,124.958L 89.108,123.94L 87.6039,123.94L 87.6039,132.08 Z "/>
	</g>
	<g>
		<path fill="#646464" fill-opacity="0.803922" stroke-width="0.2" stroke-linejoin="round" d="M 183.81,126.515C 183.849,128.221 184.386,129.595 185.422,130.635C 186.458,131.676 187.757,132.211 189.32,132.24C 190.448,132.184 191.309,131.96 191.903,131.569C 192.497,131.178 192.797,130.954 192.802,130.898L 192.833,130.898C 192.832,130.9 192.83,130.948 192.825,131.043C 192.821,131.138 192.818,131.248 192.817,131.373L 192.817,132.08L 194.19,132.08L 194.19,126.5L 190.925,126.5L 190.925,127.76L 192.77,127.76L 192.77,129.403C 192.759,129.462 192.468,129.698 191.899,130.111C 191.33,130.525 190.551,130.761 189.561,130.82C 188.348,130.797 187.357,130.388 186.585,129.595C 185.814,128.802 185.415,127.765 185.39,126.484C 185.401,125.208 185.78,124.149 186.525,123.308C 187.27,122.467 188.314,122.031 189.657,122C 190.632,122.047 191.405,122.237 191.975,122.569C 192.545,122.9 192.836,123.09 192.849,123.137L 193.638,121.921C 193.636,121.865 193.29,121.642 192.6,121.251C 191.91,120.859 190.886,120.636 189.529,120.58C 187.845,120.617 186.479,121.186 185.43,122.287C 184.382,123.388 183.842,124.797 183.81,126.515 Z "/>
		<path fill="#646464" fill-opacity="0.803922" stroke-width="0.2" stroke-linejoin="round" d="M 196.288,122.32L 197.856,122.32L 197.856,120.74L 196.288,120.74L 196.288,122.32 Z M 196.304,132.08L 197.856,132.08L 197.856,123.94L 196.304,123.94L 196.304,132.08 Z "/>
		<path fill="#646464" fill-opacity="0.803922" stroke-width="0.2" stroke-linejoin="round" d="M 200.784,129.159C 200.848,130.431 201.236,131.246 201.946,131.605C 202.656,131.964 203.304,132.123 203.888,132.08C 204.229,132.07 204.411,132.06 204.432,132.051L 204.432,130.788C 204.421,130.799 204.299,130.809 204.064,130.82C 203.733,130.845 203.371,130.742 202.978,130.512C 202.585,130.281 202.371,129.771 202.336,128.982L 202.336,125.354L 204.288,125.354L 204.288,124.106L 202.336,124.106L 202.336,121.77L 200.832,121.77L 200.832,124.106L 199.728,124.106L 199.728,125.354L 200.784,125.354L 200.784,129.159 Z "/>
		<path fill="#646464" fill-opacity="0.803922" stroke-width="0.2" stroke-linejoin="round" d="M 206.53,132.08L 208.11,132.08L 208.11,127.12L 213.89,127.12L 213.89,132.08L 215.47,132.08L 215.47,120.74L 213.89,120.74L 213.89,125.86L 208.11,125.86L 208.11,120.74L 206.53,120.74L 206.53,132.08 Z "/>
		<path fill="#646464" fill-opacity="0.803922" stroke-width="0.2" stroke-linejoin="round" d="M 218.224,129.148C 218.226,130.216 218.458,130.999 218.92,131.499C 219.383,131.998 220.064,132.245 220.964,132.24C 221.741,132.213 222.378,132.006 222.875,131.62C 223.371,131.233 223.703,130.827 223.872,130.402L 223.904,130.402C 223.903,130.408 223.897,130.467 223.888,130.577C 223.879,130.688 223.873,130.83 223.872,131.002L 223.872,132.08L 225.376,132.08L 225.376,123.94L 223.824,123.94L 223.824,127.753C 223.818,128.583 223.592,129.294 223.146,129.888C 222.7,130.482 222.072,130.792 221.261,130.82C 220.645,130.806 220.239,130.609 220.044,130.229C 219.848,129.85 219.759,129.371 219.776,128.795L 219.776,123.94L 218.224,123.94L 218.224,129.148 Z "/>
		<path fill="#646464" fill-opacity="0.803922" stroke-width="0.2" stroke-linejoin="round" d="M 227.824,132.08L 229.296,132.08L 229.296,131.496C 229.295,131.326 229.289,131.187 229.28,131.08C 229.271,130.973 229.265,130.918 229.264,130.914L 229.296,130.914C 229.289,130.97 229.491,131.191 229.903,131.577C 230.314,131.964 230.979,132.185 231.896,132.24C 233.003,132.228 233.897,131.851 234.576,131.107C 235.255,130.364 235.605,129.326 235.624,127.994C 235.613,126.691 235.291,125.667 234.658,124.921C 234.026,124.175 233.148,123.795 232.027,123.78C 231.064,123.833 230.379,124.046 229.971,124.418C 229.563,124.791 229.365,125.003 229.376,125.056L 229.344,125.056C 229.345,125.053 229.351,124.993 229.36,124.876C 229.369,124.759 229.375,124.606 229.376,124.417L 229.376,120.74L 227.824,120.74L 227.824,132.08 Z M 229.328,128.026C 229.35,126.976 229.592,126.214 230.056,125.739C 230.519,125.265 231.072,125.032 231.716,125.04C 232.415,125.051 232.976,125.32 233.401,125.848C 233.826,126.376 234.044,127.097 234.056,128.01C 234.038,128.959 233.804,129.69 233.352,130.203C 232.901,130.715 232.339,130.974 231.667,130.98C 230.882,130.949 230.296,130.642 229.908,130.057C 229.521,129.472 229.327,128.796 229.328,128.026 Z "/>
	</g>
	<g>
		<path fill="#646464" fill-opacity="0.803922" stroke-width="0.2" stroke-linejoin="round" d="M 317.79,126.353C 317.817,128.054 318.347,129.451 319.38,130.544C 320.414,131.637 321.792,132.203 323.514,132.24C 324.936,132.167 326.021,131.874 326.768,131.361C 327.516,130.849 327.893,130.556 327.899,130.483L 327.051,129.342C 327.038,129.403 326.723,129.65 326.104,130.081C 325.486,130.512 324.639,130.758 323.562,130.82C 322.289,130.785 321.276,130.341 320.524,129.488C 319.772,128.636 319.388,127.586 319.37,126.337C 319.386,125.102 319.766,124.078 320.51,123.265C 321.254,122.452 322.266,122.03 323.546,122C 324.536,122.052 325.324,122.258 325.91,122.618C 326.496,122.979 326.796,123.185 326.81,123.236L 327.595,122.047C 327.593,121.986 327.248,121.742 326.558,121.314C 325.869,120.886 324.844,120.641 323.482,120.58C 321.81,120.615 320.451,121.165 319.406,122.232C 318.361,123.298 317.822,124.672 317.79,126.353 Z "/>
		<path fill="#646464" fill-opacity="0.803922" stroke-width="0.2" stroke-linejoin="round" d="M 329.15,127.994C 329.181,129.276 329.607,130.3 330.431,131.064C 331.254,131.829 332.29,132.221 333.54,132.24C 334.79,132.221 335.826,131.829 336.65,131.064C 337.473,130.3 337.9,129.276 337.93,127.994C 337.9,126.72 337.473,125.704 336.65,124.945C 335.826,124.187 334.79,123.799 333.54,123.78C 332.29,123.799 331.254,124.187 330.431,124.945C 329.607,125.704 329.181,126.72 329.15,127.994 Z M 330.73,127.994C 330.751,127.117 331.028,126.409 331.56,125.871C 332.092,125.332 332.752,125.055 333.54,125.04C 334.336,125.055 334.998,125.332 335.526,125.871C 336.055,126.409 336.33,127.117 336.35,127.994C 336.33,128.879 336.055,129.594 335.526,130.139C 334.998,130.684 334.336,130.964 333.54,130.98C 332.752,130.964 332.092,130.684 331.56,130.139C 331.028,129.594 330.751,128.879 330.73,127.994 Z "/>
		<path fill="#646464" fill-opacity="0.803922" stroke-width="0.2" stroke-linejoin="round" d="M 339.564,132.08L 341.116,132.08L 341.116,128.298C 341.108,127.913 341.141,127.553 341.214,127.218C 341.372,126.611 341.653,126.101 342.058,125.687C 342.462,125.273 342.967,125.057 343.572,125.04C 344.187,125.059 344.584,125.271 344.764,125.674C 344.944,126.078 345.024,126.56 345.004,127.119L 345.004,132.08L 346.556,132.08L 346.556,128.298C 346.553,127.875 346.591,127.493 346.67,127.152C 346.822,126.57 347.099,126.077 347.502,125.672C 347.904,125.268 348.397,125.057 348.98,125.04C 349.582,125.054 349.98,125.255 350.176,125.644C 350.371,126.032 350.46,126.524 350.444,127.119L 350.444,132.08L 351.996,132.08L 351.996,126.775C 351.999,125.747 351.781,124.99 351.342,124.503C 350.902,124.017 350.224,123.776 349.305,123.78C 348.628,123.793 348.03,123.96 347.512,124.283C 346.994,124.605 346.617,125.005 346.38,125.482L 346.348,125.482C 346.084,124.343 345.268,123.776 343.898,123.78C 343.242,123.795 342.658,123.969 342.147,124.301C 341.636,124.633 341.276,125.032 341.068,125.498L 341.036,125.498C 341.037,125.504 341.043,125.455 341.052,125.35C 341.061,125.245 341.067,125.115 341.068,124.958L 341.068,123.94L 339.564,123.94L 339.564,132.08 Z "/>
		<path fill="#646464" fill-opacity="0.803922" stroke-width="0.2" stroke-linejoin="round" d="M 354.124,132.08L 355.676,132.08L 355.676,128.298C 355.668,127.913 355.7,127.553 355.774,127.218C 355.932,126.611 356.213,126.101 356.618,125.687C 357.022,125.273 357.527,125.057 358.132,125.04C 358.747,125.059 359.144,125.271 359.324,125.674C 359.504,126.078 359.584,126.56 359.564,127.119L 359.564,132.08L 361.116,132.08L 361.116,128.298C 361.113,127.875 361.151,127.493 361.23,127.152C 361.382,126.57 361.659,126.077 362.062,125.672C 362.464,125.268 362.957,125.057 363.54,125.04C 364.142,125.054 364.54,125.255 364.736,125.644C 364.931,126.032 365.02,126.524 365.004,127.119L 365.004,132.08L 366.556,132.08L 366.556,126.775C 366.559,125.747 366.341,124.99 365.902,124.503C 365.462,124.017 364.784,123.776 363.865,123.78C 363.188,123.793 362.59,123.96 362.072,124.283C 361.554,124.605 361.177,125.005 360.94,125.482L 360.908,125.482C 360.644,124.343 359.828,123.776 358.458,123.78C 357.802,123.795 357.218,123.969 356.707,124.301C 356.196,124.633 355.836,125.032 355.628,125.498L 355.596,125.498C 355.597,125.504 355.603,125.455 355.612,125.35C 355.621,125.245 355.627,125.115 355.628,124.958L 355.628,123.94L 354.124,123.94L 354.124,132.08 Z "/>
		<path fill="#646464" fill-opacity="0.803922" stroke-width="0.2" stroke-linejoin="round" d="M 368.684,129.148C 368.686,130.216 368.918,130.999 369.381,131.499C 369.843,131.998 370.524,132.245 371.424,132.24C 372.202,132.213 372.839,132.006 373.335,131.62C 373.831,131.233 374.164,130.827 374.332,130.402L 374.364,130.402C 374.363,130.408 374.357,130.467 374.348,130.577C 374.339,130.688 374.333,130.83 374.332,131.002L 374.332,132.08L 375.836,132.08L 375.836,123.94L 374.284,123.94L 374.284,127.753C 374.278,128.583 374.052,129.294 373.606,129.888C 373.16,130.482 372.532,130.792 371.721,130.82C 371.105,130.806 370.699,130.609 370.504,130.229C 370.308,129.85 370.219,129.371 370.236,128.795L 370.236,123.94L 368.684,123.94L 368.684,129.148 Z "/>
		<path fill="#646464" fill-opacity="0.803922" stroke-width="0.2" stroke-linejoin="round" d="M 378.284,132.08L 379.836,132.08L 379.836,128.279C 379.831,127.875 379.875,127.512 379.968,127.189C 380.151,126.593 380.477,126.116 380.945,125.755C 381.413,125.395 381.97,125.21 382.616,125.2C 383.268,125.214 383.7,125.411 383.912,125.791C 384.124,126.172 384.222,126.654 384.204,127.237L 384.204,132.08L 385.756,132.08L 385.756,126.884C 385.76,125.85 385.532,125.075 385.073,124.557C 384.613,124.039 383.899,123.78 382.93,123.78C 382.023,123.813 381.313,124.034 380.8,124.442C 380.287,124.851 379.949,125.248 379.788,125.633L 379.756,125.633C 379.767,125.503 379.777,125.278 379.788,124.958L 379.788,123.94L 378.284,123.94L 378.284,132.08 Z "/>
		<path fill="#646464" fill-opacity="0.803922" stroke-width="0.2" stroke-linejoin="round" d="M 387.868,122.32L 389.436,122.32L 389.436,120.74L 387.868,120.74L 387.868,122.32 Z M 387.884,132.08L 389.436,132.08L 389.436,123.94L 387.884,123.94L 387.884,132.08 Z "/>
		<path fill="#646464" fill-opacity="0.803922" stroke-width="0.2" stroke-linejoin="round" d="M 392.364,129.159C 392.428,130.431 392.816,131.246 393.526,131.605C 394.236,131.964 394.884,132.123 395.468,132.08C 395.81,132.07 395.991,132.06 396.012,132.051L 396.012,130.788C 396.002,130.799 395.879,130.809 395.644,130.82C 395.313,130.845 394.951,130.742 394.558,130.512C 394.165,130.281 393.951,129.771 393.916,128.982L 393.916,125.354L 395.868,125.354L 395.868,124.106L 393.916,124.106L 393.916,121.77L 392.412,121.77L 392.412,124.106L 391.308,124.106L 391.308,125.354L 392.364,125.354L 392.364,129.159 Z "/>
		<path fill="#646464" fill-opacity="0.803922" stroke-width="0.2" stroke-linejoin="round" d="M 396.558,134.975C 396.566,134.994 396.712,135.072 396.997,135.208C 397.281,135.343 397.654,135.421 398.116,135.44C 398.687,135.44 399.201,135.287 399.657,134.981C 400.114,134.675 400.469,134.219 400.723,133.613L 404.49,123.94L 402.821,123.94L 400.866,129.319C 400.792,129.544 400.729,129.758 400.677,129.963C 400.625,130.168 400.598,130.277 400.595,130.291L 400.564,130.291C 400.561,130.276 400.53,130.164 400.472,129.955C 400.414,129.746 400.344,129.528 400.262,129.303L 398.243,123.94L 396.51,123.94L 399.88,132.041L 399.483,132.981C 399.329,133.357 399.128,133.65 398.879,133.86C 398.63,134.07 398.349,134.177 398.036,134.18C 397.781,134.166 397.563,134.109 397.382,134.01C 397.201,133.911 397.106,133.854 397.098,133.84L 396.558,134.975 Z "/>
	</g>
	<path fill="#646464" fill-opacity="1" fill-rule="evenodd" stroke-width="0.2" stroke-linejoin="round" d="M 209.996,14.1667C 184.69,14.1667 164.167,34.6869 164.167,60.0029C 164.167,80.2509 177.298,97.4298 195.511,103.491C 197.804,103.912 198.64,102.497 198.64,101.282C 198.64,100.194 198.6,97.3116 198.578,93.4867C 185.829,96.2565 183.139,87.3428 183.139,87.3428C 181.054,82.048 178.049,80.6383 178.049,80.6383C 173.888,77.7946 178.364,77.8523 178.364,77.8523C 182.965,78.1763 185.385,82.5755 185.385,82.5755C 189.473,89.5796 196.113,87.5572 198.724,86.3838C 199.141,83.4219 200.325,81.4023 201.634,80.2565C 191.456,79.0998 180.756,75.1678 180.756,57.6042C 180.756,52.6007 182.543,48.5093 185.475,45.3054C 185.002,44.1458 183.429,39.4858 185.925,33.1756C 185.925,33.1756 189.771,31.9432 198.527,37.8741C 202.182,36.8576 206.105,36.3491 210.001,36.3315C 213.896,36.3491 217.815,36.8576 221.476,37.8741C 230.226,31.9432 234.067,33.1756 234.067,33.1756C 236.568,39.4858 234.995,44.1458 234.525,45.3054C 237.463,48.5093 239.235,52.6007 239.235,57.6042C 239.235,75.2116 228.518,79.086 218.31,80.2208C 219.953,81.6357 221.419,84.4331 221.419,88.7086C 221.419,94.8358 221.363,99.7792 221.363,101.282C 221.363,102.508 222.19,103.934 224.514,103.486C 242.713,97.4132 255.833,80.2456 255.833,60.0029C 255.833,34.6869 235.31,14.1667 209.996,14.1667 Z "/>
	<path fill="#646464" fill-opacity="1" stroke-width="0.2" stroke-linejoin="miter" d="M 363,32.5C 355.406,32.5 349.25,38.6559 349.25,46.25C 349.25,53.8441 355.406,60 363,60C 370.594,60 376.75,53.8441 376.75,46.25C 376.75,38.6559 370.594,32.5 363,32.5 Z M 335.5,42.4275C 329.172,42.4275 324.042,47.5576 324.042,53.8858C 324.042,60.214 329.172,65.3442 335.5,65.3442C 339.528,65.3442 343.053,63.2592 345.096,60.1164C 342.023,56.2614 340.083,51.5139 340.083,46.25C 340.083,45.3191 340.161,44.4052 340.271,43.5018C 338.815,42.8308 337.209,42.4275 335.5,42.4275 Z M 390.5,42.4275C 388.791,42.4275 387.185,42.8308 385.729,43.5018C 385.84,44.4052 385.917,45.3191 385.917,46.25C 385.917,51.5139 383.978,56.2614 380.904,60.1164C 382.947,63.2592 386.472,65.3442 390.5,65.3442C 396.828,65.3442 401.958,60.214 401.958,53.8858C 401.958,47.5576 396.828,42.4275 390.5,42.4275 Z M 363,69.1667C 353.833,69.1667 335.5,73.75 335.5,82.9167L 335.5,92.0833L 390.5,92.0833L 390.5,82.9167C 390.5,73.75 372.167,69.1667 363,69.1667 Z M 329.422,73.5978C 321.737,74.9298 312.583,78.5273 312.583,84.4474L 312.583,92.0833L 326.333,92.0833L 326.333,82.9167C 326.333,79.3459 327.653,76.1888 329.422,73.5978 Z M 396.578,73.5978C 398.346,76.1888 399.667,79.3459 399.667,82.9167L 399.667,92.0833L 413.417,92.0833L 413.417,84.4474C 413.417,78.5273 404.263,74.9298 396.578,73.5978 Z "/>
	<path fill="#646464" fill-opacity="1" stroke-width="0.2" stroke-linejoin="round" d="M 61.5805,46.2411L 86.7889,46.2411L 61.5805,21.0328L 61.5805,46.2411 Z M 29.4972,14.1578L 66.1639,14.1578L 93.6639,41.6578L 93.6639,96.6578C 93.6639,101.718 89.5572,105.824 84.4972,105.824L 29.4513,105.824C 24.3913,105.824 20.3305,101.718 20.3305,96.6578L 20.3764,23.3245C 20.3764,18.2645 24.4325,14.1578 29.4972,14.1578 Z M 52.4167,23.3333L 29.5,23.3333L 29.5,96.6667L 52.4167,96.6667L 84.5,96.6667L 84.5,55.4167L 52.4167,55.4167L 52.4167,23.3333 Z "/>
</svg>
