<?xml version="1.0" encoding="utf-8"?>
<!DOCTYPE svg PUBLIC "-//W3C//DTD SVG 1.1//EN" "http://www.w3.org/Graphics/SVG/1.1/DTD/svg11.dtd">
<svg xmlns="http://www.w3.org/2000/svg" xmlns:xlink="http://www.w3.org/1999/xlink" version="1.1" baseProfile="full" width="420" height="140" viewBox="0 0 420.00 140.00" enable-background="new 0 0 420.00 140.00" xml:space="preserve">
	<path fill="#000000" fill-opacity="1" stroke-width="0.2" stroke-linejoin="round" d="M 59.5805,46.2411L 84.7889,46.2411L 59.5805,21.0328L 59.5805,46.2411 Z M 27.4972,14.1578L 64.1639,14.1578L 91.6639,41.6578L 91.6639,96.6578C 91.6639,101.718 87.5572,105.824 82.4972,105.824L 27.4513,105.824C 22.3913,105.824 18.3305,101.718 18.3305,96.6578L 18.3764,23.3245C 18.3764,18.2645 22.4325,14.1578 27.4972,14.1578 Z M 50.4167,23.3333L 27.5,23.3333L 27.5,96.6667L 50.4167,96.6667L 82.5,96.6667L 82.5,55.4167L 50.4167,55.4167L 50.4167,23.3333 Z "/>
	<path fill="#646464" fill-opacity="0.603922" stroke-width="0.2" stroke-linejoin="round" d="M 4,5.00005L 106,5.00005C 108.209,5.00005 110,6.79091 110,9.00005L 110,111C 110,113.209 108.209,115 106,115L 4,115C 1.79086,115 0,113.209 0,111L 0,9.00005C 0,6.79091 1.79086,5.00005 4,5.00005 Z "/>
	<g>
		<path fill="#000000" fill-opacity="1" stroke-linejoin="round" d="M 17.1356,133.99L 18.7197,133.99L 19.2638,126.852C 19.2861,126.478 19.2974,126.107 19.2978,125.739C 19.2981,125.371 19.2974,125.173 19.2958,125.145L 19.3278,125.145C 19.3371,125.178 19.4065,125.386 19.5358,125.769C 19.6651,126.152 19.7985,126.513 19.9358,126.852L 22.176,131.91L 23.584,131.91L 25.8402,126.852C 25.9845,126.508 26.1199,126.15 26.2462,125.779C 26.3725,125.409 26.4399,125.208 26.4482,125.178L 26.4802,125.178C 26.4779,125.204 26.4746,125.397 26.4702,125.755C 26.4659,126.114 26.4746,126.479 26.4962,126.852L 27.0563,133.99L 28.6243,133.99L 27.7123,122.65L 26.0482,122.65L 23.456,128.8C 23.3207,129.139 23.1954,129.472 23.08,129.801C 22.9647,130.129 22.9033,130.306 22.896,130.33L 22.864,130.33C 22.8567,130.306 22.7953,130.129 22.68,129.801C 22.5646,129.472 22.4393,129.139 22.304,128.8L 19.7118,122.65L 18.0477,122.65L 17.1356,133.99 Z "/>
		<path fill="#000000" fill-opacity="1" stroke-linejoin="round" d="M 30.4159,131.717C 30.443,132.509 30.7289,133.111 31.2735,133.523C 31.8182,133.934 32.4591,134.142 33.1963,134.144C 34.1741,134.078 34.8641,133.813 35.2665,133.349C 35.6688,132.886 35.8633,132.621 35.85,132.555L 35.8816,132.555C 35.871,132.621 35.8605,132.846 35.85,133.231L 35.85,133.99L 37.27,133.99L 37.27,128.98C 37.2661,127.872 36.9899,127.048 36.4413,126.506C 35.8927,125.964 35.095,125.694 34.0482,125.696C 33.0888,125.734 32.3392,125.886 31.7995,126.153C 31.2597,126.419 30.9852,126.571 30.976,126.609L 31.616,127.804C 31.632,127.768 31.8558,127.625 32.2874,127.374C 32.719,127.123 33.2622,126.98 33.9171,126.944C 34.4516,126.934 34.8857,127.077 35.2195,127.372C 35.5532,127.667 35.7252,128.174 35.7355,128.892L 35.7355,129.05L 35.3751,129.05C 34.5593,129.001 33.5587,129.125 32.3733,129.423C 31.188,129.721 30.5356,130.485 30.4159,131.717 Z M 31.984,131.639C 32.0492,130.96 32.4595,130.535 33.2147,130.365C 33.97,130.196 34.6792,130.124 35.3423,130.15L 35.7519,130.15L 35.7519,130.398C 35.7437,131.011 35.543,131.573 35.1498,132.083C 34.7567,132.594 34.2202,132.865 33.5403,132.896C 33.024,132.883 32.6356,132.753 32.3752,132.506C 32.1148,132.259 31.9844,131.97 31.984,131.639 Z "/>
		<path fill="#000000" fill-opacity="1" stroke-linejoin="round" d="M 39.544,133.99L 41.096,133.99L 41.096,130.575C 41.088,130.058 41.1521,129.557 41.2881,129.073C 41.4817,128.45 41.7824,127.968 42.1901,127.628C 42.5978,127.287 43.0545,127.114 43.5602,127.11C 43.6839,127.112 43.7885,127.12 43.8742,127.135C 43.9599,127.149 44.0046,127.157 44.0082,127.159L 44.0082,125.72L 43.8862,125.705C 43.8085,125.696 43.7159,125.691 43.6082,125.69C 42.9785,125.702 42.4418,125.895 41.9981,126.269C 41.5544,126.643 41.2377,127.127 41.048,127.72L 41.016,127.72C 41.0174,127.791 41.0227,127.777 41.032,127.679C 41.0414,127.58 41.0467,127.442 41.048,127.266L 41.048,125.85L 39.544,125.85L 39.544,133.99 Z "/>
		<path fill="#000000" fill-opacity="1" stroke-linejoin="round" d="M 45.6239,133.99L 47.176,133.99L 47.176,130.144L 48.3441,130.144L 50.7763,133.99L 52.5844,133.99L 49.5922,129.49L 49.5922,129.459L 52.2804,125.85L 50.5202,125.85L 48.3121,128.896L 47.176,128.896L 47.176,122.65L 45.6239,122.65L 45.6239,133.99 Z "/>
		<path fill="#000000" fill-opacity="1" stroke-linejoin="round" d="M 53.61,129.92C 53.6206,131.223 53.9425,132.25 54.5755,133.001C 55.2085,133.752 56.0889,134.135 57.2165,134.15C 58.2232,134.091 58.9305,133.853 59.3383,133.438C 59.7461,133.023 59.9427,132.785 59.928,132.726L 59.952,132.822C 59.9473,132.915 59.9446,133.045 59.944,133.211L 59.944,133.99L 61.416,133.99L 61.416,122.65L 59.8639,122.65L 59.8639,126.38C 59.8653,126.526 59.8706,126.647 59.8799,126.742C 59.8893,126.837 59.8946,126.887 59.896,126.89L 59.8639,126.89C 59.8772,126.84 59.6913,126.64 59.3063,126.29C 58.9212,125.94 58.2573,125.74 57.3146,125.69C 56.2028,125.701 55.3118,126.076 54.6416,126.814C 53.9715,127.553 53.6276,128.588 53.61,129.92 Z M 55.19,129.92C 55.2077,128.971 55.4419,128.24 55.8927,127.727C 56.3435,127.215 56.9046,126.956 57.576,126.95C 58.3598,126.981 58.9452,127.288 59.3323,127.873C 59.7195,128.458 59.9127,129.134 59.912,129.904C 59.8892,130.954 59.6449,131.716 59.1791,132.191C 58.7133,132.665 58.1626,132.898 57.527,132.89C 56.829,132.879 56.2679,132.61 55.8437,132.082C 55.4195,131.554 55.2016,130.833 55.19,129.92 Z "/>
		<path fill="#000000" fill-opacity="1" stroke-linejoin="round" d="M 63.21,129.904C 63.2405,131.186 63.6674,132.21 64.4905,132.974C 65.3137,133.739 66.3503,134.131 67.6001,134.15C 68.8499,134.131 69.8864,133.739 70.7095,132.974C 71.5327,132.21 71.9595,131.186 71.99,129.904C 71.9595,128.63 71.5327,127.614 70.7095,126.855C 69.8864,126.097 68.8499,125.709 67.6001,125.69C 66.3503,125.709 65.3137,126.097 64.4905,126.855C 63.6674,127.614 63.2405,128.63 63.21,129.904 Z M 64.79,129.904C 64.8112,129.027 65.0878,128.319 65.6197,127.781C 66.1516,127.242 66.8118,126.965 67.6001,126.95C 68.3955,126.965 69.0576,127.242 69.5864,127.781C 70.1153,128.319 70.3898,129.027 70.41,129.904C 70.3898,130.789 70.1153,131.504 69.5864,132.049C 69.0576,132.594 68.3955,132.874 67.6001,132.89C 66.8118,132.874 66.1516,132.594 65.6197,132.049C 65.0878,131.504 64.8112,130.789 64.79,129.904 Z "/>
		<path fill="#000000" fill-opacity="1" stroke-linejoin="round" d="M 75.4138,133.99L 77.139,133.99L 78.8003,128.824C 78.8655,128.599 78.9188,128.395 78.96,128.212C 79.0013,128.028 79.0226,127.931 79.0239,127.92L 79.0559,127.92C 79.0572,127.931 79.0785,128.028 79.1198,128.212C 79.161,128.395 79.2143,128.599 79.2795,128.824L 80.9568,133.99L 82.666,133.99L 85.27,125.85L 83.6404,125.85L 81.9472,131.683C 81.8833,131.907 81.8354,132.108 81.8034,132.287C 81.7715,132.465 81.7555,132.56 81.7555,132.57L 81.7235,132.57C 81.7222,132.56 81.7009,132.465 81.6597,132.287C 81.6184,132.108 81.5651,131.907 81.4999,131.683L 79.7587,125.85L 78.337,125.85L 76.5799,131.681C 76.5153,131.905 76.4647,132.107 76.4281,132.286C 76.3915,132.465 76.3729,132.56 76.3722,132.57L 76.3403,132.57C 76.3326,132.56 76.312,132.465 76.2784,132.286C 76.2448,132.107 76.1962,131.905 76.1326,131.681L 74.4553,125.85L 72.81,125.85L 75.4138,133.99 Z "/>
		<path fill="#000000" fill-opacity="1" stroke-linejoin="round" d="M 86.5839,133.99L 88.136,133.99L 88.136,130.189C 88.1305,129.785 88.1746,129.422 88.2684,129.099C 88.4511,128.503 88.7765,128.026 89.2446,127.665C 89.7127,127.305 90.2697,127.12 90.9157,127.11C 91.5682,127.124 92.0004,127.321 92.2124,127.701C 92.4243,128.082 92.5215,128.564 92.5039,129.147L 92.5039,133.99L 94.056,133.99L 94.056,128.794C 94.0599,127.76 93.8322,126.985 93.3728,126.467C 92.9134,125.949 92.1991,125.69 91.23,125.69C 90.3234,125.723 89.6134,125.944 89.1,126.352C 88.5866,126.761 88.2493,127.158 88.088,127.543L 88.056,127.543C 88.0667,127.413 88.0774,127.188 88.088,126.868L 88.088,125.85L 86.5839,125.85L 86.5839,133.99 Z "/>
	</g>
	<g>
		<path fill="#000000" fill-opacity="1" stroke-linejoin="round" d="M 140.81,128.425C 140.849,130.131 141.386,131.505 142.422,132.545C 143.458,133.586 144.757,134.121 146.32,134.15C 147.448,134.094 148.309,133.87 148.903,133.479C 149.497,133.088 149.797,132.864 149.802,132.808L 149.833,132.808C 149.832,132.81 149.83,132.858 149.825,132.953C 149.821,133.048 149.818,133.158 149.817,133.283L 149.817,133.99L 151.19,133.99L 151.19,128.41L 147.925,128.41L 147.925,129.67L 149.77,129.67L 149.77,131.313C 149.759,131.372 149.468,131.608 148.899,132.021C 148.33,132.435 147.551,132.671 146.561,132.73C 145.348,132.707 144.357,132.298 143.585,131.505C 142.814,130.712 142.415,129.675 142.39,128.394C 142.401,127.118 142.78,126.059 143.525,125.218C 144.27,124.377 145.314,123.941 146.657,123.91C 147.633,123.957 148.405,124.147 148.975,124.479C 149.545,124.81 149.836,125 149.849,125.047L 150.638,123.831C 150.636,123.775 150.29,123.552 149.6,123.161C 148.91,122.769 147.886,122.546 146.529,122.49C 144.845,122.527 143.479,123.096 142.43,124.197C 141.382,125.298 140.842,126.707 140.81,128.425 Z "/>
		<path fill="#000000" fill-opacity="1" stroke-linejoin="round" d="M 153.288,124.23L 154.856,124.23L 154.856,122.65L 153.288,122.65L 153.288,124.23 Z M 153.304,133.99L 154.856,133.99L 154.856,125.85L 153.304,125.85L 153.304,133.99 Z "/>
		<path fill="#000000" fill-opacity="1" stroke-linejoin="round" d="M 157.784,131.069C 157.848,132.341 158.236,133.156 158.946,133.515C 159.656,133.874 160.304,134.033 160.888,133.99C 161.23,133.98 161.411,133.97 161.432,133.961L 161.432,132.698C 161.422,132.708 161.299,132.719 161.064,132.73C 160.733,132.755 160.371,132.652 159.978,132.422C 159.585,132.191 159.371,131.681 159.336,130.892L 159.336,127.264L 161.288,127.264L 161.288,126.016L 159.336,126.016L 159.336,123.68L 157.832,123.68L 157.832,126.016L 156.728,126.016L 156.728,127.264L 157.784,127.264L 157.784,131.069 Z "/>
		<path fill="#000000" fill-opacity="1" stroke-linejoin="round" d="M 163.53,133.99L 165.11,133.99L 165.11,129.03L 170.89,129.03L 170.89,133.99L 172.47,133.99L 172.47,122.65L 170.89,122.65L 170.89,127.77L 165.11,127.77L 165.11,122.65L 163.53,122.65L 163.53,133.99 Z "/>
		<path fill="#000000" fill-opacity="1" stroke-linejoin="round" d="M 175.224,131.058C 175.226,132.126 175.458,132.909 175.92,133.409C 176.383,133.908 177.064,134.155 177.964,134.15C 178.742,134.123 179.378,133.916 179.875,133.53C 180.371,133.143 180.704,132.737 180.872,132.312L 180.904,132.312C 180.903,132.318 180.897,132.377 180.888,132.487C 180.879,132.598 180.873,132.74 180.872,132.912L 180.872,133.99L 182.376,133.99L 182.376,125.85L 180.824,125.85L 180.824,129.663C 180.818,130.493 180.592,131.204 180.146,131.798C 179.7,132.392 179.072,132.702 178.261,132.73C 177.645,132.716 177.239,132.519 177.044,132.139C 176.848,131.76 176.759,131.281 176.776,130.705L 176.776,125.85L 175.224,125.85L 175.224,131.058 Z "/>
		<path fill="#000000" fill-opacity="1" stroke-linejoin="round" d="M 184.824,133.99L 186.296,133.99L 186.296,133.406C 186.295,133.236 186.289,133.097 186.28,132.99C 186.271,132.883 186.265,132.828 186.264,132.824L 186.296,132.824C 186.289,132.88 186.491,133.101 186.903,133.487C 187.314,133.874 187.979,134.095 188.896,134.15C 190.003,134.138 190.897,133.761 191.576,133.017C 192.255,132.274 192.605,131.236 192.624,129.904C 192.613,128.601 192.291,127.577 191.658,126.831C 191.026,126.085 190.148,125.705 189.027,125.69C 188.064,125.743 187.379,125.956 186.971,126.328C 186.563,126.701 186.365,126.913 186.376,126.966L 186.344,126.966C 186.345,126.963 186.351,126.903 186.36,126.786C 186.369,126.669 186.375,126.516 186.376,126.327L 186.376,122.65L 184.824,122.65L 184.824,133.99 Z M 186.328,129.936C 186.35,128.886 186.592,128.124 187.056,127.649C 187.519,127.175 188.072,126.942 188.716,126.95C 189.415,126.961 189.977,127.23 190.401,127.758C 190.826,128.286 191.044,129.007 191.056,129.92C 191.038,130.869 190.804,131.6 190.352,132.113C 189.901,132.625 189.339,132.884 188.667,132.89C 187.882,132.859 187.296,132.552 186.908,131.967C 186.521,131.382 186.327,130.706 186.328,129.936 Z "/>
	</g>
	<g>
		<path fill="#000000" fill-opacity="1" stroke-linejoin="round" d="M 298.81,125.263C 298.837,126.964 299.367,128.361 300.4,129.454C 301.434,130.547 302.812,131.113 304.534,131.15C 305.956,131.077 307.041,130.784 307.788,130.271C 308.536,129.759 308.913,129.466 308.919,129.393L 308.07,128.252C 308.058,128.313 307.743,128.56 307.124,128.991C 306.506,129.422 305.659,129.668 304.582,129.73C 303.309,129.695 302.296,129.251 301.544,128.398C 300.792,127.546 300.408,126.496 300.39,125.247C 300.406,124.012 300.786,122.988 301.53,122.175C 302.274,121.362 303.286,120.94 304.566,120.91C 305.556,120.962 306.344,121.168 306.93,121.528C 307.516,121.889 307.816,122.095 307.83,122.146L 308.615,120.957C 308.613,120.896 308.268,120.652 307.578,120.224C 306.889,119.796 305.864,119.551 304.502,119.49C 302.83,119.525 301.471,120.075 300.426,121.142C 299.381,122.208 298.842,123.582 298.81,125.263 Z "/>
		<path fill="#000000" fill-opacity="1" stroke-linejoin="round" d="M 310.17,126.904C 310.201,128.186 310.627,129.21 311.451,129.974C 312.274,130.739 313.31,131.131 314.56,131.15C 315.81,131.131 316.846,130.739 317.67,129.974C 318.493,129.21 318.919,128.186 318.95,126.904C 318.919,125.63 318.493,124.614 317.67,123.855C 316.846,123.097 315.81,122.709 314.56,122.69C 313.31,122.709 312.274,123.097 311.451,123.855C 310.627,124.614 310.201,125.63 310.17,126.904 Z M 311.75,126.904C 311.771,126.027 312.048,125.319 312.58,124.781C 313.112,124.242 313.772,123.965 314.56,123.95C 315.355,123.965 316.018,124.242 316.546,124.781C 317.075,125.319 317.35,126.027 317.37,126.904C 317.35,127.789 317.075,128.504 316.546,129.049C 316.018,129.594 315.355,129.874 314.56,129.89C 313.772,129.874 313.112,129.594 312.58,129.049C 312.048,128.504 311.771,127.789 311.75,126.904 Z "/>
		<path fill="#000000" fill-opacity="1" stroke-linejoin="round" d="M 320.584,130.99L 322.136,130.99L 322.136,127.208C 322.128,126.823 322.16,126.463 322.234,126.127C 322.392,125.521 322.673,125.011 323.077,124.597C 323.482,124.183 323.987,123.967 324.592,123.95C 325.207,123.969 325.604,124.181 325.784,124.584C 325.964,124.988 326.044,125.47 326.024,126.029L 326.024,130.99L 327.576,130.99L 327.576,127.208C 327.573,126.785 327.611,126.403 327.69,126.062C 327.842,125.48 328.119,124.987 328.522,124.582C 328.924,124.178 329.417,123.967 330,123.95C 330.602,123.964 331,124.165 331.195,124.554C 331.391,124.942 331.48,125.434 331.464,126.029L 331.464,130.99L 333.016,130.99L 333.016,125.685C 333.019,124.657 332.801,123.9 332.362,123.413C 331.922,122.927 331.244,122.686 330.325,122.69C 329.648,122.703 329.05,122.87 328.532,123.193C 328.014,123.515 327.637,123.915 327.4,124.392L 327.368,124.392C 327.104,123.253 326.288,122.686 324.918,122.69C 324.262,122.705 323.678,122.879 323.167,123.211C 322.656,123.543 322.296,123.942 322.088,124.408L 322.056,124.408C 322.057,124.414 322.063,124.365 322.072,124.26C 322.081,124.155 322.087,124.025 322.088,123.868L 322.088,122.85L 320.584,122.85L 320.584,130.99 Z "/>
		<path fill="#000000" fill-opacity="1" stroke-linejoin="round" d="M 335.144,130.99L 336.696,130.99L 336.696,127.208C 336.688,126.823 336.72,126.463 336.794,126.127C 336.952,125.521 337.233,125.011 337.638,124.597C 338.042,124.183 338.547,123.967 339.152,123.95C 339.767,123.969 340.164,124.181 340.344,124.584C 340.524,124.988 340.604,125.47 340.584,126.029L 340.584,130.99L 342.136,130.99L 342.136,127.208C 342.133,126.785 342.171,126.403 342.25,126.062C 342.402,125.48 342.679,124.987 343.082,124.582C 343.484,124.178 343.977,123.967 344.56,123.95C 345.162,123.964 345.56,124.165 345.756,124.554C 345.951,124.942 346.04,125.434 346.024,126.029L 346.024,130.99L 347.576,130.99L 347.576,125.685C 347.579,124.657 347.361,123.9 346.922,123.413C 346.482,122.927 345.804,122.686 344.885,122.69C 344.208,122.703 343.61,122.87 343.092,123.193C 342.574,123.515 342.197,123.915 341.96,124.392L 341.928,124.392C 341.664,123.253 340.848,122.686 339.478,122.69C 338.822,122.705 338.238,122.879 337.727,123.211C 337.216,123.543 336.856,123.942 336.648,124.408L 336.616,124.408C 336.617,124.414 336.623,124.365 336.632,124.26C 336.641,124.155 336.647,124.025 336.648,123.868L 336.648,122.85L 335.144,122.85L 335.144,130.99 Z "/>
		<path fill="#000000" fill-opacity="1" stroke-linejoin="round" d="M 349.704,128.058C 349.706,129.126 349.938,129.909 350.4,130.409C 350.863,130.908 351.544,131.155 352.444,131.15C 353.221,131.123 353.858,130.916 354.355,130.53C 354.851,130.143 355.184,129.737 355.352,129.312L 355.384,129.312C 355.383,129.318 355.377,129.377 355.368,129.487C 355.359,129.598 355.353,129.74 355.352,129.912L 355.352,130.99L 356.856,130.99L 356.856,122.85L 355.304,122.85L 355.304,126.663C 355.298,127.493 355.072,128.204 354.626,128.798C 354.18,129.392 353.552,129.702 352.741,129.73C 352.125,129.716 351.719,129.519 351.524,129.139C 351.328,128.76 351.239,128.281 351.256,127.705L 351.256,122.85L 349.704,122.85L 349.704,128.058 Z "/>
		<path fill="#000000" fill-opacity="1" stroke-linejoin="round" d="M 359.304,130.99L 360.856,130.99L 360.856,127.189C 360.851,126.785 360.895,126.422 360.988,126.099C 361.171,125.503 361.496,125.026 361.965,124.665C 362.433,124.305 362.99,124.12 363.636,124.11C 364.288,124.124 364.72,124.321 364.932,124.701C 365.144,125.082 365.242,125.564 365.224,126.147L 365.224,130.99L 366.776,130.99L 366.776,125.794C 366.78,124.76 366.552,123.985 366.093,123.467C 365.633,122.949 364.919,122.69 363.95,122.69C 363.043,122.723 362.333,122.944 361.82,123.352C 361.307,123.761 360.969,124.158 360.808,124.543L 360.776,124.543C 360.787,124.413 360.797,124.188 360.808,123.868L 360.808,122.85L 359.304,122.85L 359.304,130.99 Z "/>
		<path fill="#000000" fill-opacity="1" stroke-linejoin="round" d="M 368.888,121.23L 370.456,121.23L 370.456,119.65L 368.888,119.65L 368.888,121.23 Z M 368.904,130.99L 370.456,130.99L 370.456,122.85L 368.904,122.85L 368.904,130.99 Z "/>
		<path fill="#000000" fill-opacity="1" stroke-linejoin="round" d="M 373.384,128.069C 373.448,129.341 373.836,130.156 374.546,130.515C 375.256,130.874 375.904,131.033 376.488,130.99C 376.829,130.98 377.011,130.97 377.032,130.961L 377.032,129.698C 377.021,129.708 376.899,129.719 376.664,129.73C 376.333,129.755 375.971,129.652 375.578,129.422C 375.185,129.191 374.971,128.681 374.936,127.892L 374.936,124.264L 376.888,124.264L 376.888,123.016L 374.936,123.016L 374.936,120.68L 373.432,120.68L 373.432,123.016L 372.328,123.016L 372.328,124.264L 373.384,124.264L 373.384,128.069 Z "/>
		<path fill="#000000" fill-opacity="1" stroke-linejoin="round" d="M 377.578,133.885C 377.586,133.904 377.732,133.982 378.017,134.117C 378.301,134.253 378.674,134.331 379.135,134.35C 379.707,134.35 380.221,134.197 380.677,133.891C 381.134,133.585 381.489,133.129 381.742,132.523L 385.51,122.85L 383.841,122.85L 381.885,128.229C 381.812,128.454 381.749,128.668 381.697,128.873C 381.645,129.078 381.618,129.187 381.615,129.201L 381.583,129.201C 381.581,129.186 381.55,129.074 381.492,128.865C 381.434,128.656 381.364,128.438 381.281,128.213L 379.263,122.85L 377.53,122.85L 380.9,130.951L 380.503,131.891C 380.349,132.267 380.148,132.56 379.898,132.77C 379.649,132.98 379.369,133.087 379.056,133.09C 378.801,133.076 378.583,133.019 378.402,132.92C 378.221,132.821 378.126,132.764 378.118,132.75L 377.578,133.885 Z "/>
	</g>
</svg>
