<?xml version="1.0" encoding="utf-8"?>
<!DOCTYPE svg PUBLIC "-//W3C//DTD SVG 1.1//EN" "http://www.w3.org/Graphics/SVG/1.1/DTD/svg11.dtd">
<svg xmlns="http://www.w3.org/2000/svg" xmlns:xlink="http://www.w3.org/1999/xlink" version="1.1" baseProfile="full" width="420" height="140" viewBox="0 0 420.00 140.00" enable-background="new 0 0 420.00 140.00" xml:space="preserve">
	<g>
		<path fill="#646464" fill-opacity="0.803922" stroke-width="0.2" stroke-linejoin="round" d="M 13.52,133L 11.6971,133L 9.50958,129.31C 9.29958,128.966 9.0959,128.674 8.89854,128.432C 8.70118,128.191 8.49847,127.994 8.29041,127.84C 8.08236,127.687 7.85923,127.575 7.62104,127.505C 7.38284,127.435 7.11305,127.4 6.81166,127.4L 5.49333,127.4L 5.49333,133L 4,133L 4,119.933L 7.97541,119.933C 8.55875,119.933 9.09639,120.005 9.58833,120.148C 10.0803,120.291 10.5076,120.507 10.8702,120.798C 11.2328,121.089 11.5162,121.451 11.7204,121.885C 11.9246,122.318 12.0267,122.826 12.0267,123.407C 12.0267,123.862 11.9562,124.279 11.8152,124.658C 11.6742,125.037 11.474,125.375 11.2144,125.672C 10.9548,125.968 10.6422,126.221 10.2767,126.43C 9.91111,126.639 9.49986,126.802 9.04291,126.919L 9.04291,126.954C 9.27041,127.051 9.46826,127.162 9.63646,127.286C 9.80465,127.411 9.96458,127.558 10.1162,127.73C 10.2679,127.901 10.4186,128.094 10.5683,128.31C 10.7181,128.526 10.8843,128.777 11.0671,129.063L 13.52,133 Z M 5.49333,121.24L 5.49333,126.093L 7.6225,126.093C 8.01333,126.093 8.37548,126.034 8.70896,125.915C 9.04243,125.797 9.3302,125.627 9.57229,125.406C 9.81437,125.186 10.004,124.915 10.141,124.596C 10.2781,124.276 10.3467,123.917 10.3467,123.518C 10.3467,122.802 10.1148,122.244 9.65104,121.842C 9.18729,121.441 8.51694,121.24 7.64,121.24L 5.49333,121.24 Z "/>
		<path fill="#646464" fill-opacity="0.803922" stroke-width="0.2" stroke-linejoin="round" d="M 22.0133,128.707L 15.48,128.707C 15.5053,129.72 15.7862,130.502 16.3229,131.053C 16.8596,131.604 17.5985,131.88 18.5396,131.88C 19.5974,131.88 20.5686,131.569 21.4533,130.947L 21.4533,132.315C 20.6367,132.896 19.5556,133.187 18.21,133.187C 16.8956,133.187 15.8631,132.766 15.1125,131.924C 14.3619,131.082 13.9867,129.897 13.9867,128.368C 13.9867,126.926 14.3926,125.75 15.2044,124.842C 16.0162,123.934 17.0249,123.48 18.2304,123.48C 19.434,123.48 20.3654,123.872 21.0246,124.657C 21.6837,125.441 22.0133,126.532 22.0133,127.928L 22.0133,128.707 Z M 20.52,127.4C 20.5142,126.576 20.3071,125.934 19.8987,125.475C 19.4904,125.016 18.9226,124.787 18.1954,124.787C 17.4935,124.787 16.8975,125.028 16.4075,125.51C 15.9175,125.992 15.6151,126.622 15.5004,127.4L 20.52,127.4 Z "/>
		<path fill="#646464" fill-opacity="0.803922" stroke-width="0.2" stroke-linejoin="round" d="M 32.28,132.306C 32.28,135.755 30.6612,137.48 27.4237,137.48C 26.2862,137.48 25.2917,137.253 24.44,136.798L 24.44,135.24C 25.4744,135.862 26.4603,136.173 27.3975,136.173C 29.6569,136.173 30.7867,134.915 30.7867,132.399L 30.7867,131.349L 30.7517,131.349C 30.0419,132.574 28.9744,133.187 27.5492,133.187C 26.3903,133.187 25.4579,132.774 24.7521,131.95C 24.0462,131.126 23.6933,130.019 23.6933,128.631C 23.6933,127.056 24.0735,125.804 24.8337,124.874C 25.594,123.945 26.6353,123.48 27.9575,123.48C 29.2117,123.48 30.1421,124.001 30.7487,125.043L 30.7867,125.043L 30.7867,123.667L 32.28,123.667L 32.28,132.306 Z M 30.7867,128.771L 30.7867,127.423C 30.7867,126.7 30.5349,126.08 30.0312,125.563C 29.5276,125.045 28.9006,124.787 28.15,124.787C 27.2244,124.787 26.4992,125.115 25.9742,125.771C 25.4492,126.427 25.1867,127.347 25.1867,128.529C 25.1867,129.546 25.4385,130.358 25.9421,130.967C 26.4457,131.576 27.1117,131.88 27.94,131.88C 28.7819,131.88 29.4669,131.589 29.9948,131.006C 30.5227,130.424 30.7867,129.679 30.7867,128.771 Z "/>
		<path fill="#646464" fill-opacity="0.803922" stroke-width="0.2" stroke-linejoin="round" d="M 42.92,133L 41.4267,133L 41.4267,131.443L 41.3887,131.443C 40.7607,132.605 39.7865,133.187 38.4662,133.187C 36.2087,133.187 35.08,131.866 35.08,129.226L 35.08,123.667L 36.5733,123.667L 36.5733,128.955C 36.5733,130.905 37.3404,131.88 38.8746,131.88C 39.6174,131.88 40.2284,131.614 40.7077,131.081C 41.187,130.548 41.4267,129.852 41.4267,128.992L 41.4267,123.667L 42.92,123.667L 42.92,133 Z "/>
		<rect x="45.9067" y="119.187" fill="#646464" fill-opacity="0.803922" stroke-width="0.2" stroke-linejoin="round" width="1.49334" height="13.8133"/>
		<path fill="#646464" fill-opacity="0.803922" stroke-width="0.2" stroke-linejoin="round" d="M 57.1067,133L 55.6133,133L 55.6133,131.46L 55.5754,131.46C 54.9162,132.611 53.944,133.187 52.6587,133.187C 51.7137,133.187 50.9744,132.94 50.4406,132.446C 49.9069,131.952 49.64,131.296 49.64,130.477C 49.64,128.725 50.6832,127.706 52.7696,127.42L 55.6133,127.027C 55.6133,125.533 54.9629,124.787 53.6621,124.787C 52.5207,124.787 51.4911,125.16 50.5733,125.907L 50.5733,124.364C 51.5008,123.775 52.5693,123.48 53.7787,123.48C 55.9974,123.48 57.1067,124.637 57.1067,126.951L 57.1067,133 Z M 55.6133,128.147L 53.2946,128.462C 52.581,128.559 52.0424,128.732 51.6787,128.982C 51.3151,129.232 51.1333,129.674 51.1333,130.308C 51.1333,130.771 51.301,131.148 51.6364,131.441C 51.9719,131.734 52.4176,131.88 52.9737,131.88C 53.7379,131.88 54.3689,131.617 54.8667,131.09C 55.3644,130.563 55.6133,129.896 55.6133,129.089L 55.6133,128.147 Z "/>
		<path fill="#646464" fill-opacity="0.803922" stroke-width="0.2" stroke-linejoin="round" d="M 64.76,125.16C 64.4994,124.911 64.1242,124.787 63.6342,124.787C 62.9983,124.787 62.467,125.091 62.0402,125.7C 61.6134,126.308 61.4,127.137 61.4,128.188L 61.4,133L 59.9067,133L 59.9067,123.667L 61.4,123.667L 61.4,125.495L 61.435,125.495C 61.6469,124.862 61.9712,124.367 62.4077,124.012C 62.8442,123.657 63.3318,123.48 63.8704,123.48C 64.2573,123.48 64.5539,123.523 64.76,123.608L 64.76,125.16 Z "/>
	</g>
	<path fill="none" stroke-width="2" stroke-linejoin="round" stroke="#646464" stroke-opacity="0.501961" d="M 5,1.00002L 109,1.00002C 111.209,1.00002 113,2.79088 113,5.00002L 113,109C 113,111.209 111.209,113 109,113L 5,113C 2.79086,113 1,111.209 1,109L 1,5.00002C 1,2.79088 2.79086,1.00002 5,1.00002 Z "/>
	<path fill="#646464" fill-opacity="1" stroke-width="0.2" stroke-linejoin="round" d="M 57,20.3333C 67.1252,20.3333 75.3334,28.5414 75.3334,38.6667C 75.3334,48.7919 67.1252,57 57,57C 46.8748,57 38.6667,48.7919 38.6667,38.6667C 38.6667,28.5414 46.8748,20.3333 57,20.3333 Z M 57,66.1666C 77.2505,66.1666 93.6667,74.3748 93.6667,84.5L 93.6667,93.6667L 20.3333,93.6667L 20.3334,84.5C 20.3334,74.3748 36.7496,66.1666 57,66.1666 Z "/>
	<path fill="#646464" fill-opacity="1" stroke-width="0.2" stroke-linejoin="round" d="M 196.997,61.5745C 184.773,61.5745 160.33,67.6932 160.33,79.9078L 160.33,93.6578L 233.664,93.6578L 233.664,79.9078C 233.664,67.6932 209.221,61.5745 196.997,61.5745 Z M 196.997,20.3245C 186.877,20.3245 178.664,28.5378 178.664,38.6578C 178.664,48.7732 186.877,56.9911 196.997,56.9911C 207.117,56.9911 215.33,48.7732 215.33,38.6578C 215.33,28.5378 207.117,20.3245 196.997,20.3245 Z M 196.997,70.2828C 210.628,70.2828 224.955,76.9607 224.955,79.9078L 224.955,84.9495L 169.039,84.9495L 169.039,79.9078C 169.039,76.9607 183.366,70.2828 196.997,70.2828 Z M 196.997,29.0328C 202.305,29.0328 206.622,33.3503 206.622,38.6578C 206.622,43.9653 202.305,48.2828 196.997,48.2828C 191.69,48.2828 187.372,43.9653 187.372,38.6578C 187.372,33.3503 191.69,29.0328 196.997,29.0328 Z "/>
	<path fill="#646464" fill-opacity="1" stroke-width="0.2" stroke-linejoin="round" d="M 360.708,66.1667C 379.693,66.1667 395.083,73.3488 395.083,82.2083L 395.083,93.6667L 326.333,93.6667L 326.333,82.2083C 326.333,73.3488 341.724,66.1667 360.708,66.1667 Z M 390.5,82.2083C 390.5,75.8801 377.162,70.75 360.708,70.75C 344.255,70.75 330.917,75.8801 330.917,82.2083L 330.917,89.0833L 390.5,89.0833L 390.5,82.2083 Z M 360.708,24.9167C 369.568,24.9167 376.75,32.0988 376.75,40.9584C 376.75,49.8179 369.568,57 360.708,57C 351.849,57 344.667,49.8179 344.667,40.9584C 344.667,32.0988 351.849,24.9167 360.708,24.9167 Z M 360.708,29.5C 354.38,29.5 349.25,34.6301 349.25,40.9584C 349.25,47.2866 354.38,52.4167 360.708,52.4167C 367.037,52.4167 372.167,47.2866 372.167,40.9584C 372.167,34.6301 367.037,29.5 360.708,29.5 Z "/>
	<path fill="none" stroke-width="2" stroke-linejoin="round" stroke="#646464" stroke-opacity="0.501961" d="M 311,1L 415,1C 417.209,1 419,2.79086 419,5L 419,109C 419,111.209 417.209,113 415,113L 311,113C 308.791,113 307,111.209 307,109L 307,5C 307,2.79086 308.791,1 311,1 Z "/>
	<g>
		<path fill="#646464" fill-opacity="0.803922" stroke-linejoin="round" d="M 317.42,133L 310.7,133L 310.7,119.933L 312.193,119.933L 312.193,131.693L 317.42,131.693L 317.42,133 Z "/>
		<path fill="#646464" fill-opacity="0.803922" stroke-linejoin="round" d="M 320.025,121.24C 319.768,121.24 319.55,121.153 319.37,120.978C 319.19,120.803 319.1,120.581 319.1,120.313C 319.1,120.042 319.19,119.818 319.37,119.64C 319.55,119.462 319.768,119.373 320.025,119.373C 320.287,119.373 320.51,119.462 320.693,119.64C 320.875,119.818 320.967,120.042 320.967,120.313C 320.967,120.569 320.875,120.788 320.693,120.969C 320.51,121.15 320.287,121.24 320.025,121.24 Z M 320.78,133L 319.287,133L 319.287,123.667L 320.78,123.667L 320.78,133 Z "/>
		<path fill="#646464" fill-opacity="0.803922" stroke-linejoin="round" d="M 331.793,132.306C 331.793,135.755 330.175,137.48 326.937,137.48C 325.8,137.48 324.805,137.253 323.953,136.798L 323.953,135.24C 324.988,135.862 325.974,136.173 326.911,136.173C 329.17,136.173 330.3,134.915 330.3,132.399L 330.3,131.349L 330.265,131.349C 329.555,132.574 328.488,133.187 327.063,133.187C 325.904,133.187 324.971,132.774 324.266,131.95C 323.56,131.126 323.207,130.019 323.207,128.631C 323.207,127.056 323.587,125.804 324.347,124.874C 325.107,123.945 326.149,123.48 327.471,123.48C 328.725,123.48 329.656,124.001 330.262,125.043L 330.3,125.043L 330.3,123.667L 331.793,123.667L 331.793,132.306 Z M 330.3,128.771L 330.3,127.423C 330.3,126.7 330.048,126.08 329.545,125.563C 329.041,125.045 328.414,124.787 327.663,124.787C 326.738,124.787 326.013,125.115 325.488,125.771C 324.963,126.427 324.7,127.347 324.7,128.529C 324.7,129.546 324.952,130.358 325.456,130.967C 325.959,131.576 326.625,131.88 327.453,131.88C 328.295,131.88 328.98,131.589 329.508,131.006C 330.036,130.424 330.3,129.679 330.3,128.771 Z "/>
		<path fill="#646464" fill-opacity="0.803922" stroke-linejoin="round" d="M 342.62,133L 341.127,133L 341.127,127.674C 341.127,125.749 340.389,124.787 338.913,124.787C 338.17,124.787 337.545,125.065 337.036,125.621C 336.528,126.177 336.273,126.892 336.273,127.765L 336.273,133L 334.78,133L 334.78,119.187L 336.273,119.187L 336.273,125.297L 336.311,125.297C 337.039,124.086 338.074,123.48 339.418,123.48C 341.553,123.48 342.62,124.743 342.62,127.269L 342.62,133 Z "/>
		<path fill="#646464" fill-opacity="0.803922" stroke-linejoin="round" d="M 349.9,132.875C 349.54,133.083 349.067,133.187 348.48,133.187C 346.813,133.187 345.98,132.281 345.98,130.468L 345.98,124.973L 344.3,124.973L 344.3,123.667L 345.98,123.667L 345.98,121.357L 347.473,120.867L 347.473,123.667L 349.9,123.667L 349.9,124.973L 347.473,124.973L 347.473,130.162C 347.473,130.78 347.583,131.221 347.803,131.485C 348.023,131.748 348.386,131.88 348.894,131.88C 349.283,131.88 349.618,131.756 349.9,131.507L 349.9,132.875 Z "/>
	</g>
	<g>
		<path fill="#646464" fill-opacity="0.603922" stroke-width="0.2" stroke-linejoin="round" d="M 117.533,4.96001L 119.08,4.96001C 118.907,5.13834 118.75,5.35167 118.611,5.60001C 118.472,5.84834 118.355,6.11 118.26,6.38499C 118.165,6.66 118.091,6.93626 118.039,7.21376C 117.986,7.49126 117.96,7.74751 117.96,7.9825C 117.96,8.79417 118.114,9.40001 118.421,9.8C 118.729,10.2 119.171,10.4 119.747,10.4C 120.047,10.4 120.309,10.3329 120.533,10.1987C 120.756,10.0646 120.959,9.87959 121.142,9.64375C 121.326,9.40791 121.502,9.12875 121.671,8.80626C 121.84,8.48375 122.017,8.13583 122.203,7.7625C 122.401,7.36917 122.601,7.00209 122.802,6.66125C 123.004,6.32042 123.227,6.02376 123.47,5.77126C 123.713,5.51875 123.989,5.32042 124.297,5.17625C 124.606,5.03209 124.967,4.96001 125.382,4.96001C 125.891,4.96001 126.333,5.07375 126.709,5.30125C 127.085,5.52876 127.394,5.8275 127.638,6.19749C 127.881,6.5675 128.062,6.98917 128.181,7.46251C 128.3,7.93584 128.36,8.41833 128.36,8.91C 128.36,10.03 128.212,10.8467 127.918,11.36L 126.44,11.36C 126.973,10.695 127.24,9.84084 127.24,8.7975C 127.24,8.50917 127.209,8.22084 127.147,7.93251C 127.086,7.64418 126.985,7.3875 126.845,7.16251C 126.705,6.9375 126.525,6.75417 126.305,6.6125C 126.085,6.47084 125.817,6.40001 125.5,6.40001C 125.215,6.40001 124.969,6.45375 124.761,6.56126C 124.554,6.66875 124.365,6.8275 124.194,7.03751C 124.023,7.24751 123.857,7.50334 123.696,7.80501C 123.535,8.10667 123.359,8.45418 123.168,8.8475C 122.971,9.2525 122.764,9.63583 122.546,9.99751C 122.329,10.3592 122.088,10.6767 121.823,10.95C 121.557,11.2233 121.265,11.44 120.944,11.6C 120.623,11.76 120.255,11.84 119.84,11.84C 119.29,11.84 118.825,11.7304 118.444,11.5112C 118.063,11.2921 117.753,10.9967 117.515,10.625C 117.277,10.2533 117.105,9.82458 116.999,9.33876C 116.893,8.85292 116.84,8.34084 116.84,7.80251C 116.84,7.62251 116.855,7.40083 116.886,7.1375C 116.917,6.87416 116.962,6.605 117.021,6.33C 117.08,6.05501 117.154,5.795 117.241,5.55C 117.329,5.30501 117.426,5.10834 117.533,4.96001 Z "/>
		<path fill="#646464" fill-opacity="0.603922" stroke-width="0.2" stroke-linejoin="round" d="M 116.84,17.1525C 116.84,15.9758 117.211,15.0363 117.954,14.3337C 118.696,13.6313 119.681,13.28 120.908,13.28C 122.243,13.28 123.285,13.6454 124.035,14.3763C 124.785,15.1071 125.16,16.095 125.16,17.34C 125.16,18.5267 124.795,19.4533 124.066,20.12C 123.337,20.7867 122.325,21.12 121.03,21.12C 119.763,21.12 118.748,20.7608 117.985,20.0425C 117.222,19.3242 116.84,18.3608 116.84,17.1525 Z M 124.04,17.2475C 124.04,16.4192 123.766,15.7642 123.219,15.2825C 122.671,14.8008 121.917,14.56 120.955,14.56C 120.028,14.56 119.297,14.8037 118.763,15.2913C 118.228,15.7787 117.96,16.4308 117.96,17.2475C 117.96,18.0808 118.222,18.7213 118.746,19.1688C 119.27,19.6162 120.017,19.84 120.985,19.84C 121.963,19.84 122.717,19.6162 123.246,19.1688C 123.775,18.7213 124.04,18.0808 124.04,17.2475 Z "/>
		<rect x="117" y="23.2" fill="#646464" fill-opacity="0.603922" stroke-width="0.2" stroke-linejoin="round" width="11.84" height="1.28001"/>
		<path fill="#646464" fill-opacity="0.603922" stroke-width="0.2" stroke-linejoin="round" d="M 127.08,27.6725C 127.08,27.4525 127.155,27.2654 127.305,27.1112C 127.455,26.9571 127.645,26.88 127.875,26.88C 128.107,26.88 128.299,26.9571 128.451,27.1112C 128.604,27.2654 128.68,27.4525 128.68,27.6725C 128.68,27.8975 128.604,28.0883 128.451,28.245C 128.299,28.4017 128.107,28.48 127.875,28.48C 127.655,28.48 127.467,28.4017 127.313,28.245C 127.158,28.0883 127.08,27.8975 127.08,27.6725 Z M 117,28.32L 117,27.04L 125,27.04L 125,28.32L 117,28.32 Z "/>
		<path fill="#646464" fill-opacity="0.603922" stroke-width="0.2" stroke-linejoin="round" d="M 117,37.76L 117,36.48L 118.43,36.48L 118.43,36.45C 117.37,35.8567 116.84,34.9417 116.84,33.705C 116.84,32.7017 117.196,31.9 117.908,31.3C 118.619,30.7 119.588,30.4 120.813,30.4C 122.128,30.4 123.181,30.7325 123.973,31.3975C 124.764,32.0625 125.16,32.9483 125.16,34.055C 125.16,35.1517 124.713,35.9492 123.82,36.4475L 123.82,36.48L 128.84,36.48L 128.84,37.76L 117,37.76 Z M 120.625,36.48L 121.78,36.48C 122.41,36.48 122.944,36.2654 123.382,35.8362C 123.821,35.4071 124.04,34.8633 124.04,34.205C 124.04,33.4217 123.76,32.805 123.2,32.355C 122.64,31.905 121.866,31.68 120.878,31.68C 119.976,31.68 119.264,31.8958 118.743,32.3275C 118.221,32.7592 117.96,33.3383 117.96,34.065C 117.96,34.7817 118.212,35.3633 118.716,35.81C 119.22,36.2567 119.857,36.48 120.625,36.48 Z "/>
	</g>
	<g>
		<path fill="#646464" fill-opacity="0.603922" stroke-width="0.2" stroke-linejoin="round" d="M 256.84,9.0325C 256.84,7.44917 257.361,6.18124 258.402,5.22874C 259.444,4.27625 260.799,3.8 262.467,3.8C 264.261,3.8 265.691,4.28542 266.759,5.25624C 267.826,6.22708 268.36,7.54832 268.36,9.22C 268.36,10.7617 267.842,12.0037 266.805,12.9463C 265.768,13.8887 264.413,14.36 262.74,14.36C 260.922,14.36 259.484,13.8771 258.426,12.9112C 257.369,11.9454 256.84,10.6525 256.84,9.0325 Z M 267.24,9.125C 267.24,7.97333 266.813,7.03792 265.957,6.31874C 265.103,5.59958 263.979,5.24001 262.587,5.24001C 261.198,5.24001 260.079,5.59041 259.231,6.29124C 258.384,6.99208 257.96,7.90666 257.96,9.03499C 257.96,10.2383 258.364,11.1867 259.173,11.88C 259.981,12.5733 261.112,12.92 262.565,12.92C 264.055,12.92 265.207,12.5833 266.02,11.91C 266.833,11.2367 267.24,10.3083 267.24,9.125 Z "/>
		<path fill="#646464" fill-opacity="0.603922" stroke-width="0.2" stroke-linejoin="round" d="M 257,22.84L 257,21.56L 258.335,21.56L 258.335,21.5275C 257.338,20.9892 256.84,20.1542 256.84,19.0225C 256.84,17.0875 257.972,16.12 260.235,16.12L 265,16.12L 265,17.4L 260.467,17.4C 258.796,17.4 257.96,18.0575 257.96,19.3725C 257.96,20.0092 258.188,20.5329 258.645,20.9437C 259.102,21.3546 259.698,21.56 260.435,21.56L 265,21.56L 265,22.84L 257,22.84 Z "/>
		<path fill="#646464" fill-opacity="0.603922" stroke-width="0.2" stroke-linejoin="round" d="M 257.108,29.24C 256.929,28.9317 256.84,28.5258 256.84,28.0225C 256.84,26.5942 257.617,25.88 259.17,25.88L 263.88,25.88L 263.88,24.44L 265,24.44L 265,25.88L 266.98,25.88L 267.4,27.16L 265,27.16L 265,29.24L 263.88,29.24L 263.88,27.16L 259.432,27.16C 258.902,27.16 258.525,27.2542 258.299,27.4425C 258.073,27.6308 257.96,27.9425 257.96,28.3775C 257.96,28.7108 258.067,28.9983 258.28,29.24L 257.108,29.24 Z "/>
		<rect x="257" y="30.84" fill="#646464" fill-opacity="0.603922" stroke-width="0.2" stroke-linejoin="round" width="11.84" height="1.28001"/>
		<path fill="#646464" fill-opacity="0.603922" stroke-width="0.2" stroke-linejoin="round" d="M 267.08,35.3125C 267.08,35.0925 267.155,34.9054 267.305,34.7513C 267.455,34.5971 267.645,34.52 267.875,34.52C 268.107,34.52 268.299,34.5971 268.451,34.7513C 268.604,34.9054 268.68,35.0925 268.68,35.3125C 268.68,35.5375 268.604,35.7283 268.451,35.885C 268.299,36.0417 268.107,36.12 267.875,36.12C 267.655,36.12 267.467,36.0417 267.313,35.885C 267.158,35.7283 267.08,35.5375 267.08,35.3125 Z M 257,35.96L 257,34.68L 265,34.68L 265,35.96L 257,35.96 Z "/>
		<path fill="#646464" fill-opacity="0.603922" stroke-width="0.2" stroke-linejoin="round" d="M 257,45.24L 257,43.96L 261.517,43.96C 263.199,43.96 264.04,43.3275 264.04,42.0625C 264.04,41.4092 263.802,40.8687 263.325,40.4412C 262.848,40.0137 262.246,39.8 261.517,39.8L 257,39.8L 257,38.52L 265,38.52L 265,39.8L 263.603,39.8L 263.603,39.8325C 264.641,40.4458 265.16,41.3333 265.16,42.495C 265.16,43.3833 264.878,44.0629 264.315,44.5337C 263.752,45.0046 262.938,45.24 261.875,45.24L 257,45.24 Z "/>
		<path fill="#646464" fill-opacity="0.603922" stroke-width="0.2" stroke-linejoin="round" d="M 260.68,54.04L 260.68,48.44C 259.812,48.4617 259.141,48.7025 258.669,49.1625C 258.196,49.6225 257.96,50.2558 257.96,51.0625C 257.96,51.9692 258.227,52.8017 258.76,53.56L 257.587,53.56C 257.089,52.86 256.84,51.9333 256.84,50.78C 256.84,49.6533 257.201,48.7683 257.923,48.125C 258.644,47.4817 259.66,47.16 260.97,47.16C 262.207,47.16 263.214,47.5079 263.992,48.2037C 264.771,48.8996 265.16,49.7642 265.16,50.7975C 265.16,51.8292 264.824,52.6275 264.151,53.1925C 263.479,53.7575 262.544,54.04 261.348,54.04L 260.68,54.04 Z M 261.8,52.76C 262.507,52.755 263.057,52.5775 263.45,52.2275C 263.843,51.8775 264.04,51.3908 264.04,50.7675C 264.04,50.1658 263.833,49.655 263.42,49.235C 263.007,48.815 262.467,48.5558 261.8,48.4575L 261.8,52.76 Z "/>
	</g>
	<path fill="none" stroke-width="2" stroke-linejoin="round" stroke="#646464" stroke-opacity="0.501961" d="M 145,1L 249,1C 251.209,1 253,2.79088 253,5.00002L 253,109C 253,111.209 251.209,113 249,113L 145,113C 142.791,113 141,111.209 141,109L 141,5.00002C 141,2.79088 142.791,1 145,1 Z "/>
	<ellipse fill="#646464" fill-opacity="0.603922" stroke-width="0.2" stroke-linejoin="round" cx="123" cy="105" rx="7" ry="7"/>
	<path fill="#646464" fill-opacity="0.603922" stroke-width="0.2" stroke-linejoin="round" d="M 263,98C 266.866,98 270,101.134 270,105C 270,108.866 266.866,112 263,112C 259.134,112 256,108.866 256,105C 256,101.134 259.134,98 263,98 Z M 263,100C 260.239,100 258,102.239 258,105C 258,107.761 260.239,110 263,110C 265.761,110 268,107.761 268,105C 268,102.239 265.761,100 263,100 Z "/>
	<path fill="#646464" fill-opacity="0.603922" stroke-width="0.2" stroke-linejoin="round" d="M 297,98C 300.866,98 304,101.134 304,105C 304,108.866 300.866,112 297,112C 293.134,112 290,108.866 290,105C 290,101.134 293.134,98 297,98 Z M 297,99C 293.686,99 291,101.686 291,105C 291,108.314 293.686,111 297,111C 300.314,111 303,108.314 303,105C 303,101.686 300.314,99 297,99 Z "/>
</svg>
