<?xml version="1.0" encoding="utf-8"?>
<!DOCTYPE svg PUBLIC "-//W3C//DTD SVG 1.1//EN" "http://www.w3.org/Graphics/SVG/1.1/DTD/svg11.dtd">
<svg xmlns="http://www.w3.org/2000/svg" xmlns:xlink="http://www.w3.org/1999/xlink" version="1.1" baseProfile="full" width="420" height="140" viewBox="0 0 420.00 140.00" enable-background="new 0 0 420.00 140.00" xml:space="preserve">
	<path fill="#000000" fill-opacity="0.101961" stroke-width="0.2" stroke-linejoin="round" d="M 6,4.00002L 108,4.00002C 110.761,4.00002 113,6.2386 113,9.00002L 113,111C 113,113.761 110.761,116 108,116L 6,116C 3.23858,116 1,113.761 1,111L 1,9.00002C 1,6.2386 3.23858,4.00002 6,4.00002 Z "/>
	<path fill="#000000" fill-opacity="0.0509804" stroke-width="0.2" stroke-linejoin="round" d="M 5.99996,7.00005L 108,7.00005C 110.209,7.00005 112,8.79091 112,11L 112,113C 112,115.209 110.209,117 108,117L 5.99996,117C 3.79084,117 1.99996,115.209 1.99996,113L 1.99996,11C 1.99996,8.79091 3.79084,7.00005 5.99996,7.00005 Z "/>
	<path fill="#FFFFFF" fill-opacity="1" stroke-width="0.2" stroke-linejoin="round" d="M 6,5.00005L 108,5.00005C 110.209,5.00005 112,6.79091 112,9.00005L 112,111C 112,113.209 110.209,115 108,115L 6,115C 3.79088,115 2,113.209 2,111L 2,9.00005C 2,6.79091 3.79088,5.00005 6,5.00005 Z "/>
	<g>
		<path fill="#646464" fill-opacity="0.803922" stroke-width="0.2" stroke-linejoin="round" d="M 6.198,132.08L 7.7821,132.08L 8.32613,124.942C 8.34846,124.568 8.3598,124.197 8.36013,123.829C 8.36046,123.461 8.3598,123.263 8.35813,123.235L 8.39014,123.235C 8.39947,123.268 8.46881,123.476 8.59815,123.859C 8.72749,124.242 8.86083,124.603 8.99817,124.942L 11.2383,130L 12.6464,130L 14.9025,124.942C 15.0469,124.598 15.1822,124.24 15.3086,123.869C 15.4349,123.499 15.5022,123.298 15.5106,123.268L 15.5426,123.268C 15.5402,123.294 15.5369,123.487 15.5326,123.845C 15.5282,124.204 15.5369,124.569 15.5586,124.942L 16.1186,132.08L 17.6867,132.08L 16.7746,120.74L 15.1105,120.74L 12.5184,126.89C 12.383,127.229 12.2577,127.562 12.1424,127.891C 12.027,128.219 11.9657,128.396 11.9584,128.42L 11.9264,128.42C 11.919,128.396 11.8577,128.219 11.7423,127.891C 11.627,127.562 11.5017,127.229 11.3663,126.89L 8.77416,120.74L 7.11006,120.74L 6.198,132.08 Z "/>
		<path fill="#646464" fill-opacity="0.803922" stroke-width="0.2" stroke-linejoin="round" d="M 19.4783,129.807C 19.5054,130.599 19.7912,131.201 20.3359,131.613C 20.8805,132.024 21.5214,132.232 22.2587,132.234C 23.2364,132.168 23.9265,131.903 24.3288,131.439C 24.7312,130.976 24.9257,130.711 24.9124,130.645L 24.9439,130.645C 24.9334,130.711 24.9229,130.936 24.9124,131.321L 24.9124,132.08L 26.3323,132.08L 26.3323,127.07C 26.3285,125.962 26.0522,125.138 25.5036,124.596C 24.955,124.054 24.1573,123.784 23.1105,123.786C 22.1511,123.824 21.4016,123.976 20.8618,124.243C 20.3221,124.509 20.0476,124.661 20.0383,124.699L 20.6784,125.894C 20.6944,125.858 20.9182,125.715 21.3497,125.464C 21.7813,125.213 22.3245,125.07 22.9795,125.034C 23.5139,125.024 23.948,125.167 24.2818,125.462C 24.6156,125.757 24.7876,126.264 24.7978,126.982L 24.7978,127.14L 24.4374,127.14C 23.6216,127.091 22.621,127.215 21.4357,127.513C 20.2504,127.811 19.5979,128.575 19.4783,129.807 Z M 21.0464,129.729C 21.1116,129.05 21.5218,128.625 22.2771,128.455C 23.0324,128.286 23.7416,128.214 24.4047,128.24L 24.8142,128.24L 24.8142,128.488C 24.806,129.102 24.6054,129.663 24.2122,130.173C 23.819,130.684 23.2825,130.955 22.6027,130.986C 22.0863,130.973 21.6979,130.843 21.4375,130.596C 21.1771,130.349 21.0467,130.06 21.0464,129.729 Z "/>
		<path fill="#646464" fill-opacity="0.803922" stroke-width="0.2" stroke-linejoin="round" d="M 28.6063,132.08L 30.1584,132.08L 30.1584,128.665C 30.1504,128.148 30.2144,127.647 30.3504,127.163C 30.5441,126.54 30.8448,126.058 31.2525,125.718C 31.6602,125.377 32.1169,125.204 32.6225,125.2C 32.7462,125.202 32.8509,125.21 32.9366,125.225C 33.0222,125.239 33.0669,125.247 33.0706,125.249L 33.0706,123.81L 32.9486,123.795C 32.8709,123.786 32.7782,123.781 32.6706,123.78C 32.0408,123.792 31.5041,123.985 31.0604,124.359C 30.6168,124.733 30.3001,125.217 30.1104,125.81L 30.0784,125.81C 30.0797,125.881 30.0851,125.867 30.0944,125.769C 30.1037,125.67 30.1091,125.532 30.1104,125.356L 30.1104,123.94L 28.6063,123.94L 28.6063,132.08 Z "/>
		<path fill="#646464" fill-opacity="0.803922" stroke-width="0.2" stroke-linejoin="round" d="M 34.6863,132.08L 36.2384,132.08L 36.2384,128.234L 37.4065,128.234L 39.8386,132.08L 41.6467,132.08L 38.6545,127.58L 38.6545,127.549L 41.3427,123.94L 39.5826,123.94L 37.3745,126.986L 36.2384,126.986L 36.2384,120.74L 34.6863,120.74L 34.6863,132.08 Z "/>
		<path fill="#646464" fill-opacity="0.803922" stroke-width="0.2" stroke-linejoin="round" d="M 42.6724,128.01C 42.683,129.313 43.0048,130.34 43.6379,131.091C 44.2709,131.842 45.1512,132.225 46.2789,132.24C 47.2856,132.181 47.9928,131.943 48.4007,131.528C 48.8085,131.113 49.005,130.875 48.9903,130.816L 49.0143,130.912C 49.0096,131.005 49.007,131.135 49.0063,131.301L 49.0063,132.08L 50.4784,132.08L 50.4784,120.74L 48.9263,120.74L 48.9263,124.47C 48.9276,124.616 48.933,124.737 48.9423,124.832C 48.9516,124.927 48.957,124.977 48.9583,124.98L 48.9263,124.98C 48.9396,124.93 48.7537,124.73 48.3686,124.38C 47.9836,124.03 47.3197,123.83 46.3769,123.78C 45.2651,123.791 44.3741,124.166 43.704,124.904C 43.0338,125.643 42.6899,126.678 42.6724,128.01 Z M 44.2524,128.01C 44.2701,127.061 44.5043,126.33 44.9551,125.817C 45.4059,125.305 45.967,125.046 46.6384,125.04C 47.4221,125.071 48.0076,125.378 48.3947,125.963C 48.7818,126.548 48.975,127.224 48.9743,127.994C 48.9515,129.044 48.7073,129.806 48.2415,130.281C 47.7757,130.755 47.225,130.988 46.5894,130.98C 45.8914,130.969 45.3303,130.7 44.9061,130.172C 44.4818,129.644 44.2639,128.923 44.2524,128.01 Z "/>
		<path fill="#646464" fill-opacity="0.803922" stroke-width="0.2" stroke-linejoin="round" d="M 52.2724,127.994C 52.3029,129.276 52.7297,130.3 53.5529,131.064C 54.3761,131.829 55.4126,132.221 56.6624,132.24C 57.9123,132.221 58.9487,131.829 59.7719,131.064C 60.595,130.3 61.0219,129.276 61.0524,127.994C 61.0219,126.72 60.595,125.704 59.7719,124.945C 58.9487,124.187 57.9123,123.799 56.6624,123.78C 55.4126,123.799 54.3761,124.187 53.5529,124.945C 52.7297,125.704 52.3029,126.72 52.2724,127.994 Z M 53.8524,127.994C 53.8736,127.117 54.1501,126.409 54.6821,125.871C 55.214,125.332 55.8741,125.055 56.6624,125.04C 57.4578,125.055 58.1199,125.332 58.6488,125.871C 59.1777,126.409 59.4522,127.117 59.4724,127.994C 59.4522,128.879 59.1777,129.594 58.6488,130.139C 58.1199,130.684 57.4578,130.964 56.6624,130.98C 55.8741,130.964 55.214,130.684 54.6821,130.139C 54.1501,129.594 53.8736,128.879 53.8524,127.994 Z "/>
		<path fill="#646464" fill-opacity="0.803922" stroke-width="0.2" stroke-linejoin="round" d="M 64.4761,132.08L 66.2013,132.08L 67.8626,126.914C 67.9279,126.689 67.9811,126.485 68.0224,126.302C 68.0637,126.118 68.085,126.021 68.0863,126.01L 68.1182,126.01C 68.1196,126.021 68.1409,126.118 68.1821,126.302C 68.2234,126.485 68.2766,126.689 68.3419,126.914L 70.0192,132.08L 71.7284,132.08L 74.3324,123.94L 72.7028,123.94L 71.0096,129.773C 70.9457,129.997 70.8977,130.198 70.8658,130.377C 70.8338,130.555 70.8179,130.65 70.8179,130.66L 70.7859,130.66C 70.7846,130.65 70.7633,130.555 70.722,130.377C 70.6807,130.198 70.6275,129.997 70.5623,129.773L 68.8211,123.94L 67.3994,123.94L 65.6423,129.771C 65.5777,129.995 65.5271,130.197 65.4905,130.376C 65.4539,130.555 65.4352,130.65 65.4346,130.66L 65.4026,130.66C 65.395,130.65 65.3743,130.555 65.3407,130.376C 65.3071,130.197 65.2585,129.995 65.195,129.771L 63.5177,123.94L 61.8724,123.94L 64.4761,132.08 Z "/>
		<path fill="#646464" fill-opacity="0.803922" stroke-width="0.2" stroke-linejoin="round" d="M 75.6463,132.08L 77.1984,132.08L 77.1984,128.279C 77.1929,127.875 77.237,127.512 77.3308,127.189C 77.5135,126.593 77.8388,126.116 78.3069,125.755C 78.775,125.395 79.3321,125.21 79.978,125.2C 80.6305,125.214 81.0628,125.411 81.2747,125.791C 81.4867,126.172 81.5839,126.654 81.5663,127.237L 81.5663,132.08L 83.1184,132.08L 83.1184,126.884C 83.1223,125.85 82.8945,125.075 82.4351,124.557C 81.9757,124.039 81.2615,123.78 80.2924,123.78C 79.3858,123.813 78.6758,124.034 78.1624,124.442C 77.6489,124.851 77.3116,125.248 77.1504,125.633L 77.1184,125.633C 77.1291,125.503 77.1397,125.278 77.1504,124.958L 77.1504,123.94L 75.6463,123.94L 75.6463,132.08 Z "/>
	</g>
	<g>
		<path fill="#646464" fill-opacity="0.803922" stroke-width="0.2" stroke-linejoin="round" d="M 158.81,126.515C 158.849,128.221 159.386,129.595 160.422,130.635C 161.458,131.676 162.757,132.211 164.32,132.24C 165.448,132.184 166.309,131.96 166.903,131.569C 167.497,131.178 167.797,130.954 167.802,130.898L 167.833,130.898C 167.832,130.9 167.83,130.948 167.825,131.043C 167.821,131.138 167.818,131.248 167.817,131.373L 167.817,132.08L 169.19,132.08L 169.19,126.5L 165.925,126.5L 165.925,127.76L 167.77,127.76L 167.77,129.403C 167.759,129.462 167.468,129.698 166.899,130.111C 166.33,130.525 165.551,130.761 164.561,130.82C 163.348,130.797 162.357,130.388 161.585,129.595C 160.814,128.802 160.415,127.765 160.39,126.484C 160.401,125.208 160.78,124.149 161.525,123.308C 162.27,122.467 163.314,122.031 164.657,122C 165.633,122.047 166.405,122.237 166.975,122.569C 167.545,122.9 167.836,123.09 167.849,123.137L 168.638,121.921C 168.636,121.865 168.29,121.642 167.6,121.251C 166.91,120.859 165.886,120.636 164.529,120.58C 162.845,120.617 161.479,121.186 160.43,122.287C 159.382,123.388 158.842,124.797 158.81,126.515 Z "/>
		<path fill="#646464" fill-opacity="0.803922" stroke-width="0.2" stroke-linejoin="round" d="M 171.288,122.32L 172.856,122.32L 172.856,120.74L 171.288,120.74L 171.288,122.32 Z M 171.304,132.08L 172.856,132.08L 172.856,123.94L 171.304,123.94L 171.304,132.08 Z "/>
		<path fill="#646464" fill-opacity="0.803922" stroke-width="0.2" stroke-linejoin="round" d="M 175.784,129.159C 175.848,130.431 176.236,131.246 176.946,131.605C 177.656,131.964 178.304,132.123 178.888,132.08C 179.229,132.07 179.411,132.06 179.432,132.051L 179.432,130.788C 179.421,130.799 179.299,130.809 179.064,130.82C 178.733,130.845 178.371,130.742 177.978,130.512C 177.585,130.281 177.371,129.771 177.336,128.982L 177.336,125.354L 179.288,125.354L 179.288,124.106L 177.336,124.106L 177.336,121.77L 175.832,121.77L 175.832,124.106L 174.728,124.106L 174.728,125.354L 175.784,125.354L 175.784,129.159 Z "/>
		<path fill="#646464" fill-opacity="0.803922" stroke-width="0.2" stroke-linejoin="round" d="M 181.53,132.08L 183.11,132.08L 183.11,127.12L 188.89,127.12L 188.89,132.08L 190.47,132.08L 190.47,120.74L 188.89,120.74L 188.89,125.86L 183.11,125.86L 183.11,120.74L 181.53,120.74L 181.53,132.08 Z "/>
		<path fill="#646464" fill-opacity="0.803922" stroke-width="0.2" stroke-linejoin="round" d="M 193.224,129.148C 193.226,130.216 193.458,130.999 193.92,131.499C 194.383,131.998 195.064,132.245 195.964,132.24C 196.741,132.213 197.378,132.006 197.875,131.62C 198.371,131.233 198.703,130.827 198.872,130.402L 198.904,130.402C 198.903,130.408 198.897,130.467 198.888,130.577C 198.879,130.688 198.873,130.83 198.872,131.002L 198.872,132.08L 200.376,132.08L 200.376,123.94L 198.824,123.94L 198.824,127.753C 198.818,128.583 198.592,129.294 198.146,129.888C 197.7,130.482 197.072,130.792 196.261,130.82C 195.645,130.806 195.239,130.609 195.044,130.229C 194.848,129.85 194.759,129.371 194.776,128.795L 194.776,123.94L 193.224,123.94L 193.224,129.148 Z "/>
		<path fill="#646464" fill-opacity="0.803922" stroke-width="0.2" stroke-linejoin="round" d="M 202.824,132.08L 204.296,132.08L 204.296,131.496C 204.295,131.326 204.289,131.187 204.28,131.08C 204.271,130.973 204.265,130.918 204.264,130.914L 204.296,130.914C 204.289,130.97 204.491,131.191 204.903,131.577C 205.314,131.964 205.979,132.185 206.896,132.24C 208.003,132.228 208.897,131.851 209.576,131.107C 210.255,130.364 210.605,129.326 210.624,127.994C 210.613,126.691 210.291,125.667 209.658,124.921C 209.026,124.175 208.148,123.795 207.027,123.78C 206.064,123.833 205.379,124.046 204.971,124.418C 204.563,124.791 204.365,125.003 204.376,125.056L 204.344,125.056C 204.345,125.053 204.351,124.993 204.36,124.876C 204.369,124.759 204.375,124.606 204.376,124.417L 204.376,120.74L 202.824,120.74L 202.824,132.08 Z M 204.328,128.026C 204.35,126.976 204.592,126.214 205.056,125.739C 205.519,125.265 206.072,125.032 206.716,125.04C 207.415,125.051 207.976,125.32 208.401,125.848C 208.826,126.376 209.044,127.097 209.056,128.01C 209.038,128.959 208.804,129.69 208.352,130.203C 207.901,130.715 207.339,130.974 206.667,130.98C 205.882,130.949 205.296,130.642 204.908,130.057C 204.521,129.472 204.327,128.796 204.328,128.026 Z "/>
	</g>
	<g>
		<path fill="#646464" fill-opacity="0.803922" stroke-width="0.2" stroke-linejoin="round" d="M 311.79,126.353C 311.817,128.054 312.347,129.451 313.38,130.544C 314.414,131.637 315.792,132.203 317.514,132.24C 318.936,132.167 320.021,131.874 320.769,131.361C 321.516,130.849 321.893,130.556 321.899,130.483L 321.051,129.342C 321.038,129.403 320.723,129.65 320.105,130.081C 319.486,130.512 318.639,130.758 317.562,130.82C 316.289,130.785 315.276,130.341 314.524,129.488C 313.772,128.636 313.388,127.586 313.37,126.337C 313.386,125.102 313.766,124.078 314.51,123.265C 315.254,122.452 316.266,122.03 317.546,122C 318.536,122.052 319.324,122.258 319.91,122.618C 320.497,122.979 320.797,123.185 320.811,123.236L 321.595,122.047C 321.593,121.986 321.248,121.742 320.559,121.314C 319.869,120.886 318.844,120.641 317.482,120.58C 315.81,120.615 314.451,121.165 313.406,122.232C 312.361,123.298 311.822,124.672 311.79,126.353 Z "/>
		<path fill="#646464" fill-opacity="0.803922" stroke-width="0.2" stroke-linejoin="round" d="M 323.15,127.994C 323.181,129.276 323.607,130.3 324.431,131.064C 325.254,131.829 326.29,132.221 327.54,132.24C 328.79,132.221 329.827,131.829 330.65,131.064C 331.473,130.3 331.9,129.276 331.93,127.994C 331.9,126.72 331.473,125.704 330.65,124.945C 329.827,124.187 328.79,123.799 327.54,123.78C 326.29,123.799 325.254,124.187 324.431,124.945C 323.607,125.704 323.181,126.72 323.15,127.994 Z M 324.73,127.994C 324.751,127.117 325.028,126.409 325.56,125.871C 326.092,125.332 326.752,125.055 327.54,125.04C 328.336,125.055 328.998,125.332 329.527,125.871C 330.055,126.409 330.33,127.117 330.35,127.994C 330.33,128.879 330.055,129.594 329.527,130.139C 328.998,130.684 328.336,130.964 327.54,130.98C 326.752,130.964 326.092,130.684 325.56,130.139C 325.028,129.594 324.751,128.879 324.73,127.994 Z "/>
		<path fill="#646464" fill-opacity="0.803922" stroke-width="0.2" stroke-linejoin="round" d="M 333.564,132.08L 335.116,132.08L 335.116,128.298C 335.108,127.913 335.141,127.553 335.214,127.218C 335.372,126.611 335.653,126.101 336.058,125.687C 336.462,125.273 336.967,125.057 337.572,125.04C 338.187,125.059 338.584,125.271 338.764,125.674C 338.944,126.078 339.024,126.56 339.004,127.119L 339.004,132.08L 340.556,132.08L 340.556,128.298C 340.553,127.875 340.591,127.493 340.67,127.152C 340.822,126.57 341.099,126.077 341.502,125.672C 341.904,125.268 342.397,125.057 342.98,125.04C 343.582,125.054 343.98,125.255 344.176,125.644C 344.371,126.032 344.46,126.524 344.444,127.119L 344.444,132.08L 345.996,132.08L 345.996,126.775C 345.999,125.747 345.781,124.99 345.342,124.503C 344.902,124.017 344.224,123.776 343.305,123.78C 342.628,123.793 342.03,123.96 341.512,124.283C 340.994,124.605 340.617,125.005 340.38,125.482L 340.348,125.482C 340.084,124.343 339.268,123.776 337.898,123.78C 337.242,123.795 336.658,123.969 336.147,124.301C 335.636,124.633 335.276,125.032 335.068,125.498L 335.036,125.498C 335.037,125.504 335.043,125.455 335.052,125.35C 335.061,125.245 335.067,125.115 335.068,124.958L 335.068,123.94L 333.564,123.94L 333.564,132.08 Z "/>
		<path fill="#646464" fill-opacity="0.803922" stroke-width="0.2" stroke-linejoin="round" d="M 348.124,132.08L 349.676,132.08L 349.676,128.298C 349.668,127.913 349.701,127.553 349.774,127.218C 349.932,126.611 350.213,126.101 350.618,125.687C 351.022,125.273 351.527,125.057 352.132,125.04C 352.747,125.059 353.144,125.271 353.324,125.674C 353.504,126.078 353.584,126.56 353.564,127.119L 353.564,132.08L 355.116,132.08L 355.116,128.298C 355.113,127.875 355.151,127.493 355.23,127.152C 355.382,126.57 355.659,126.077 356.062,125.672C 356.464,125.268 356.957,125.057 357.54,125.04C 358.142,125.054 358.54,125.255 358.736,125.644C 358.931,126.032 359.02,126.524 359.004,127.119L 359.004,132.08L 360.556,132.08L 360.556,126.775C 360.559,125.747 360.341,124.99 359.902,124.503C 359.462,124.017 358.784,123.776 357.865,123.78C 357.188,123.793 356.59,123.96 356.072,124.283C 355.554,124.605 355.177,125.005 354.94,125.482L 354.908,125.482C 354.645,124.343 353.828,123.776 352.458,123.78C 351.802,123.795 351.219,123.969 350.707,124.301C 350.196,124.633 349.836,125.032 349.628,125.498L 349.596,125.498C 349.598,125.504 349.603,125.455 349.612,125.35C 349.621,125.245 349.627,125.115 349.628,124.958L 349.628,123.94L 348.124,123.94L 348.124,132.08 Z "/>
		<path fill="#646464" fill-opacity="0.803922" stroke-width="0.2" stroke-linejoin="round" d="M 362.684,129.148C 362.686,130.216 362.918,130.999 363.381,131.499C 363.843,131.998 364.524,132.245 365.424,132.24C 366.202,132.213 366.839,132.006 367.335,131.62C 367.831,131.233 368.164,130.827 368.332,130.402L 368.364,130.402C 368.363,130.408 368.357,130.467 368.348,130.577C 368.339,130.688 368.333,130.83 368.332,131.002L 368.332,132.08L 369.836,132.08L 369.836,123.94L 368.284,123.94L 368.284,127.753C 368.278,128.583 368.052,129.294 367.606,129.888C 367.161,130.482 366.532,130.792 365.721,130.82C 365.105,130.806 364.699,130.609 364.504,130.229C 364.308,129.85 364.219,129.371 364.236,128.795L 364.236,123.94L 362.684,123.94L 362.684,129.148 Z "/>
		<path fill="#646464" fill-opacity="0.803922" stroke-width="0.2" stroke-linejoin="round" d="M 372.284,132.08L 373.836,132.08L 373.836,128.279C 373.831,127.875 373.875,127.512 373.969,127.189C 374.151,126.593 374.477,126.116 374.945,125.755C 375.413,125.395 375.97,125.21 376.616,125.2C 377.268,125.214 377.701,125.411 377.912,125.791C 378.124,126.172 378.222,126.654 378.204,127.237L 378.204,132.08L 379.756,132.08L 379.756,126.884C 379.76,125.85 379.532,125.075 379.073,124.557C 378.613,124.039 377.899,123.78 376.93,123.78C 376.024,123.813 375.314,124.034 374.8,124.442C 374.287,124.851 373.949,125.248 373.788,125.633L 373.756,125.633C 373.767,125.503 373.777,125.278 373.788,124.958L 373.788,123.94L 372.284,123.94L 372.284,132.08 Z "/>
		<path fill="#646464" fill-opacity="0.803922" stroke-width="0.2" stroke-linejoin="round" d="M 381.868,122.32L 383.436,122.32L 383.436,120.74L 381.868,120.74L 381.868,122.32 Z M 381.884,132.08L 383.436,132.08L 383.436,123.94L 381.884,123.94L 381.884,132.08 Z "/>
		<path fill="#646464" fill-opacity="0.803922" stroke-width="0.2" stroke-linejoin="round" d="M 386.364,129.159C 386.428,130.431 386.816,131.246 387.526,131.605C 388.237,131.964 388.884,132.123 389.468,132.08C 389.81,132.07 389.991,132.06 390.012,132.051L 390.012,130.788C 390.002,130.799 389.879,130.809 389.644,130.82C 389.313,130.845 388.951,130.742 388.558,130.512C 388.165,130.281 387.951,129.771 387.916,128.982L 387.916,125.354L 389.868,125.354L 389.868,124.106L 387.916,124.106L 387.916,121.77L 386.412,121.77L 386.412,124.106L 385.308,124.106L 385.308,125.354L 386.364,125.354L 386.364,129.159 Z "/>
		<path fill="#646464" fill-opacity="0.803922" stroke-width="0.2" stroke-linejoin="round" d="M 390.558,134.975C 390.566,134.994 390.712,135.072 390.997,135.208C 391.281,135.343 391.654,135.421 392.116,135.44C 392.687,135.44 393.201,135.287 393.658,134.981C 394.114,134.675 394.469,134.219 394.723,133.613L 398.49,123.94L 396.821,123.94L 394.866,129.319C 394.792,129.544 394.729,129.758 394.677,129.963C 394.625,130.168 394.598,130.277 394.595,130.291L 394.564,130.291C 394.561,130.276 394.53,130.164 394.472,129.955C 394.414,129.746 394.344,129.528 394.262,129.303L 392.243,123.94L 390.51,123.94L 393.88,132.041L 393.483,132.981C 393.329,133.357 393.128,133.65 392.879,133.86C 392.63,134.07 392.349,134.177 392.036,134.18C 391.781,134.166 391.564,134.109 391.382,134.01C 391.201,133.911 391.107,133.854 391.098,133.84L 390.558,134.975 Z "/>
	</g>
	<path fill="#000000" fill-opacity="0.101961" stroke-width="0.2" stroke-linejoin="round" d="M 160,4.00008L 262,4.00008C 264.761,4.00008 267,6.23865 267,9.00008L 267,111C 267,113.761 264.761,116 262,116L 160,116C 157.239,116 155,113.761 155,111L 155,9.00008C 155,6.23865 157.239,4.00008 160,4.00008 Z "/>
	<path fill="#000000" fill-opacity="0.0509804" stroke-width="0.2" stroke-linejoin="round" d="M 160,7.00005L 262,7.00005C 264.209,7.00005 266,8.79091 266,11L 266,113C 266,115.209 264.209,117 262,117L 160,117C 157.791,117 156,115.209 156,113L 156,11C 156,8.79091 157.791,7.00005 160,7.00005 Z "/>
	<path fill="#FFFFFF" fill-opacity="1" stroke-width="0.2" stroke-linejoin="round" d="M 160,5.00005L 262,5.00005C 264.209,5.00005 266,6.79091 266,9.00005L 266,111C 266,113.209 264.209,115 262,115L 160,115C 157.791,115 156,113.209 156,111L 156,9.00005C 156,6.79091 157.791,5.00005 160,5.00005 Z "/>
	<path fill="#646464" fill-opacity="1" fill-rule="evenodd" stroke-width="0.2" stroke-linejoin="round" d="M 209.996,14.1667C 184.69,14.1667 164.167,34.6869 164.167,60.0029C 164.167,80.2509 177.298,97.4298 195.511,103.491C 197.804,103.912 198.64,102.497 198.64,101.282C 198.64,100.194 198.6,97.3116 198.578,93.4867C 185.829,96.2565 183.139,87.3428 183.139,87.3428C 181.054,82.048 178.049,80.6383 178.049,80.6383C 173.888,77.7946 178.364,77.8523 178.364,77.8523C 182.965,78.1763 185.385,82.5755 185.385,82.5755C 189.473,89.5796 196.113,87.5572 198.724,86.3838C 199.141,83.4219 200.325,81.4023 201.634,80.2565C 191.456,79.0998 180.756,75.1678 180.756,57.6042C 180.756,52.6007 182.543,48.5093 185.475,45.3054C 185.002,44.1458 183.429,39.4858 185.925,33.1756C 185.925,33.1756 189.771,31.9432 198.527,37.8741C 202.182,36.8576 206.105,36.3491 210.001,36.3315C 213.896,36.3491 217.815,36.8576 221.476,37.8741C 230.226,31.9432 234.067,33.1756 234.067,33.1756C 236.568,39.4858 234.995,44.1458 234.525,45.3054C 237.463,48.5093 239.235,52.6007 239.235,57.6042C 239.235,75.2116 228.518,79.086 218.31,80.2208C 219.953,81.6357 221.419,84.4331 221.419,88.7086C 221.419,94.8358 221.363,99.7792 221.363,101.282C 221.363,102.508 222.19,103.934 224.514,103.486C 242.713,97.4132 255.833,80.2456 255.833,60.0029C 255.833,34.6869 235.31,14.1667 209.996,14.1667 Z "/>
	<path fill="#000000" fill-opacity="0.101961" stroke-width="0.2" stroke-linejoin="round" d="M 312,4.00005L 414,4.00005C 416.761,4.00005 419,6.23862 419,9.00005L 419,111C 419,113.761 416.761,116 414,116L 312,116C 309.239,116 307,113.761 307,111L 307,9.00005C 307,6.23862 309.239,4.00005 312,4.00005 Z "/>
	<path fill="#000000" fill-opacity="0.0509804" stroke-width="0.2" stroke-linejoin="round" d="M 312,7.00005L 414,7.00005C 416.209,7.00005 418,8.79091 418,11L 418,113C 418,115.209 416.209,117 414,117L 312,117C 309.791,117 308,115.209 308,113L 308,11C 308,8.79091 309.791,7.00005 312,7.00005 Z "/>
	<path fill="#FFFFFF" fill-opacity="1" stroke-width="0.2" stroke-linejoin="round" d="M 312,5.00005L 414,5.00005C 416.209,5.00005 418,6.79091 418,9.00005L 418,111C 418,113.209 416.209,115 414,115L 312,115C 309.791,115 308,113.209 308,111L 308,9.00005C 308,6.79091 309.791,5.00005 312,5.00005 Z "/>
	<path fill="#646464" fill-opacity="1" stroke-width="0.2" stroke-linejoin="miter" d="M 363,32.5C 355.406,32.5 349.25,38.6559 349.25,46.25C 349.25,53.8441 355.406,60 363,60C 370.594,60 376.75,53.8441 376.75,46.25C 376.75,38.6559 370.594,32.5 363,32.5 Z M 335.5,42.4275C 329.172,42.4275 324.042,47.5576 324.042,53.8858C 324.042,60.214 329.172,65.3442 335.5,65.3442C 339.528,65.3442 343.053,63.2592 345.096,60.1164C 342.023,56.2614 340.083,51.5139 340.083,46.25C 340.083,45.3191 340.161,44.4052 340.271,43.5018C 338.815,42.8308 337.209,42.4275 335.5,42.4275 Z M 390.5,42.4275C 388.791,42.4275 387.185,42.8308 385.729,43.5018C 385.84,44.4052 385.917,45.3191 385.917,46.25C 385.917,51.5139 383.978,56.2614 380.904,60.1164C 382.947,63.2592 386.472,65.3442 390.5,65.3442C 396.828,65.3442 401.958,60.214 401.958,53.8858C 401.958,47.5576 396.828,42.4275 390.5,42.4275 Z M 363,69.1667C 353.833,69.1667 335.5,73.75 335.5,82.9167L 335.5,92.0833L 390.5,92.0833L 390.5,82.9167C 390.5,73.75 372.167,69.1667 363,69.1667 Z M 329.422,73.5978C 321.737,74.9298 312.583,78.5273 312.583,84.4474L 312.583,92.0833L 326.333,92.0833L 326.333,82.9167C 326.333,79.3459 327.653,76.1888 329.422,73.5978 Z M 396.578,73.5978C 398.346,76.1888 399.667,79.3459 399.667,82.9167L 399.667,92.0833L 413.417,92.0833L 413.417,84.4474C 413.417,78.5273 404.263,74.9298 396.578,73.5978 Z "/>
	<path fill="#646464" fill-opacity="1" stroke-width="0.2" stroke-linejoin="round" d="M 61.5805,46.2411L 86.7889,46.2411L 61.5805,21.0328L 61.5805,46.2411 Z M 29.4972,14.1578L 66.1639,14.1578L 93.6639,41.6578L 93.6639,96.6578C 93.6639,101.718 89.5572,105.824 84.4972,105.824L 29.4513,105.824C 24.3913,105.824 20.3305,101.718 20.3305,96.6578L 20.3764,23.3245C 20.3764,18.2645 24.4325,14.1578 29.4972,14.1578 Z M 52.4167,23.3333L 29.5,23.3333L 29.5,96.6667L 52.4167,96.6667L 84.5,96.6667L 84.5,55.4167L 52.4167,55.4167L 52.4167,23.3333 Z "/>
</svg>
