<?xml version="1.0" encoding="utf-8"?>
<!DOCTYPE svg PUBLIC "-//W3C//DTD SVG 1.1//EN" "http://www.w3.org/Graphics/SVG/1.1/DTD/svg11.dtd">
<svg xmlns="http://www.w3.org/2000/svg" xmlns:xlink="http://www.w3.org/1999/xlink" version="1.1" baseProfile="full" width="420" height="140" viewBox="0 0 420.00 140.00" enable-background="new 0 0 420.00 140.00" xml:space="preserve">
	<path fill="#2A2A2A" fill-opacity="1" stroke-width="0.2" stroke-linejoin="round" d="M 416,1.52588e-005C 418.209,1.52588e-005 420,1.79088 420,4.00002L 420,36L 132,36L 132,1.52588e-005L 416,1.52588e-005 Z "/>
	<path fill="#5E5E5E" fill-opacity="1" stroke-width="0.2" stroke-linejoin="round" d="M 4,-1.52588e-005L 137,1.52588e-005C 139.209,1.52588e-005 141,1.79088 141,4.00002L 141,40L 0,40L 0,3.99998C 0,1.79085 1.79086,-1.52588e-005 4,-1.52588e-005 Z "/>
	<path fill="#333333" fill-opacity="1" stroke-width="0.2" stroke-linejoin="round" d="M 420,136C 420,138.209 418.209,140 416,140L 4,140C 1.79086,140 0,138.209 0,136L 0.00016276,34L 420,34L 420,136 Z "/>
	<g>
		<path fill="#D5AA46" fill-opacity="1" stroke-width="0.2" stroke-linejoin="round" d="M 14.1333,59.2C 14.3492,59.2 14.5543,59.2389 14.7487,59.3167C 14.9432,59.3944 15.1124,59.5019 15.2562,59.639C 15.4001,59.776 15.5134,59.936 15.596,60.1188C 15.6787,60.3015 15.72,60.4979 15.72,60.7079C 15.72,60.9101 15.6787,61.1012 15.596,61.281C 15.5134,61.4609 15.4001,61.6179 15.2562,61.7521C 15.1124,61.8863 14.9432,61.9922 14.7487,62.07C 14.5543,62.1478 14.3492,62.1867 14.1333,62.1867C 13.9097,62.1867 13.7026,62.1478 13.5121,62.07C 13.3215,61.9922 13.1543,61.8863 13.0104,61.7521C 12.8665,61.6179 12.7533,61.4609 12.6706,61.281C 12.588,61.1012 12.5467,60.9101 12.5467,60.7079C 12.5467,60.4979 12.588,60.3015 12.6706,60.1188C 12.7533,59.936 12.8665,59.776 13.0104,59.639C 13.1543,59.5019 13.3215,59.3944 13.5121,59.3167C 13.7026,59.2389 13.9097,59.2 14.1333,59.2 Z "/>
		<path fill="#D5AA46" fill-opacity="1" stroke-width="0.2" stroke-linejoin="round" d="M 27.8533,61.8133C 27.4431,61.9397 27.0216,62.0335 26.589,62.0948C 26.1563,62.156 25.7096,62.1867 25.2487,62.1867C 23.8099,62.1867 22.702,61.79 21.9252,60.9967C 21.1484,60.2033 20.76,59.0444 20.76,57.52C 20.76,56.7869 20.8718,56.1224 21.0954,55.5265C 21.319,54.9305 21.6335,54.4201 22.039,53.9952C 22.4444,53.5703 22.9281,53.2427 23.49,53.0123C 24.0519,52.7819 24.6722,52.6667 25.3508,52.6667C 25.8214,52.6667 26.2623,52.6958 26.6735,52.7542C 27.0848,52.8125 27.4781,52.9078 27.8533,53.04L 27.8533,54.5333C 27.4625,54.3389 27.0639,54.1969 26.6575,54.1075C 26.2511,54.0181 25.8321,53.9733 25.4004,53.9733C 24.996,53.9733 24.6149,54.0531 24.2571,54.2125C 23.8993,54.3719 23.5853,54.6024 23.315,54.9038C 23.0447,55.2051 22.8313,55.5717 22.6748,56.0033C 22.5183,56.435 22.44,56.9231 22.44,57.4675C 22.44,58.6089 22.7064,59.463 23.2392,60.0298C 23.7719,60.5966 24.5099,60.88 25.4529,60.88C 25.8807,60.88 26.2944,60.8333 26.694,60.74C 27.0935,60.6467 27.48,60.5067 27.8533,60.32L 27.8533,61.8133 Z "/>
		<path fill="#D5AA46" fill-opacity="1" stroke-width="0.2" stroke-linejoin="round" d="M 38.4933,62L 36.9883,62L 36.93,60.5242C 36.6558,60.845 36.3953,61.1114 36.1483,61.3233C 35.9014,61.5353 35.6559,61.7059 35.4119,61.8352C 35.1678,61.9645 34.9219,62.0554 34.674,62.1079C 34.426,62.1604 34.165,62.1867 33.8908,62.1867C 32.9458,62.1867 32.2322,61.9096 31.75,61.3554C 31.2678,60.8012 31.0267,59.9642 31.0267,58.8442L 31.0267,52.8533L 32.7067,52.8533L 32.7067,58.7567C 32.7067,60.1722 33.2258,60.88 34.2642,60.88C 34.4547,60.88 34.6409,60.8508 34.8227,60.7925C 35.0045,60.7342 35.1956,60.6331 35.3958,60.4892C 35.5961,60.3453 35.811,60.1508 36.0404,59.9058C 36.2699,59.6608 36.5275,59.3507 36.8133,58.9754L 36.8133,52.8533L 38.4933,52.8533L 38.4933,62 Z "/>
		<path fill="#D5AA46" fill-opacity="1" stroke-width="0.2" stroke-linejoin="round" d="M 48.5733,59.515C 48.5733,59.8378 48.5184,60.1275 48.4085,60.3842C 48.2987,60.6408 48.149,60.8683 47.9594,61.0667C 47.7698,61.265 47.5496,61.4342 47.2987,61.5742C 47.0479,61.7142 46.7801,61.8299 46.4952,61.9212C 46.2103,62.0126 45.9182,62.0797 45.6187,62.1225C 45.3193,62.1653 45.0257,62.1867 44.7379,62.1867C 44.1137,62.1867 43.5401,62.1721 43.0171,62.1429C 42.494,62.1137 41.9817,62.0661 41.48,62L 41.48,60.5067C 42.0147,60.6292 42.547,60.722 43.0769,60.7852C 43.6067,60.8484 44.1332,60.88 44.6562,60.88C 45.4165,60.88 45.9794,60.7731 46.345,60.5592C 46.7106,60.3453 46.8933,60.04 46.8933,59.6433C 46.8933,59.4781 46.8647,59.3298 46.8073,59.1985C 46.7499,59.0673 46.6464,58.9424 46.4967,58.8238C 46.3469,58.7051 46.1141,58.5817 45.7981,58.4533C 45.4821,58.325 45.051,58.1782 44.5046,58.0129C 44.0962,57.8904 43.7195,57.7514 43.3744,57.5958C 43.0292,57.4403 42.7303,57.256 42.4775,57.0431C 42.2247,56.8302 42.0264,56.5803 41.8825,56.2935C 41.7386,56.0067 41.6667,55.6679 41.6667,55.2771C 41.6667,55.0204 41.726,54.7394 41.8446,54.4342C 41.9632,54.1289 42.1659,53.845 42.4527,53.5825C 42.7395,53.32 43.1269,53.1017 43.615,52.9277C 44.1031,52.7537 44.7126,52.6667 45.4437,52.6667C 45.8035,52.6667 46.2026,52.6808 46.641,52.709C 47.0795,52.7372 47.5369,52.7853 48.0133,52.8533L 48.0133,54.3467C 47.5194,54.2183 47.0508,54.124 46.6075,54.0638C 46.1642,54.0035 45.7792,53.9733 45.4525,53.9733C 45.0617,53.9733 44.7321,54.0044 44.4637,54.0667C 44.1954,54.1289 43.9781,54.2144 43.8119,54.3233C 43.6456,54.4322 43.5265,54.5596 43.4546,54.7054C 43.3826,54.8512 43.3467,55.0078 43.3467,55.175C 43.3467,55.3403 43.3783,55.49 43.4415,55.6242C 43.5047,55.7583 43.6213,55.8876 43.7915,56.0121C 43.9616,56.1365 44.1993,56.2615 44.5046,56.3869C 44.8099,56.5123 45.2085,56.6479 45.7004,56.7938C 46.2332,56.9532 46.6819,57.1199 47.0465,57.294C 47.411,57.468 47.7071,57.6619 47.9346,57.8758C 48.1621,58.0897 48.3254,58.3308 48.4246,58.5992C 48.5237,58.8675 48.5733,59.1728 48.5733,59.515 Z "/>
		<path fill="#D5AA46" fill-opacity="1" stroke-width="0.2" stroke-linejoin="round" d="M 58.84,61.8133C 58.4842,61.9475 58.1157,62.0433 57.7346,62.1006C 57.3535,62.158 56.9665,62.1867 56.5737,62.1867C 55.4304,62.1867 54.5778,61.9242 54.0158,61.3992C 53.4539,60.8742 53.1729,60.0692 53.1729,58.9842L 53.1729,54.16L 50.6267,54.16L 50.6267,52.8533L 53.1729,52.8533L 53.1729,50.2867L 54.8529,49.8667L 54.8529,52.8533L 58.84,52.8533L 58.84,54.16L 54.8529,54.16L 54.8529,58.8879C 54.8529,59.5549 55.0226,60.0536 55.3619,60.3842C 55.7012,60.7147 56.2004,60.88 56.8596,60.88C 57.1435,60.88 57.4531,60.8499 57.7885,60.7896C 58.124,60.7293 58.4744,60.635 58.84,60.5067L 58.84,61.8133 Z "/>
		<path fill="#D5AA46" fill-opacity="1" stroke-width="0.2" stroke-linejoin="round" d="M 69.8533,57.3538C 69.8533,58.0674 69.7532,58.7217 69.5529,59.3167C 69.3526,59.9117 69.0639,60.4211 68.6867,60.845C 68.3094,61.2689 67.8505,61.5985 67.31,61.8337C 66.7694,62.069 66.156,62.1867 65.4696,62.1867C 64.8124,62.1867 64.2242,62.0846 63.705,61.8804C 63.1858,61.6762 62.7454,61.3758 62.3837,60.9792C 62.0221,60.5825 61.7455,60.091 61.554,59.5048C 61.3624,58.9185 61.2667,58.2443 61.2667,57.4821C 61.2667,56.7685 61.3668,56.1171 61.5671,55.5279C 61.7674,54.9388 62.0561,54.4322 62.4333,54.0083C 62.8105,53.5844 63.2694,53.2549 63.81,53.0196C 64.3505,52.7843 64.964,52.6667 65.6504,52.6667C 66.3076,52.6667 66.8958,52.7687 67.415,52.9729C 67.9342,53.1771 68.3746,53.476 68.7362,53.8698C 69.0979,54.2635 69.3745,54.7535 69.566,55.3398C 69.7576,55.926 69.8533,56.5974 69.8533,57.3538 Z M 68.1733,57.4208C 68.1733,56.8472 68.1126,56.3456 67.991,55.9158C 67.8695,55.4861 67.6955,55.1274 67.4689,54.8396C 67.2424,54.5518 66.9673,54.3355 66.6435,54.1906C 66.3198,54.0458 65.9586,53.9733 65.56,53.9733C 65.0953,53.9733 64.6981,54.0676 64.3685,54.2562C 64.0389,54.4449 63.7687,54.6967 63.5577,55.0117C 63.3467,55.3267 63.1921,55.6927 63.0939,56.1098C 62.9958,56.5269 62.9467,56.9639 62.9467,57.4208C 62.9467,57.9964 63.0074,58.5005 63.129,58.9331C 63.2505,59.3658 63.4245,59.726 63.651,60.0137C 63.8776,60.3015 64.1512,60.5178 64.4721,60.6627C 64.7929,60.8076 65.1555,60.88 65.56,60.88C 66.0247,60.88 66.4219,60.7857 66.7514,60.5971C 67.081,60.4085 67.3513,60.1567 67.5623,59.8417C 67.7733,59.5267 67.9278,59.1606 68.026,58.7435C 68.1242,58.3265 68.1733,57.8856 68.1733,57.4208 Z "/>
		<path fill="#D5AA46" fill-opacity="1" stroke-width="0.2" stroke-linejoin="round" d="M 78.6267,62L 78.6267,55.4025C 78.6267,55.1147 78.6174,54.8794 78.599,54.6967C 78.5805,54.5139 78.5513,54.369 78.5115,54.2621C 78.4716,54.1551 78.421,54.0803 78.3598,54.0375C 78.2985,53.9947 78.2222,53.9733 78.1308,53.9733C 78.0258,53.9733 77.9281,54.0098 77.8377,54.0827C 77.7473,54.1556 77.6501,54.2747 77.546,54.44C 77.442,54.6053 77.3278,54.8235 77.2033,55.0948C 77.0789,55.366 76.9311,55.7 76.76,56.0967L 76.76,62L 75.08,62L 75.08,55.5746C 75.08,55.2401 75.0708,54.9689 75.0523,54.7608C 75.0338,54.5528 75.0046,54.3909 74.9648,54.2752C 74.9249,54.1595 74.8729,54.0803 74.8087,54.0375C 74.7446,53.9947 74.6668,53.9733 74.5754,53.9733C 74.4801,53.9733 74.3897,54.004 74.3042,54.0652C 74.2186,54.1265 74.1233,54.2363 74.0183,54.3948C 73.9133,54.5533 73.7971,54.7696 73.6698,55.0438C 73.5424,55.3179 73.3903,55.6689 73.2133,56.0967L 73.2133,62L 71.5333,62L 71.5333,52.8533L 72.9304,52.8533L 73.015,54.5946C 73.1706,54.2446 73.3222,53.9466 73.47,53.7006C 73.6178,53.4547 73.7699,53.2563 73.9265,53.1056C 74.083,52.9549 74.2497,52.8441 74.4267,52.7731C 74.6036,52.7021 74.801,52.6667 75.0187,52.6667C 75.5049,52.6667 75.8743,52.8295 76.1271,53.1552C 76.3799,53.4809 76.5062,53.985 76.5062,54.6675C 76.6521,54.3486 76.7945,54.0647 76.9335,53.8158C 77.0726,53.5669 77.2223,53.3579 77.3827,53.1888C 77.5431,53.0196 77.7206,52.8903 77.915,52.8008C 78.1094,52.7114 78.334,52.6667 78.5888,52.6667C 79.734,52.6667 80.3067,53.5524 80.3067,55.3238L 80.3067,62L 78.6267,62 Z "/>
		<rect x="83.2933" y="56.2133" fill="#D5AA46" fill-opacity="1" stroke-width="0.2" stroke-linejoin="round" width="5.41333" height="1.49333"/>
		<path fill="#D5AA46" fill-opacity="1" stroke-width="0.2" stroke-linejoin="round" d="M 99.72,61.8133C 99.3097,61.9397 98.8883,62.0335 98.4556,62.0948C 98.023,62.156 97.5762,62.1867 97.1154,62.1867C 95.6765,62.1867 94.5687,61.79 93.7919,60.9967C 93.0151,60.2033 92.6267,59.0444 92.6267,57.52C 92.6267,56.7869 92.7385,56.1224 92.9621,55.5265C 93.1857,54.9305 93.5002,54.4201 93.9056,53.9952C 94.311,53.5703 94.7947,53.2427 95.3567,53.0123C 95.9186,52.7819 96.5389,52.6667 97.2175,52.6667C 97.688,52.6667 98.129,52.6958 98.5402,52.7542C 98.9515,52.8125 99.3447,52.9078 99.72,53.04L 99.72,54.5333C 99.3292,54.3389 98.9305,54.1969 98.5242,54.1075C 98.1178,54.0181 97.6988,53.9733 97.2671,53.9733C 96.8626,53.9733 96.4815,54.0531 96.1237,54.2125C 95.766,54.3719 95.4519,54.6024 95.1817,54.9038C 94.9114,55.2051 94.698,55.5717 94.5415,56.0033C 94.3849,56.435 94.3067,56.9231 94.3067,57.4675C 94.3067,58.6089 94.5731,59.463 95.1058,60.0298C 95.6386,60.5966 96.3765,60.88 97.3196,60.88C 97.7474,60.88 98.161,60.8333 98.5606,60.74C 98.9602,60.6467 99.3467,60.5067 99.72,60.32L 99.72,61.8133 Z "/>
		<path fill="#D5AA46" fill-opacity="1" stroke-width="0.2" stroke-linejoin="round" d="M 105.88,50.4267L 103.267,50.4267L 103.267,49.12L 107.56,49.12L 107.56,60.6933L 110.173,60.6933L 110.173,62L 102.893,62L 102.893,60.6933L 105.88,60.6933L 105.88,50.4267 Z "/>
		<path fill="#D5AA46" fill-opacity="1" stroke-width="0.2" stroke-linejoin="round" d="M 119.127,62L 119.09,60.7867C 118.59,61.2806 118.082,61.6374 117.566,61.8571C 117.049,62.0768 116.507,62.1867 115.94,62.1867C 115.415,62.1867 114.966,62.1191 114.594,61.984C 114.221,61.8488 113.914,61.6631 113.673,61.4269C 113.432,61.1906 113.255,60.9126 113.142,60.5927C 113.03,60.2729 112.973,59.9262 112.973,59.5529C 112.973,58.6254 113.317,57.8992 114.003,57.3742C 114.689,56.8492 115.703,56.5867 117.045,56.5867L 118.947,56.5867L 118.947,55.7758C 118.947,55.2314 118.772,54.7949 118.423,54.4662C 118.074,54.1376 117.541,53.9733 116.823,53.9733C 116.304,53.9733 115.792,54.038 115.286,54.1673C 114.781,54.2966 114.259,54.4808 113.72,54.72L 113.72,53.2267C 113.924,53.1567 114.152,53.0881 114.402,53.021C 114.653,52.954 114.918,52.8942 115.196,52.8417C 115.474,52.7892 115.765,52.7469 116.068,52.7148C 116.371,52.6827 116.677,52.6667 116.987,52.6667C 117.551,52.6667 118.059,52.7274 118.511,52.849C 118.963,52.9705 119.345,53.1562 119.657,53.406C 119.969,53.6559 120.209,53.9694 120.376,54.3467C 120.543,54.7239 120.627,55.1682 120.627,55.6796L 120.627,62L 119.127,62 Z M 118.947,57.8933L 116.922,57.8933C 116.526,57.8933 116.184,57.9327 115.897,58.0115C 115.61,58.0902 115.376,58.202 115.193,58.3469C 115.01,58.4917 114.875,58.6653 114.786,58.8675C 114.698,59.0697 114.653,59.2972 114.653,59.55C 114.653,59.725 114.681,59.8922 114.735,60.0517C 114.789,60.2111 114.878,60.3531 115,60.4775C 115.123,60.6019 115.282,60.7001 115.477,60.7721C 115.673,60.844 115.91,60.88 116.19,60.88C 116.558,60.88 116.978,60.7697 117.45,60.549C 117.923,60.3283 118.422,59.9797 118.947,59.5033L 118.947,57.8933 Z "/>
		<path fill="#D5AA46" fill-opacity="1" stroke-width="0.2" stroke-linejoin="round" d="M 130.707,59.515C 130.707,59.8378 130.652,60.1275 130.542,60.3842C 130.432,60.6408 130.282,60.8683 130.093,61.0667C 129.903,61.265 129.683,61.4342 129.432,61.5742C 129.181,61.7142 128.913,61.8299 128.629,61.9212C 128.344,62.0126 128.052,62.0797 127.752,62.1225C 127.453,62.1653 127.159,62.1867 126.871,62.1867C 126.247,62.1867 125.673,62.1721 125.15,62.1429C 124.627,62.1137 124.115,62.0661 123.613,62L 123.613,60.5067C 124.148,60.6292 124.68,60.722 125.21,60.7852C 125.74,60.8484 126.267,60.88 126.79,60.88C 127.55,60.88 128.113,60.7731 128.478,60.5592C 128.844,60.3453 129.027,60.04 129.027,59.6433C 129.027,59.4781 128.998,59.3298 128.941,59.1985C 128.883,59.0673 128.78,58.9424 128.63,58.8238C 128.48,58.7051 128.247,58.5817 127.931,58.4533C 127.615,58.325 127.184,58.1782 126.638,58.0129C 126.23,57.8904 125.853,57.7514 125.508,57.5958C 125.163,57.4403 124.864,57.256 124.611,57.0431C 124.358,56.8302 124.16,56.5803 124.016,56.2935C 123.872,56.0067 123.8,55.6679 123.8,55.2771C 123.8,55.0204 123.859,54.7394 123.978,54.4342C 124.097,54.1289 124.299,53.845 124.586,53.5825C 124.873,53.32 125.26,53.1017 125.748,52.9277C 126.236,52.7537 126.846,52.6667 127.577,52.6667C 127.937,52.6667 128.336,52.6808 128.774,52.709C 129.213,52.7372 129.67,52.7853 130.147,52.8533L 130.147,54.3467C 129.653,54.2183 129.184,54.124 128.741,54.0638C 128.297,54.0035 127.912,53.9733 127.586,53.9733C 127.195,53.9733 126.865,54.0044 126.597,54.0667C 126.329,54.1289 126.111,54.2144 125.945,54.3233C 125.779,54.4322 125.66,54.5596 125.588,54.7054C 125.516,54.8512 125.48,55.0078 125.48,55.175C 125.48,55.3403 125.512,55.49 125.575,55.6242C 125.638,55.7583 125.755,55.8876 125.925,56.0121C 126.095,56.1365 126.333,56.2615 126.638,56.3869C 126.943,56.5123 127.342,56.6479 127.834,56.7938C 128.367,56.9532 128.815,57.1199 129.18,57.294C 129.544,57.468 129.84,57.6619 130.068,57.8758C 130.295,58.0897 130.459,58.3308 130.558,58.5992C 130.657,58.8675 130.707,59.1728 130.707,59.515 Z "/>
		<path fill="#D5AA46" fill-opacity="1" stroke-width="0.2" stroke-linejoin="round" d="M 140.973,59.515C 140.973,59.8378 140.918,60.1275 140.809,60.3842C 140.699,60.6408 140.549,60.8683 140.359,61.0667C 140.17,61.265 139.95,61.4342 139.699,61.5742C 139.448,61.7142 139.18,61.8299 138.895,61.9212C 138.61,62.0126 138.318,62.0797 138.019,62.1225C 137.719,62.1653 137.426,62.1867 137.138,62.1867C 136.514,62.1867 135.94,62.1721 135.417,62.1429C 134.894,62.1137 134.382,62.0661 133.88,62L 133.88,60.5067C 134.415,60.6292 134.947,60.722 135.477,60.7852C 136.007,60.8484 136.533,60.88 137.056,60.88C 137.817,60.88 138.379,60.7731 138.745,60.5592C 139.111,60.3453 139.293,60.04 139.293,59.6433C 139.293,59.4781 139.265,59.3298 139.207,59.1985C 139.15,59.0673 139.046,58.9424 138.897,58.8238C 138.747,58.7051 138.514,58.5817 138.198,58.4533C 137.882,58.325 137.451,58.1782 136.905,58.0129C 136.496,57.8904 136.119,57.7514 135.774,57.5958C 135.429,57.4403 135.13,57.256 134.877,57.0431C 134.625,56.8302 134.426,56.5803 134.282,56.2935C 134.139,56.0067 134.067,55.6679 134.067,55.2771C 134.067,55.0204 134.126,54.7394 134.245,54.4342C 134.363,54.1289 134.566,53.845 134.853,53.5825C 135.139,53.32 135.527,53.1017 136.015,52.9277C 136.503,52.7537 137.113,52.6667 137.844,52.6667C 138.203,52.6667 138.603,52.6808 139.041,52.709C 139.479,52.7372 139.937,52.7853 140.413,52.8533L 140.413,54.3467C 139.919,54.2183 139.451,54.124 139.007,54.0638C 138.564,54.0035 138.179,53.9733 137.852,53.9733C 137.462,53.9733 137.132,54.0044 136.864,54.0667C 136.595,54.1289 136.378,54.2144 136.212,54.3233C 136.046,54.4322 135.926,54.5596 135.855,54.7054C 135.783,54.8512 135.747,55.0078 135.747,55.175C 135.747,55.3403 135.778,55.49 135.841,55.6242C 135.905,55.7583 136.021,55.8876 136.191,56.0121C 136.362,56.1365 136.599,56.2615 136.905,56.3869C 137.21,56.5123 137.608,56.6479 138.1,56.7938C 138.633,56.9532 139.082,57.1199 139.446,57.294C 139.811,57.468 140.107,57.6619 140.335,57.8758C 140.562,58.0897 140.725,58.3308 140.825,58.5992C 140.924,58.8675 140.973,59.1728 140.973,59.515 Z "/>
		<path fill="#FFFFFF" fill-opacity="1" stroke-width="0.2" stroke-linejoin="round" d="M 160.947,65.7333L 160.279,65.7333C 159.118,65.7333 158.255,65.4567 157.689,64.9035C 157.123,64.3503 156.84,63.5108 156.84,62.385L 156.84,59.2321C 156.84,58.9326 156.806,58.6653 156.738,58.43C 156.67,58.1947 156.55,57.9959 156.379,57.8335C 156.208,57.6712 155.981,57.5472 155.697,57.4617C 155.413,57.3761 155.057,57.3333 154.629,57.3333L 154.227,57.3333L 154.227,56.0267L 154.629,56.0267C 155.082,56.0267 155.452,55.9902 155.739,55.9173C 156.026,55.8444 156.25,55.734 156.411,55.5863C 156.573,55.4385 156.684,55.2499 156.747,55.0204C 156.809,54.791 156.84,54.5187 156.84,54.2037L 156.84,52.0571C 156.84,51.5476 156.9,51.0892 157.021,50.6819C 157.141,50.2745 157.338,49.9274 157.611,49.6406C 157.885,49.3538 158.239,49.1331 158.676,48.9785C 159.113,48.824 159.647,48.7467 160.279,48.7467L 160.947,48.7467L 160.947,50.0533L 160.454,50.0533C 159.165,50.0533 158.52,50.7319 158.52,52.0892L 158.52,54.1979C 158.52,55.6699 157.878,56.4992 156.595,56.6858C 157.878,56.8142 158.52,57.6513 158.52,59.1971L 158.52,62.3296C 158.52,63.7276 159.164,64.4267 160.451,64.4267L 160.947,64.4267L 160.947,65.7333 Z "/>
		<path fill="#5D8CB4" fill-opacity="1" stroke-width="0.2" stroke-linejoin="round" d="M 58.6533,83.7467C 58.243,83.873 57.8216,83.9669 57.3889,84.0281C 56.9563,84.0894 56.5096,84.12 56.0487,84.12C 54.6098,84.12 53.502,83.7233 52.7252,82.93C 51.9484,82.1367 51.56,80.9778 51.56,79.4533C 51.56,78.7203 51.6718,78.0558 51.8954,77.4598C 52.119,76.8638 52.4335,76.3534 52.8389,75.9285C 53.2444,75.5037 53.728,75.176 54.29,74.9456C 54.8519,74.7152 55.4722,74.6 56.1508,74.6C 56.6214,74.6 57.0623,74.6292 57.4735,74.6875C 57.8848,74.7458 58.278,74.8411 58.6533,74.9733L 58.6533,76.4667C 58.2625,76.2722 57.8639,76.1303 57.4575,76.0408C 57.0511,75.9514 56.6321,75.9067 56.2004,75.9067C 55.7959,75.9067 55.4148,75.9864 55.0571,76.1458C 54.6993,76.3053 54.3853,76.5357 54.115,76.8371C 53.8447,77.1385 53.6313,77.505 53.4748,77.9367C 53.3182,78.3683 53.24,78.8564 53.24,79.4008C 53.24,80.5422 53.5064,81.3963 54.0391,81.9631C 54.5719,82.5299 55.3098,82.8133 56.2529,82.8133C 56.6807,82.8133 57.0943,82.7667 57.4939,82.6733C 57.8935,82.58 58.28,82.44 58.6533,82.2533L 58.6533,83.7467 Z "/>
		<path fill="#5D8CB4" fill-opacity="1" stroke-width="0.2" stroke-linejoin="round" d="M 69.8533,79.2871C 69.8533,80.0007 69.7532,80.655 69.5529,81.25C 69.3526,81.845 69.0639,82.3544 68.6866,82.7783C 68.3094,83.2022 67.8505,83.5318 67.31,83.7671C 66.7694,84.0023 66.1559,84.12 65.4696,84.12C 64.8123,84.12 64.2241,84.0179 63.705,83.8138C 63.1858,83.6096 62.7454,83.3092 62.3837,82.9125C 62.0221,82.5158 61.7455,82.0244 61.5539,81.4381C 61.3624,80.8519 61.2666,80.1776 61.2666,79.4154C 61.2666,78.7018 61.3668,78.0504 61.5671,77.4612C 61.7673,76.8721 62.0561,76.3656 62.4333,75.9417C 62.8105,75.5178 63.2694,75.1882 63.81,74.9529C 64.3505,74.7176 64.964,74.6 65.6504,74.6C 66.3076,74.6 66.8958,74.7021 67.415,74.9062C 67.9341,75.1104 68.3746,75.4094 68.7362,75.8031C 69.0979,76.1969 69.3745,76.6869 69.566,77.2731C 69.7575,77.8594 69.8533,78.5307 69.8533,79.2871 Z M 68.1733,79.3542C 68.1733,78.7805 68.1125,78.2789 67.991,77.8492C 67.8695,77.4194 67.6955,77.0607 67.4689,76.7729C 67.2424,76.4851 66.9673,76.2688 66.6435,76.1239C 66.3198,75.9791 65.9586,75.9067 65.56,75.9067C 65.0953,75.9067 64.6981,76.001 64.3685,76.1896C 64.0389,76.3782 63.7687,76.63 63.5577,76.945C 63.3467,77.26 63.1921,77.626 63.0939,78.0431C 62.9957,78.4602 62.9466,78.8972 62.9466,79.3542C 62.9466,79.9297 63.0074,80.4338 63.1289,80.8665C 63.2505,81.2991 63.4245,81.6593 63.651,81.9471C 63.8775,82.2349 64.1512,82.4512 64.4721,82.596C 64.7929,82.7409 65.1555,82.8133 65.56,82.8133C 66.0247,82.8133 66.4219,82.719 66.7514,82.5304C 67.081,82.3418 67.3513,82.09 67.5623,81.775C 67.7732,81.46 67.9278,81.0939 68.026,80.6769C 68.1242,80.2598 68.1733,79.8189 68.1733,79.3542 Z "/>
		<path fill="#5D8CB4" fill-opacity="1" stroke-width="0.2" stroke-linejoin="round" d="M 72.0933,74.7867L 73.5896,74.7867L 73.6566,76.2625C 73.925,75.9417 74.1841,75.6753 74.4339,75.4633C 74.6838,75.2514 74.9293,75.0808 75.1704,74.9515C 75.4115,74.8222 75.6575,74.7312 75.9083,74.6787C 76.1591,74.6262 76.4187,74.6 76.687,74.6C 77.632,74.6 78.3471,74.8785 78.8323,75.4356C 79.3174,75.9927 79.56,76.8313 79.56,77.9512L 79.56,83.9333L 77.88,83.9333L 77.88,78.0329C 77.88,77.3096 77.7487,76.7744 77.4862,76.4273C 77.2237,76.0802 76.8329,75.9067 76.3137,75.9067C 76.1232,75.9067 75.937,75.9358 75.7552,75.9942C 75.5734,76.0525 75.3838,76.1536 75.1864,76.2975C 74.9891,76.4414 74.7757,76.6363 74.5462,76.8823C 74.3168,77.1283 74.0591,77.435 73.7733,77.8025L 73.7733,83.9333L 72.0933,83.9333L 72.0933,74.7867 Z "/>
		<path fill="#5D8CB4" fill-opacity="1" stroke-width="0.2" stroke-linejoin="round" d="M 89.64,83.7467C 89.2841,83.8808 88.9157,83.9766 88.5346,84.034C 88.1534,84.0913 87.7665,84.12 87.3737,84.12C 86.2304,84.12 85.3777,83.8575 84.8158,83.3325C 84.2539,82.8075 83.9729,82.0025 83.9729,80.9175L 83.9729,76.0933L 81.4266,76.0933L 81.4266,74.7867L 83.9729,74.7867L 83.9729,72.22L 85.6529,71.8L 85.6529,74.7867L 89.64,74.7867L 89.64,76.0933L 85.6529,76.0933L 85.6529,80.8212C 85.6529,81.4882 85.8225,81.9869 86.1618,82.3175C 86.5012,82.6481 87.0004,82.8133 87.6596,82.8133C 87.9434,82.8133 88.2531,82.7832 88.5885,82.7229C 88.9239,82.6626 89.2744,82.5683 89.64,82.44L 89.64,83.7467 Z "/>
		<path fill="#5D8CB4" fill-opacity="1" stroke-width="0.2" stroke-linejoin="round" d="M 100.467,78.8379C 100.467,79.0615 100.464,79.2492 100.458,79.4008C 100.452,79.5525 100.442,79.6944 100.429,79.8267L 93.9333,79.8267C 93.9333,80.7872 94.1948,81.5251 94.7179,82.0404C 95.2409,82.5557 95.9944,82.8133 96.9783,82.8133C 97.2466,82.8133 97.5145,82.8031 97.7818,82.7827C 98.0492,82.7623 98.3073,82.7346 98.5562,82.6996C 98.8051,82.6646 99.0438,82.6257 99.2722,82.5829C 99.5007,82.5401 99.7122,82.4925 99.9066,82.44L 99.9066,83.7467C 99.473,83.8575 98.9835,83.9474 98.4381,84.0164C 97.8927,84.0855 97.3273,84.12 96.742,84.12C 95.9565,84.12 95.2803,84.013 94.7135,83.7992C 94.1467,83.5853 93.682,83.2756 93.3193,82.8702C 92.9567,82.4648 92.6884,81.9675 92.5143,81.3783C 92.3403,80.7892 92.2533,80.1222 92.2533,79.3775C 92.2533,78.7319 92.3471,78.1204 92.5348,77.5429C 92.7224,76.9654 92.9961,76.4589 93.3558,76.0233C 93.7155,75.5878 94.1564,75.2417 94.6785,74.985C 95.2006,74.7283 95.7932,74.6 96.4562,74.6C 97.1018,74.6 97.6734,74.6997 98.1712,74.899C 98.669,75.0983 99.0885,75.3812 99.4297,75.7477C 99.771,76.1142 100.029,76.559 100.204,77.0821C 100.379,77.6051 100.467,78.1904 100.467,78.8379 Z M 98.7866,78.52C 98.8061,78.135 98.7667,77.7831 98.6685,77.4642C 98.5703,77.1453 98.4182,76.8706 98.212,76.6402C 98.0059,76.4098 97.7497,76.2299 97.4435,76.1006C 97.1372,75.9713 96.7819,75.9067 96.3774,75.9067C 96.0294,75.9067 95.711,75.9699 95.4222,76.0963C 95.1335,76.2226 94.8851,76.401 94.677,76.6315C 94.469,76.8619 94.3008,77.138 94.1725,77.4598C 94.0441,77.7816 93.9644,78.135 93.9333,78.52L 98.7866,78.52 Z "/>
		<path fill="#5D8CB4" fill-opacity="1" stroke-width="0.2" stroke-linejoin="round" d="M 102.893,74.7867L 104.39,74.7867L 104.457,76.2625C 104.725,75.9417 104.984,75.6753 105.234,75.4633C 105.484,75.2514 105.729,75.0808 105.97,74.9515C 106.211,74.8222 106.457,74.7312 106.708,74.6787C 106.959,74.6262 107.219,74.6 107.487,74.6C 108.432,74.6 109.147,74.8785 109.632,75.4356C 110.117,75.9927 110.36,76.8313 110.36,77.9512L 110.36,83.9333L 108.68,83.9333L 108.68,78.0329C 108.68,77.3096 108.549,76.7744 108.286,76.4273C 108.024,76.0802 107.633,75.9067 107.114,75.9067C 106.923,75.9067 106.737,75.9358 106.555,75.9942C 106.373,76.0525 106.184,76.1536 105.986,76.2975C 105.789,76.4414 105.576,76.6363 105.346,76.8823C 105.117,77.1283 104.859,77.435 104.573,77.8025L 104.573,83.9333L 102.893,83.9333L 102.893,74.7867 Z "/>
		<path fill="#5D8CB4" fill-opacity="1" stroke-width="0.2" stroke-linejoin="round" d="M 120.44,83.7467C 120.084,83.8808 119.716,83.9766 119.335,84.034C 118.953,84.0913 118.566,84.12 118.174,84.12C 117.03,84.12 116.178,83.8575 115.616,83.3325C 115.054,82.8075 114.773,82.0025 114.773,80.9175L 114.773,76.0933L 112.227,76.0933L 112.227,74.7867L 114.773,74.7867L 114.773,72.22L 116.453,71.8L 116.453,74.7867L 120.44,74.7867L 120.44,76.0933L 116.453,76.0933L 116.453,80.8212C 116.453,81.4882 116.623,81.9869 116.962,82.3175C 117.301,82.6481 117.8,82.8133 118.46,82.8133C 118.743,82.8133 119.053,82.7832 119.388,82.7229C 119.724,82.6626 120.074,82.5683 120.44,82.44L 120.44,83.7467 Z "/>
		<path fill="#5D8CB4" fill-opacity="1" stroke-width="0.2" stroke-linejoin="round" d="M 127.061,74.6C 127.249,74.6 127.429,74.6379 127.599,74.7137C 127.769,74.7896 127.918,74.8917 128.047,75.02C 128.175,75.1483 128.277,75.2976 128.353,75.4677C 128.429,75.6378 128.467,75.8172 128.467,76.0058C 128.467,76.2003 128.429,76.3811 128.353,76.5483C 128.277,76.7155 128.175,76.8628 128.047,76.9902C 127.918,77.1176 127.769,77.2177 127.599,77.2906C 127.429,77.3635 127.249,77.4 127.061,77.4C 126.866,77.4 126.686,77.3635 126.518,77.2906C 126.351,77.2177 126.204,77.1176 126.076,76.9902C 125.949,76.8628 125.849,76.7155 125.776,76.5483C 125.703,76.3811 125.667,76.2003 125.667,76.0058C 125.667,75.8172 125.703,75.6378 125.776,75.4677C 125.849,75.2976 125.949,75.1483 126.076,75.02C 126.204,74.8917 126.351,74.7896 126.518,74.7137C 126.686,74.6379 126.866,74.6 127.061,74.6 Z M 127.061,81.32C 127.249,81.32 127.429,81.3579 127.599,81.4337C 127.769,81.5096 127.918,81.6117 128.047,81.74C 128.175,81.8683 128.277,82.0176 128.353,82.1877C 128.429,82.3578 128.467,82.5372 128.467,82.7258C 128.467,82.9203 128.429,83.1011 128.353,83.2683C 128.277,83.4355 128.175,83.5828 128.047,83.7102C 127.918,83.8376 127.769,83.9377 127.599,84.0106C 127.429,84.0835 127.249,84.12 127.061,84.12C 126.866,84.12 126.686,84.0835 126.518,84.0106C 126.351,83.9377 126.204,83.8376 126.076,83.7102C 125.949,83.5828 125.849,83.4355 125.776,83.2683C 125.703,83.1011 125.667,82.9203 125.667,82.7258C 125.667,82.5372 125.703,82.3578 125.776,82.1877C 125.849,82.0176 125.949,81.8683 126.076,81.74C 126.204,81.6117 126.351,81.5096 126.518,81.4337C 126.686,81.3579 126.866,81.32 127.061,81.32 Z "/>
		<path fill="#B830C9" fill-opacity="1" stroke-width="0.2" stroke-linejoin="round" d="M 150.493,83.9333L 150.493,77.3358C 150.493,77.048 150.484,76.8128 150.466,76.63C 150.447,76.4472 150.418,76.3024 150.378,76.1954C 150.338,76.0885 150.288,76.0136 150.226,75.9708C 150.165,75.928 150.089,75.9067 149.997,75.9067C 149.892,75.9067 149.795,75.9431 149.704,76.016C 149.614,76.089 149.517,76.2081 149.413,76.3733C 149.309,76.5386 149.194,76.7569 149.07,77.0281C 148.945,77.2994 148.798,77.6333 148.627,78.03L 148.627,83.9333L 146.947,83.9333L 146.947,77.5079C 146.947,77.1735 146.937,76.9022 146.919,76.6942C 146.9,76.4861 146.871,76.3242 146.831,76.2085C 146.792,76.0928 146.74,76.0136 146.675,75.9708C 146.611,75.928 146.533,75.9067 146.442,75.9067C 146.347,75.9067 146.256,75.9373 146.171,75.9985C 146.085,76.0598 145.99,76.1696 145.885,76.3281C 145.78,76.4866 145.664,76.7029 145.536,76.9771C 145.409,77.2513 145.257,77.6022 145.08,78.03L 145.08,83.9333L 143.4,83.9333L 143.4,74.7867L 144.797,74.7867L 144.882,76.5279C 145.037,76.1779 145.189,75.8799 145.337,75.634C 145.484,75.388 145.637,75.1896 145.793,75.039C 145.95,74.8883 146.116,74.7774 146.293,74.7065C 146.47,74.6355 146.668,74.6 146.885,74.6C 147.371,74.6 147.741,74.7628 147.994,75.0885C 148.246,75.4142 148.373,75.9183 148.373,76.6008C 148.519,76.2819 148.661,75.9981 148.8,75.7492C 148.939,75.5003 149.089,75.2912 149.249,75.1221C 149.41,74.9529 149.587,74.8236 149.782,74.7342C 149.976,74.6447 150.201,74.6 150.455,74.6C 151.601,74.6 152.173,75.4857 152.173,77.2571L 152.173,83.9333L 150.493,83.9333 Z "/>
		<path fill="#B830C9" fill-opacity="1" stroke-width="0.2" stroke-linejoin="round" d="M 153.667,79.5262C 153.667,78.7407 153.773,78.0426 153.985,77.4321C 154.196,76.8215 154.498,76.3058 154.89,75.8848C 155.282,75.4638 155.752,75.1444 156.3,74.9267C 156.849,74.7089 157.46,74.6 158.135,74.6C 158.425,74.6 158.711,74.6185 158.994,74.6554C 159.277,74.6924 159.554,74.7507 159.827,74.8304L 159.827,71.0533L 161.507,71.0533L 161.507,83.9333L 160.01,83.9333L 159.955,82.2038C 159.512,82.8551 159.032,83.3374 158.516,83.6504C 157.999,83.9635 157.441,84.12 156.84,84.12C 156.317,84.12 155.856,84.0096 155.457,83.789C 155.059,83.5683 154.728,83.2567 154.464,82.8542C 154.201,82.4517 154.002,81.968 153.868,81.4031C 153.734,80.8383 153.667,80.2126 153.667,79.5262 Z M 155.347,79.4475C 155.347,80.5792 155.507,81.423 155.826,81.9792C 156.146,82.5353 156.6,82.8133 157.187,82.8133C 157.582,82.8133 157.999,82.6301 158.44,82.2635C 158.88,81.897 159.342,81.3531 159.827,80.6317L 159.827,76.2887C 159.57,76.1643 159.286,76.0695 158.975,76.0044C 158.664,75.9392 158.356,75.9067 158.05,75.9067C 157.199,75.9067 156.535,76.1925 156.06,76.7642C 155.584,77.3358 155.347,78.2303 155.347,79.4475 Z "/>
		<path fill="#B830C9" fill-opacity="1" stroke-width="0.2" stroke-linejoin="round" d="M 167.48,76.0933L 164.867,76.0933L 164.867,74.7867L 169.16,74.7867L 169.16,82.6267L 171.773,82.6267L 171.773,83.9333L 164.493,83.9333L 164.493,82.6267L 167.48,82.6267L 167.48,76.0933 Z M 168.04,71.0533C 168.225,71.0533 168.396,71.0844 168.555,71.1467C 168.713,71.2089 168.851,71.2959 168.969,71.4077C 169.087,71.5195 169.179,71.6478 169.246,71.7927C 169.313,71.9376 169.347,72.0956 169.347,72.2667C 169.347,72.4319 169.313,72.5885 169.246,72.7362C 169.179,72.884 169.087,73.0138 168.969,73.1256C 168.851,73.2374 168.713,73.3244 168.555,73.3867C 168.396,73.4489 168.225,73.48 168.04,73.48C 167.855,73.48 167.684,73.4489 167.525,73.3867C 167.367,73.3244 167.229,73.2374 167.111,73.1256C 166.993,73.0138 166.901,72.884 166.834,72.7362C 166.767,72.5885 166.733,72.4319 166.733,72.2667C 166.733,72.0956 166.767,71.9376 166.834,71.7927C 166.901,71.6478 166.993,71.5195 167.111,71.4077C 167.229,71.2959 167.367,71.2089 167.525,71.1467C 167.684,71.0844 167.855,71.0533 168.04,71.0533 Z "/>
		<path fill="#B830C9" fill-opacity="1" stroke-width="0.2" stroke-linejoin="round" d="M 180.138,87.8533C 177.299,85.2361 175.88,82.3438 175.88,79.1762C 175.88,78.4354 175.955,77.6956 176.106,76.9567C 176.257,76.2178 176.5,75.4779 176.835,74.7371C 177.171,73.9962 177.614,73.2549 178.165,72.5131C 178.716,71.7713 179.386,71.0358 180.173,70.3067L 181.107,71.2546C 178.742,73.6015 177.56,76.2022 177.56,79.0567C 177.56,80.4781 177.858,81.8445 178.455,83.156C 179.052,84.4676 179.936,85.7057 181.107,86.8704L 180.138,87.8533 Z "/>
		<path fill="#FF5454" fill-opacity="1" stroke-width="0.2" stroke-linejoin="round" d="M 189.88,71.0533L 189.597,75.3467L 187.914,75.3467L 187.64,71.0533L 189.88,71.0533 Z "/>
		<path fill="#FF5454" fill-opacity="1" stroke-width="0.2" stroke-linejoin="round" d="M 198.28,76.0933L 195.667,76.0933L 195.667,74.7867L 199.96,74.7867L 199.96,82.6267L 202.573,82.6267L 202.573,83.9333L 195.293,83.9333L 195.293,82.6267L 198.28,82.6267L 198.28,76.0933 Z M 198.84,71.0533C 199.025,71.0533 199.196,71.0844 199.355,71.1467C 199.513,71.2089 199.651,71.2959 199.769,71.4077C 199.886,71.5195 199.979,71.6478 200.046,71.7927C 200.113,71.9376 200.147,72.0956 200.147,72.2667C 200.147,72.4319 200.113,72.5885 200.046,72.7362C 199.979,72.884 199.886,73.0138 199.769,73.1256C 199.651,73.2374 199.513,73.3244 199.355,73.3867C 199.196,73.4489 199.025,73.48 198.84,73.48C 198.655,73.48 198.484,73.4489 198.325,73.3867C 198.167,73.3244 198.029,73.2374 197.911,73.1256C 197.793,73.0138 197.701,72.884 197.634,72.7362C 197.567,72.5885 197.533,72.4319 197.533,72.2667C 197.533,72.0956 197.567,71.9376 197.634,71.7927C 197.701,71.6478 197.793,71.5195 197.911,71.4077C 198.029,71.2959 198.167,71.2089 198.325,71.1467C 198.484,71.0844 198.655,71.0533 198.84,71.0533 Z "/>
		<path fill="#FF5454" fill-opacity="1" stroke-width="0.2" stroke-linejoin="round" d="M 205.56,74.7867L 207.056,74.7867L 207.123,76.2625C 207.392,75.9417 207.651,75.6753 207.901,75.4633C 208.15,75.2514 208.396,75.0808 208.637,74.9515C 208.878,74.8222 209.124,74.7312 209.375,74.6787C 209.626,74.6262 209.885,74.6 210.154,74.6C 211.099,74.6 211.814,74.8785 212.299,75.4356C 212.784,75.9927 213.027,76.8313 213.027,77.9512L 213.027,83.9333L 211.347,83.9333L 211.347,78.0329C 211.347,77.3096 211.215,76.7744 210.953,76.4273C 210.69,76.0802 210.299,75.9067 209.78,75.9067C 209.59,75.9067 209.404,75.9358 209.222,75.9942C 209.04,76.0525 208.85,76.1536 208.653,76.2975C 208.456,76.4414 208.242,76.6363 208.013,76.8823C 207.783,77.1283 207.526,77.435 207.24,77.8025L 207.24,83.9333L 205.56,83.9333L 205.56,74.7867 Z "/>
		<path fill="#FF5454" fill-opacity="1" stroke-width="0.2" stroke-linejoin="round" d="M 223.853,72.36C 223.056,72.2355 222.371,72.1733 221.797,72.1733C 220.43,72.1733 219.747,72.9346 219.747,74.4571L 219.747,76.0933L 223.48,76.0933L 223.48,77.4L 219.747,77.4L 219.747,83.9333L 218.067,83.9333L 218.067,77.4L 215.08,77.4L 215.08,76.0933L 218.067,76.0933L 218.067,74.5475C 218.067,72.0936 219.311,70.8667 221.8,70.8667C 222.418,70.8667 223.103,70.9289 223.853,71.0533L 223.853,72.36 Z "/>
		<path fill="#FF5454" fill-opacity="1" stroke-width="0.2" stroke-linejoin="round" d="M 234.12,79.2871C 234.12,80.0007 234.02,80.655 233.82,81.25C 233.619,81.845 233.331,82.3544 232.953,82.7783C 232.576,83.2022 232.117,83.5318 231.577,83.7671C 231.036,84.0023 230.423,84.12 229.736,84.12C 229.079,84.12 228.491,84.0179 227.972,83.8138C 227.452,83.6096 227.012,83.3092 226.65,82.9125C 226.289,82.5158 226.012,82.0244 225.821,81.4381C 225.629,80.8519 225.533,80.1776 225.533,79.4154C 225.533,78.7018 225.633,78.0504 225.834,77.4612C 226.034,76.8721 226.323,76.3656 226.7,75.9417C 227.077,75.5178 227.536,75.1882 228.077,74.9529C 228.617,74.7176 229.231,74.6 229.917,74.6C 230.574,74.6 231.162,74.7021 231.682,74.9062C 232.201,75.1104 232.641,75.4094 233.003,75.8031C 233.365,76.1969 233.641,76.6869 233.833,77.2731C 234.024,77.8594 234.12,78.5307 234.12,79.2871 Z M 232.44,79.3542C 232.44,78.7805 232.379,78.2789 232.258,77.8492C 232.136,77.4194 231.962,77.0607 231.736,76.7729C 231.509,76.4851 231.234,76.2688 230.91,76.1239C 230.586,75.9791 230.225,75.9067 229.827,75.9067C 229.362,75.9067 228.965,76.001 228.635,76.1896C 228.306,76.3782 228.035,76.63 227.824,76.945C 227.613,77.26 227.459,77.626 227.361,78.0431C 227.262,78.4602 227.213,78.8972 227.213,79.3542C 227.213,79.9297 227.274,80.4338 227.396,80.8665C 227.517,81.2991 227.691,81.6593 227.918,81.9471C 228.144,82.2349 228.418,82.4512 228.739,82.596C 229.06,82.7409 229.422,82.8133 229.827,82.8133C 230.291,82.8133 230.688,82.719 231.018,82.5304C 231.348,82.3418 231.618,82.09 231.829,81.775C 232.04,81.46 232.194,81.0939 232.293,80.6769C 232.391,80.2598 232.44,79.8189 232.44,79.3542 Z "/>
		<path fill="#FF5454" fill-opacity="1" stroke-width="0.2" stroke-linejoin="round" d="M 236.733,74.7867L 238.253,74.7867L 238.3,76.4987C 238.846,75.8318 239.385,75.3486 239.915,75.0492C 240.446,74.7497 240.982,74.6 241.522,74.6C 242.481,74.6 243.207,74.9135 243.701,75.5406C 244.195,76.1677 244.424,77.0986 244.387,78.3333L 242.707,78.3333C 242.726,77.4817 242.61,76.8643 242.358,76.4812C 242.106,76.0982 241.738,75.9067 241.254,75.9067C 241.042,75.9067 240.829,75.947 240.614,76.0277C 240.399,76.1084 240.178,76.2377 239.952,76.4156C 239.725,76.5935 239.485,76.822 239.23,77.101C 238.975,77.3801 238.703,77.7169 238.413,78.1117L 238.413,83.9333L 236.733,83.9333L 236.733,74.7867 Z "/>
		<path fill="#FF5454" fill-opacity="1" stroke-width="0.2" stroke-linejoin="round" d="M 253.16,83.9333L 253.16,77.3358C 253.16,77.048 253.151,76.8128 253.132,76.63C 253.114,76.4472 253.085,76.3024 253.045,76.1954C 253.005,76.0885 252.954,76.0136 252.893,75.9708C 252.832,75.928 252.756,75.9067 252.664,75.9067C 252.559,75.9067 252.461,75.9431 252.371,76.016C 252.281,76.089 252.183,76.2081 252.079,76.3733C 251.975,76.5386 251.861,76.7569 251.737,77.0281C 251.612,77.2994 251.464,77.6333 251.293,78.03L 251.293,83.9333L 249.613,83.9333L 249.613,77.5079C 249.613,77.1735 249.604,76.9022 249.586,76.6942C 249.567,76.4861 249.538,76.3242 249.498,76.2085C 249.458,76.0928 249.406,76.0136 249.342,75.9708C 249.278,75.928 249.2,75.9067 249.109,75.9067C 249.013,75.9067 248.923,75.9373 248.837,75.9985C 248.752,76.0598 248.657,76.1696 248.552,76.3281C 248.447,76.4866 248.33,76.7029 248.203,76.9771C 248.076,77.2513 247.924,77.6022 247.747,78.03L 247.747,83.9333L 246.067,83.9333L 246.067,74.7867L 247.464,74.7867L 247.548,76.5279C 247.704,76.1779 247.856,75.8799 248.003,75.634C 248.151,75.388 248.303,75.1896 248.46,75.039C 248.616,74.8883 248.783,74.7774 248.96,74.7065C 249.137,74.6355 249.334,74.6 249.552,74.6C 250.038,74.6 250.408,74.7628 250.66,75.0885C 250.913,75.4142 251.04,75.9183 251.04,76.6008C 251.185,76.2819 251.328,75.9981 251.467,75.7492C 251.606,75.5003 251.756,75.2912 251.916,75.1221C 252.076,74.9529 252.254,74.8236 252.448,74.7342C 252.643,74.6447 252.867,74.6 253.122,74.6C 254.267,74.6 254.84,75.4857 254.84,77.2571L 254.84,83.9333L 253.16,83.9333 Z "/>
		<path fill="#FF5454" fill-opacity="1" stroke-width="0.2" stroke-linejoin="round" d="M 262.861,83.9333L 262.823,82.72C 262.323,83.2139 261.815,83.5707 261.299,83.7904C 260.783,84.0101 260.241,84.12 259.673,84.12C 259.148,84.12 258.699,84.0524 258.327,83.9173C 257.954,83.7822 257.648,83.5965 257.407,83.3602C 257.166,83.1239 256.989,82.8459 256.876,82.526C 256.763,82.2062 256.707,81.8596 256.707,81.4863C 256.707,80.5587 257.05,79.8325 257.736,79.3075C 258.423,78.7825 259.437,78.52 260.778,78.52L 262.68,78.52L 262.68,77.7092C 262.68,77.1647 262.505,76.7282 262.156,76.3996C 261.807,76.071 261.274,75.9067 260.557,75.9067C 260.038,75.9067 259.525,75.9713 259.02,76.1006C 258.514,76.2299 257.992,76.4142 257.453,76.6533L 257.453,75.16C 257.658,75.09 257.885,75.0215 258.136,74.9544C 258.387,74.8873 258.651,74.8275 258.929,74.775C 259.207,74.7225 259.498,74.6802 259.801,74.6481C 260.105,74.616 260.411,74.6 260.72,74.6C 261.284,74.6 261.792,74.6608 262.244,74.7823C 262.696,74.9038 263.078,75.0895 263.39,75.3394C 263.702,75.5892 263.942,75.9028 264.109,76.28C 264.276,76.6572 264.36,77.1015 264.36,77.6129L 264.36,83.9333L 262.861,83.9333 Z M 262.68,79.8267L 260.656,79.8267C 260.259,79.8267 259.917,79.866 259.631,79.9448C 259.344,80.0235 259.109,80.1353 258.926,80.2802C 258.743,80.4251 258.608,80.5986 258.519,80.8008C 258.431,81.0031 258.387,81.2305 258.387,81.4833C 258.387,81.6583 258.414,81.8255 258.468,81.985C 258.523,82.1444 258.611,82.2864 258.734,82.4108C 258.856,82.5353 259.015,82.6335 259.211,82.7054C 259.406,82.7774 259.644,82.8133 259.924,82.8133C 260.291,82.8133 260.711,82.703 261.184,82.4823C 261.656,82.2616 262.155,81.9131 262.68,81.4367L 262.68,79.8267 Z "/>
		<path fill="#FF5454" fill-opacity="1" stroke-width="0.2" stroke-linejoin="round" d="M 274.44,83.7467C 274.084,83.8808 273.716,83.9766 273.335,84.034C 272.953,84.0913 272.567,84.12 272.174,84.12C 271.03,84.12 270.178,83.8575 269.616,83.3325C 269.054,82.8075 268.773,82.0025 268.773,80.9175L 268.773,76.0933L 266.227,76.0933L 266.227,74.7867L 268.773,74.7867L 268.773,72.22L 270.453,71.8L 270.453,74.7867L 274.44,74.7867L 274.44,76.0933L 270.453,76.0933L 270.453,80.8212C 270.453,81.4882 270.623,81.9869 270.962,82.3175C 271.301,82.6481 271.8,82.8133 272.46,82.8133C 272.743,82.8133 273.053,82.7832 273.389,82.7229C 273.724,82.6626 274.074,82.5683 274.44,82.44L 274.44,83.7467 Z "/>
		<path fill="#FF5454" fill-opacity="1" stroke-width="0.2" stroke-linejoin="round" d="M 280.413,76.0933L 277.8,76.0933L 277.8,74.7867L 282.093,74.7867L 282.093,82.6267L 284.707,82.6267L 284.707,83.9333L 277.427,83.9333L 277.427,82.6267L 280.413,82.6267L 280.413,76.0933 Z M 280.973,71.0533C 281.158,71.0533 281.33,71.0844 281.488,71.1467C 281.647,71.2089 281.785,71.2959 281.902,71.4077C 282.02,71.5195 282.112,71.6478 282.179,71.7927C 282.246,71.9376 282.28,72.0956 282.28,72.2667C 282.28,72.4319 282.246,72.5885 282.179,72.7362C 282.112,72.884 282.02,73.0138 281.902,73.1256C 281.785,73.2374 281.647,73.3244 281.488,73.3867C 281.33,73.4489 281.158,73.48 280.973,73.48C 280.789,73.48 280.617,73.4489 280.459,73.3867C 280.3,73.3244 280.162,73.2374 280.044,73.1256C 279.927,73.0138 279.834,72.884 279.767,72.7362C 279.7,72.5885 279.667,72.4319 279.667,72.2667C 279.667,72.0956 279.7,71.9376 279.767,71.7927C 279.834,71.6478 279.927,71.5195 280.044,71.4077C 280.162,71.2959 280.3,71.2089 280.459,71.1467C 280.617,71.0844 280.789,71.0533 280.973,71.0533 Z "/>
		<path fill="#FF5454" fill-opacity="1" stroke-width="0.2" stroke-linejoin="round" d="M 295.72,79.2871C 295.72,80.0007 295.62,80.655 295.42,81.25C 295.219,81.845 294.931,82.3544 294.553,82.7783C 294.176,83.2022 293.717,83.5318 293.177,83.7671C 292.636,84.0023 292.023,84.12 291.336,84.12C 290.679,84.12 290.091,84.0179 289.572,83.8138C 289.053,83.6096 288.612,83.3092 288.25,82.9125C 287.889,82.5158 287.612,82.0244 287.421,81.4381C 287.229,80.8519 287.133,80.1776 287.133,79.4154C 287.133,78.7018 287.234,78.0504 287.434,77.4612C 287.634,76.8721 287.923,76.3656 288.3,75.9417C 288.677,75.5178 289.136,75.1882 289.677,74.9529C 290.217,74.7176 290.831,74.6 291.517,74.6C 292.174,74.6 292.763,74.7021 293.282,74.9062C 293.801,75.1104 294.241,75.4094 294.603,75.8031C 294.965,76.1969 295.241,76.6869 295.433,77.2731C 295.624,77.8594 295.72,78.5307 295.72,79.2871 Z M 294.04,79.3542C 294.04,78.7805 293.979,78.2789 293.858,77.8492C 293.736,77.4194 293.562,77.0607 293.336,76.7729C 293.109,76.4851 292.834,76.2688 292.51,76.1239C 292.186,75.9791 291.825,75.9067 291.427,75.9067C 290.962,75.9067 290.565,76.001 290.235,76.1896C 289.906,76.3782 289.635,76.63 289.424,76.945C 289.213,77.26 289.059,77.626 288.961,78.0431C 288.862,78.4602 288.813,78.8972 288.813,79.3542C 288.813,79.9297 288.874,80.4338 288.996,80.8665C 289.117,81.2991 289.291,81.6593 289.518,81.9471C 289.744,82.2349 290.018,82.4512 290.339,82.596C 290.66,82.7409 291.022,82.8133 291.427,82.8133C 291.891,82.8133 292.289,82.719 292.618,82.5304C 292.948,82.3418 293.218,82.09 293.429,81.775C 293.64,81.46 293.795,81.0939 293.893,80.6769C 293.991,80.2598 294.04,79.8189 294.04,79.3542 Z "/>
		<path fill="#FF5454" fill-opacity="1" stroke-width="0.2" stroke-linejoin="round" d="M 297.96,74.7867L 299.456,74.7867L 299.523,76.2625C 299.792,75.9417 300.051,75.6753 300.301,75.4633C 300.551,75.2514 300.796,75.0808 301.037,74.9515C 301.278,74.8222 301.524,74.7312 301.775,74.6787C 302.026,74.6262 302.285,74.6 302.554,74.6C 303.499,74.6 304.214,74.8785 304.699,75.4356C 305.184,75.9927 305.427,76.8313 305.427,77.9512L 305.427,83.9333L 303.747,83.9333L 303.747,78.0329C 303.747,77.3096 303.615,76.7744 303.353,76.4273C 303.09,76.0802 302.7,75.9067 302.18,75.9067C 301.99,75.9067 301.804,75.9358 301.622,75.9942C 301.44,76.0525 301.251,76.1536 301.053,76.2975C 300.856,76.4414 300.642,76.6363 300.413,76.8823C 300.184,77.1283 299.926,77.435 299.64,77.8025L 299.64,83.9333L 297.96,83.9333L 297.96,74.7867 Z "/>
		<rect x="309.16" y="78.1467" fill="#FF5454" fill-opacity="1" stroke-width="0.2" stroke-linejoin="round" width="5.41333" height="1.49333"/>
		<path fill="#FF5454" fill-opacity="1" stroke-width="0.2" stroke-linejoin="round" d="M 326.52,79.2871C 326.52,80.0007 326.42,80.655 326.22,81.25C 326.019,81.845 325.731,82.3544 325.353,82.7783C 324.976,83.2022 324.517,83.5318 323.977,83.7671C 323.436,84.0023 322.823,84.12 322.136,84.12C 321.479,84.12 320.891,84.0179 320.372,83.8138C 319.853,83.6096 319.412,83.3092 319.051,82.9125C 318.689,82.5158 318.412,82.0244 318.221,81.4381C 318.029,80.8519 317.933,80.1776 317.933,79.4154C 317.933,78.7018 318.034,78.0504 318.234,77.4612C 318.434,76.8721 318.723,76.3656 319.1,75.9417C 319.477,75.5178 319.936,75.1882 320.477,74.9529C 321.017,74.7176 321.631,74.6 322.317,74.6C 322.974,74.6 323.563,74.7021 324.082,74.9062C 324.601,75.1104 325.041,75.4094 325.403,75.8031C 325.765,76.1969 326.041,76.6869 326.233,77.2731C 326.424,77.8594 326.52,78.5307 326.52,79.2871 Z M 324.84,79.3542C 324.84,78.7805 324.779,78.2789 324.658,77.8492C 324.536,77.4194 324.362,77.0607 324.136,76.7729C 323.909,76.4851 323.634,76.2688 323.31,76.1239C 322.987,75.9791 322.625,75.9067 322.227,75.9067C 321.762,75.9067 321.365,76.001 321.035,76.1896C 320.706,76.3782 320.435,76.63 320.224,76.945C 320.014,77.26 319.859,77.626 319.761,78.0431C 319.663,78.4602 319.613,78.8972 319.613,79.3542C 319.613,79.9297 319.674,80.4338 319.796,80.8665C 319.917,81.2991 320.091,81.6593 320.318,81.9471C 320.544,82.2349 320.818,82.4512 321.139,82.596C 321.46,82.7409 321.822,82.8133 322.227,82.8133C 322.691,82.8133 323.089,82.719 323.418,82.5304C 323.748,82.3418 324.018,82.09 324.229,81.775C 324.44,81.46 324.595,81.0939 324.693,80.6769C 324.791,80.2598 324.84,79.8189 324.84,79.3542 Z "/>
		<path fill="#FF5454" fill-opacity="1" stroke-width="0.2" stroke-linejoin="round" d="M 336.227,83.9333L 334.722,83.9333L 334.663,82.4575C 334.389,82.7783 334.129,83.0447 333.882,83.2567C 333.635,83.4686 333.389,83.6392 333.145,83.7685C 332.901,83.8978 332.655,83.9887 332.407,84.0412C 332.159,84.0938 331.898,84.12 331.624,84.12C 330.679,84.12 329.966,83.8429 329.483,83.2887C 329.001,82.7346 328.76,81.8975 328.76,80.7775L 328.76,74.7867L 330.44,74.7867L 330.44,80.69C 330.44,82.1055 330.959,82.8133 331.998,82.8133C 332.188,82.8133 332.374,82.7842 332.556,82.7258C 332.738,82.6675 332.929,82.5664 333.129,82.4225C 333.33,82.2786 333.544,82.0842 333.774,81.8392C 334.003,81.5942 334.261,81.284 334.547,80.9088L 334.547,74.7867L 336.227,74.7867L 336.227,83.9333 Z "/>
		<path fill="#FF5454" fill-opacity="1" stroke-width="0.2" stroke-linejoin="round" d="M 346.307,83.7467C 345.951,83.8808 345.582,83.9766 345.201,84.034C 344.82,84.0913 344.433,84.12 344.041,84.12C 342.897,84.12 342.045,83.8575 341.483,83.3325C 340.921,82.8075 340.64,82.0025 340.64,80.9175L 340.64,76.0933L 338.093,76.0933L 338.093,74.7867L 340.64,74.7867L 340.64,72.22L 342.32,71.8L 342.32,74.7867L 346.307,74.7867L 346.307,76.0933L 342.32,76.0933L 342.32,80.8212C 342.32,81.4882 342.489,81.9869 342.829,82.3175C 343.168,82.6481 343.667,82.8133 344.326,82.8133C 344.61,82.8133 344.92,82.7832 345.255,82.7229C 345.591,82.6626 345.941,82.5683 346.307,82.44L 346.307,83.7467 Z "/>
		<path fill="#FF5454" fill-opacity="1" stroke-width="0.2" stroke-linejoin="round" d="M 352.28,72.36L 349.667,72.36L 349.667,71.0533L 353.96,71.0533L 353.96,82.6267L 356.573,82.6267L 356.573,83.9333L 349.293,83.9333L 349.293,82.6267L 352.28,82.6267L 352.28,72.36 Z "/>
		<path fill="#FF5454" fill-opacity="1" stroke-width="0.2" stroke-linejoin="round" d="M 362.547,76.0933L 359.933,76.0933L 359.933,74.7867L 364.227,74.7867L 364.227,82.6267L 366.84,82.6267L 366.84,83.9333L 359.56,83.9333L 359.56,82.6267L 362.547,82.6267L 362.547,76.0933 Z M 363.107,71.0533C 363.292,71.0533 363.463,71.0844 363.622,71.1467C 363.78,71.2089 363.918,71.2959 364.036,71.4077C 364.153,71.5195 364.246,71.6478 364.313,71.7927C 364.38,71.9376 364.413,72.0956 364.413,72.2667C 364.413,72.4319 364.38,72.5885 364.313,72.7362C 364.246,72.884 364.153,73.0138 364.036,73.1256C 363.918,73.2374 363.78,73.3244 363.622,73.3867C 363.463,73.4489 363.292,73.48 363.107,73.48C 362.922,73.48 362.75,73.4489 362.592,73.3867C 362.434,73.3244 362.296,73.2374 362.178,73.1256C 362.06,73.0138 361.968,72.884 361.901,72.7362C 361.834,72.5885 361.8,72.4319 361.8,72.2667C 361.8,72.0956 361.834,71.9376 361.901,71.7927C 361.968,71.6478 362.06,71.5195 362.178,71.4077C 362.296,71.2959 362.434,71.2089 362.592,71.1467C 362.75,71.0844 362.922,71.0533 363.107,71.0533 Z "/>
		<path fill="#FF5454" fill-opacity="1" stroke-width="0.2" stroke-linejoin="round" d="M 369.827,74.7867L 371.323,74.7867L 371.39,76.2625C 371.659,75.9417 371.918,75.6753 372.167,75.4633C 372.417,75.2514 372.663,75.0808 372.904,74.9515C 373.145,74.8222 373.391,74.7312 373.642,74.6787C 373.893,74.6262 374.152,74.6 374.421,74.6C 375.366,74.6 376.081,74.8785 376.566,75.4356C 377.051,75.9927 377.293,76.8313 377.293,77.9512L 377.293,83.9333L 375.614,83.9333L 375.614,78.0329C 375.614,77.3096 375.482,76.7744 375.22,76.4273C 374.957,76.0802 374.566,75.9067 374.047,75.9067C 373.857,75.9067 373.671,75.9358 373.489,75.9942C 373.307,76.0525 373.117,76.1536 372.92,76.2975C 372.723,76.4414 372.509,76.6363 372.28,76.8823C 372.05,77.1283 371.793,77.435 371.507,77.8025L 371.507,83.9333L 369.827,83.9333L 369.827,74.7867 Z "/>
		<path fill="#FF5454" fill-opacity="1" stroke-width="0.2" stroke-linejoin="round" d="M 387.934,78.8379C 387.934,79.0615 387.931,79.2492 387.925,79.4008C 387.919,79.5525 387.909,79.6944 387.896,79.8267L 381.4,79.8267C 381.4,80.7872 381.662,81.5251 382.185,82.0404C 382.708,82.5557 383.461,82.8133 384.445,82.8133C 384.714,82.8133 384.981,82.8031 385.249,82.7827C 385.516,82.7623 385.774,82.7346 386.023,82.6996C 386.272,82.6646 386.511,82.6257 386.739,82.5829C 386.968,82.5401 387.179,82.4925 387.374,82.44L 387.374,83.7467C 386.94,83.8575 386.45,83.9474 385.905,84.0164C 385.36,84.0855 384.794,84.12 384.209,84.12C 383.423,84.12 382.747,84.013 382.18,83.7992C 381.614,83.5853 381.149,83.2756 380.786,82.8702C 380.424,82.4648 380.155,81.9675 379.981,81.3783C 379.807,80.7892 379.72,80.1222 379.72,79.3775C 379.72,78.7319 379.814,78.1204 380.002,77.5429C 380.189,76.9654 380.463,76.4589 380.823,76.0233C 381.182,75.5878 381.623,75.2417 382.145,74.985C 382.667,74.7283 383.26,74.6 383.923,74.6C 384.569,74.6 385.14,74.6997 385.638,74.899C 386.136,75.0983 386.555,75.3812 386.897,75.7477C 387.238,76.1142 387.496,76.559 387.671,77.0821C 387.846,77.6051 387.934,78.1904 387.934,78.8379 Z M 386.254,78.52C 386.273,78.135 386.234,77.7831 386.135,77.4642C 386.037,77.1453 385.885,76.8706 385.679,76.6402C 385.473,76.4098 385.217,76.2299 384.91,76.1006C 384.604,75.9713 384.249,75.9067 383.844,75.9067C 383.496,75.9067 383.178,75.9699 382.889,76.0963C 382.6,76.2226 382.352,76.401 382.144,76.6315C 381.936,76.8619 381.768,77.138 381.639,77.4598C 381.511,77.7816 381.431,78.135 381.4,78.52L 386.254,78.52 Z "/>
		<path fill="#FF5454" fill-opacity="1" stroke-width="0.2" stroke-linejoin="round" d="M 395.214,71.0533L 394.931,75.3467L 393.248,75.3467L 392.974,71.0533L 395.214,71.0533 Z "/>
		<path fill="#B830C9" fill-opacity="1" stroke-width="0.2" stroke-linejoin="round" d="M 402.529,70.3067C 405.367,72.9239 406.787,75.8347 406.787,79.0392C 406.787,79.7003 406.719,80.3862 406.584,81.0969C 406.449,81.8076 406.218,82.5353 405.891,83.28C 405.565,84.0247 405.126,84.7801 404.575,85.5462C 404.023,86.3124 403.33,87.0814 402.494,87.8533L 401.56,86.9054C 402.752,85.7232 403.641,84.489 404.228,83.2027C 404.814,81.9165 405.107,80.5685 405.107,79.1588C 405.107,76.2421 403.925,73.619 401.56,71.2896L 402.529,70.3067 Z "/>
		<path fill="#FFFFFF" fill-opacity="1" stroke-width="0.2" stroke-linejoin="round" d="M 11.0533,92.6133L 11.7212,92.6133C 12.8821,92.6133 13.7454,92.887 14.3112,93.4344C 14.8771,93.9817 15.16,94.8115 15.16,95.9238L 15.16,98.0179C 15.16,98.3135 15.194,98.5774 15.2621,98.8098C 15.3301,99.0421 15.4497,99.2385 15.6208,99.399C 15.7919,99.5594 16.0199,99.6819 16.3048,99.7665C 16.5896,99.851 16.946,99.8933 17.3737,99.8933L 17.7733,99.8933L 17.7733,101.2L 17.3737,101.2C 16.9207,101.2 16.5503,101.236 16.2625,101.309C 15.9747,101.382 15.7501,101.494 15.5887,101.645C 15.4274,101.795 15.3156,101.987 15.2533,102.218C 15.1911,102.449 15.16,102.724 15.16,103.043L 15.16,106.252C 15.16,106.767 15.0997,107.231 14.9792,107.643C 14.8586,108.055 14.6632,108.407 14.3929,108.697C 14.1226,108.988 13.7678,109.211 13.3283,109.367C 12.8889,109.522 12.3532,109.6 11.7212,109.6L 11.0533,109.6L 11.0533,108.293L 11.555,108.293C 12.8383,108.293 13.48,107.606 13.48,106.231L 13.48,103.064C 13.48,101.572 14.1207,100.735 15.4021,100.552C 14.1207,100.414 13.48,99.5851 13.48,98.0646L 13.48,95.9908C 13.48,94.6103 12.8393,93.92 11.5579,93.92L 11.0533,93.92L 11.0533,92.6133 Z "/>
	</g>
	<g>
		<rect x="13" y="25.68" fill="#FFFFFF" fill-opacity="1" stroke-linejoin="round" width="7.84" height="1.12"/>
		<path fill="#FFFFFF" fill-opacity="1" stroke-linejoin="round" d="M 29.8,19.7067L 23.2667,19.7067C 23.2919,20.7197 23.5729,21.5019 24.1096,22.0531C 24.6462,22.6044 25.3851,22.88 26.3263,22.88C 27.384,22.88 28.3553,22.5689 29.24,21.9467L 29.24,23.3146C 28.4233,23.896 27.3422,24.1867 25.9967,24.1867C 24.6822,24.1867 23.6497,23.7657 22.8992,22.9237C 22.1486,22.0818 21.7733,20.8967 21.7733,19.3683C 21.7733,17.9256 22.1792,16.7501 22.991,15.8421C 23.8028,14.934 24.8115,14.48 26.0171,14.48C 27.2207,14.48 28.1521,14.8723 28.8112,15.6569C 29.4704,16.4415 29.8,17.5318 29.8,18.9279L 29.8,19.7067 Z M 28.3067,18.4C 28.3008,17.5756 28.0938,16.9339 27.6854,16.475C 27.2771,16.0161 26.7093,15.7867 25.9821,15.7867C 25.2801,15.7867 24.6842,16.0278 24.1942,16.51C 23.7042,16.9922 23.4018,17.6222 23.2871,18.4L 28.3067,18.4 Z "/>
		<path fill="#FFFFFF" fill-opacity="1" stroke-linejoin="round" d="M 38.8125,14.6667L 35.6771,19.3888L 38.76,24L 37.0217,24L 35.1929,20.9754C 35.0782,20.7868 34.9411,20.5496 34.7817,20.2638L 34.7467,20.2638C 34.7156,20.3182 34.5726,20.5554 34.3179,20.9754L 32.4542,24L 30.7333,24L 33.9154,19.4237L 30.8704,14.6667L 32.6087,14.6667L 34.4083,17.8575C 34.5425,18.0947 34.6728,18.3378 34.7992,18.5867L 34.8371,18.5867L 37.1646,14.6667L 38.8125,14.6667 Z "/>
		<path fill="#FFFFFF" fill-opacity="1" stroke-linejoin="round" d="M 47.3467,24L 45.8533,24L 45.8533,22.46L 45.8154,22.46C 45.1563,23.6111 44.184,24.1867 42.8987,24.1867C 41.9537,24.1867 41.2144,23.9397 40.6806,23.4458C 40.1469,22.9519 39.88,22.2957 39.88,21.4771C 39.88,19.7251 40.9232,18.7062 43.0096,18.4204L 45.8533,18.0267C 45.8533,16.5333 45.2029,15.7867 43.9021,15.7867C 42.7607,15.7867 41.7311,16.16 40.8133,16.9067L 40.8133,15.3637C 41.7408,14.7746 42.8093,14.48 44.0187,14.48C 46.2374,14.48 47.3467,15.6369 47.3467,17.9508L 47.3467,24 Z M 45.8533,19.1467L 43.5346,19.4617C 42.821,19.5589 42.2824,19.7324 41.9188,19.9823C 41.5551,20.2322 41.3733,20.674 41.3733,21.3079C 41.3733,21.7707 41.541,22.1484 41.8765,22.441C 42.2119,22.7337 42.6576,22.88 43.2137,22.88C 43.9779,22.88 44.6089,22.6165 45.1067,22.0896C 45.6044,21.5626 45.8533,20.8957 45.8533,20.0888L 45.8533,19.1467 Z "/>
		<path fill="#FFFFFF" fill-opacity="1" stroke-linejoin="round" d="M 63.5867,24L 62.0933,24L 62.0933,18.6917C 62.0933,17.6689 61.9305,16.929 61.6048,16.4721C 61.2791,16.0151 60.7312,15.7867 59.9612,15.7867C 59.3079,15.7867 58.7533,16.0754 58.2973,16.6529C 57.8413,17.2304 57.6133,17.9226 57.6133,18.7296L 57.6133,24L 56.12,24L 56.12,18.5138C 56.12,16.6957 55.3967,15.7867 53.95,15.7867C 53.2792,15.7867 52.7265,16.0589 52.2919,16.6033C 51.8573,17.1478 51.64,17.8565 51.64,18.7296L 51.64,24L 50.1467,24L 50.1467,14.6667L 51.64,14.6667L 51.64,16.2242L 51.6779,16.2242C 52.3507,15.0614 53.3326,14.48 54.6237,14.48C 55.2732,14.48 55.839,14.6623 56.3212,15.0269C 56.8035,15.3915 57.134,15.8693 57.3129,16.4604C 58.0168,15.1401 59.0658,14.48 60.46,14.48C 62.5444,14.48 63.5867,15.7429 63.5867,18.2687L 63.5867,24 Z "/>
		<path fill="#FFFFFF" fill-opacity="1" stroke-linejoin="round" d="M 67.7312,22.5679L 67.6933,22.5679L 67.6933,28.2933L 66.2,28.2933L 66.2,14.6667L 67.6933,14.6667L 67.6933,16.3875L 67.7312,16.3875C 68.4662,15.1158 69.5415,14.48 70.9571,14.48C 72.1607,14.48 73.0999,14.8951 73.7746,15.7254C 74.4493,16.5557 74.7867,17.6679 74.7867,19.0621C 74.7867,20.6137 74.407,21.8558 73.6477,22.7881C 72.8884,23.7205 71.8486,24.1867 70.5283,24.1867C 69.3189,24.1867 68.3865,23.6471 67.7312,22.5679 Z M 67.6933,18.8958L 67.6933,20.1704C 67.6933,20.9249 67.9456,21.5651 68.4502,22.091C 68.9548,22.617 69.596,22.88 70.3737,22.88C 71.2857,22.88 72.0003,22.5412 72.5175,21.8635C 73.0347,21.1859 73.2933,20.2443 73.2933,19.0387C 73.2933,18.0238 73.0517,17.228 72.5685,16.6515C 72.0853,16.0749 71.4305,15.7867 70.6042,15.7867C 69.7292,15.7867 69.0253,16.0822 68.4925,16.6733C 67.9597,17.2644 67.6933,18.0053 67.6933,18.8958 Z "/>
		<rect x="77.2133" y="10.1867" fill="#FFFFFF" fill-opacity="1" stroke-linejoin="round" width="1.49334" height="13.8133"/>
		<path fill="#FFFFFF" fill-opacity="1" stroke-linejoin="round" d="M 89.16,19.7067L 82.6267,19.7067C 82.6519,20.7197 82.9329,21.5019 83.4696,22.0531C 84.0062,22.6044 84.7451,22.88 85.6862,22.88C 86.744,22.88 87.7153,22.5689 88.6,21.9467L 88.6,23.3146C 87.7833,23.896 86.7022,24.1867 85.3567,24.1867C 84.0422,24.1867 83.0097,23.7657 82.2591,22.9237C 81.5086,22.0818 81.1333,20.8967 81.1333,19.3683C 81.1333,17.9256 81.5392,16.7501 82.351,15.8421C 83.1628,14.934 84.1715,14.48 85.3771,14.48C 86.5807,14.48 87.5121,14.8723 88.1712,15.6569C 88.8304,16.4415 89.16,17.5318 89.16,18.9279L 89.16,19.7067 Z M 87.6667,18.4C 87.6608,17.5756 87.4537,16.9339 87.0454,16.475C 86.6371,16.0161 86.0693,15.7867 85.3421,15.7867C 84.6401,15.7867 84.0442,16.0278 83.5542,16.51C 83.0642,16.9922 82.7618,17.6222 82.6471,18.4L 87.6667,18.4 Z "/>
		<path fill="#FFFFFF" fill-opacity="1" stroke-linejoin="round" d="M 91.8579,24.1867C 91.576,24.1867 91.3358,24.086 91.1375,23.8848C 90.9392,23.6835 90.84,23.4439 90.84,23.1658C 90.84,22.8858 90.9392,22.6437 91.1375,22.4396C 91.3358,22.2354 91.576,22.1333 91.8579,22.1333C 92.1457,22.1333 92.3902,22.2354 92.5915,22.4396C 92.7927,22.6437 92.8933,22.8858 92.8933,23.1658C 92.8933,23.4439 92.7927,23.6835 92.5915,23.8848C 92.3902,24.086 92.1457,24.1867 91.8579,24.1867 Z "/>
		<path fill="#FFFFFF" fill-opacity="1" stroke-linejoin="round" d="M 94.9467,23.6092L 94.9467,21.9467C 95.7633,22.5689 96.6617,22.88 97.6417,22.88C 98.9561,22.88 99.6133,22.4649 99.6133,21.6346C 99.6133,21.3876 99.5569,21.1781 99.4442,21.006C 99.3314,20.834 99.1787,20.6813 98.9862,20.5481C 98.7937,20.4149 98.5672,20.2953 98.3066,20.1894C 98.0461,20.0834 97.7661,19.9731 97.4667,19.8583C 97.0525,19.6969 96.6879,19.5331 96.3729,19.3669C 96.0579,19.2006 95.7949,19.013 95.5839,18.804C 95.373,18.5949 95.214,18.3577 95.1071,18.0923C 95.0001,17.8269 94.9467,17.5163 94.9467,17.1604C 94.9467,16.7249 95.0478,16.3399 95.25,16.0054C 95.4522,15.671 95.7215,15.3905 96.0579,15.164C 96.3943,14.9374 96.7783,14.7668 97.21,14.6521C 97.6417,14.5374 98.0869,14.48 98.5458,14.48C 99.3605,14.48 100.09,14.6288 100.733,14.9262L 100.733,16.5333C 100.033,16.0356 99.2283,15.7867 98.3183,15.7867C 98.0325,15.7867 97.7748,15.8168 97.5454,15.8771C 97.316,15.9374 97.1191,16.0224 96.9548,16.1323C 96.7905,16.2422 96.6636,16.3734 96.5742,16.526C 96.4847,16.6787 96.44,16.8474 96.44,17.0321C 96.44,17.2732 96.4842,17.4754 96.5727,17.6388C 96.6612,17.8021 96.791,17.9469 96.9621,18.0733C 97.1332,18.1997 97.3412,18.3144 97.5862,18.4175C 97.8312,18.5206 98.1093,18.6324 98.4204,18.7529C 98.8365,18.9104 99.2094,19.0723 99.5389,19.2385C 99.8685,19.4048 100.149,19.5919 100.382,19.8C 100.614,20.0081 100.793,20.2477 100.919,20.519C 101.044,20.7902 101.107,21.1135 101.107,21.4887C 101.107,21.9476 101.006,22.3463 100.803,22.6846C 100.601,23.0229 100.33,23.3034 99.991,23.526C 99.6517,23.7487 99.2614,23.9145 98.82,24.0233C 98.3786,24.1322 97.9158,24.1867 97.4316,24.1867C 96.4769,24.1867 95.6486,23.9942 94.9467,23.6092 Z "/>
		<path fill="#FFFFFF" fill-opacity="1" stroke-linejoin="round" d="M 109.693,23.545C 108.986,23.9728 108.147,24.1867 107.176,24.1867C 105.862,24.1867 104.802,23.7565 103.996,22.896C 103.19,22.0356 102.787,20.921 102.787,19.5521C 102.787,18.0238 103.22,16.7963 104.087,15.8698C 104.955,14.9433 106.112,14.48 107.558,14.48C 108.365,14.48 109.077,14.6365 109.693,14.9496L 109.693,16.5333C 109.011,16.0356 108.28,15.7867 107.5,15.7867C 106.559,15.7867 105.787,16.1206 105.184,16.7885C 104.581,17.4565 104.28,18.3349 104.28,19.4237C 104.28,20.4932 104.564,21.3366 105.133,21.954C 105.702,22.5713 106.464,22.88 107.418,22.88C 108.225,22.88 108.984,22.6311 109.693,22.1333L 109.693,23.545 Z "/>
		<path fill="#FFFFFF" fill-opacity="1" stroke-linejoin="round" d="M 111.373,23.6092L 111.373,21.9467C 112.19,22.5689 113.088,22.88 114.068,22.88C 115.383,22.88 116.04,22.4649 116.04,21.6346C 116.04,21.3876 115.984,21.1781 115.871,21.006C 115.758,20.834 115.605,20.6813 115.413,20.5481C 115.22,20.4149 114.994,20.2953 114.733,20.1894C 114.473,20.0834 114.193,19.9731 113.893,19.8583C 113.479,19.6969 113.115,19.5331 112.8,19.3669C 112.485,19.2006 112.222,19.013 112.011,18.804C 111.8,18.5949 111.641,18.3577 111.534,18.0923C 111.427,17.8269 111.373,17.5163 111.373,17.1604C 111.373,16.7249 111.474,16.3399 111.677,16.0054C 111.879,15.671 112.148,15.3905 112.485,15.164C 112.821,14.9374 113.205,14.7668 113.637,14.6521C 114.068,14.5374 114.514,14.48 114.972,14.48C 115.787,14.48 116.516,14.6288 117.16,14.9262L 117.16,16.5333C 116.46,16.0356 115.655,15.7867 114.745,15.7867C 114.459,15.7867 114.202,15.8168 113.972,15.8771C 113.743,15.9374 113.546,16.0224 113.381,16.1323C 113.217,16.2422 113.09,16.3734 113.001,16.526C 112.911,16.6787 112.867,16.8474 112.867,17.0321C 112.867,17.2732 112.911,17.4754 112.999,17.6388C 113.088,17.8021 113.218,17.9469 113.389,18.0733C 113.56,18.1997 113.768,18.3144 114.013,18.4175C 114.258,18.5206 114.536,18.6324 114.847,18.7529C 115.263,18.9104 115.636,19.0723 115.966,19.2385C 116.295,19.4048 116.576,19.5919 116.809,19.8C 117.041,20.0081 117.22,20.2477 117.345,20.519C 117.471,20.7902 117.533,21.1135 117.533,21.4887C 117.533,21.9476 117.432,22.3463 117.23,22.6846C 117.028,23.0229 116.757,23.3034 116.418,23.526C 116.078,23.7487 115.688,23.9145 115.247,24.0233C 114.805,24.1322 114.342,24.1867 113.858,24.1867C 112.904,24.1867 112.075,23.9942 111.373,23.6092 Z "/>
		<path fill="#FFFFFF" fill-opacity="1" stroke-linejoin="round" d="M 119.213,23.6092L 119.213,21.9467C 120.03,22.5689 120.928,22.88 121.908,22.88C 123.223,22.88 123.88,22.4649 123.88,21.6346C 123.88,21.3876 123.824,21.1781 123.711,21.006C 123.598,20.834 123.445,20.6813 123.253,20.5481C 123.06,20.4149 122.834,20.2953 122.573,20.1894C 122.313,20.0834 122.033,19.9731 121.733,19.8583C 121.319,19.6969 120.955,19.5331 120.64,19.3669C 120.325,19.2006 120.062,19.013 119.851,18.804C 119.64,18.5949 119.481,18.3577 119.374,18.0923C 119.267,17.8269 119.213,17.5163 119.213,17.1604C 119.213,16.7249 119.314,16.3399 119.517,16.0054C 119.719,15.671 119.988,15.3905 120.325,15.164C 120.661,14.9374 121.045,14.7668 121.477,14.6521C 121.908,14.5374 122.354,14.48 122.812,14.48C 123.627,14.48 124.356,14.6288 125,14.9262L 125,16.5333C 124.3,16.0356 123.495,15.7867 122.585,15.7867C 122.299,15.7867 122.042,15.8168 121.812,15.8771C 121.583,15.9374 121.386,16.0224 121.221,16.1323C 121.057,16.2422 120.93,16.3734 120.841,16.526C 120.751,16.6787 120.707,16.8474 120.707,17.0321C 120.707,17.2732 120.751,17.4754 120.839,17.6388C 120.928,17.8021 121.058,17.9469 121.229,18.0733C 121.4,18.1997 121.608,18.3144 121.853,18.4175C 122.098,18.5206 122.376,18.6324 122.687,18.7529C 123.103,18.9104 123.476,19.0723 123.806,19.2385C 124.135,19.4048 124.416,19.5919 124.649,19.8C 124.881,20.0081 125.06,20.2477 125.185,20.519C 125.311,20.7902 125.373,21.1135 125.373,21.4887C 125.373,21.9476 125.272,22.3463 125.07,22.6846C 124.868,23.0229 124.597,23.3034 124.258,23.526C 123.918,23.7487 123.528,23.9145 123.087,24.0233C 122.645,24.1322 122.182,24.1867 121.698,24.1867C 120.744,24.1867 119.915,23.9942 119.213,23.6092 Z "/>
	</g>
	<rect x="141" y="33" fill="#5E5E5E" fill-opacity="1" stroke-width="0.2" stroke-linejoin="round" width="279" height="1"/>
</svg>
