<?xml version="1.0" encoding="utf-8"?>
<!DOCTYPE svg PUBLIC "-//W3C//DTD SVG 1.1//EN" "http://www.w3.org/Graphics/SVG/1.1/DTD/svg11.dtd">
<svg xmlns="http://www.w3.org/2000/svg" xmlns:xlink="http://www.w3.org/1999/xlink" version="1.1" baseProfile="full" width="420" height="140" viewBox="0 0 420.00 140.00" enable-background="new 0 0 420.00 140.00" xml:space="preserve">
	<g>
		<rect x="33.6809" y="120.74" fill="#646464" fill-opacity="0.803922" stroke-width="0.2" stroke-linejoin="round" width="1.58" height="11.34"/>
		<path fill="#646464" fill-opacity="0.803922" stroke-width="0.2" stroke-linejoin="round" d="M 37.3609,128.01C 37.3824,129.277 37.7864,130.294 38.5729,131.06C 39.3594,131.826 40.3995,132.22 41.693,132.24C 42.7518,132.189 43.5545,131.987 44.1012,131.633C 44.6479,131.278 44.9226,131.076 44.9252,131.025L 44.3012,129.864C 44.2912,129.911 44.0632,130.097 43.6172,130.422C 43.1711,130.748 42.5671,130.934 41.805,130.98C 40.9507,130.961 40.2633,130.675 39.7429,130.121C 39.2226,129.566 38.9552,128.857 38.9409,127.994C 38.9562,127.124 39.2216,126.418 39.7369,125.877C 40.2523,125.335 40.9257,125.056 41.757,125.04C 42.4524,125.08 42.9978,125.238 43.3931,125.516C 43.7885,125.793 43.9899,125.952 43.9972,125.992L 44.7332,124.89C 44.7336,124.844 44.4809,124.659 43.9752,124.335C 43.4695,124.011 42.7088,123.826 41.693,123.78C 40.3995,123.802 39.3594,124.2 38.5729,124.972C 37.7864,125.744 37.3824,126.757 37.3609,128.01 Z "/>
		<path fill="#646464" fill-opacity="0.803922" stroke-width="0.2" stroke-linejoin="round" d="M 46.1609,127.994C 46.1914,129.276 46.6182,130.3 47.4414,131.064C 48.2646,131.829 49.3011,132.221 50.551,132.24C 51.8008,132.221 52.8373,131.829 53.6604,131.064C 54.4836,130.3 54.9104,129.276 54.9409,127.994C 54.9104,126.72 54.4836,125.704 53.6604,124.945C 52.8373,124.187 51.8008,123.799 50.551,123.78C 49.3011,123.799 48.2646,124.187 47.4414,124.945C 46.6182,125.704 46.1914,126.72 46.1609,127.994 Z M 47.7409,127.994C 47.7621,127.117 48.0386,126.409 48.5706,125.871C 49.1025,125.332 49.7626,125.055 50.551,125.04C 51.3463,125.055 52.0085,125.332 52.5373,125.871C 53.0662,126.409 53.3407,127.117 53.3609,127.994C 53.3407,128.879 53.0662,129.594 52.5373,130.139C 52.0084,130.684 51.3463,130.964 50.551,130.98C 49.7626,130.964 49.1025,130.684 48.5706,130.139C 48.0386,129.594 47.7621,128.879 47.7409,127.994 Z "/>
		<path fill="#646464" fill-opacity="0.803922" stroke-width="0.2" stroke-linejoin="round" d="M 56.5748,132.08L 58.1269,132.08L 58.1269,128.279C 58.1214,127.875 58.1655,127.512 58.2593,127.189C 58.442,126.593 58.7674,126.116 59.2355,125.755C 59.7036,125.395 60.2606,125.21 60.9066,125.2C 61.5591,125.214 61.9913,125.411 62.2033,125.791C 62.4152,126.172 62.5124,126.654 62.4948,127.237L 62.4948,132.08L 64.0469,132.08L 64.0469,126.884C 64.0508,125.85 63.823,125.075 63.3636,124.557C 62.9043,124.039 62.19,123.78 61.2209,123.78C 60.3143,123.813 59.6043,124.034 59.0909,124.442C 58.5775,124.851 58.2401,125.248 58.0789,125.633L 58.0469,125.633C 58.0576,125.503 58.0682,125.278 58.0789,124.958L 58.0789,123.94L 56.5748,123.94L 56.5748,132.08 Z "/>
		<path fill="#646464" fill-opacity="0.803922" stroke-width="0.2" stroke-linejoin="round" d="M 65.5849,131.13C 65.5888,131.176 65.8524,131.361 66.3758,131.685C 66.8992,132.009 67.6589,132.194 68.6548,132.24C 69.5542,132.229 70.264,132.015 70.7842,131.599C 71.3045,131.183 71.57,130.632 71.5809,129.946C 71.4075,128.686 70.7142,127.884 69.5009,127.54C 68.2875,127.197 67.5942,126.702 67.4209,126.057C 67.4342,125.699 67.5718,125.439 67.8335,125.278C 68.0953,125.117 68.4011,125.037 68.751,125.04C 69.3951,125.071 69.8887,125.194 70.2317,125.409C 70.5746,125.625 70.7477,125.748 70.751,125.778L 71.3734,124.62C 71.3758,124.585 71.1635,124.445 70.7364,124.2C 70.3093,123.955 69.6528,123.815 68.767,123.78C 67.9374,123.782 67.2476,123.973 66.6974,124.353C 66.1472,124.733 65.8617,125.29 65.8409,126.025C 66.0142,127.277 66.7075,128.078 67.9209,128.428C 69.1342,128.779 69.8275,129.284 70.0009,129.946C 69.9869,130.284 69.8466,130.54 69.5803,130.715C 69.3139,130.891 69.0054,130.979 68.6548,130.98C 67.9415,130.94 67.3788,130.778 66.9667,130.496C 66.5545,130.214 66.3442,130.052 66.3356,130.012L 65.5849,131.13 Z "/>
	</g>
	<g>
		<path fill="#646464" fill-opacity="0.803922" stroke-width="0.2" stroke-linejoin="round" d="M 185.159,120.74L 182.962,129.126C 182.883,129.453 182.823,129.734 182.783,129.97C 182.743,130.205 182.723,130.329 182.723,130.34L 182.691,130.34C 182.692,130.328 182.675,130.202 182.642,129.964C 182.608,129.725 182.556,129.446 182.484,129.126L 180.494,120.74L 178.87,120.74L 181.736,132.08L 183.567,132.08L 185.51,124.755C 185.607,124.369 185.687,124.008 185.749,123.672C 185.81,123.337 185.842,123.158 185.844,123.136L 185.876,123.136C 185.878,123.158 185.91,123.337 185.972,123.672C 186.033,124.008 186.113,124.369 186.21,124.755L 188.153,132.08L 189.984,132.08L 192.93,120.74L 191.306,120.74L 189.236,129.126C 189.157,129.446 189.103,129.725 189.073,129.964C 189.042,130.202 189.027,130.328 189.029,130.34L 188.997,130.34C 188.997,130.329 188.977,130.205 188.937,129.97C 188.897,129.734 188.838,129.453 188.758,129.126L 186.561,120.74L 185.159,120.74 Z "/>
		<path fill="#646464" fill-opacity="0.803922" stroke-width="0.2" stroke-linejoin="round" d="M 193.83,128.029C 193.849,129.273 194.242,130.28 195.007,131.05C 195.773,131.821 196.798,132.217 198.081,132.24C 199.053,132.195 199.814,132.015 200.363,131.7C 200.913,131.385 201.192,131.205 201.202,131.16L 200.564,130.012C 200.551,130.052 200.326,130.214 199.889,130.496C 199.452,130.778 198.881,130.94 198.176,130.98C 197.44,130.98 196.81,130.751 196.286,130.293C 195.763,129.835 195.471,129.151 195.41,128.24L 201.282,128.24C 201.284,128.226 201.292,128.145 201.306,127.997C 201.32,127.849 201.328,127.719 201.33,127.607C 201.327,126.527 201.03,125.628 200.439,124.911C 199.848,124.194 198.983,123.821 197.842,123.794C 196.674,123.81 195.719,124.196 194.978,124.951C 194.237,125.706 193.854,126.732 193.83,128.029 Z M 195.458,127.14C 195.58,126.457 195.852,125.935 196.276,125.573C 196.7,125.211 197.212,125.029 197.811,125.026C 198.341,125.025 198.787,125.199 199.15,125.548C 199.513,125.898 199.713,126.428 199.75,127.14L 195.458,127.14 Z "/>
		<path fill="#646464" fill-opacity="0.803922" stroke-width="0.2" stroke-linejoin="round" d="M 203.284,132.08L 204.756,132.08L 204.756,131.496C 204.755,131.326 204.749,131.187 204.74,131.08C 204.731,130.973 204.725,130.918 204.724,130.914L 204.756,130.914C 204.749,130.97 204.951,131.191 205.363,131.577C 205.774,131.964 206.439,132.185 207.356,132.24C 208.463,132.228 209.357,131.851 210.036,131.107C 210.715,130.364 211.065,129.326 211.084,127.994C 211.073,126.691 210.751,125.667 210.118,124.921C 209.486,124.175 208.608,123.795 207.487,123.78C 206.524,123.833 205.839,124.046 205.431,124.418C 205.023,124.791 204.825,125.003 204.836,125.056L 204.804,125.056C 204.805,125.053 204.811,124.993 204.82,124.876C 204.829,124.759 204.835,124.606 204.836,124.417L 204.836,120.74L 203.284,120.74L 203.284,132.08 Z M 204.788,128.026C 204.81,126.976 205.052,126.214 205.516,125.739C 205.979,125.265 206.532,125.032 207.176,125.04C 207.875,125.051 208.436,125.32 208.861,125.848C 209.286,126.376 209.504,127.097 209.516,128.01C 209.498,128.959 209.264,129.69 208.812,130.203C 208.361,130.715 207.799,130.974 207.127,130.98C 206.342,130.949 205.756,130.642 205.368,130.057C 204.981,129.472 204.787,128.796 204.788,128.026 Z "/>
		<path fill="#646464" fill-opacity="0.803922" stroke-width="0.2" stroke-linejoin="round" d="M 212.294,131.13C 212.298,131.176 212.562,131.361 213.085,131.685C 213.608,132.009 214.368,132.194 215.364,132.24C 216.263,132.229 216.973,132.015 217.493,131.599C 218.014,131.183 218.279,130.632 218.29,129.946C 218.117,128.686 217.423,127.884 216.21,127.54C 214.997,127.197 214.303,126.702 214.13,126.057C 214.143,125.699 214.281,125.439 214.543,125.278C 214.804,125.117 215.11,125.037 215.46,125.04C 216.104,125.071 216.598,125.194 216.941,125.409C 217.284,125.625 217.457,125.748 217.46,125.778L 218.082,124.62C 218.085,124.585 217.873,124.445 217.445,124.2C 217.018,123.955 216.362,123.815 215.476,123.78C 214.647,123.782 213.957,123.973 213.406,124.353C 212.856,124.733 212.571,125.29 212.55,126.025C 212.723,127.277 213.417,128.078 214.63,128.428C 215.843,128.779 216.537,129.284 216.71,129.946C 216.696,130.284 216.556,130.54 216.289,130.715C 216.023,130.891 215.714,130.979 215.364,130.98C 214.651,130.94 214.088,130.778 213.676,130.496C 213.264,130.214 213.053,130.052 213.045,130.012L 212.294,131.13 Z "/>
		<path fill="#646464" fill-opacity="0.803922" stroke-width="0.2" stroke-linejoin="round" d="M 220.068,122.32L 221.636,122.32L 221.636,120.74L 220.068,120.74L 220.068,122.32 Z M 220.084,132.08L 221.636,132.08L 221.636,123.94L 220.084,123.94L 220.084,132.08 Z "/>
		<path fill="#646464" fill-opacity="0.803922" stroke-width="0.2" stroke-linejoin="round" d="M 224.564,129.159C 224.628,130.431 225.016,131.246 225.726,131.605C 226.436,131.964 227.084,132.123 227.668,132.08C 228.009,132.07 228.191,132.06 228.212,132.051L 228.212,130.788C 228.201,130.799 228.079,130.809 227.844,130.82C 227.513,130.845 227.151,130.742 226.758,130.512C 226.365,130.281 226.151,129.771 226.116,128.982L 226.116,125.354L 228.068,125.354L 228.068,124.106L 226.116,124.106L 226.116,121.77L 224.612,121.77L 224.612,124.106L 223.508,124.106L 223.508,125.354L 224.564,125.354L 224.564,129.159 Z "/>
		<path fill="#646464" fill-opacity="0.803922" stroke-width="0.2" stroke-linejoin="round" d="M 229.35,128.029C 229.369,129.273 229.762,130.28 230.527,131.05C 231.293,131.821 232.318,132.217 233.601,132.24C 234.573,132.195 235.334,132.015 235.883,131.7C 236.433,131.385 236.712,131.205 236.722,131.16L 236.084,130.012C 236.071,130.052 235.846,130.214 235.409,130.496C 234.972,130.778 234.401,130.94 233.696,130.98C 232.96,130.98 232.33,130.751 231.806,130.293C 231.283,129.835 230.991,129.151 230.93,128.24L 236.802,128.24C 236.804,128.226 236.812,128.145 236.826,127.997C 236.84,127.849 236.848,127.719 236.85,127.607C 236.847,126.527 236.55,125.628 235.959,124.911C 235.368,124.194 234.503,123.821 233.362,123.794C 232.194,123.81 231.239,124.196 230.498,124.951C 229.757,125.706 229.374,126.732 229.35,128.029 Z M 230.978,127.14C 231.1,126.457 231.372,125.935 231.796,125.573C 232.22,125.211 232.732,125.029 233.331,125.026C 233.861,125.025 234.307,125.199 234.67,125.548C 235.033,125.898 235.233,126.428 235.27,127.14L 230.978,127.14 Z "/>
	</g>
	<g>
		<rect x="337.25" y="120.74" fill="#646464" fill-opacity="0.803922" stroke-width="0.2" stroke-linejoin="round" width="1.57999" height="11.34"/>
		<path fill="#646464" fill-opacity="0.803922" stroke-width="0.2" stroke-linejoin="round" d="M 340.834,131.13C 340.838,131.176 341.102,131.361 341.625,131.685C 342.148,132.009 342.908,132.194 343.904,132.24C 344.803,132.229 345.513,132.015 346.033,131.599C 346.554,131.183 346.819,130.632 346.83,129.946C 346.657,128.686 345.963,127.884 344.75,127.54C 343.537,127.197 342.843,126.702 342.67,126.057C 342.683,125.699 342.821,125.439 343.083,125.278C 343.344,125.117 343.65,125.037 344,125.04C 344.644,125.071 345.138,125.194 345.481,125.409C 345.824,125.625 345.997,125.748 346,125.778L 346.623,124.62C 346.625,124.585 346.413,124.445 345.986,124.2C 345.558,123.955 344.902,123.815 344.016,123.78C 343.187,123.782 342.497,123.973 341.947,124.353C 341.396,124.733 341.111,125.29 341.09,126.025C 341.263,127.277 341.957,128.078 343.17,128.428C 344.383,128.779 345.077,129.284 345.25,129.946C 345.236,130.284 345.096,130.54 344.829,130.715C 344.563,130.891 344.255,130.979 343.904,130.98C 343.191,130.94 342.628,130.778 342.216,130.496C 341.804,130.214 341.593,130.052 341.585,130.012L 340.834,131.13 Z "/>
		<path fill="#646464" fill-opacity="0.803922" stroke-width="0.2" stroke-linejoin="round" d="M 348.034,131.13C 348.038,131.176 348.302,131.361 348.825,131.685C 349.348,132.009 350.108,132.194 351.104,132.24C 352.003,132.229 352.713,132.015 353.233,131.599C 353.754,131.183 354.019,130.632 354.03,129.946C 353.857,128.686 353.163,127.884 351.95,127.54C 350.737,127.197 350.043,126.702 349.87,126.057C 349.883,125.699 350.021,125.439 350.283,125.278C 350.544,125.117 350.85,125.037 351.2,125.04C 351.844,125.071 352.338,125.194 352.681,125.409C 353.024,125.625 353.197,125.748 353.2,125.778L 353.823,124.62C 353.825,124.585 353.613,124.445 353.186,124.2C 352.758,123.955 352.102,123.815 351.216,123.78C 350.387,123.782 349.697,123.973 349.147,124.353C 348.596,124.733 348.311,125.29 348.29,126.025C 348.463,127.277 349.157,128.078 350.37,128.428C 351.583,128.779 352.277,129.284 352.45,129.946C 352.436,130.284 352.296,130.54 352.029,130.715C 351.763,130.891 351.455,130.979 351.104,130.98C 350.391,130.94 349.828,130.778 349.416,130.496C 349.004,130.214 348.793,130.052 348.785,130.012L 348.034,131.13 Z "/>
		<path fill="#646464" fill-opacity="0.803922" stroke-width="0.2" stroke-linejoin="round" d="M 355.824,129.148C 355.826,130.216 356.058,130.999 356.521,131.499C 356.983,131.998 357.664,132.245 358.564,132.24C 359.342,132.213 359.979,132.006 360.475,131.62C 360.971,131.233 361.304,130.827 361.472,130.402L 361.504,130.402C 361.503,130.408 361.497,130.467 361.488,130.577C 361.479,130.688 361.473,130.83 361.472,131.002L 361.472,132.08L 362.976,132.08L 362.976,123.94L 361.424,123.94L 361.424,127.753C 361.418,128.583 361.192,129.294 360.746,129.888C 360.301,130.482 359.672,130.792 358.861,130.82C 358.245,130.806 357.839,130.609 357.644,130.229C 357.448,129.85 357.359,129.371 357.376,128.795L 357.376,123.94L 355.824,123.94L 355.824,129.148 Z "/>
		<path fill="#646464" fill-opacity="0.803922" stroke-width="0.2" stroke-linejoin="round" d="M 364.93,128.029C 364.949,129.273 365.342,130.28 366.108,131.05C 366.874,131.821 367.898,132.217 369.181,132.24C 370.153,132.195 370.914,132.015 371.463,131.7C 372.013,131.385 372.293,131.205 372.302,131.16L 371.664,130.012C 371.651,130.052 371.426,130.214 370.989,130.496C 370.552,130.778 369.981,130.94 369.276,130.98C 368.54,130.98 367.91,130.751 367.386,130.293C 366.863,129.835 366.571,129.151 366.51,128.24L 372.382,128.24C 372.384,128.226 372.392,128.145 372.406,127.997C 372.42,127.849 372.428,127.719 372.43,127.607C 372.427,126.527 372.13,125.628 371.539,124.911C 370.949,124.194 370.083,123.821 368.943,123.794C 367.774,123.81 366.819,124.196 366.078,124.951C 365.337,125.706 364.954,126.732 364.93,128.029 Z M 366.558,127.14C 366.68,126.457 366.953,125.935 367.377,125.573C 367.801,125.211 368.312,125.029 368.911,125.026C 369.441,125.025 369.887,125.199 370.25,125.548C 370.613,125.898 370.813,126.428 370.85,127.14L 366.558,127.14 Z "/>
		<path fill="#646464" fill-opacity="0.803922" stroke-width="0.2" stroke-linejoin="round" d="M 373.794,131.13C 373.798,131.176 374.062,131.361 374.585,131.685C 375.108,132.009 375.868,132.194 376.864,132.24C 377.763,132.229 378.473,132.015 378.993,131.599C 379.514,131.183 379.779,130.632 379.79,129.946C 379.617,128.686 378.923,127.884 377.71,127.54C 376.497,127.197 375.803,126.702 375.63,126.057C 375.643,125.699 375.781,125.439 376.043,125.278C 376.304,125.117 376.61,125.037 376.96,125.04C 377.604,125.071 378.098,125.194 378.441,125.409C 378.784,125.625 378.957,125.748 378.96,125.778L 379.583,124.62C 379.585,124.585 379.373,124.445 378.946,124.2C 378.518,123.955 377.862,123.815 376.976,123.78C 376.147,123.782 375.457,123.973 374.907,124.353C 374.356,124.733 374.071,125.29 374.05,126.025C 374.223,127.277 374.917,128.078 376.13,128.428C 377.343,128.779 378.037,129.284 378.21,129.946C 378.196,130.284 378.056,130.54 377.789,130.715C 377.523,130.891 377.215,130.979 376.864,130.98C 376.151,130.94 375.588,130.778 375.176,130.496C 374.764,130.214 374.553,130.052 374.545,130.012L 373.794,131.13 Z "/>
	</g>
	<path fill="#646464" fill-opacity="1" stroke-width="0.2" stroke-linejoin="round" d="M 230.987,69.1574C 231.362,66.1462 231.624,63.1029 231.624,59.9907C 231.624,56.8786 231.362,53.8352 230.987,50.8241L 246.46,50.8241C 247.221,53.7575 247.665,56.819 247.665,59.9907C 247.665,63.1625 247.221,66.224 246.46,69.1574M 222.883,94.6452C 225.633,89.5441 227.723,84.0533 229.204,78.3241L 242.72,78.3241C 238.325,85.9049 231.303,91.7532 222.883,94.6452 Z M 221.719,69.1574L 200.274,69.1574C 199.838,66.1552 199.54,63.1121 199.54,59.9907C 199.54,56.8694 199.838,53.8263 200.274,50.8241L 221.719,50.8241C 222.155,53.8263 222.457,56.8694 222.457,59.9907C 222.457,63.1121 222.155,66.1552 221.719,69.1574 Z M 210.99,96.4924C 207.176,90.9923 204.197,84.883 202.24,78.3241L 219.753,78.3241C 217.791,84.883 214.812,90.9923 210.99,96.4924 Z M 192.785,41.6574L 179.268,41.6574C 183.659,34.0674 190.681,28.2098 199.105,25.327C 196.355,30.4282 194.265,35.919 192.785,41.6574 Z M 179.268,78.3241L 192.785,78.3241C 194.265,84.0577 196.355,89.5533 199.105,94.6544C 190.681,91.7717 183.659,85.9141 179.268,78.3241 Z M 175.528,69.1574C 174.772,66.224 174.332,63.1625 174.332,59.9907C 174.332,56.819 174.772,53.7575 175.528,50.8241L 191.006,50.8241C 190.63,53.8352 190.374,56.8786 190.374,59.9907C 190.374,63.1029 190.63,66.1462 191.006,69.1574M 210.99,23.4891C 214.812,28.9892 217.791,35.0985 219.753,41.6574L 202.24,41.6574C 204.197,35.0985 207.176,28.9892 210.99,23.4891 Z M 242.72,41.6574L 229.204,41.6574C 227.723,35.9282 225.633,30.4374 222.883,25.3363C 231.303,28.2283 238.325,34.0766 242.72,41.6574 Z M 210.971,14.1574C 185.644,14.1574 165.165,34.6769 165.165,59.9907C 165.165,85.3046 185.644,105.824 210.971,105.824C 236.303,105.824 256.832,85.3046 256.832,59.9907C 256.832,34.6769 236.303,14.1574 210.971,14.1574 Z "/>
	<path fill="#646464" fill-opacity="1" stroke-width="0.2" stroke-linejoin="round" d="M 57,78.3333L 90.7333,52.0708L 98.25,46.25L 57,14.1667L 15.75,46.25L 23.2208,52.0708M 56.9542,89.975L 23.175,63.7125L 15.75,69.4875L 57,101.571L 98.25,69.4875L 90.7792,63.6667L 56.9542,89.975 Z "/>
	<path fill="#646464" fill-opacity="1" stroke-width="0.2" stroke-linejoin="round" d="M 372.167,60L 353.833,60L 353.833,50.8333L 372.167,50.8333M 372.167,78.3333L 353.833,78.3333L 353.833,69.1666L 372.167,69.1666M 399.667,41.6666L 386.788,41.6666C 384.726,38.0916 381.883,35.0208 378.446,32.6833L 385.917,25.2132L 379.453,18.75L 369.508,28.6955C 367.4,28.1916 365.246,27.9166 363,27.9166C 360.754,27.9166 358.6,28.1916 356.538,28.6955L 346.546,18.75L 340.083,25.2132L 347.508,32.6833C 344.117,35.0208 341.275,38.0916 339.212,41.6666L 326.333,41.6666L 326.333,50.8333L 335.913,50.8333C 335.683,52.3458 335.5,53.8583 335.5,55.4166L 335.5,60L 326.333,60L 326.333,69.1666L 335.5,69.1666L 335.5,73.75C 335.5,75.3083 335.683,76.8208 335.913,78.3333L 326.333,78.3333L 326.333,87.5L 339.212,87.5C 343.979,95.7041 352.825,101.25 363,101.25C 373.175,101.25 382.021,95.7041 386.788,87.5L 399.667,87.5L 399.667,78.3333L 390.088,78.3333C 390.317,76.8208 390.5,75.3083 390.5,73.75L 390.5,69.1666L 399.667,69.1666L 399.667,60L 390.5,60L 390.5,55.4166C 390.5,53.8583 390.317,52.3458 390.088,50.8333L 399.667,50.8333L 399.667,41.6666 Z "/>
</svg>
