<?xml version="1.0" encoding="utf-8"?>
<!DOCTYPE svg PUBLIC "-//W3C//DTD SVG 1.1//EN" "http://www.w3.org/Graphics/SVG/1.1/DTD/svg11.dtd">
<svg xmlns="http://www.w3.org/2000/svg" xmlns:xlink="http://www.w3.org/1999/xlink" version="1.1" baseProfile="full" width="420" height="140" viewBox="0 0 420.00 140.00" enable-background="new 0 0 420.00 140.00" xml:space="preserve">
	<path fill="#000000" fill-opacity="1" stroke-width="0.2" stroke-linejoin="round" d="M 65.5806,46.2411L 90.7889,46.2411L 65.5806,21.0328L 65.5806,46.2411 Z M 33.4972,14.1578L 70.1639,14.1578L 97.6639,41.6578L 97.6639,96.6578C 97.6639,101.718 93.5573,105.824 88.4972,105.824L 33.4514,105.824C 28.3913,105.824 24.3306,101.718 24.3306,96.6578L 24.3765,23.3245C 24.3765,18.2645 28.4326,14.1578 33.4972,14.1578 Z M 56.4167,23.3333L 33.5,23.3333L 33.5,96.6667L 56.4167,96.6667L 88.5,96.6667L 88.5,55.4167L 56.4167,55.4167L 56.4167,23.3333 Z "/>
	<path fill="#646464" fill-opacity="0.603922" stroke-width="0.2" stroke-linejoin="round" d="M 10,5.00005L 112,5.00005C 114.209,5.00005 116,6.79091 116,9.00005L 116,111C 116,113.209 114.209,115 112,115L 10,115C 7.7909,115 6.00004,113.209 6.00004,111L 6.00004,9.00005C 6.00004,6.79091 7.7909,5.00005 10,5.00005 Z "/>
	<g>
		<path fill="#000000" fill-opacity="1" stroke-linejoin="round" d="M 38.96,134L 37.68,134L 37.68,126.488C 37.68,125.893 37.7158,125.166 37.7875,124.308L 37.755,124.308C 37.6283,124.813 37.515,125.174 37.415,125.393L 33.5425,134L 32.895,134L 29.03,125.455C 28.9183,125.205 28.805,124.823 28.69,124.308L 28.6575,124.308C 28.6992,124.756 28.72,125.488 28.72,126.503L 28.72,134L 27.44,134L 27.44,122.8L 29.1875,122.8L 32.6725,130.61C 32.9408,131.208 33.115,131.656 33.195,131.952L 33.2425,131.952C 33.4692,131.337 33.6517,130.879 33.79,130.577L 37.345,122.8L 38.96,122.8L 38.96,134 Z "/>
		<path fill="#000000" fill-opacity="1" stroke-linejoin="round" d="M 47.44,134L 46.16,134L 46.16,132.68L 46.1275,132.68C 45.5625,133.667 44.7292,134.16 43.6275,134.16C 42.8175,134.16 42.1838,133.948 41.7263,133.525C 41.2688,133.102 41.04,132.539 41.04,131.837C 41.04,130.336 41.9342,129.462 43.7225,129.217L 46.16,128.88C 46.16,127.6 45.6025,126.96 44.4875,126.96C 43.5092,126.96 42.6267,127.28 41.84,127.92L 41.84,126.598C 42.635,126.092 43.5508,125.84 44.5875,125.84C 46.4892,125.84 47.44,126.832 47.44,128.815L 47.44,134 Z M 46.16,129.84L 44.1725,130.11C 43.5608,130.193 43.0992,130.342 42.7875,130.556C 42.4758,130.77 42.32,131.149 42.32,131.693C 42.32,132.089 42.4638,132.413 42.7513,132.664C 43.0388,132.915 43.4208,133.04 43.8975,133.04C 44.5525,133.04 45.0933,132.814 45.52,132.363C 45.9467,131.911 46.16,131.339 46.16,130.648L 46.16,129.84 Z "/>
		<path fill="#000000" fill-opacity="1" stroke-linejoin="round" d="M 54,127.28C 53.7767,127.067 53.455,126.96 53.035,126.96C 52.49,126.96 52.0346,127.221 51.6688,127.743C 51.3029,128.264 51.12,128.975 51.12,129.875L 51.12,134L 49.84,134L 49.84,126L 51.12,126L 51.12,127.568L 51.15,127.568C 51.3317,127.024 51.6096,126.6 51.9838,126.296C 52.3579,125.992 52.7758,125.84 53.2375,125.84C 53.5692,125.84 53.8233,125.877 54,125.95L 54,127.28 Z "/>
		<path fill="#000000" fill-opacity="1" stroke-linejoin="round" d="M 62.16,134L 60.3625,134L 56.7525,130.155L 56.72,130.155L 56.72,134L 55.44,134L 55.44,122.16L 56.72,122.16L 56.72,129.665L 56.7525,129.665L 60.1625,126L 61.84,126L 58.08,129.86L 62.16,134 Z "/>
		<path fill="#000000" fill-opacity="1" stroke-linejoin="round" d="M 69.92,134L 68.64,134L 68.64,132.57L 68.61,132.57C 68.0167,133.63 67.1017,134.16 65.865,134.16C 64.8617,134.16 64.06,133.804 63.46,133.092C 62.86,132.381 62.56,131.413 62.56,130.188C 62.56,128.872 62.8925,127.819 63.5575,127.027C 64.2225,126.236 65.1083,125.84 66.215,125.84C 67.3117,125.84 68.1092,126.287 68.6075,127.18L 68.64,127.18L 68.64,122.16L 69.92,122.16L 69.92,134 Z M 68.64,130.375L 68.64,129.22C 68.64,128.59 68.4254,128.056 67.9963,127.618C 67.5671,127.179 67.0233,126.96 66.365,126.96C 65.5817,126.96 64.965,127.24 64.515,127.8C 64.065,128.36 63.84,129.134 63.84,130.122C 63.84,131.024 64.0558,131.736 64.4875,132.258C 64.9192,132.779 65.4983,133.04 66.225,133.04C 66.9417,133.04 67.5233,132.788 67.97,132.284C 68.4167,131.78 68.64,131.143 68.64,130.375 Z "/>
		<path fill="#000000" fill-opacity="1" stroke-linejoin="round" d="M 75.8725,134.16C 74.6958,134.16 73.7563,133.789 73.0538,133.046C 72.3513,132.304 72,131.319 72,130.092C 72,128.758 72.3654,127.715 73.0963,126.965C 73.8271,126.215 74.815,125.84 76.06,125.84C 77.2467,125.84 78.1733,126.205 78.84,126.934C 79.5067,127.663 79.84,128.675 79.84,129.97C 79.84,131.237 79.4808,132.252 78.7625,133.015C 78.0442,133.778 77.0808,134.16 75.8725,134.16 Z M 75.9675,126.96C 75.1392,126.96 74.4842,127.234 74.0025,127.781C 73.5208,128.329 73.28,129.083 73.28,130.045C 73.28,130.972 73.5238,131.702 74.0113,132.238C 74.4988,132.773 75.1508,133.04 75.9675,133.04C 76.8008,133.04 77.4413,132.778 77.8888,132.254C 78.3363,131.73 78.56,130.983 78.56,130.015C 78.56,129.037 78.3363,128.283 77.8888,127.754C 77.4413,127.225 76.8008,126.96 75.9675,126.96 Z "/>
		<path fill="#000000" fill-opacity="1" stroke-linejoin="round" d="M 92,126L 89.6,134L 88.27,134L 86.62,128.275C 86.5567,128.057 86.515,127.809 86.495,127.533L 86.4625,127.533C 86.4475,127.719 86.3925,127.962 86.2975,128.26L 84.5075,134L 83.225,134L 80.8,126L 82.145,126L 83.8025,132.015C 83.8558,132.198 83.8925,132.438 83.9125,132.735L 83.975,132.735C 83.9917,132.505 84.0383,132.26 84.115,132L 85.9625,126L 87.135,126L 88.7925,132.03C 88.8458,132.223 88.885,132.463 88.91,132.75L 88.9725,132.75C 88.9842,132.547 89.0283,132.307 89.105,132.03L 90.7325,126L 92,126 Z "/>
		<path fill="#000000" fill-opacity="1" stroke-linejoin="round" d="M 100.16,134L 98.88,134L 98.88,129.482C 98.88,127.801 98.2475,126.96 96.9825,126.96C 96.3292,126.96 95.7888,127.198 95.3613,127.675C 94.9338,128.152 94.72,128.754 94.72,129.482L 94.72,134L 93.44,134L 93.44,126L 94.72,126L 94.72,127.397L 94.7525,127.397C 95.3658,126.359 96.2533,125.84 97.415,125.84C 98.3033,125.84 98.9829,126.122 99.4538,126.685C 99.9246,127.248 100.16,128.062 100.16,129.125L 100.16,134 Z "/>
	</g>
	<g>
		<path fill="#000000" fill-opacity="1" stroke-linejoin="round" d="M 149.92,133.268C 148.793,133.862 147.542,134.16 146.165,134.16C 144.565,134.16 143.271,133.647 142.282,132.621C 141.294,131.595 140.8,130.237 140.8,128.548C 140.8,126.822 141.353,125.407 142.459,124.3C 143.565,123.193 144.966,122.64 146.662,122.64C 147.893,122.64 148.925,122.826 149.76,123.197L 149.76,124.56C 148.852,124.027 147.777,123.76 146.535,123.76C 145.278,123.76 144.248,124.195 143.445,125.066C 142.642,125.937 142.24,127.065 142.24,128.45C 142.24,129.878 142.611,131 143.354,131.816C 144.096,132.632 145.103,133.04 146.375,133.04C 147.247,133.04 148.002,132.866 148.64,132.518L 148.64,129.36L 146.24,129.36L 146.24,128.24L 149.92,128.24L 149.92,133.268 Z "/>
		<path fill="#000000" fill-opacity="1" stroke-linejoin="round" d="M 152.952,123.92C 152.732,123.92 152.545,123.845 152.391,123.695C 152.237,123.545 152.16,123.355 152.16,123.125C 152.16,122.893 152.237,122.701 152.391,122.549C 152.545,122.396 152.732,122.32 152.952,122.32C 153.178,122.32 153.368,122.396 153.525,122.549C 153.682,122.701 153.76,122.893 153.76,123.125C 153.76,123.345 153.682,123.532 153.525,123.687C 153.368,123.842 153.178,123.92 152.952,123.92 Z M 153.6,134L 152.32,134L 152.32,126L 153.6,126L 153.6,134 Z "/>
		<path fill="#000000" fill-opacity="1" stroke-linejoin="round" d="M 160,133.893C 159.692,134.071 159.286,134.16 158.782,134.16C 157.354,134.16 156.64,133.383 156.64,131.83L 156.64,127.12L 155.2,127.12L 155.2,126L 156.64,126L 156.64,124.02L 157.92,123.6L 157.92,126L 160,126L 160,127.12L 157.92,127.12L 157.92,131.567C 157.92,132.097 158.014,132.475 158.202,132.701C 158.391,132.927 158.702,133.04 159.137,133.04C 159.471,133.04 159.758,132.933 160,132.72L 160,133.893 Z "/>
		<path fill="#000000" fill-opacity="1" stroke-linejoin="round" d="M 170.24,134L 168.96,134L 168.96,128.88L 163.04,128.88L 163.04,134L 161.76,134L 161.76,122.8L 163.04,122.8L 163.04,127.76L 168.96,127.76L 168.96,122.8L 170.24,122.8L 170.24,134 Z "/>
		<path fill="#000000" fill-opacity="1" stroke-linejoin="round" d="M 179.52,134L 178.24,134L 178.24,132.665L 178.208,132.665C 177.669,133.662 176.834,134.16 175.702,134.16C 173.768,134.16 172.8,133.028 172.8,130.765L 172.8,126L 174.08,126L 174.08,130.533C 174.08,132.204 174.737,133.04 176.052,133.04C 176.689,133.04 177.213,132.812 177.624,132.355C 178.035,131.898 178.24,131.302 178.24,130.565L 178.24,126L 179.52,126L 179.52,134 Z "/>
		<path fill="#000000" fill-opacity="1" stroke-linejoin="round" d="M 183.393,132.772L 183.36,132.772L 183.36,134L 182.08,134L 182.08,122.16L 183.36,122.16L 183.36,127.475L 183.393,127.475C 184.022,126.385 184.944,125.84 186.157,125.84C 187.184,125.84 187.988,126.196 188.569,126.907C 189.15,127.619 189.44,128.572 189.44,129.768C 189.44,131.097 189.115,132.162 188.464,132.961C 187.813,133.76 186.922,134.16 185.79,134.16C 184.733,134.16 183.934,133.697 183.393,132.772 Z M 183.36,129.625L 183.36,130.717C 183.36,131.364 183.576,131.913 184.009,132.364C 184.441,132.815 184.991,133.04 185.657,133.04C 186.439,133.04 187.052,132.75 187.495,132.169C 187.938,131.588 188.16,130.781 188.16,129.747C 188.16,128.878 187.953,128.195 187.539,127.701C 187.125,127.207 186.563,126.96 185.855,126.96C 185.105,126.96 184.502,127.213 184.045,127.72C 183.588,128.227 183.36,128.862 183.36,129.625 Z "/>
	</g>
	<g>
		<path fill="#000000" fill-opacity="1" stroke-linejoin="round" d="M 307.12,130.512C 306.295,130.944 305.268,131.16 304.04,131.16C 302.455,131.16 301.185,130.65 300.231,129.629C 299.277,128.608 298.8,127.268 298.8,125.61C 298.8,123.827 299.337,122.386 300.41,121.287C 301.483,120.189 302.844,119.64 304.492,119.64C 305.549,119.64 306.425,119.761 307.12,120.003L 307.12,121.4C 306.33,120.973 305.457,120.76 304.503,120.76C 303.236,120.76 302.209,121.193 301.421,122.059C 300.634,122.925 300.24,124.082 300.24,125.53C 300.24,126.905 300.608,128 301.344,128.816C 302.08,129.632 303.046,130.04 304.242,130.04C 305.351,130.04 306.31,129.773 307.12,129.24L 307.12,130.512 Z "/>
		<path fill="#000000" fill-opacity="1" stroke-linejoin="round" d="M 312.592,131.16C 311.416,131.16 310.476,130.789 309.774,130.046C 309.071,129.304 308.72,128.319 308.72,127.092C 308.72,125.757 309.085,124.715 309.816,123.965C 310.547,123.215 311.535,122.84 312.78,122.84C 313.967,122.84 314.893,123.205 315.56,123.934C 316.227,124.663 316.56,125.675 316.56,126.97C 316.56,128.237 316.201,129.252 315.483,130.015C 314.764,130.778 313.801,131.16 312.592,131.16 Z M 312.688,123.96C 311.859,123.96 311.204,124.234 310.723,124.781C 310.241,125.329 310,126.083 310,127.045C 310,127.972 310.244,128.702 310.731,129.238C 311.219,129.773 311.871,130.04 312.688,130.04C 313.521,130.04 314.161,129.778 314.609,129.254C 315.056,128.73 315.28,127.983 315.28,127.015C 315.28,126.037 315.056,125.283 314.609,124.754C 314.161,124.225 313.521,123.96 312.688,123.96 Z "/>
		<path fill="#000000" fill-opacity="1" stroke-linejoin="round" d="M 330.16,131L 328.88,131L 328.88,126.45C 328.88,125.573 328.74,124.939 328.461,124.548C 328.182,124.156 327.712,123.96 327.053,123.96C 326.493,123.96 326.017,124.208 325.626,124.702C 325.235,125.198 325.04,125.791 325.04,126.482L 325.04,131L 323.76,131L 323.76,126.298C 323.76,124.739 323.14,123.96 321.9,123.96C 321.325,123.96 320.851,124.193 320.479,124.66C 320.106,125.127 319.92,125.734 319.92,126.482L 319.92,131L 318.64,131L 318.64,123L 319.92,123L 319.92,124.335L 319.952,124.335C 320.529,123.338 321.371,122.84 322.478,122.84C 323.034,122.84 323.519,122.996 323.932,123.309C 324.346,123.621 324.629,124.031 324.783,124.537C 325.386,123.406 326.285,122.84 327.48,122.84C 329.267,122.84 330.16,123.923 330.16,126.088L 330.16,131 Z "/>
		<path fill="#000000" fill-opacity="1" stroke-linejoin="round" d="M 343.92,131L 342.64,131L 342.64,126.45C 342.64,125.573 342.5,124.939 342.221,124.548C 341.942,124.156 341.473,123.96 340.813,123.96C 340.253,123.96 339.777,124.208 339.386,124.702C 338.995,125.198 338.8,125.791 338.8,126.482L 338.8,131L 337.52,131L 337.52,126.298C 337.52,124.739 336.9,123.96 335.66,123.96C 335.085,123.96 334.611,124.193 334.239,124.66C 333.866,125.127 333.68,125.734 333.68,126.482L 333.68,131L 332.4,131L 332.4,123L 333.68,123L 333.68,124.335L 333.712,124.335C 334.289,123.338 335.131,122.84 336.237,122.84C 336.794,122.84 337.279,122.996 337.692,123.309C 338.106,123.621 338.389,124.031 338.543,124.537C 339.146,123.406 340.045,122.84 341.24,122.84C 343.027,122.84 343.92,123.923 343.92,126.088L 343.92,131 Z "/>
		<path fill="#000000" fill-opacity="1" stroke-linejoin="round" d="M 352.72,131L 351.44,131L 351.44,129.665L 351.407,129.665C 350.869,130.662 350.034,131.16 348.902,131.16C 346.967,131.16 346,130.028 346,127.765L 346,123L 347.28,123L 347.28,127.533C 347.28,129.204 347.938,130.04 349.252,130.04C 349.889,130.04 350.413,129.812 350.824,129.355C 351.235,128.898 351.44,128.302 351.44,127.565L 351.44,123L 352.72,123L 352.72,131 Z "/>
		<path fill="#000000" fill-opacity="1" stroke-linejoin="round" d="M 362,131L 360.72,131L 360.72,126.482C 360.72,124.801 360.087,123.96 358.822,123.96C 358.169,123.96 357.629,124.198 357.201,124.675C 356.774,125.152 356.56,125.754 356.56,126.482L 356.56,131L 355.28,131L 355.28,123L 356.56,123L 356.56,124.397L 356.592,124.397C 357.206,123.359 358.093,122.84 359.255,122.84C 360.143,122.84 360.823,123.122 361.294,123.685C 361.765,124.248 362,125.062 362,126.125L 362,131 Z "/>
		<path fill="#000000" fill-opacity="1" stroke-linejoin="round" d="M 365.033,120.92C 364.813,120.92 364.625,120.845 364.471,120.695C 364.317,120.545 364.24,120.355 364.24,120.125C 364.24,119.893 364.317,119.701 364.471,119.549C 364.625,119.396 364.813,119.32 365.033,119.32C 365.257,119.32 365.448,119.396 365.605,119.549C 365.762,119.701 365.84,119.893 365.84,120.125C 365.84,120.345 365.762,120.533 365.605,120.688C 365.448,120.842 365.257,120.92 365.033,120.92 Z M 365.68,131L 364.4,131L 364.4,123L 365.68,123L 365.68,131 Z "/>
		<path fill="#000000" fill-opacity="1" stroke-linejoin="round" d="M 372.08,130.893C 371.772,131.071 371.366,131.16 370.863,131.16C 369.434,131.16 368.72,130.383 368.72,128.83L 368.72,124.12L 367.28,124.12L 367.28,123L 368.72,123L 368.72,121.02L 370,120.6L 370,123L 372.08,123L 372.08,124.12L 370,124.12L 370,128.568C 370,129.098 370.094,129.475 370.283,129.701C 370.471,129.927 370.783,130.04 371.218,130.04C 371.551,130.04 371.838,129.933 372.08,129.72L 372.08,130.893 Z "/>
		<path fill="#000000" fill-opacity="1" stroke-linejoin="round" d="M 380.08,123L 376.417,132.295C 375.772,133.992 374.867,134.84 373.7,134.84C 373.373,134.84 373.1,134.805 372.88,134.735L 372.88,133.56C 373.15,133.667 373.397,133.72 373.622,133.72C 374.254,133.72 374.728,133.327 375.042,132.542L 375.67,131L 372.56,123L 373.983,123L 376.13,129.17C 376.155,129.248 376.209,129.452 376.292,129.78L 376.34,129.78C 376.365,129.655 376.417,129.457 376.495,129.185L 378.75,123L 380.08,123 Z "/>
	</g>
</svg>
