<?xml version="1.0" encoding="utf-8"?>
<!DOCTYPE svg PUBLIC "-//W3C//DTD SVG 1.1//EN" "http://www.w3.org/Graphics/SVG/1.1/DTD/svg11.dtd">
<svg xmlns="http://www.w3.org/2000/svg" xmlns:xlink="http://www.w3.org/1999/xlink" version="1.1" baseProfile="full" width="280" height="280" viewBox="0 0 280.00 280.00" enable-background="new 0 0 280.00 280.00" xml:space="preserve">
	<path fill="#000000" fill-opacity="0.262745" stroke-width="1.33333" stroke-linejoin="miter" d="M 0,19L 19,19L 19,3.05176e-005L 21,3.05176e-005L 21,19L 259,19L 259,-3.05176e-005L 261,-3.05176e-005L 261,19L 280,19L 280,21L 261,21L 261,259L 280,259L 280,261L 261,261L 261,280L 259,280L 259,261L 21,261L 21,280L 19,280L 19,261L 3.05176e-005,261L 3.05176e-005,259L 19,259L 19,21L 0,21L 0,19 Z M 21,21L 21,259L 259,259L 259,21L 21,21 Z "/>
	<path fill="#000000" fill-opacity="0.203922" stroke-width="1.33333" stroke-linejoin="miter" d="M -1.4623e-005,139L 139,139L 139,3.05176e-005L 141,3.05176e-005L 141,139L 280,139L 280,141L 141,141L 141,280L 139,280L 139,141L -1.4623e-005,141L -1.4623e-005,139 Z "/>
	<path fill="#000000" fill-opacity="0.0509804" stroke-width="1.33333" stroke-linejoin="miter" d="M -1.01725e-005,39L 39,39L 39,3.05176e-005L 41,3.05176e-005L 41,39L 59,39L 59,3.05176e-005L 61,3.05176e-005L 61,39L 79,39L 79,3.05176e-005L 81,3.05176e-005L 81,39L 99,39L 99,3.05176e-005L 101,3.05176e-005L 101,39L 119,39L 119,3.05176e-005L 121,3.05176e-005L 121,39L 159,39L 159,3.05176e-005L 161,3.05176e-005L 161,39L 179,39L 179,0L 181,0L 181,39L 199,39L 199,3.05176e-005L 201,3.05176e-005L 201,39L 219,39L 219,0L 221,0L 221,39L 239,39L 239,3.05176e-005L 241,3.05176e-005L 241,39L 280,39L 280,41L 241,41L 241,59.0002L 280,59.0002L 280,61.0002L 241,61.0002L 241,79.0002L 280,79.0002L 280,81.0002L 241,81.0002L 241,99.0001L 280,99.0001L 280,101L 241,101L 241,119L 280,119L 280,121L 241,121L 241,159L 280,159L 280,161L 241,161L 241,179L 280,179L 280,181L 241,181L 241,199L 280,199L 280,201L 241,201L 241,219L 280,219L 280,221L 241,221L 241,239L 280,239L 280,241L 241,241L 241,280L 239,280L 239,241L 221,241L 221,280L 219,280L 219,241L 201,241L 201,280L 199,280L 199,241L 181,241L 181,280L 179,280L 179,241L 161,241L 161,280L 159,280L 159,241L 121,241L 121,280L 119,280L 119,241L 101,241L 101,280L 99,280L 99,241L 81,241L 81,280L 79,280L 79,241L 61,241L 61,280L 59,280L 59,241L 41,241L 41,280L 39,280L 39,241L -3.17891e-007,241L -3.17891e-007,239L 39,239L 39,221L 9.85463e-006,221L 9.85463e-006,219L 39,219L 39,201L -3.17891e-007,201L -3.17891e-007,199L 39,199L 39,181L 9.85463e-006,181L 9.85463e-006,179L 39,179L 39,161L -2.47955e-005,161L -2.47955e-005,159L 39,159L 39,121L -2.47955e-005,121L -2.47955e-005,119L 39,119L 39,101L -1.4623e-005,101L -1.4623e-005,99.0001L 39,99.0001L 39,81.0002L -1.01725e-005,81.0002L -1.01725e-005,79.0002L 39,79.0002L 39,61.0002L 0,61.0002L 0,59.0002L 39,59.0002L 39,41L -1.01725e-005,41L -1.01725e-005,39 Z M 221,41L 221,59.0002L 239,59.0002L 239,41L 221,41 Z M 221,61.0002L 221,79.0002L 239,79.0002L 239,61.0002L 221,61.0002 Z M 221,81.0002L 221,99.0002L 239,99.0002L 239,81.0002L 221,81.0002 Z M 221,101L 221,119L 239,119L 239,101L 221,101 Z M 221,121L 221,159L 239,159L 239,121L 221,121 Z M 221,161L 221,179L 239,179L 239,161L 221,161 Z M 221,181L 221,199L 239,199L 239,181L 221,181 Z M 221,201L 221,219L 239,219L 239,201L 221,201 Z M 221,221L 221,239L 239,239L 239,221L 221,221 Z M 201,41.0001L 201,59.0002L 219,59.0002L 219,41.0001L 201,41.0001 Z M 201,61.0002L 201,79.0002L 219,79.0002L 219,61.0002L 201,61.0002 Z M 201,81.0002L 201,99.0002L 219,99.0002L 219,81.0002L 201,81.0002 Z M 201,101L 201,119L 219,119L 219,101L 201,101 Z M 201,121L 201,159L 219,159L 219,121L 201,121 Z M 201,161L 201,179L 219,179L 219,161L 201,161 Z M 201,181L 201,199L 219,199L 219,181L 201,181 Z M 201,201L 201,219L 219,219L 219,201L 201,201 Z M 201,221L 201,239L 219,239L 219,221L 201,221 Z M 181,41.0001L 181,59.0003L 199,59.0003L 199,41.0001L 181,41.0001 Z M 181,61.0003L 181,79.0002L 199,79.0002L 199,61.0003L 181,61.0003 Z M 181,81.0002L 181,99.0002L 199,99.0002L 199,81.0002L 181,81.0002 Z M 181,101L 181,119L 199,119L 199,101L 181,101 Z M 181,121L 181,159L 199,159L 199,121L 181,121 Z M 181,161L 181,179L 199,179L 199,161L 181,161 Z M 181,181L 181,199L 199,199L 199,181L 181,181 Z M 181,201L 181,219L 199,219L 199,201L 181,201 Z M 181,221L 181,239L 199,239L 199,221L 181,221 Z M 161,41.0001L 161,59.0003L 179,59.0003L 179,41.0001L 161,41.0001 Z M 161,61.0003L 161,79.0002L 179,79.0002L 179,61.0003L 161,61.0003 Z M 161,81.0002L 161,99.0002L 179,99.0002L 179,81.0002L 161,81.0002 Z M 161,101L 161,119L 179,119L 179,101L 161,101 Z M 161,121L 161,159L 179,159L 179,121L 161,121 Z M 161,161L 161,179L 179,179L 179,161L 161,161 Z M 161,181L 161,199L 179,199L 179,181L 161,181 Z M 161,201L 161,219L 179,219L 179,201L 161,201 Z M 161,221L 161,239L 179,239L 179,221L 161,221 Z M 121,41.0001L 121,59.0003L 159,59.0003L 159,41.0001L 121,41.0001 Z M 121,61.0003L 121,79.0003L 159,79.0003L 159,61.0003L 121,61.0003 Z M 121,81.0003L 121,99.0002L 159,99.0002L 159,81.0003L 121,81.0003 Z M 121,101L 121,119L 159,119L 159,101L 121,101 Z M 121,121L 121,159L 159,159L 159,121L 121,121 Z M 121,161L 121,179L 159,179L 159,161L 121,161 Z M 121,181L 121,199L 159,199L 159,181L 121,181 Z M 121,201L 121,219L 159,219L 159,201L 121,201 Z M 121,221L 121,239L 159,239L 159,221L 121,221 Z M 101,41.0001L 101,59.0003L 119,59.0003L 119,41.0001L 101,41.0001 Z M 101,61.0003L 101,79.0003L 119,79.0003L 119,61.0003L 101,61.0003 Z M 101,81.0003L 101,99.0003L 119,99.0003L 119,81.0003L 101,81.0003 Z M 101,101L 101,119L 119,119L 119,101L 101,101 Z M 101,121L 101,159L 119,159L 119,121L 101,121 Z M 101,161L 101,179L 119,179L 119,161L 101,161 Z M 101,181L 101,199L 119,199L 119,181L 101,181 Z M 101,201L 101,219L 119,219L 119,201L 101,201 Z M 101,221L 101,239L 119,239L 119,221L 101,221 Z M 81,41.0002L 81,59.0004L 98.9999,59.0004L 98.9999,41.0002L 81,41.0002 Z M 81,61.0004L 81,79.0003L 98.9999,79.0003L 98.9999,61.0004L 81,61.0004 Z M 81,81.0003L 81,99.0003L 98.9999,99.0003L 98.9999,81.0003L 81,81.0003 Z M 81,101L 81,119L 98.9999,119L 98.9999,101L 81,101 Z M 81,121L 81,159L 98.9999,159L 98.9999,121L 81,121 Z M 81,161L 81,179L 98.9999,179L 98.9999,161L 81,161 Z M 81,181L 81,199L 98.9999,199L 98.9999,181L 81,181 Z M 81,201L 81,219L 98.9999,219L 98.9999,201L 81,201 Z M 81,221L 81,239L 98.9999,239L 98.9999,221L 81,221 Z M 61,41.0002L 61,59.0004L 79,59.0004L 79,41.0002L 61,41.0002 Z M 61,61.0004L 61,79.0003L 79,79.0003L 79,61.0004L 61,61.0004 Z M 61,81.0003L 61,99.0003L 79,99.0003L 79,81.0003L 61,81.0003 Z M 61,101L 61,119L 79,119L 79,101L 61,101 Z M 61,121L 61,159L 79,159L 79,121L 61,121 Z M 61,161L 61,179L 79,179L 79,161L 61,161 Z M 61,181L 61,199L 79,199L 79,181L 61,181 Z M 61,201L 61,219L 79,219L 79,201L 61,201 Z M 61,221L 61,239L 79,239L 79,221L 61,221 Z M 41,41.0002L 41,59.0004L 59,59.0004L 59,41.0002L 41,41.0002 Z M 41,61.0004L 41,79.0004L 59,79.0004L 59,61.0004L 41,61.0004 Z M 41,81.0004L 41,99.0003L 59,99.0003L 59,81.0004L 41,81.0004 Z M 41,101L 41,119L 59,119L 59,101L 41,101 Z M 41,121L 41,159L 59,159L 59,121L 41,121 Z M 41,161L 41,179L 59,179L 59,161L 41,161 Z M 41,181L 41,199L 59,199L 59,181L 41,181 Z M 41,201L 41,219L 59,219L 59,201L 41,201 Z M 41,221L 41,239L 59,239L 59,221L 41,221 Z "/>
	<path fill="#000000" fill-opacity="0.101961" stroke-width="1.33333" stroke-linejoin="miter" d="M 0,29L 29,29L 29,3.05176e-005L 31,3.05176e-005L 31,29L 49,29L 49,3.05176e-005L 51,3.05176e-005L 51,29L 69,29L 69,3.05176e-005L 71,3.05176e-005L 71,29L 89,29L 89,3.05176e-005L 91,3.05176e-005L 91,29L 109,29L 109,3.05176e-005L 111,3.05176e-005L 111,29L 129,29L 129,3.05176e-005L 131,3.05176e-005L 131,29L 149,29L 149,3.05176e-005L 151,3.05176e-005L 151,29L 169,29L 169,3.05176e-005L 171,3.05176e-005L 171,29L 189,29L 189,0L 191,0L 191,29L 209,29L 209,3.05176e-005L 211,3.05176e-005L 211,29L 229,29L 229,0L 231,0L 231,29L 249,29L 249,3.05176e-005L 251,3.05176e-005L 251,29L 280,29L 280,31L 251,31L 251,49.0002L 280,49.0002L 280,51.0002L 251,51.0002L 251,69.0002L 280,69.0002L 280,71.0002L 251,71.0002L 251,89.0002L 280,89.0002L 280,91.0002L 251,91.0002L 251,109L 280,109L 280,111L 251,111L 251,129L 280,129L 280,131L 251,131L 251,149L 280,149L 280,151L 251,151L 251,169L 280,169L 280,171L 251,171L 251,189L 280,189L 280,191L 251,191L 251,209L 280,209L 280,211L 251,211L 251,229L 280,229L 280,231L 251,231L 251,249L 280,249L 280,251L 251,251L 251,280L 249,280L 249,251L 231,251L 231,280L 229,280L 229,251L 211,251L 211,280L 209,280L 209,251L 191,251L 191,280L 189,280L 189,251L 171,251L 171,280L 169,280L 169,251L 151,251L 151,280L 149,280L 149,251L 131,251L 131,280L 129,280L 129,251L 111,251L 111,280L 109,280L 109,251L 91,251L 91,280L 89,280L 89,251L 71,251L 71,280L 69,280L 69,251L 51,251L 51,280L 49,280L 49,251L 31,251L 31,280L 29,280L 29,251L -3.17891e-007,251L -3.17891e-007,249L 29,249L 29,231L 9.85463e-006,231L 9.85463e-006,229L 29,229L 29,211L -3.17891e-007,211L -3.17891e-007,209L 29,209L 29,191L 9.85463e-006,191L 9.85463e-006,189L 29,189L 29,171L -2.47955e-005,171L -2.47955e-005,169L 29,169L 29,151L -1.4623e-005,151L -1.4623e-005,149L 29,149L 29,131L -2.47955e-005,131L -2.47955e-005,129L 29,129L 29,111L -1.4623e-005,111L -1.4623e-005,109L 29,109L 29,91.0002L -1.01725e-005,91.0002L -1.01725e-005,89.0002L 29,89.0002L 29,71.0002L 0,71.0002L 0,69.0002L 29,69.0002L 29,51.0002L -1.01725e-005,51.0002L -1.01725e-005,49.0002L 29,49.0002L 29,31L 0,31L 0,29 Z M 231,31L 231,49.0002L 249,49.0002L 249,31L 231,31 Z M 231,51.0002L 231,69.0002L 249,69.0002L 249,51.0002L 231,51.0002 Z M 231,71.0002L 231,89.0002L 249,89.0002L 249,71.0002L 231,71.0002 Z M 231,91.0002L 231,109L 249,109L 249,91.0002L 231,91.0002 Z M 231,111L 231,129L 249,129L 249,111L 231,111 Z M 231,131L 231,149L 249,149L 249,131L 231,131 Z M 231,151L 231,169L 249,169L 249,151L 231,151 Z M 231,171L 231,189L 249,189L 249,171L 231,171 Z M 231,191L 231,209L 249,209L 249,191L 231,191 Z M 231,211L 231,229L 249,229L 249,211L 231,211 Z M 231,231L 231,249L 249,249L 249,231L 231,231 Z M 211,31L 211,49.0003L 229,49.0003L 229,31L 211,31 Z M 211,51.0003L 211,69.0002L 229,69.0002L 229,51.0003L 211,51.0003 Z M 211,71.0002L 211,89.0002L 229,89.0002L 229,71.0002L 211,71.0002 Z M 211,91.0002L 211,109L 229,109L 229,91.0002L 211,91.0002 Z M 211,111L 211,129L 229,129L 229,111L 211,111 Z M 211,131L 211,149L 229,149L 229,131L 211,131 Z M 211,151L 211,169L 229,169L 229,151L 211,151 Z M 211,171L 211,189L 229,189L 229,171L 211,171 Z M 211,191L 211,209L 229,209L 229,191L 211,191 Z M 211,211L 211,229L 229,229L 229,211L 211,211 Z M 211,231L 211,249L 229,249L 229,231L 211,231 Z M 191,31.0001L 191,49.0003L 209,49.0003L 209,31.0001L 191,31.0001 Z M 191,51.0003L 191,69.0003L 209,69.0003L 209,51.0003L 191,51.0003 Z M 191,71.0003L 191,89.0002L 209,89.0002L 209,71.0003L 191,71.0003 Z M 191,91.0002L 191,109L 209,109L 209,91.0002L 191,91.0002 Z M 191,111L 191,129L 209,129L 209,111L 191,111 Z M 191,131L 191,149L 209,149L 209,131L 191,131 Z M 191,151L 191,169L 209,169L 209,151L 191,151 Z M 191,171L 191,189L 209,189L 209,171L 191,171 Z M 191,191L 191,209L 209,209L 209,191L 191,191 Z M 191,211L 191,229L 209,229L 209,211L 191,211 Z M 191,231L 191,249L 209,249L 209,231L 191,231 Z M 171,31.0001L 171,49.0003L 189,49.0003L 189,31.0001L 171,31.0001 Z M 171,51.0003L 171,69.0003L 189,69.0003L 189,51.0003L 171,51.0003 Z M 171,71.0003L 171,89.0003L 189,89.0003L 189,71.0003L 171,71.0003 Z M 171,91.0003L 171,109L 189,109L 189,91.0003L 171,91.0003 Z M 171,111L 171,129L 189,129L 189,111L 171,111 Z M 171,131L 171,149L 189,149L 189,131L 171,131 Z M 171,151L 171,169L 189,169L 189,151L 171,151 Z M 171,171L 171,189L 189,189L 189,171L 171,171 Z M 171,191L 171,209L 189,209L 189,191L 171,191 Z M 171,211L 171,229L 189,229L 189,211L 171,211 Z M 171,231L 171,249L 189,249L 189,231L 171,231 Z M 151,31.0001L 151,49.0003L 169,49.0003L 169,31.0001L 151,31.0001 Z M 151,51.0003L 151,69.0003L 169,69.0003L 169,51.0003L 151,51.0003 Z M 151,71.0003L 151,89.0003L 169,89.0003L 169,71.0003L 151,71.0003 Z M 151,91.0003L 151,109L 169,109L 169,91.0003L 151,91.0003 Z M 151,111L 151,129L 169,129L 169,111L 151,111 Z M 151,131L 151,149L 169,149L 169,131L 151,131 Z M 151,151L 151,169L 169,169L 169,151L 151,151 Z M 151,171L 151,189L 169,189L 169,171L 151,171 Z M 151,191L 151,209L 169,209L 169,191L 151,191 Z M 151,211L 151,229L 169,229L 169,211L 151,211 Z M 151,231L 151,249L 169,249L 169,231L 151,231 Z M 131,31.0001L 131,49.0004L 149,49.0004L 149,31.0001L 131,31.0001 Z M 131,51.0004L 131,69.0003L 149,69.0003L 149,51.0004L 131,51.0004 Z M 131,71.0003L 131,89.0003L 149,89.0003L 149,71.0003L 131,71.0003 Z M 131,91.0003L 131,109L 149,109L 149,91.0003L 131,91.0003 Z M 131,111L 131,129L 149,129L 149,111L 131,111 Z M 131,131L 131,149L 149,149L 149,131L 131,131 Z M 131,151L 131,169L 149,169L 149,151L 131,151 Z M 131,171L 131,189L 149,189L 149,171L 131,171 Z M 131,191L 131,209L 149,209L 149,191L 131,191 Z M 131,211L 131,229L 149,229L 149,211L 131,211 Z M 131,231L 131,249L 149,249L 149,231L 131,231 Z M 111,31.0001L 111,49.0004L 129,49.0004L 129,31.0001L 111,31.0001 Z M 111,51.0004L 111,69.0004L 129,69.0004L 129,51.0004L 111,51.0004 Z M 111,71.0004L 111,89.0003L 129,89.0003L 129,71.0004L 111,71.0004 Z M 111,91.0003L 111,109L 129,109L 129,91.0003L 111,91.0003 Z M 111,111L 111,129L 129,129L 129,111L 111,111 Z M 111,131L 111,149L 129,149L 129,131L 111,131 Z M 111,151L 111,169L 129,169L 129,151L 111,151 Z M 111,171L 111,189L 129,189L 129,171L 111,171 Z M 111,191L 111,209L 129,209L 129,191L 111,191 Z M 111,211L 111,229L 129,229L 129,211L 111,211 Z M 111,231L 111,249L 129,249L 129,231L 111,231 Z M 90.9999,31.0002L 90.9999,49.0004L 109,49.0004L 109,31.0002L 90.9999,31.0002 Z M 90.9999,51.0004L 90.9999,69.0004L 109,69.0004L 109,51.0004L 90.9999,51.0004 Z M 90.9999,71.0004L 90.9999,89.0004L 109,89.0004L 109,71.0004L 90.9999,71.0004 Z M 90.9999,91.0004L 90.9999,109L 109,109L 109,91.0004L 90.9999,91.0004 Z M 90.9999,111L 90.9999,129L 109,129L 109,111L 90.9999,111 Z M 90.9999,131L 90.9999,149L 109,149L 109,131L 90.9999,131 Z M 90.9999,151L 90.9999,169L 109,169L 109,151L 90.9999,151 Z M 90.9999,171L 90.9999,189L 109,189L 109,171L 90.9999,171 Z M 90.9999,191L 90.9999,209L 109,209L 109,191L 90.9999,191 Z M 90.9999,211L 90.9999,229L 109,229L 109,211L 90.9999,211 Z M 90.9999,231L 90.9999,249L 109,249L 109,231L 90.9999,231 Z M 71,31.0002L 71,49.0004L 88.9999,49.0004L 88.9999,31.0002L 71,31.0002 Z M 71,51.0004L 71,69.0004L 88.9999,69.0004L 88.9999,51.0004L 71,51.0004 Z M 71,71.0004L 71,89.0004L 88.9999,89.0004L 88.9999,71.0004L 71,71.0004 Z M 71,91.0004L 71,109L 88.9999,109L 88.9999,91.0004L 71,91.0004 Z M 71,111L 71,129L 88.9999,129L 88.9999,111L 71,111 Z M 71,131L 71,149L 88.9999,149L 88.9999,131L 71,131 Z M 71,151L 71,169L 88.9999,169L 88.9999,151L 71,151 Z M 71,171L 71,189L 88.9999,189L 88.9999,171L 71,171 Z M 71,191L 71,209L 88.9999,209L 88.9999,191L 71,191 Z M 71,211L 71,229L 88.9999,229L 88.9999,211L 71,211 Z M 71,231L 71,249L 88.9999,249L 88.9999,231L 71,231 Z M 51,31.0002L 51,49.0004L 68.9999,49.0004L 68.9999,31.0002L 51,31.0002 Z M 51,51.0004L 51,69.0004L 68.9999,69.0004L 68.9999,51.0004L 51,51.0004 Z M 51,71.0004L 51,89.0004L 68.9999,89.0004L 68.9999,71.0004L 51,71.0004 Z M 51,91.0004L 51,109L 68.9999,109L 68.9999,91.0004L 51,91.0004 Z M 51,111L 51,129L 68.9999,129L 68.9999,111L 51,111 Z M 51,131L 51,149L 68.9999,149L 68.9999,131L 51,131 Z M 51,151L 51,169L 68.9999,169L 68.9999,151L 51,151 Z M 51,171L 51,189L 68.9999,189L 68.9999,171L 51,171 Z M 51,191L 51,209L 68.9999,209L 68.9999,191L 51,191 Z M 51,211L 51,229L 68.9999,229L 68.9999,211L 51,211 Z M 51,231L 51,249L 68.9999,249L 68.9999,231L 51,231 Z M 31,31.0002L 31,49.0004L 48.9999,49.0004L 48.9999,31.0002L 31,31.0002 Z M 31,51.0004L 31,69.0004L 48.9999,69.0004L 48.9999,51.0004L 31,51.0004 Z M 31,71.0004L 31,89.0004L 48.9999,89.0004L 48.9999,71.0004L 31,71.0004 Z M 31,91.0004L 31,109L 48.9999,109L 48.9999,91.0004L 31,91.0004 Z M 31,111L 31,129L 48.9999,129L 48.9999,111L 31,111 Z M 31,131L 31,149L 48.9999,149L 48.9999,131L 31,131 Z M 31,151L 31,169L 48.9999,169L 48.9999,151L 31,151 Z M 31,171L 31,189L 48.9999,189L 48.9999,171L 31,171 Z M 31,191L 31,209L 48.9999,209L 48.9999,191L 31,191 Z M 31,211L 31,229L 48.9999,229L 48.9999,211L 31,211 Z M 31,231L 31,249L 48.9999,249L 48.9999,231L 31,231 Z "/>
	<path fill="#000000" fill-opacity="0.101961" stroke-width="1.33333" stroke-linejoin="miter" d="M 5.08626e-005,9L 9,9L 9,-3.05176e-005L 11,-3.05176e-005L 11,9L 269,9L 269,0L 271,0L 271,9L 280,9L 280,11L 271,11L 271,269L 280,269L 280,271L 271,271L 271,280L 269,280L 269,271L 11,271L 11,280L 9,280L 9,271L 2.03451e-005,271L 2.03451e-005,269L 9,269L 9,11L 5.08626e-005,11L 5.08626e-005,9 Z M 11,11L 11,269L 269,269L 269,11L 11,11 Z "/>
</svg>
