<?xml version="1.0" encoding="utf-8"?>
<!DOCTYPE svg PUBLIC "-//W3C//DTD SVG 1.1//EN" "http://www.w3.org/Graphics/SVG/1.1/DTD/svg11.dtd">
<svg xmlns="http://www.w3.org/2000/svg" xmlns:xlink="http://www.w3.org/1999/xlink" version="1.1" baseProfile="full" width="240" height="240" viewBox="0 0 240.00 240.00" enable-background="new 0 0 240.00 240.00" xml:space="preserve">
	<path fill="#000000" fill-opacity="0.262745" stroke-width="0.2" stroke-linejoin="miter" d="M 0.00144543,19.2875L 19.2869,19.2875L 19.2869,0.00183105L 20.7155,0.00183105L 20.7155,19.2875L 219.285,19.2868L 219.285,0.00111389L 220.714,0.00111389L 220.714,19.2868L 239.999,19.2868L 239.999,20.7153L 220.714,20.7153L 220.714,219.285L 240,219.285L 240,220.713L 220.714,220.713L 220.714,239.999L 219.286,239.999L 219.286,220.713L 20.7155,220.713L 20.7155,239.999L 19.287,239.999L 19.287,220.713L 0.00146723,220.713L 0.00146723,219.285L 19.287,219.285L 19.2869,20.716L 0.00144543,20.716L 0.00144543,19.2875 Z M 20.7155,20.716L 20.7155,219.285L 219.286,219.285L 219.285,20.7153L 20.7155,20.716 Z "/>
	<path fill="#000000" fill-opacity="0.203922" stroke-width="0.2" stroke-linejoin="miter" d="M 0.00142363,119.286L 119.286,119.286L 119.286,0.00141907L 120.714,0.00141907L 120.715,119.286L 239.999,119.286L 239.999,120.714L 120.715,120.714L 120.715,239.999L 119.286,239.999L 119.286,120.714L 0.00142363,120.714L 0.00142363,119.286 Z "/>
	<path fill="#000000" fill-opacity="0.0509804" stroke-width="0.2" stroke-linejoin="miter" d="M 200.713,39.2879L 239.998,39.2878L 239.998,40.7164L 200.713,40.7164L 200.713,59.2875L 239.998,59.2875L 239.998,60.716L 200.713,60.716L 200.713,79.2867L 239.998,79.2866L 239.998,80.7152L 200.713,80.7152L 200.713,99.2863L 239.998,99.2862L 239.998,100.715L 200.713,100.715L 200.714,139.286L 239.999,139.286L 239.999,140.714L 200.714,140.714L 200.714,159.285L 239.999,159.285L 239.999,160.714L 200.714,160.714L 200.714,179.285L 240,179.285L 240,180.714L 200.714,180.714L 200.714,199.285L 240,199.285L 240,200.714L 200.714,200.714L 200.714,239.999L 199.286,239.999L 199.286,200.714L 180.714,200.714L 180.714,239.999L 179.286,239.999L 179.286,200.714L 160.714,200.714L 160.714,239.999L 159.286,239.999L 159.285,200.714L 140.714,200.714L 140.714,239.999L 139.286,239.999L 139.286,200.714L 100.714,200.714L 100.714,239.999L 99.2859,239.999L 99.2858,200.714L 80.7145,200.714L 80.7146,239.999L 79.2861,239.999L 79.2859,200.714L 60.7148,200.714L 60.7149,239.999L 59.2863,239.999L 59.2863,200.714L 40.7151,200.714L 40.7152,239.999L 39.2866,239.999L 39.2866,200.714L 0.00128905,200.714L 0.00128905,199.286L 39.2865,199.285L 39.2865,180.714L 0.00128905,180.714L 0.00128905,179.286L 39.2865,179.286L 39.2865,160.715L 0.00128905,160.715L 0.00128905,159.287L 39.2865,159.286L 39.2864,140.715L 0.00128905,140.715L 0.00128905,139.287L 39.2864,139.287L 39.2856,100.716L 0.000475252,100.716L 0.000475252,99.2875L 39.2856,99.2872L 39.2855,80.717L 0.000300867,80.7176L 0.000300867,79.2891L 39.2855,79.2885L 39.2853,60.7179L 0.000126482,60.7185L 0.000126482,59.29L 39.2853,59.2894L 39.2851,40.7183L 1.02247e-005,40.7189L 1.02247e-005,39.2903L 39.2851,39.2897L 39.2841,0.00062561L 40.7126,0.00062561L 40.7136,39.2898L 59.2846,39.2897L 59.2836,0.00062561L 60.7121,0.00062561L 60.7132,39.2897L 79.2844,39.2895L 79.2833,0.00062561L 80.7119,0.00062561L 80.7129,39.2895L 99.2842,39.2891L 99.2832,0.00062561L 100.712,0.00062561L 100.713,39.289L 139.284,39.2885L 139.283,0.00062561L 140.711,0.00062561L 140.713,39.2884L 159.284,39.2883L 159.283,0.00062561L 160.711,0.00062561L 160.712,39.2883L 179.284,39.2881L 179.283,0.00062561L 180.711,0.00062561L 180.712,39.2881L 199.284,39.288L 199.283,0.00062561L 200.711,0.00062561L 200.713,39.2879 Z M 180.712,40.7167L 180.713,59.2878L 199.284,59.2876L 199.284,40.7166L 180.712,40.7167 Z M 180.713,60.7163L 180.713,79.2869L 199.284,79.2868L 199.284,60.7161L 180.713,60.7163 Z M 180.713,80.7155L 180.713,99.2864L 199.284,99.2863L 199.284,80.7153L 180.713,80.7155 Z M 180.713,100.715L 180.714,139.286L 199.285,139.286L 199.284,100.715L 180.713,100.715 Z M 180.714,140.714L 180.714,159.286L 199.285,159.285L 199.285,140.714L 180.714,140.714 Z M 180.714,160.714L 180.714,179.285L 199.285,179.285L 199.285,160.714L 180.714,160.714 Z M 180.714,180.714L 180.714,199.285L 199.285,199.285L 199.285,180.714L 180.714,180.714 Z M 160.712,40.7169L 160.712,59.2879L 179.284,59.2878L 179.284,40.7167L 160.712,40.7169 Z M 160.712,60.7165L 160.713,79.2871L 179.284,79.287L 179.284,60.7164L 160.712,60.7165 Z M 160.713,80.7156L 160.713,99.2865L 179.284,99.2864L 179.284,80.7155L 160.713,80.7156 Z M 160.713,100.715L 160.714,139.286L 179.285,139.286L 179.284,100.715L 160.713,100.715 Z M 160.714,140.714L 160.714,159.286L 179.285,159.286L 179.285,140.714L 160.714,140.714 Z M 160.714,160.714L 160.714,179.285L 179.285,179.285L 179.285,160.714L 160.714,160.714 Z M 160.714,180.714L 160.714,199.285L 179.285,199.285L 179.285,180.714L 160.714,180.714 Z M 140.712,40.717L 140.713,59.2881L 159.284,59.2879L 159.284,40.7169L 140.712,40.717 Z M 140.713,60.7166L 140.713,79.2873L 159.284,79.2871L 159.284,60.7165L 140.713,60.7166 Z M 140.713,80.7158L 140.713,99.2866L 159.284,99.2865L 159.284,80.7156L 140.713,80.7158 Z M 140.713,100.715L 140.714,139.286L 159.285,139.286L 159.284,100.715L 140.713,100.715 Z M 140.714,140.714L 140.714,159.286L 159.285,159.286L 159.285,140.714L 140.714,140.714 Z M 140.714,160.714L 140.714,179.285L 159.285,179.285L 159.285,160.714L 140.714,160.714 Z M 140.714,180.714L 140.714,199.285L 159.285,199.285L 159.285,180.714L 140.714,180.714 Z M 100.713,40.7176L 100.713,59.2887L 139.284,59.2881L 139.284,40.7171L 100.713,40.7176 Z M 100.713,60.7172L 100.713,79.2878L 139.284,79.2873L 139.284,60.7167L 100.713,60.7172 Z M 100.713,80.7164L 100.713,99.2869L 139.284,99.2866L 139.284,80.7158L 100.713,80.7164 Z M 100.713,100.715L 100.714,139.286L 139.285,139.286L 139.284,100.715L 100.713,100.715 Z M 100.714,140.715L 100.714,159.286L 139.285,159.286L 139.285,140.714L 100.714,140.715 Z M 100.714,160.715L 100.714,179.285L 139.286,179.285L 139.285,160.714L 100.714,160.715 Z M 100.714,180.714L 100.714,199.285L 139.286,199.285L 139.286,180.714L 100.714,180.714 Z M 80.7129,40.7181L 80.7131,59.2892L 99.2843,59.2887L 99.2842,40.7177L 80.7129,40.7181 Z M 80.7131,60.7177L 80.7132,79.2883L 99.2845,79.2878L 99.2843,60.7172L 80.7131,60.7177 Z M 80.7132,80.7168L 80.7133,99.2871L 99.2846,99.2869L 99.2845,80.7164L 80.7132,80.7168 Z M 80.7133,100.716L 80.7142,139.286L 99.2854,139.286L 99.2846,100.715L 80.7133,100.716 Z M 80.7142,140.715L 80.7142,159.286L 99.2855,159.286L 99.2854,140.715L 80.7142,140.715 Z M 80.7142,160.715L 80.7143,179.286L 99.2856,179.285L 99.2855,160.715L 80.7142,160.715 Z M 80.7143,180.714L 80.7143,199.285L 99.2856,199.285L 99.2856,180.714L 80.7143,180.714 Z M 60.7132,40.7182L 60.7133,59.2893L 79.2845,59.2892L 79.2843,40.7181L 60.7132,40.7182 Z M 60.7133,60.7178L 60.7135,79.2885L 79.2847,79.2883L 79.2845,60.7177L 60.7133,60.7178 Z M 60.7135,80.717L 60.7137,99.2872L 79.2848,99.2871L 79.2847,80.7168L 60.7135,80.717 Z M 60.7137,100.716L 60.7145,139.287L 79.2856,139.286L 79.2848,100.716L 60.7137,100.716 Z M 60.7145,140.715L 60.7146,159.286L 79.2857,159.286L 79.2856,140.715L 60.7145,140.715 Z M 60.7146,160.715L 60.7146,179.286L 79.2857,179.286L 79.2857,160.715L 60.7146,160.715 Z M 60.7146,180.714L 60.7146,199.285L 79.2858,199.285L 79.2857,180.714L 60.7146,180.714 Z M 40.7136,40.7184L 40.7138,59.2894L 59.2847,59.2893L 59.2846,40.7182L 40.7136,40.7184 Z M 40.7138,60.718L 40.7139,79.2886L 59.2849,79.2885L 59.2847,60.7178L 40.7138,60.718 Z M 40.7139,80.7171L 40.7141,99.2872L 59.2851,99.2872L 59.2849,80.717L 40.7139,80.7171 Z M 40.7141,100.716L 40.7149,139.287L 59.286,139.287L 59.2851,100.716L 40.7141,100.716 Z M 40.7149,140.715L 40.7149,159.286L 59.286,159.286L 59.286,140.715L 40.7149,140.715 Z M 40.7149,160.715L 40.715,179.286L 59.286,179.286L 59.286,160.715L 40.7149,160.715 Z M 40.715,180.714L 40.715,199.285L 59.2861,199.285L 59.286,180.714L 40.715,180.714 Z "/>
	<path fill="#000000" fill-opacity="0.101961" stroke-width="0.2" stroke-linejoin="miter" d="M 210.713,210.714L 210.713,239.999L 209.284,239.999L 209.284,210.714L 190.713,210.714L 190.713,239.999L 189.285,239.999L 189.285,210.714L 170.713,210.714L 170.714,239.999L 169.285,239.999L 169.285,210.714L 150.714,210.714L 150.714,239.999L 149.285,239.999L 149.285,210.714L 130.715,210.714L 130.715,239.999L 129.286,239.999L 129.286,210.714L 110.715,210.713L 110.715,239.999L 109.286,239.999L 109.286,210.713L 90.7147,210.714L 90.7147,239.999L 89.2862,239.999L 89.2861,210.714L 70.7147,210.714L 70.7148,239.999L 69.2863,239.999L 69.2862,210.714L 50.7148,210.714L 50.7148,239.999L 49.2862,239.999L 49.2862,210.714L 30.7148,210.714L 30.7149,239.999L 29.2863,239.999L 29.2863,210.714L 0.00128905,210.714L 0.00128905,209.285L 29.286,209.285L 29.286,190.714L 0.00128905,190.715L 0.00128905,189.286L 29.286,189.286L 29.2859,170.714L 0.00128905,170.715L 0.00128905,169.286L 29.2859,169.286L 29.2859,150.715L 0.00128905,150.715L 0.00128905,149.287L 29.2859,149.286L 29.2859,130.715L 0.00128905,130.715L 0.00128905,129.286L 29.2859,129.286L 29.2859,110.715L 0.00128905,110.715L 0.00128905,109.286L 29.2859,109.286L 29.2859,90.716L 0.00128905,90.7164L 0.00128905,89.2879L 29.2859,89.2875L 29.2859,70.7172L 0.00128905,70.7179L 0.00128905,69.2894L 29.2859,69.2887L 29.2859,50.718L 0.00128905,50.7187L 0.00128905,49.2902L 29.2859,49.2894L 29.2858,30.7183L 0.00128905,30.7191L 0.00128905,29.2905L 29.286,29.2897L 29.286,0.00115967L 30.7146,0.00115967L 30.7146,29.2897L 49.2858,29.2895L 49.2858,0.0010376L 50.7143,0.0010376L 50.7144,29.2895L 69.2854,29.2894L 69.2853,0.000915527L 70.7139,0.000915527L 70.714,29.2893L 89.2853,29.2892L 89.2852,0.000808716L 90.7138,0.000808716L 90.7139,29.2891L 109.285,29.289L 109.285,0.000686646L 110.713,0.000686646L 110.713,29.289L 129.286,29.2892L 129.286,0.00062561L 130.715,0.00062561L 130.715,29.2893L 149.284,29.2897L 149.284,0.00151062L 150.712,0.00151062L 150.712,29.2897L 169.284,29.2898L 169.283,0.00169373L 170.712,0.00169373L 170.712,29.2897L 189.282,29.2898L 189.282,0.00178528L 190.71,0.00178528L 190.711,29.2898L 209.282,29.2899L 209.282,0.00196838L 210.71,0.00196838L 210.71,29.2899L 240,29.2905L 240,30.719L 210.71,30.7184L 210.711,49.2895L 240,49.2901L 240,50.7187L 210.711,50.7181L 210.711,69.289L 240,69.2896L 240,70.7182L 210.711,70.7175L 210.711,89.2875L 240,89.2878L 240,90.7163L 210.711,90.716L 210.712,109.286L 240,109.286L 240,110.714L 210.712,110.714L 210.712,129.286L 240,129.286L 240,130.714L 210.712,130.714L 210.712,149.286L 240,149.287L 240,150.715L 210.712,150.715L 210.712,169.286L 240,169.286L 240,170.715L 210.712,170.715L 210.712,189.286L 240,189.286L 240,190.715L 210.712,190.714L 210.713,209.285L 240,209.285L 240,210.714L 210.713,210.714 Z M 190.71,30.7185L 190.711,49.2896L 209.282,49.2897L 209.282,30.7186L 190.71,30.7185 Z M 190.711,50.7181L 190.711,69.289L 209.282,69.2892L 209.282,50.7182L 190.711,50.7181 Z M 190.711,70.7175L 190.711,89.2875L 209.282,89.2876L 209.282,70.7177L 190.711,70.7175 Z M 190.711,90.716L 190.712,109.286L 209.283,109.286L 209.282,90.7161L 190.711,90.716 Z M 190.712,129.286L 209.283,129.286L 209.283,110.714L 190.712,110.714L 190.712,129.286 Z M 190.712,149.286L 209.284,149.286L 209.283,130.714L 190.712,130.714L 190.712,149.286 Z M 190.712,150.715L 190.712,169.286L 209.283,169.286L 209.284,150.715L 190.712,150.715 Z M 190.712,170.715L 190.713,189.286L 209.284,189.286L 209.283,170.715L 190.712,170.715 Z M 190.713,190.714L 190.713,209.285L 209.284,209.285L 209.284,190.714L 190.713,190.714 Z M 170.712,30.7184L 170.712,49.2895L 189.282,49.2896L 189.282,30.7185L 170.712,30.7184 Z M 170.712,50.7181L 170.712,69.2889L 189.282,69.289L 189.282,50.7181L 170.712,50.7181 Z M 170.712,70.7175L 170.712,89.2875L 189.283,89.2876L 189.282,70.7175L 170.712,70.7175 Z M 170.712,90.716L 170.712,109.286L 189.283,109.286L 189.283,90.716L 170.712,90.716 Z M 170.713,129.286L 189.283,129.286L 189.283,110.714L 170.712,110.714L 170.713,129.286 Z M 170.713,149.286L 189.284,149.286L 189.283,130.714L 170.713,130.714L 170.713,149.286 Z M 170.713,150.715L 170.713,169.286L 189.283,169.286L 189.284,150.715L 170.713,150.715 Z M 170.713,170.715L 170.713,189.286L 189.284,189.286L 189.283,170.715L 170.713,170.715 Z M 170.713,190.714L 170.713,209.285L 189.284,209.285L 189.284,190.714L 170.713,190.714 Z M 150.712,30.7183L 150.712,49.2894L 169.283,49.2895L 169.283,30.7184L 150.712,30.7183 Z M 150.712,50.7179L 150.712,69.2888L 169.284,69.2889L 169.283,50.7181L 150.712,50.7179 Z M 150.712,70.7173L 150.713,89.2875L 169.284,89.2875L 169.284,70.7175L 150.712,70.7173 Z M 150.713,90.716L 150.713,109.286L 169.284,109.286L 169.284,90.716L 150.713,90.716 Z M 150.713,129.286L 169.284,129.286L 169.284,110.714L 150.713,110.714L 150.713,129.286 Z M 150.713,149.286L 169.284,149.286L 169.284,130.714L 150.713,130.714L 150.713,149.286 Z M 150.713,150.715L 150.713,169.286L 169.284,169.286L 169.284,150.715L 150.713,150.715 Z M 150.713,170.715L 150.713,189.286L 169.284,189.286L 169.284,170.715L 150.713,170.715 Z M 150.713,190.714L 150.713,209.285L 169.285,209.285L 169.284,190.714L 150.713,190.714 Z M 110.713,30.7176L 110.713,49.2887L 129.286,49.289L 129.286,30.7179L 110.713,30.7176 Z M 149.284,49.2894L 149.284,30.7183L 130.715,30.718L 130.715,49.289L 149.284,49.2894 Z M 110.713,50.7173L 110.713,69.288L 129.286,69.2884L 129.286,50.7175L 110.713,50.7173 Z M 149.284,69.2888L 149.284,50.718L 130.715,50.7176L 130.715,69.2884L 149.284,69.2888 Z M 110.713,70.7166L 110.714,89.2871L 129.286,89.2872L 129.286,70.7169L 110.713,70.7166 Z M 149.284,89.2875L 149.284,70.7173L 130.715,70.7169L 130.715,89.2873L 149.284,89.2875 Z M 110.714,90.7157L 110.714,109.286L 129.286,109.286L 129.286,90.7158L 110.714,90.7157 Z M 149.284,109.286L 149.284,90.716L 130.715,90.7158L 130.715,109.286L 149.284,109.286 Z M 110.714,129.286L 129.286,129.286L 129.286,110.714L 110.714,110.714L 110.714,129.286 Z M 149.284,129.286L 149.284,110.714L 130.715,110.714L 130.715,129.286L 149.284,129.286 Z M 110.714,149.286L 129.286,149.286L 129.286,130.714L 110.714,130.714L 110.714,149.286 Z M 149.285,149.286L 149.284,130.714L 130.715,130.714L 130.715,149.286L 149.285,149.286 Z M 110.714,150.714L 110.714,169.286L 129.286,169.286L 129.286,150.715L 110.714,150.714 Z M 149.284,169.286L 149.285,150.715L 130.715,150.715L 130.715,169.286L 149.284,169.286 Z M 110.714,170.714L 110.714,189.285L 129.286,189.285L 129.286,170.714L 110.714,170.714 Z M 149.285,189.286L 149.284,170.715L 130.715,170.714L 130.715,189.286L 149.285,189.286 Z M 110.714,190.714L 110.714,209.285L 129.286,209.285L 129.286,190.714L 110.714,190.714 Z M 149.285,209.285L 149.285,190.714L 130.715,190.714L 130.715,209.285L 149.285,209.285 Z M 90.7137,30.7178L 90.7137,49.2889L 109.285,49.2887L 109.285,30.7176L 90.7137,30.7178 Z M 90.7137,50.7175L 90.7138,69.2882L 109.285,69.2881L 109.285,50.7173L 90.7137,50.7175 Z M 90.7138,70.7167L 90.7139,89.2872L 109.285,89.2871L 109.285,70.7166L 90.7138,70.7167 Z M 90.7139,90.7157L 90.714,109.286L 109.285,109.286L 109.285,90.7157L 90.7139,90.7157 Z M 90.7141,129.286L 109.285,129.286L 109.285,110.714L 90.714,110.714L 90.7141,129.286 Z M 90.7142,149.286L 109.286,149.286L 109.285,130.714L 90.7141,130.714L 90.7142,149.286 Z M 90.7142,150.715L 90.7141,169.286L 109.285,169.286L 109.286,150.714L 90.7142,150.715 Z M 90.7141,170.714L 90.7143,189.285L 109.286,189.285L 109.285,170.714L 90.7141,170.714 Z M 90.7143,190.714L 90.7143,209.285L 109.286,209.285L 109.286,190.714L 90.7143,190.714 Z M 70.7137,30.718L 70.7138,49.2891L 89.2851,49.2889L 89.2851,30.7178L 70.7137,30.718 Z M 70.7138,50.7176L 70.7138,69.2884L 89.2852,69.2882L 89.2851,50.7175L 70.7138,50.7176 Z M 70.7138,70.7169L 70.714,89.2873L 89.2853,89.2872L 89.2852,70.7167L 70.7138,70.7169 Z M 70.714,90.7158L 70.7141,109.286L 89.2854,109.286L 89.2853,90.7157L 70.714,90.7158 Z M 70.7142,129.286L 89.2855,129.286L 89.2855,110.714L 70.7141,110.715L 70.7142,129.286 Z M 70.7143,149.286L 89.2856,149.286L 89.2855,130.714L 70.7142,130.714L 70.7143,149.286 Z M 70.7143,150.715L 70.7142,169.286L 89.2856,169.286L 89.2856,150.715L 70.7143,150.715 Z M 70.7142,170.714L 70.7143,189.285L 89.2857,189.285L 89.2856,170.714L 70.7142,170.714 Z M 70.7143,190.714L 70.7144,209.285L 89.2858,209.285L 89.2857,190.714L 70.7143,190.714 Z M 50.7141,30.7182L 50.7142,49.2892L 69.2852,49.2891L 69.2852,30.718L 50.7141,30.7182 Z M 50.7142,50.7178L 50.7142,69.2885L 69.2853,69.2884L 69.2852,50.7177L 50.7142,50.7178 Z M 50.7142,70.717L 50.7143,89.2874L 69.2854,89.2873L 69.2853,70.7169L 50.7142,70.717 Z M 50.7143,90.7159L 50.7143,109.286L 69.2855,109.286L 69.2854,90.7159L 50.7143,90.7159 Z M 50.7144,129.286L 69.2856,129.286L 69.2855,110.715L 50.7143,110.715L 50.7144,129.286 Z M 50.7144,149.286L 69.2857,149.286L 69.2856,130.714L 50.7144,130.715L 50.7144,149.286 Z M 50.7144,150.715L 50.7144,169.286L 69.2856,169.286L 69.2857,150.715L 50.7144,150.715 Z M 50.7144,170.714L 50.7145,189.286L 69.2858,189.285L 69.2856,170.714L 50.7144,170.714 Z M 50.7145,190.714L 50.7145,209.285L 69.2859,209.285L 69.2858,190.714L 50.7145,190.714 Z M 30.7144,30.7184L 30.7144,49.2894L 49.2856,49.2892L 49.2856,30.7182L 30.7144,30.7184 Z M 30.7144,50.718L 30.7144,69.2887L 49.2856,69.2885L 49.2856,50.7178L 30.7144,50.718 Z M 30.7144,70.7172L 30.7144,89.2875L 49.2857,89.2874L 49.2856,70.717L 30.7144,70.7172 Z M 30.7144,90.716L 30.7144,109.286L 49.2858,109.286L 49.2857,90.7159L 30.7144,90.716 Z M 30.7145,129.286L 49.2858,129.286L 49.2858,110.715L 30.7145,110.715L 30.7145,129.286 Z M 30.7145,149.286L 49.2859,149.286L 49.2858,130.715L 30.7145,130.715L 30.7145,149.286 Z M 30.7145,150.715L 30.7145,169.286L 49.2858,169.286L 49.2859,150.715L 30.7145,150.715 Z M 30.7145,170.714L 30.7145,189.286L 49.2859,189.286L 49.2858,170.714L 30.7145,170.714 Z M 30.7145,190.714L 30.7145,209.285L 49.2859,209.285L 49.2859,190.714L 30.7145,190.714 Z "/>
	<path fill="#000000" fill-opacity="0.101961" stroke-width="0.2" stroke-linejoin="miter" d="M 0.00147449,9.28752L 9.28704,9.28752L 9.28703,0.00183105L 10.7156,0.00183105L 10.7156,9.28752L 229.285,9.28679L 229.285,0.00111389L 230.713,0.00111389L 230.713,9.28679L 239.999,9.28679L 239.999,10.7153L 230.713,10.7153L 230.714,229.285L 240,229.285L 240,230.713L 230.714,230.713L 230.714,239.999L 229.286,239.999L 229.286,230.713L 10.7156,230.713L 10.7156,239.999L 9.28706,239.999L 9.28706,230.713L 0.0014527,230.713L 0.0014527,229.285L 9.28706,229.285L 9.28704,10.7161L 0.00147449,10.7161L 0.00147449,9.28752 Z M 10.7156,10.7161L 10.7156,229.285L 229.286,229.285L 229.285,10.7154L 10.7156,10.7161 Z "/>
</svg>
