<?xml version="1.0" encoding="utf-8"?>
<!DOCTYPE svg PUBLIC "-//W3C//DTD SVG 1.1//EN" "http://www.w3.org/Graphics/SVG/1.1/DTD/svg11.dtd">
<svg xmlns="http://www.w3.org/2000/svg" xmlns:xlink="http://www.w3.org/1999/xlink" version="1.1" baseProfile="full" width="450" height="200" viewBox="0 0 450.00 200.00" enable-background="new 0 0 450.00 200.00" xml:space="preserve">
	<g>
		<path fill="#000000" fill-opacity="0.101961" stroke-linejoin="round" d="M 76.9763,113.25L 73.7475,113.25L 73.7475,100.563C 73.7475,99.5242 73.8117,98.2525 73.94,96.7475L 73.8832,96.7475C 73.6848,97.605 73.5084,98.2204 73.3538,98.5938L 67.5,113.25L 65.26,113.25L 59.3932,98.7031C 59.2298,98.2744 59.0563,97.6225 58.8725,96.7475L 58.82,96.7475C 58.893,97.5321 58.9294,98.8125 58.9294,100.589L 58.9294,113.25L 55.9194,113.25L 55.9194,93.6456L 60.5,93.6456L 65.6538,106.701C 66.0475,107.704 66.3027,108.452 66.4194,108.945L 66.4894,108.945C 66.8248,107.912 67.0975,107.147 67.3075,106.648L 72.5575,93.6456L 76.9763,93.6456L 76.9763,113.25 Z "/>
		<path fill="#000000" fill-opacity="0.101961" stroke-linejoin="round" d="M 92.07,113.25L 88.9944,113.25L 88.9944,111.063L 88.9419,111.063C 87.9736,112.74 86.5561,113.578 84.6894,113.578C 83.3128,113.578 82.2343,113.204 81.4541,112.456C 80.6739,111.708 80.2838,110.72 80.2838,109.492C 80.2838,106.846 81.8063,105.305 84.8513,104.868L 89.0075,104.281C 89.0075,102.286 88.0596,101.289 86.1638,101.289C 84.4955,101.289 82.9919,101.862 81.6532,103.008L 81.6532,100.234C 83.129,99.3594 84.8338,98.9219 86.7675,98.9219C 90.3025,98.9219 92.07,100.663 92.07,104.146L 92.07,113.25 Z M 89.0075,106.372L 86.0675,106.784C 85.1575,106.9 84.4721,107.121 84.0113,107.444C 83.5505,107.768 83.32,108.335 83.32,109.146C 83.32,109.741 83.5322,110.228 83.9566,110.605C 84.381,110.983 84.949,111.172 85.6607,111.172C 86.6261,111.172 87.4253,110.832 88.0582,110.152C 88.6911,109.473 89.0075,108.618 89.0075,107.589L 89.0075,106.372 Z "/>
		<path fill="#000000" fill-opacity="0.101961" stroke-linejoin="round" d="M 103.266,113.101C 102.647,113.41 101.832,113.565 100.82,113.565C 98.1046,113.565 96.7469,112.261 96.7469,109.654L 96.7469,101.739L 94.4063,101.739L 94.4063,99.25L 96.7469,99.25L 96.7469,96.0081L 99.9188,95.1069L 99.9188,99.25L 103.266,99.25L 103.266,101.739L 99.9188,101.739L 99.9188,108.739C 99.9188,109.568 100.069,110.16 100.369,110.516C 100.67,110.871 101.172,111.049 101.874,111.049C 102.411,111.049 102.875,110.895 103.266,110.586L 103.266,113.101 Z "/>
		<path fill="#000000" fill-opacity="0.101961" stroke-linejoin="round" d="M 117.817,107.112L 108.275,107.112C 108.313,108.407 108.712,109.405 109.472,110.107C 110.231,110.808 111.278,111.159 112.611,111.159C 114.104,111.159 115.475,110.713 116.723,109.82L 116.723,112.375C 115.449,113.177 113.763,113.578 111.666,113.578C 109.606,113.578 107.991,112.942 106.82,111.671C 105.649,110.399 105.064,108.61 105.064,106.302C 105.064,104.127 105.708,102.353 106.998,100.98C 108.287,99.608 109.888,98.9219 111.801,98.9219C 113.718,98.9219 115.199,99.5373 116.246,100.768C 117.293,101.999 117.817,103.708 117.817,105.896L 117.817,107.112 Z M 114.754,104.868C 114.746,103.73 114.477,102.844 113.949,102.21C 113.421,101.575 112.692,101.258 111.762,101.258C 110.849,101.258 110.076,101.591 109.443,102.258C 108.81,102.924 108.421,103.794 108.275,104.868L 114.754,104.868 Z "/>
		<path fill="#000000" fill-opacity="0.101961" stroke-linejoin="round" d="M 128.925,102.273C 128.543,101.97 127.992,101.818 127.271,101.818C 126.332,101.818 125.548,102.243 124.92,103.091C 124.291,103.94 123.977,105.094 123.977,106.552L 123.977,113.25L 120.805,113.25L 120.805,99.25L 123.977,99.25L 123.977,102.133L 124.029,102.133C 124.341,101.15 124.818,100.383 125.46,99.8319C 126.102,99.2806 126.819,99.005 127.613,99.005C 128.187,99.005 128.625,99.091 128.925,99.2631L 128.925,102.273 Z "/>
		<path fill="#000000" fill-opacity="0.101961" stroke-linejoin="round" d="M 132.766,96.31C 132.244,96.31 131.799,96.1416 131.43,95.8047C 131.061,95.4678 130.876,95.0398 130.876,94.5206C 130.876,94.0015 131.061,93.5683 131.43,93.2213C 131.799,92.8742 132.244,92.7006 132.766,92.7006C 133.303,92.7006 133.758,92.8742 134.131,93.2213C 134.505,93.5683 134.691,94.0015 134.691,94.5206C 134.691,95.0106 134.505,95.4314 134.131,95.7828C 133.758,96.1343 133.303,96.31 132.766,96.31 Z M 134.337,113.25L 131.165,113.25L 131.165,99.25L 134.337,99.25L 134.337,113.25 Z "/>
		<path fill="#000000" fill-opacity="0.101961" stroke-linejoin="round" d="M 149.19,113.25L 146.114,113.25L 146.114,111.063L 146.062,111.063C 145.094,112.74 143.676,113.578 141.809,113.578C 140.433,113.578 139.354,113.204 138.574,112.456C 137.794,111.708 137.404,110.72 137.404,109.492C 137.404,106.846 138.926,105.305 141.971,104.868L 146.128,104.281C 146.128,102.286 145.18,101.289 143.284,101.289C 141.615,101.289 140.112,101.862 138.773,103.008L 138.773,100.234C 140.249,99.3594 141.954,98.9219 143.888,98.9219C 147.423,98.9219 149.19,100.663 149.19,104.146L 149.19,113.25 Z M 146.128,106.372L 143.188,106.784C 142.278,106.9 141.592,107.121 141.131,107.444C 140.67,107.768 140.44,108.335 140.44,109.146C 140.44,109.741 140.652,110.228 141.077,110.605C 141.501,110.983 142.069,111.172 142.781,111.172C 143.746,111.172 144.545,110.832 145.178,110.152C 145.811,109.473 146.128,108.618 146.128,107.589L 146.128,106.372 Z "/>
		<rect x="153.005" y="92.5212" fill="#000000" fill-opacity="0.101961" stroke-linejoin="round" width="3.185" height="20.7288"/>
		<path fill="#000000" fill-opacity="0.101961" stroke-linejoin="round" d="M 168.199,113.25L 168.199,93.6456L 173.861,93.6456C 181.088,93.6456 184.702,96.8306 184.702,103.201C 184.702,106.228 183.699,108.66 181.694,110.496C 179.689,112.332 177,113.25 173.629,113.25L 168.199,113.25 Z M 171.441,96.4063L 171.441,110.503L 174.04,110.503C 176.327,110.503 178.106,109.873 179.378,108.615C 180.649,107.356 181.285,105.579 181.285,103.284C 181.285,98.6988 178.911,96.4063 174.163,96.4063L 171.441,96.4063 Z "/>
		<path fill="#000000" fill-opacity="0.101961" stroke-linejoin="round" d="M 199.857,107.112L 190.315,107.112C 190.353,108.407 190.752,109.405 191.512,110.107C 192.271,110.808 193.318,111.159 194.651,111.159C 196.144,111.159 197.515,110.713 198.763,109.82L 198.763,112.375C 197.489,113.177 195.803,113.578 193.706,113.578C 191.646,113.578 190.031,112.942 188.86,111.671C 187.689,110.399 187.104,108.61 187.104,106.302C 187.104,104.127 187.748,102.353 189.038,100.98C 190.327,99.608 191.928,98.9219 193.841,98.9219C 195.758,98.9219 197.239,99.5373 198.286,100.768C 199.333,101.999 199.857,103.708 199.857,105.896L 199.857,107.112 Z M 196.794,104.868C 196.786,103.73 196.517,102.844 195.989,102.21C 195.461,101.575 194.732,101.258 193.802,101.258C 192.889,101.258 192.116,101.591 191.483,102.258C 190.85,102.924 190.461,103.794 190.315,104.868L 196.794,104.868 Z "/>
		<path fill="#000000" fill-opacity="0.101961" stroke-linejoin="round" d="M 201.97,112.813L 201.97,109.872C 203.154,110.774 204.462,111.224 205.894,111.224C 207.808,111.224 208.764,110.66 208.764,109.531C 208.764,109.213 208.683,108.942 208.519,108.717C 208.356,108.493 208.135,108.295 207.857,108.122C 207.578,107.95 207.25,107.796 206.872,107.659C 206.495,107.522 206.072,107.367 205.606,107.195C 205.031,106.965 204.514,106.722 204.055,106.467C 203.595,106.211 203.213,105.923 202.906,105.6C 202.6,105.278 202.37,104.911 202.215,104.5C 202.06,104.089 201.983,103.61 201.983,103.065C 201.983,102.391 202.143,101.796 202.462,101.28C 202.782,100.764 203.21,100.331 203.748,99.9806C 204.287,99.6306 204.897,99.3667 205.579,99.1888C 206.262,99.0108 206.968,98.9219 207.697,98.9219C 208.992,98.9219 210.15,99.1173 211.171,99.5081L 211.171,102.286C 210.188,101.61 209.058,101.271 207.78,101.271C 207.38,101.271 207.019,101.313 206.695,101.396C 206.371,101.479 206.095,101.594 205.866,101.739C 205.637,101.885 205.459,102.06 205.332,102.264C 205.205,102.469 205.142,102.695 205.142,102.943C 205.142,103.243 205.205,103.498 205.332,103.708C 205.459,103.918 205.648,104.103 205.899,104.262C 206.15,104.421 206.451,104.566 206.802,104.699C 207.154,104.832 207.557,104.975 208.012,105.13C 208.613,105.375 209.153,105.625 209.633,105.88C 210.113,106.136 210.521,106.425 210.858,106.749C 211.195,107.073 211.454,107.447 211.637,107.871C 211.819,108.295 211.91,108.799 211.91,109.382C 211.91,110.091 211.746,110.71 211.418,111.24C 211.09,111.769 210.652,112.207 210.105,112.552C 209.558,112.898 208.927,113.155 208.211,113.324C 207.495,113.494 206.74,113.578 205.947,113.578C 204.416,113.578 203.09,113.323 201.97,112.813 Z "/>
		<path fill="#000000" fill-opacity="0.101961" stroke-linejoin="round" d="M 216.486,96.31C 215.964,96.31 215.519,96.1416 215.15,95.8047C 214.781,95.4678 214.596,95.0398 214.596,94.5206C 214.596,94.0015 214.781,93.5683 215.15,93.2213C 215.519,92.8742 215.964,92.7006 216.486,92.7006C 217.023,92.7006 217.478,92.8742 217.851,93.2213C 218.225,93.5683 218.411,94.0015 218.411,94.5206C 218.411,95.0106 218.225,95.4314 217.851,95.7828C 217.478,96.1343 217.023,96.31 216.486,96.31 Z M 218.057,113.25L 214.885,113.25L 214.885,99.25L 218.057,99.25L 218.057,113.25 Z "/>
		<path fill="#000000" fill-opacity="0.101961" stroke-linejoin="round" d="M 234.905,112.13C 234.905,117.269 232.322,119.839 227.157,119.839C 225.334,119.839 223.743,119.534 222.384,118.924L 222.384,116.024C 223.915,116.899 225.369,117.336 226.746,117.336C 230.071,117.336 231.733,115.7 231.733,112.427L 231.733,110.896L 231.681,110.896C 230.634,112.684 229.057,113.578 226.951,113.578C 225.245,113.578 223.871,112.956 222.828,111.712C 221.785,110.468 221.264,108.798 221.264,106.701C 221.264,104.321 221.824,102.429 222.944,101.026C 224.064,99.6233 225.604,98.9219 227.564,98.9219C 229.416,98.9219 230.788,99.6787 231.681,101.193L 231.733,101.193L 231.733,99.25L 234.905,99.25L 234.905,112.13 Z M 231.764,106.836L 231.764,105.021C 231.764,104.035 231.438,103.193 230.786,102.496C 230.134,101.799 229.32,101.451 228.343,101.451C 227.141,101.451 226.2,101.895 225.521,102.783C 224.841,103.671 224.501,104.913 224.501,106.508C 224.501,107.885 224.827,108.986 225.479,109.811C 226.131,110.637 226.995,111.049 228.071,111.049C 229.165,111.049 230.054,110.655 230.738,109.866C 231.422,109.077 231.764,108.067 231.764,106.836 Z "/>
		<path fill="#000000" fill-opacity="0.101961" stroke-linejoin="round" d="M 251.434,113.25L 248.262,113.25L 248.262,105.362C 248.262,102.746 247.337,101.438 245.488,101.438C 244.52,101.438 243.721,101.8 243.093,102.525C 242.464,103.249 242.15,104.163 242.15,105.266L 242.15,113.25L 238.965,113.25L 238.965,99.25L 242.15,99.25L 242.15,101.573L 242.207,101.573C 243.254,99.8056 244.766,98.9219 246.744,98.9219C 248.266,98.9219 249.429,99.4163 250.231,100.405C 251.033,101.394 251.434,102.823 251.434,104.693L 251.434,113.25 Z "/>
		<rect x="263.106" y="93.6456" fill="#000000" fill-opacity="0.101961" stroke-linejoin="round" width="3.35123" height="19.6044"/>
		<path fill="#000000" fill-opacity="0.101961" stroke-linejoin="round" d="M 280.908,112.607C 279.785,113.254 278.458,113.578 276.927,113.578C 274.85,113.578 273.174,112.928 271.898,111.629C 270.622,110.33 269.984,108.646 269.984,106.578C 269.984,104.271 270.669,102.418 272.04,101.02C 273.411,99.6211 275.245,98.9219 277.544,98.9219C 278.818,98.9219 279.944,99.145 280.921,99.5912L 280.921,102.544C 279.944,101.815 278.904,101.451 277.802,101.451C 276.463,101.451 275.365,101.904 274.508,102.811C 273.65,103.718 273.221,104.905 273.221,106.372C 273.221,107.822 273.624,108.966 274.431,109.805C 275.237,110.643 276.32,111.063 277.679,111.063C 278.82,111.063 279.896,110.657 280.908,109.846L 280.908,112.607 Z "/>
		<path fill="#000000" fill-opacity="0.101961" stroke-linejoin="round" d="M 290.253,113.578C 288.092,113.578 286.367,112.924 285.078,111.616C 283.788,110.308 283.144,108.573 283.144,106.412C 283.144,104.061 283.816,102.225 285.161,100.904C 286.505,99.5825 288.316,98.9219 290.594,98.9219C 292.782,98.9219 294.486,99.5643 295.707,100.849C 296.927,102.134 297.538,103.915 297.538,106.193C 297.538,108.427 296.879,110.217 295.562,111.561C 294.245,112.906 292.476,113.578 290.253,113.578 Z M 290.402,101.451C 289.162,101.451 288.182,101.884 287.462,102.75C 286.741,103.616 286.381,104.811 286.381,106.333C 286.381,107.8 286.746,108.955 287.475,109.798C 288.204,110.641 289.18,111.063 290.402,111.063C 291.65,111.063 292.61,110.648 293.281,109.818C 293.951,108.988 294.287,107.808 294.287,106.276C 294.287,104.736 293.951,103.547 293.281,102.708C 292.61,101.87 291.65,101.451 290.402,101.451 Z "/>
		<path fill="#000000" fill-opacity="0.101961" stroke-linejoin="round" d="M 313.314,113.25L 310.142,113.25L 310.142,105.362C 310.142,102.746 309.217,101.438 307.368,101.438C 306.4,101.438 305.601,101.8 304.973,102.525C 304.344,103.249 304.03,104.163 304.03,105.266L 304.03,113.25L 300.845,113.25L 300.845,99.25L 304.03,99.25L 304.03,101.573L 304.087,101.573C 305.134,99.8056 306.646,98.9219 308.624,98.9219C 310.146,98.9219 311.309,99.4163 312.111,100.405C 312.913,101.394 313.314,102.823 313.314,104.693L 313.314,113.25 Z "/>
		<path fill="#000000" fill-opacity="0.101961" stroke-linejoin="round" d="M 316.21,112.813L 316.21,109.872C 317.394,110.774 318.702,111.224 320.134,111.224C 322.048,111.224 323.004,110.66 323.004,109.531C 323.004,109.213 322.923,108.942 322.759,108.717C 322.596,108.493 322.375,108.295 322.097,108.122C 321.818,107.95 321.49,107.796 321.112,107.659C 320.734,107.522 320.312,107.367 319.846,107.195C 319.271,106.965 318.754,106.722 318.295,106.467C 317.835,106.211 317.452,105.923 317.146,105.6C 316.84,105.278 316.61,104.911 316.455,104.5C 316.3,104.089 316.223,103.61 316.223,103.065C 316.223,102.391 316.383,101.796 316.702,101.28C 317.022,100.764 317.45,100.331 317.988,99.9806C 318.527,99.6306 319.137,99.3667 319.819,99.1888C 320.502,99.0108 321.208,98.9219 321.937,98.9219C 323.232,98.9219 324.39,99.1173 325.411,99.5081L 325.411,102.286C 324.428,101.61 323.297,101.271 322.02,101.271C 321.62,101.271 321.259,101.313 320.935,101.396C 320.611,101.479 320.335,101.594 320.106,101.739C 319.877,101.885 319.699,102.06 319.572,102.264C 319.445,102.469 319.382,102.695 319.382,102.943C 319.382,103.243 319.445,103.498 319.572,103.708C 319.699,103.918 319.888,104.103 320.139,104.262C 320.39,104.421 320.691,104.566 321.042,104.699C 321.394,104.832 321.797,104.975 322.252,105.13C 322.853,105.375 323.393,105.625 323.873,105.88C 324.353,106.136 324.761,106.425 325.098,106.749C 325.435,107.073 325.694,107.447 325.877,107.871C 326.059,108.295 326.15,108.799 326.15,109.382C 326.15,110.091 325.986,110.71 325.658,111.24C 325.33,111.769 324.892,112.207 324.345,112.552C 323.798,112.898 323.167,113.155 322.451,113.324C 321.735,113.494 320.98,113.578 320.187,113.578C 318.656,113.578 317.33,113.323 316.21,112.813 Z "/>
		<path fill="#000000" fill-opacity="0.101961" stroke-linejoin="round" d="M 347.364,113.25L 337.192,113.25L 337.192,93.6456L 339.489,93.6456L 339.489,111.172L 347.364,111.172L 347.364,113.25 Z "/>
		<path fill="#000000" fill-opacity="0.101961" stroke-linejoin="round" d="M 351.197,95.6931C 350.797,95.6931 350.456,95.5568 350.173,95.2841C 349.89,95.0114 349.749,94.665 349.749,94.245C 349.749,93.825 349.89,93.4765 350.173,93.1994C 350.456,92.9223 350.797,92.7838 351.197,92.7838C 351.608,92.7838 351.957,92.9223 352.245,93.1994C 352.532,93.4765 352.676,93.825 352.676,94.245C 352.676,94.6475 352.532,94.9895 352.245,95.2709C 351.957,95.5524 351.608,95.6931 351.197,95.6931 Z M 352.291,113.25L 350.051,113.25L 350.051,99.25L 352.291,99.25L 352.291,113.25 Z "/>
		<path fill="#000000" fill-opacity="0.101961" stroke-linejoin="round" d="M 368.719,112.13C 368.719,117.269 366.259,119.839 361.338,119.839C 359.606,119.839 358.092,119.511 356.797,118.854L 356.797,116.614C 358.375,117.489 359.878,117.927 361.307,117.927C 364.755,117.927 366.479,116.094 366.479,112.427L 366.479,110.896L 366.422,110.896C 365.354,112.684 363.75,113.578 361.609,113.578C 359.868,113.578 358.467,112.956 357.405,111.712C 356.343,110.468 355.812,108.798 355.812,106.701C 355.812,104.321 356.384,102.429 357.527,101.026C 358.671,99.6233 360.237,98.9219 362.226,98.9219C 364.113,98.9219 365.512,99.6787 366.422,101.193L 366.479,101.193L 366.479,99.25L 368.719,99.25L 368.719,112.13 Z M 366.479,106.919L 366.479,104.854C 366.479,103.743 366.102,102.791 365.35,101.997C 364.597,101.204 363.661,100.808 362.541,100.808C 361.156,100.808 360.071,101.311 359.286,102.319C 358.502,103.327 358.109,104.738 358.109,106.552C 358.109,108.109 358.486,109.356 359.238,110.29C 359.991,111.225 360.987,111.693 362.226,111.693C 363.483,111.693 364.506,111.246 365.295,110.352C 366.084,109.458 366.479,108.314 366.479,106.919 Z "/>
		<path fill="#000000" fill-opacity="0.101961" stroke-linejoin="round" d="M 384.911,113.25L 382.671,113.25L 382.671,105.183C 382.671,102.266 381.586,100.808 379.416,100.808C 378.322,100.808 377.401,101.229 376.653,102.072C 375.905,102.915 375.531,103.997 375.531,105.318L 375.531,113.25L 373.291,113.25L 373.291,92.5212L 375.531,92.5212L 375.531,101.573L 375.587,101.573C 376.664,99.8056 378.195,98.9219 380.181,98.9219C 383.334,98.9219 384.911,100.822 384.911,104.622L 384.911,113.25 Z "/>
		<path fill="#000000" fill-opacity="0.101961" stroke-linejoin="round" d="M 395.743,113.114C 395.215,113.406 394.518,113.552 393.652,113.552C 391.199,113.552 389.972,112.184 389.972,109.448L 389.972,101.162L 387.566,101.162L 387.566,99.25L 389.972,99.25L 389.972,95.8331L 392.217,95.1069L 392.217,99.25L 395.743,99.25L 395.743,101.162L 392.217,101.162L 392.217,109.054C 392.217,109.991 392.376,110.659 392.696,111.06C 393.015,111.461 393.544,111.662 394.282,111.662C 394.848,111.662 395.335,111.507 395.743,111.198L 395.743,113.114 Z "/>
	</g>
	<g>
		<path fill="#FFFFFF" fill-opacity="1" stroke-linejoin="round" d="M 76.9749,112L 73.7462,112L 73.7462,99.3124C 73.7462,98.2741 73.8103,97.0024 73.9387,95.4974L 73.8818,95.4974C 73.6835,96.3549 73.507,96.9704 73.3524,97.3437L 67.4987,112L 65.2587,112L 59.3918,97.4531C 59.2285,97.0243 59.0549,96.3724 58.8712,95.4974L 58.8187,95.4974C 58.8916,96.282 58.9281,97.5624 58.9281,99.3387L 58.9281,112L 55.918,112L 55.918,92.3956L 60.4987,92.3956L 65.6524,105.451C 66.0462,106.454 66.3014,107.202 66.4181,107.695L 66.4881,107.695C 66.8235,106.662 67.0962,105.897 67.3062,105.398L 72.5562,92.3956L 76.9749,92.3956L 76.9749,112 Z "/>
		<path fill="#FFFFFF" fill-opacity="1" stroke-linejoin="round" d="M 92.0687,112L 88.993,112L 88.993,109.812L 88.9406,109.812C 87.9722,111.49 86.5547,112.328 84.6881,112.328C 83.3114,112.328 82.2329,111.954 81.4527,111.206C 80.6725,110.458 80.2824,109.47 80.2824,108.242C 80.2824,105.596 81.8049,104.055 84.8499,103.617L 89.0062,103.031C 89.0062,101.036 88.0583,100.039 86.1624,100.039C 84.4941,100.039 82.9906,100.612 81.6518,101.758L 81.6518,98.9843C 83.1276,98.1093 84.8324,97.6718 86.7662,97.6718C 90.3012,97.6718 92.0687,99.4131 92.0687,102.896L 92.0687,112 Z M 89.0062,105.122L 86.0662,105.534C 85.1562,105.65 84.4708,105.871 84.0099,106.194C 83.5491,106.518 83.3187,107.085 83.3187,107.896C 83.3187,108.491 83.5309,108.978 83.9552,109.355C 84.3796,109.733 84.9476,109.922 85.6593,109.922C 86.6247,109.922 87.4239,109.582 88.0568,108.902C 88.6897,108.223 89.0062,107.368 89.0062,106.339L 89.0062,105.122 Z "/>
		<path fill="#FFFFFF" fill-opacity="1" stroke-linejoin="round" d="M 103.264,111.851C 102.646,112.16 101.831,112.315 100.819,112.315C 98.1033,112.315 96.7455,111.011 96.7455,108.404L 96.7455,100.489L 94.4049,100.489L 94.4049,97.9999L 96.7455,97.9999L 96.7455,94.7581L 99.9174,93.8568L 99.9174,97.9999L 103.264,97.9999L 103.264,100.489L 99.9174,100.489L 99.9174,107.489C 99.9174,108.318 100.068,108.91 100.368,109.266C 100.668,109.621 101.17,109.799 101.873,109.799C 102.41,109.799 102.873,109.645 103.264,109.336L 103.264,111.851 Z "/>
		<path fill="#FFFFFF" fill-opacity="1" stroke-linejoin="round" d="M 117.816,105.862L 108.274,105.862C 108.312,107.157 108.71,108.155 109.47,108.857C 110.23,109.558 111.276,109.909 112.609,109.909C 114.103,109.909 115.473,109.462 116.722,108.57L 116.722,111.125C 115.447,111.927 113.761,112.328 111.664,112.328C 109.605,112.328 107.99,111.692 106.819,110.421C 105.648,109.149 105.062,107.36 105.062,105.052C 105.062,102.877 105.707,101.103 106.996,99.7303C 108.285,98.358 109.887,97.6718 111.8,97.6718C 113.716,97.6718 115.198,98.2872 116.245,99.5181C 117.292,100.749 117.816,102.458 117.816,104.646L 117.816,105.862 Z M 114.753,103.617C 114.744,102.48 114.476,101.594 113.948,100.96C 113.42,100.325 112.691,100.008 111.761,100.008C 110.848,100.008 110.075,100.341 109.442,101.008C 108.809,101.674 108.42,102.544 108.274,103.617L 114.753,103.617 Z "/>
		<path fill="#FFFFFF" fill-opacity="1" stroke-linejoin="round" d="M 128.924,101.023C 128.542,100.72 127.99,100.568 127.27,100.568C 126.331,100.568 125.547,100.992 124.918,101.841C 124.29,102.69 123.976,103.843 123.976,105.302L 123.976,112L 120.804,112L 120.804,97.9999L 123.976,97.9999L 123.976,100.883L 124.028,100.883C 124.34,99.9002 124.817,99.1331 125.459,98.5818C 126.1,98.0306 126.818,97.755 127.611,97.755C 128.186,97.755 128.623,97.841 128.924,98.0131L 128.924,101.023 Z "/>
		<path fill="#FFFFFF" fill-opacity="1" stroke-linejoin="round" d="M 132.765,95.0599C 132.243,95.0599 131.797,94.8915 131.428,94.5546C 131.059,94.2178 130.875,93.7897 130.875,93.2706C 130.875,92.7514 131.059,92.3183 131.428,91.9712C 131.797,91.6241 132.243,91.4506 132.765,91.4506C 133.302,91.4506 133.757,91.6241 134.13,91.9712C 134.503,92.3183 134.69,92.7514 134.69,93.2706C 134.69,93.7606 134.503,94.1813 134.13,94.5328C 133.757,94.8842 133.302,95.0599 132.765,95.0599 Z M 134.336,112L 131.164,112L 131.164,97.9999L 134.336,97.9999L 134.336,112 Z "/>
		<path fill="#FFFFFF" fill-opacity="1" stroke-linejoin="round" d="M 149.189,112L 146.113,112L 146.113,109.812L 146.061,109.812C 145.092,111.49 143.675,112.328 141.808,112.328C 140.431,112.328 139.353,111.954 138.573,111.206C 137.793,110.458 137.402,109.47 137.402,108.242C 137.402,105.596 138.925,104.055 141.97,103.617L 146.126,103.031C 146.126,101.036 145.178,100.039 143.282,100.039C 141.614,100.039 140.111,100.612 138.772,101.758L 138.772,98.9843C 140.248,98.1093 141.952,97.6718 143.886,97.6718C 147.421,97.6718 149.189,99.4131 149.189,102.896L 149.189,112 Z M 146.126,105.122L 143.186,105.534C 142.276,105.65 141.591,105.871 141.13,106.194C 140.669,106.518 140.439,107.085 140.439,107.896C 140.439,108.491 140.651,108.978 141.075,109.355C 141.5,109.733 142.068,109.922 142.779,109.922C 143.745,109.922 144.544,109.582 145.177,108.902C 145.81,108.223 146.126,107.368 146.126,106.339L 146.126,105.122 Z "/>
		<rect x="153.004" y="91.2712" fill="#FFFFFF" fill-opacity="1" stroke-linejoin="round" width="3.185" height="20.7287"/>
		<path fill="#FFFFFF" fill-opacity="1" stroke-linejoin="round" d="M 168.198,112L 168.198,92.3956L 173.859,92.3956C 181.087,92.3956 184.701,95.5806 184.701,101.951C 184.701,104.978 183.698,107.41 181.693,109.246C 179.688,111.082 176.999,112 173.627,112L 168.198,112 Z M 171.44,95.1562L 171.44,109.252L 174.039,109.252C 176.325,109.252 178.104,108.623 179.376,107.365C 180.648,106.106 181.284,104.329 181.284,102.034C 181.284,97.4487 178.909,95.1562 174.161,95.1562L 171.44,95.1562 Z "/>
		<path fill="#FFFFFF" fill-opacity="1" stroke-linejoin="round" d="M 199.856,105.862L 190.314,105.862C 190.352,107.157 190.75,108.155 191.51,108.857C 192.27,109.558 193.316,109.909 194.649,109.909C 196.143,109.909 197.513,109.462 198.762,108.57L 198.762,111.125C 197.487,111.927 195.801,112.328 193.704,112.328C 191.645,112.328 190.03,111.692 188.859,110.421C 187.688,109.149 187.102,107.36 187.102,105.052C 187.102,102.877 187.747,101.103 189.036,99.7303C 190.325,98.358 191.927,97.6718 193.84,97.6718C 195.756,97.6718 197.238,98.2872 198.285,99.5181C 199.332,100.749 199.856,102.458 199.856,104.646L 199.856,105.862 Z M 196.793,103.617C 196.784,102.48 196.516,101.594 195.988,100.96C 195.46,100.325 194.731,100.008 193.801,100.008C 192.888,100.008 192.115,100.341 191.482,101.008C 190.849,101.674 190.459,102.544 190.314,103.617L 196.793,103.617 Z "/>
		<path fill="#FFFFFF" fill-opacity="1" stroke-linejoin="round" d="M 201.969,111.562L 201.969,108.622C 203.153,109.524 204.461,109.974 205.893,109.974C 207.806,109.974 208.763,109.41 208.763,108.281C 208.763,107.963 208.681,107.692 208.518,107.467C 208.355,107.243 208.134,107.045 207.855,106.872C 207.577,106.7 207.249,106.546 206.871,106.409C 206.493,106.272 206.071,106.117 205.604,105.945C 205.03,105.715 204.513,105.472 204.053,105.217C 203.594,104.961 203.211,104.673 202.905,104.35C 202.599,104.028 202.368,103.661 202.214,103.25C 202.059,102.839 201.982,102.36 201.982,101.815C 201.982,101.141 202.141,100.546 202.461,100.03C 202.78,99.5137 203.209,99.0806 203.747,98.7306C 204.285,98.3806 204.896,98.1166 205.578,97.9387C 206.261,97.7608 206.966,97.6718 207.696,97.6718C 208.991,97.6718 210.148,97.8672 211.169,98.2581L 211.169,101.036C 210.186,100.36 209.056,100.021 207.779,100.021C 207.379,100.021 207.017,100.063 206.694,100.146C 206.37,100.229 206.094,100.343 205.865,100.489C 205.636,100.635 205.458,100.81 205.331,101.014C 205.204,101.218 205.141,101.445 205.141,101.692C 205.141,101.993 205.204,102.248 205.331,102.458C 205.458,102.668 205.647,102.853 205.897,103.012C 206.148,103.17 206.449,103.316 206.801,103.449C 207.152,103.582 207.556,103.725 208.011,103.88C 208.611,104.125 209.152,104.375 209.631,104.63C 210.111,104.885 210.52,105.175 210.856,105.499C 211.193,105.822 211.453,106.197 211.635,106.621C 211.818,107.045 211.909,107.549 211.909,108.132C 211.909,108.841 211.745,109.46 211.416,109.99C 211.088,110.519 210.651,110.957 210.104,111.302C 209.557,111.648 208.926,111.905 208.21,112.074C 207.494,112.243 206.739,112.328 205.946,112.328C 204.414,112.328 203.089,112.073 201.969,111.562 Z "/>
		<path fill="#FFFFFF" fill-opacity="1" stroke-linejoin="round" d="M 216.485,95.0599C 215.963,95.0599 215.517,94.8915 215.148,94.5546C 214.779,94.2178 214.595,93.7897 214.595,93.2706C 214.595,92.7514 214.779,92.3183 215.148,91.9712C 215.517,91.6241 215.963,91.4506 216.485,91.4506C 217.022,91.4506 217.477,91.6241 217.85,91.9712C 218.223,92.3183 218.41,92.7514 218.41,93.2706C 218.41,93.7606 218.223,94.1813 217.85,94.5328C 217.477,94.8842 217.022,95.0599 216.485,95.0599 Z M 218.056,112L 214.884,112L 214.884,97.9999L 218.056,97.9999L 218.056,112 Z "/>
		<path fill="#FFFFFF" fill-opacity="1" stroke-linejoin="round" d="M 234.904,110.88C 234.904,116.019 232.321,118.589 227.156,118.589C 225.333,118.589 223.742,118.284 222.382,117.674L 222.382,114.774C 223.914,115.649 225.368,116.086 226.744,116.086C 230.069,116.086 231.732,114.45 231.732,111.177L 231.732,109.646L 231.679,109.646C 230.632,111.434 229.056,112.328 226.95,112.328C 225.244,112.328 223.869,111.706 222.826,110.462C 221.784,109.218 221.262,107.548 221.262,105.451C 221.262,103.071 221.822,101.179 222.942,99.7762C 224.062,98.3733 225.602,97.6718 227.562,97.6718C 229.414,97.6718 230.787,98.4287 231.679,99.9425L 231.732,99.9425L 231.732,97.9999L 234.904,97.9999L 234.904,110.88 Z M 231.762,105.586L 231.762,103.771C 231.762,102.785 231.436,101.943 230.785,101.246C 230.133,100.549 229.318,100.201 228.341,100.201C 227.139,100.201 226.199,100.645 225.519,101.533C 224.84,102.421 224.5,103.663 224.5,105.258C 224.5,106.635 224.826,107.736 225.478,108.561C 226.13,109.387 226.994,109.799 228.07,109.799C 229.164,109.799 230.053,109.405 230.736,108.616C 231.42,107.827 231.762,106.817 231.762,105.586 Z "/>
		<path fill="#FFFFFF" fill-opacity="1" stroke-linejoin="round" d="M 251.432,112L 248.261,112L 248.261,104.112C 248.261,101.496 247.336,100.187 245.487,100.187C 244.518,100.187 243.72,100.55 243.091,101.275C 242.463,101.999 242.149,102.913 242.149,104.016L 242.149,112L 238.964,112L 238.964,97.9999L 242.149,97.9999L 242.149,100.323L 242.206,100.323C 243.253,98.5556 244.765,97.6718 246.742,97.6718C 248.265,97.6718 249.427,98.1662 250.229,99.1549C 251.031,100.144 251.432,101.573 251.432,103.442L 251.432,112 Z "/>
		<rect x="263.105" y="92.3956" fill="#FFFFFF" fill-opacity="1" stroke-linejoin="round" width="3.35126" height="19.6044"/>
		<path fill="#FFFFFF" fill-opacity="1" stroke-linejoin="round" d="M 280.907,111.357C 279.784,112.004 278.457,112.328 276.926,112.328C 274.849,112.328 273.172,111.678 271.896,110.379C 270.62,109.08 269.982,107.396 269.982,105.328C 269.982,103.021 270.668,101.168 272.039,99.7696C 273.409,98.3711 275.244,97.6718 277.542,97.6718C 278.817,97.6718 279.943,97.895 280.92,98.3412L 280.92,101.294C 279.943,100.565 278.903,100.201 277.801,100.201C 276.462,100.201 275.364,100.654 274.506,101.561C 273.649,102.468 273.22,103.655 273.22,105.122C 273.22,106.572 273.623,107.716 274.43,108.555C 275.236,109.393 276.319,109.812 277.678,109.812C 278.818,109.812 279.895,109.407 280.907,108.596L 280.907,111.357 Z "/>
		<path fill="#FFFFFF" fill-opacity="1" stroke-linejoin="round" d="M 290.252,112.328C 288.09,112.328 286.365,111.674 285.076,110.366C 283.787,109.058 283.142,107.323 283.142,105.162C 283.142,102.811 283.815,100.975 285.159,99.6537C 286.504,98.3325 288.315,97.6718 290.593,97.6718C 292.78,97.6718 294.485,98.3142 295.705,99.599C 296.926,100.884 297.536,102.665 297.536,104.943C 297.536,107.177 296.878,108.967 295.561,110.311C 294.244,111.656 292.474,112.328 290.252,112.328 Z M 290.4,100.201C 289.161,100.201 288.181,100.634 287.46,101.5C 286.74,102.366 286.38,103.561 286.38,105.083C 286.38,106.55 286.744,107.705 287.474,108.548C 288.203,109.391 289.178,109.812 290.4,109.812C 291.649,109.812 292.608,109.398 293.279,108.568C 293.95,107.738 294.285,106.557 294.285,105.026C 294.285,103.486 293.95,102.297 293.279,101.458C 292.608,100.62 291.649,100.201 290.4,100.201 Z "/>
		<path fill="#FFFFFF" fill-opacity="1" stroke-linejoin="round" d="M 313.312,112L 310.141,112L 310.141,104.112C 310.141,101.496 309.216,100.187 307.367,100.187C 306.398,100.187 305.6,100.55 304.971,101.275C 304.343,101.999 304.029,102.913 304.029,104.016L 304.029,112L 300.844,112L 300.844,97.9999L 304.029,97.9999L 304.029,100.323L 304.086,100.323C 305.133,98.5556 306.645,97.6718 308.622,97.6718C 310.145,97.6718 311.307,98.1662 312.109,99.1549C 312.911,100.144 313.312,101.573 313.312,103.442L 313.312,112 Z "/>
		<path fill="#FFFFFF" fill-opacity="1" stroke-linejoin="round" d="M 316.209,111.562L 316.209,108.622C 317.393,109.524 318.701,109.974 320.133,109.974C 322.046,109.974 323.003,109.41 323.003,108.281C 323.003,107.963 322.921,107.692 322.758,107.467C 322.595,107.243 322.374,107.045 322.095,106.872C 321.817,106.7 321.489,106.546 321.111,106.409C 320.733,106.272 320.311,106.117 319.844,105.945C 319.27,105.715 318.753,105.472 318.293,105.217C 317.834,104.961 317.451,104.673 317.145,104.35C 316.839,104.028 316.608,103.661 316.454,103.25C 316.299,102.839 316.222,102.36 316.222,101.815C 316.222,101.141 316.381,100.546 316.701,100.03C 317.02,99.5137 317.449,99.0806 317.987,98.7306C 318.525,98.3806 319.135,98.1166 319.818,97.9387C 320.501,97.7608 321.206,97.6718 321.936,97.6718C 323.23,97.6718 324.388,97.8672 325.409,98.2581L 325.409,101.036C 324.426,100.36 323.296,100.021 322.019,100.021C 321.619,100.021 321.257,100.063 320.934,100.146C 320.61,100.229 320.334,100.343 320.105,100.489C 319.876,100.635 319.698,100.81 319.571,101.014C 319.444,101.218 319.381,101.445 319.381,101.692C 319.381,101.993 319.444,102.248 319.571,102.458C 319.698,102.668 319.887,102.853 320.137,103.012C 320.388,103.17 320.689,103.316 321.041,103.449C 321.392,103.582 321.796,103.725 322.251,103.88C 322.851,104.125 323.392,104.375 323.871,104.63C 324.351,104.885 324.76,105.175 325.096,105.499C 325.433,105.822 325.693,106.197 325.875,106.621C 326.057,107.045 326.149,107.549 326.149,108.132C 326.149,108.841 325.985,109.46 325.656,109.99C 325.328,110.519 324.891,110.957 324.344,111.302C 323.797,111.648 323.166,111.905 322.45,112.074C 321.734,112.243 320.979,112.328 320.186,112.328C 318.654,112.328 317.329,112.073 316.209,111.562 Z "/>
		<path fill="#FFFFFF" fill-opacity="1" stroke-linejoin="round" d="M 347.363,112L 337.191,112L 337.191,92.3956L 339.488,92.3956L 339.488,109.922L 347.363,109.922L 347.363,112 Z "/>
		<path fill="#FFFFFF" fill-opacity="1" stroke-linejoin="round" d="M 351.196,94.4431C 350.796,94.4431 350.455,94.3067 350.172,94.034C 349.889,93.7613 349.747,93.4149 349.747,92.995C 349.747,92.575 349.889,92.2264 350.172,91.9493C 350.455,91.6722 350.796,91.5337 351.196,91.5337C 351.607,91.5337 351.956,91.6722 352.243,91.9493C 352.531,92.2264 352.674,92.575 352.674,92.995C 352.674,93.3975 352.531,93.7394 352.243,94.0209C 351.956,94.3023 351.607,94.4431 351.196,94.4431 Z M 352.289,112L 350.049,112L 350.049,97.9999L 352.289,97.9999L 352.289,112 Z "/>
		<path fill="#FFFFFF" fill-opacity="1" stroke-linejoin="round" d="M 368.717,110.88C 368.717,116.019 366.257,118.589 361.337,118.589C 359.604,118.589 358.09,118.261 356.796,117.604L 356.796,115.364C 358.373,116.239 359.877,116.677 361.306,116.677C 364.754,116.677 366.477,114.844 366.477,111.177L 366.477,109.646L 366.421,109.646C 365.353,111.434 363.749,112.328 361.608,112.328C 359.867,112.328 358.465,111.706 357.404,110.462C 356.342,109.218 355.811,107.548 355.811,105.451C 355.811,103.071 356.383,101.179 357.526,99.7762C 358.669,98.3733 360.236,97.6718 362.225,97.6718C 364.112,97.6718 365.51,98.4287 366.421,99.9425L 366.477,99.9425L 366.477,97.9999L 368.717,97.9999L 368.717,110.88 Z M 366.477,105.669L 366.477,103.604C 366.477,102.493 366.101,101.541 365.349,100.747C 364.596,99.9541 363.66,99.5575 362.54,99.5575C 361.154,99.5575 360.069,100.061 359.285,101.069C 358.5,102.077 358.108,103.488 358.108,105.302C 358.108,106.859 358.484,108.105 359.237,109.04C 359.989,109.975 360.985,110.442 362.225,110.442C 363.482,110.442 364.505,109.995 365.294,109.102C 366.083,108.208 366.477,107.063 366.477,105.669 Z "/>
		<path fill="#FFFFFF" fill-opacity="1" stroke-linejoin="round" d="M 384.909,112L 382.669,112L 382.669,103.932C 382.669,101.016 381.584,99.5575 379.414,99.5575C 378.32,99.5575 377.4,99.9789 376.651,100.822C 375.903,101.665 375.529,102.747 375.529,104.068L 375.529,112L 373.289,112L 373.289,91.2712L 375.529,91.2712L 375.529,100.323L 375.586,100.323C 376.662,98.5556 378.194,97.6718 380.18,97.6718C 383.333,97.6718 384.909,99.572 384.909,103.372L 384.909,112 Z "/>
		<path fill="#FFFFFF" fill-opacity="1" stroke-linejoin="round" d="M 395.742,111.864C 395.214,112.156 394.517,112.302 393.65,112.302C 391.198,112.302 389.971,110.934 389.971,108.198L 389.971,99.9118L 387.565,99.9118L 387.565,97.9999L 389.971,97.9999L 389.971,94.5831L 392.215,93.8568L 392.215,97.9999L 395.742,97.9999L 395.742,99.9118L 392.215,99.9118L 392.215,107.804C 392.215,108.741 392.375,109.409 392.695,109.81C 393.014,110.211 393.543,110.412 394.28,110.412C 394.846,110.412 395.333,110.257 395.742,109.948L 395.742,111.864 Z "/>
	</g>
</svg>
