<?xml version="1.0" encoding="utf-8"?>
<!DOCTYPE svg PUBLIC "-//W3C//DTD SVG 1.1//EN" "http://www.w3.org/Graphics/SVG/1.1/DTD/svg11.dtd">
<svg xmlns="http://www.w3.org/2000/svg" xmlns:xlink="http://www.w3.org/1999/xlink" version="1.1" baseProfile="full" width="300" height="100" viewBox="0 0 300.00 100.00" enable-background="new 0 0 300.00 100.00" xml:space="preserve">
	<path fill="#FFFFFF" fill-opacity="0.0823529" stroke-linejoin="round" d="M 64.4231,7.62939e-006L 300.212,7.62939e-006L 235.788,100L 1.01725e-005,100L 64.4231,7.62939e-006 Z "/>
	<g>
		<path fill="#FFFFFF" fill-opacity="1" stroke-linejoin="round" d="M 94.165,35.0313C 94.165,36.7013 93.8838,38.1588 93.3213,39.4038C 92.7588,40.6488 91.9619,41.5994 90.9306,42.2556C 89.8994,42.9119 88.6963,43.24 87.3213,43.24C 85.9788,43.24 84.7875,42.91 83.7475,42.25C 82.7075,41.59 81.9006,40.6494 81.3269,39.4281C 80.7531,38.2069 80.4587,36.7913 80.4437,35.1813L 80.4437,33.9513C 80.4437,32.3138 80.7288,30.8663 81.2987,29.6088C 81.8688,28.3513 82.675,27.3888 83.7175,26.7213C 84.76,26.0538 85.9537,25.72 87.2987,25.72C 88.6663,25.72 89.8712,26.05 90.9137,26.71C 91.9562,27.37 92.7588,28.3263 93.3213,29.5788C 93.8838,30.8313 94.165,32.2888 94.165,33.9513L 94.165,35.0313 Z M 91.9262,33.9175C 91.9262,31.895 91.52,30.3431 90.7075,29.2619C 89.895,28.1806 88.7588,27.64 87.2987,27.64C 85.8763,27.64 84.7569,28.1806 83.9406,29.2619C 83.1244,30.3431 82.705,31.8438 82.6825,33.7638L 82.6825,35.02C 82.6825,36.98 83.0944,38.52 83.9181,39.64C 84.7419,40.76 85.8763,41.32 87.3213,41.32C 88.7737,41.32 89.8987,40.7913 90.6963,39.7338C 91.4937,38.6763 91.9037,37.1588 91.9262,35.1813L 91.9262,33.9175 Z "/>
		<path fill="#FFFFFF" fill-opacity="1" stroke-linejoin="round" d="M 107.961,36.7825C 107.961,38.72 107.52,40.2806 106.637,41.4644C 105.755,42.6481 104.559,43.24 103.049,43.24C 101.511,43.24 100.301,42.75 99.4188,41.77L 99.4188,47.8L 97.2513,47.8L 97.2513,30.28L 99.2313,30.28L 99.3362,31.6863C 100.219,30.5888 101.445,30.04 103.015,30.04C 104.537,30.04 105.742,30.6163 106.63,31.7688C 107.517,32.9213 107.961,34.525 107.961,36.58L 107.961,36.7825 Z M 105.794,36.5013C 105.794,35.0988 105.489,33.9913 104.879,33.1788C 104.269,32.3663 103.432,31.96 102.37,31.96C 101.057,31.96 100.074,32.5313 99.4188,33.6738L 99.4188,39.6175C 100.066,40.7525 101.057,41.32 102.392,41.32C 103.432,41.32 104.259,40.9156 104.873,40.1069C 105.487,39.2981 105.794,38.0963 105.794,36.5013 Z "/>
		<path fill="#FFFFFF" fill-opacity="1" stroke-linejoin="round" d="M 115.964,43.24C 114.244,43.24 112.845,42.6731 111.767,41.5394C 110.69,40.4056 110.151,38.89 110.151,36.9925L 110.151,36.5913C 110.151,35.3288 110.391,34.2019 110.871,33.2106C 111.351,32.2194 112.023,31.4431 112.887,30.8819C 113.751,30.3206 114.686,30.04 115.694,30.04C 117.341,30.04 118.622,30.6013 119.536,31.7238C 120.449,32.8463 120.906,34.4538 120.906,36.5463L 120.906,37.48L 112.319,37.48C 112.349,38.6275 112.714,39.5544 113.414,40.2606C 114.114,40.9669 115.003,41.32 116.08,41.32C 116.845,41.32 117.493,41.1763 118.024,40.8888C 118.556,40.6013 119.021,40.22 119.421,39.745L 120.745,40.78C 119.682,42.42 118.089,43.24 115.964,43.24 Z M 115.694,31.96C 114.819,31.96 114.084,32.2756 113.491,32.9069C 112.897,33.5381 112.53,34.4225 112.39,35.56L 118.739,35.56L 118.739,35.3988C 118.676,34.3063 118.379,33.46 117.848,32.86C 117.317,32.26 116.599,31.96 115.694,31.96 Z "/>
		<path fill="#FFFFFF" fill-opacity="1" stroke-linejoin="round" d="M 125.448,30.28L 125.519,31.8738C 126.489,30.6513 127.755,30.04 129.317,30.04C 131.997,30.04 133.349,31.5575 133.371,34.5925L 133.371,43L 131.204,43L 131.204,34.6338C 131.196,33.7238 130.988,33.0506 130.577,32.6144C 130.167,32.1781 129.529,31.96 128.661,31.96C 127.956,31.96 127.338,32.1469 126.807,32.5206C 126.276,32.8944 125.862,33.385 125.567,33.9925L 125.567,43L 123.4,43L 123.4,30.28L 125.448,30.28 Z "/>
		<path fill="#FFFFFF" fill-opacity="1" stroke-linejoin="round" d="M 147.947,35.4063C 146.018,34.8513 144.613,34.17 143.734,33.3625C 142.856,32.555 142.416,31.5575 142.416,30.37C 142.416,29.0275 142.953,27.9169 144.027,27.0381C 145.101,26.1594 146.497,25.72 148.217,25.72C 149.387,25.72 150.432,25.9463 151.351,26.3988C 152.269,26.8513 152.981,27.4763 153.484,28.2738C 153.988,29.0713 154.24,29.9425 154.24,30.8875L 151.979,30.8875C 151.979,29.8775 151.651,29.0838 150.994,28.5063C 150.338,27.9288 149.412,27.64 148.217,27.64C 147.107,27.64 146.242,27.8869 145.621,28.3806C 144.999,28.8744 144.689,29.5588 144.689,30.4338C 144.689,31.1363 144.984,31.7306 145.574,32.2169C 146.164,32.7031 147.167,33.1475 148.585,33.55C 150.002,33.9525 151.112,34.39 151.913,34.8625C 152.714,35.335 153.308,35.8863 153.694,36.5163C 154.081,37.1463 154.274,37.8888 154.274,38.7438C 154.274,40.1038 153.735,41.1931 152.658,42.0119C 151.58,42.8306 150.139,43.24 148.334,43.24C 147.161,43.24 146.067,43.0156 145.053,42.5669C 144.037,42.1181 143.254,41.5031 142.703,40.7219C 142.152,39.9406 141.876,39.0538 141.876,38.0613L 144.137,38.0613C 144.137,39.0663 144.519,39.8606 145.281,40.4444C 146.044,41.0281 147.061,41.32 148.334,41.32C 149.521,41.32 150.431,41.0819 151.064,40.6056C 151.696,40.1294 152.012,39.48 152.012,38.6575C 152.012,37.835 151.719,37.1988 151.133,36.7488C 150.547,36.2988 149.485,35.8513 147.947,35.4063 Z "/>
		<path fill="#FFFFFF" fill-opacity="1" stroke-linejoin="round" d="M 156.201,36.5238C 156.201,35.2763 156.446,34.1544 156.934,33.1581C 157.423,32.1619 158.103,31.3931 158.974,30.8519C 159.846,30.3106 160.84,30.04 161.957,30.04C 163.682,30.04 165.079,30.64 166.146,31.84C 167.214,33.04 167.747,34.6363 167.747,36.6288L 167.747,36.7825C 167.747,38.02 167.511,39.1313 167.037,40.1163C 166.563,41.1013 165.887,41.8681 165.008,42.4169C 164.129,42.9656 163.12,43.24 161.98,43.24C 160.262,43.24 158.87,42.64 157.802,41.44C 156.735,40.24 156.201,38.6513 156.201,36.6738L 156.201,36.5238 Z M 158.384,36.7713C 158.384,38.1438 158.71,39.245 159.362,40.075C 160.015,40.905 160.887,41.32 161.98,41.32C 163.082,41.32 163.957,40.8988 164.605,40.0563C 165.252,39.2138 165.576,38.035 165.576,36.52C 165.576,35.165 165.246,34.0663 164.586,33.2238C 163.926,32.3813 163.05,31.96 161.957,31.96C 160.887,31.96 160.024,32.375 159.368,33.205C 158.712,34.035 158.384,35.2238 158.384,36.7713 Z "/>
		<path fill="#FFFFFF" fill-opacity="1" stroke-linejoin="round" d="M 178.274,41.7475C 177.431,42.7425 176.192,43.24 174.557,43.24C 173.207,43.24 172.179,42.8463 171.471,42.0588C 170.764,41.2713 170.406,40.105 170.399,38.56L 170.399,30.28L 172.566,30.28L 172.566,38.4475C 172.566,40.3625 173.347,41.32 174.91,41.32C 176.567,41.32 177.669,40.705 178.214,39.475L 178.214,30.28L 180.385,30.28L 180.385,43L 178.322,43L 178.274,41.7475 Z "/>
		<path fill="#FFFFFF" fill-opacity="1" stroke-linejoin="round" d="M 189.805,32.0388C 189.477,31.9863 189.122,31.96 188.74,31.96C 187.317,31.96 186.352,32.5775 185.845,33.8125L 185.845,43L 183.677,43L 183.677,30.28L 185.785,30.28L 185.819,31.7463C 186.531,30.6088 187.54,30.04 188.845,30.04C 189.265,30.04 189.585,30.09 189.805,30.19L 189.805,32.0388 Z "/>
		<path fill="#FFFFFF" fill-opacity="1" stroke-linejoin="round" d="M 196.863,41.32C 197.635,41.32 198.311,41.1 198.889,40.66C 199.468,40.22 199.789,39.67 199.851,39.01L 201.903,39.01C 201.863,39.7375 201.612,40.4294 201.151,41.0856C 200.689,41.7419 200.074,42.265 199.306,42.655C 198.537,43.045 197.722,43.24 196.863,43.24C 195.135,43.24 193.762,42.6619 192.743,41.5056C 191.724,40.3494 191.215,38.7663 191.215,36.7563L 191.215,36.3925C 191.215,35.1525 191.441,34.0506 191.894,33.0869C 192.346,32.1231 192.996,31.3744 193.844,30.8406C 194.691,30.3069 195.694,30.04 196.851,30.04C 198.271,30.04 199.452,30.4656 200.395,31.3169C 201.338,32.1681 201.84,33.2738 201.903,34.6338L 199.851,34.6338C 199.789,33.8538 199.478,33.2131 198.919,32.7119C 198.361,32.2106 197.671,31.96 196.851,31.96C 195.749,31.96 194.895,32.3469 194.29,33.1206C 193.685,33.8944 193.383,35.0125 193.383,36.475L 193.383,36.8725C 193.383,38.2975 193.683,39.395 194.284,40.165C 194.886,40.935 195.745,41.32 196.863,41.32 Z "/>
		<path fill="#FFFFFF" fill-opacity="1" stroke-linejoin="round" d="M 209.564,43.24C 207.844,43.24 206.445,42.6731 205.367,41.5394C 204.29,40.4056 203.751,38.89 203.751,36.9925L 203.751,36.5913C 203.751,35.3288 203.991,34.2019 204.471,33.2106C 204.951,32.2194 205.623,31.4431 206.487,30.8819C 207.351,30.3206 208.286,30.04 209.294,30.04C 210.941,30.04 212.222,30.6013 213.136,31.7238C 214.049,32.8463 214.506,34.4538 214.506,36.5463L 214.506,37.48L 205.919,37.48C 205.949,38.6275 206.314,39.5544 207.014,40.2606C 207.714,40.9669 208.602,41.32 209.68,41.32C 210.445,41.32 211.093,41.1763 211.624,40.8888C 212.156,40.6013 212.621,40.22 213.021,39.745L 214.345,40.78C 213.282,42.42 211.689,43.24 209.564,43.24 Z M 209.294,31.96C 208.419,31.96 207.684,32.2756 207.091,32.9069C 206.497,33.5381 206.13,34.4225 205.99,35.56L 212.339,35.56L 212.339,35.3988C 212.276,34.3063 211.979,33.46 211.448,32.86C 210.917,32.26 210.199,31.96 209.294,31.96 Z "/>
		<path fill="#FFFFFF" fill-opacity="1" stroke-linejoin="round" d="M 219.445,38.3313L 217.491,38.3313L 217.338,25.96L 219.61,25.96L 219.445,38.3313 Z M 217.255,42.0513C 217.255,41.7088 217.362,41.4213 217.577,41.1888C 217.792,40.9563 218.111,40.84 218.532,40.84C 218.953,40.84 219.273,40.9563 219.492,41.1888C 219.711,41.4213 219.82,41.7088 219.82,42.0513C 219.82,42.3938 219.711,42.6775 219.492,42.9025C 219.273,43.1275 218.953,43.24 218.532,43.24C 218.111,43.24 217.792,43.1275 217.577,42.9025C 217.362,42.6775 217.255,42.3938 217.255,42.0513 Z "/>
		<path fill="#FFFFFF" fill-opacity="0.745098" stroke-linejoin="round" d="M 96.0319,65.6906C 95.9548,67.2698 95.5647,68.5162 94.8616,69.4297C 94.1584,70.3432 93.2173,70.8 92.0381,70.8C 90.8214,70.8 90.0402,70.2563 89.6944,69.1688C 89.3423,69.7188 88.9402,70.1281 88.4881,70.3969C 88.036,70.6656 87.5694,70.8 87.0881,70.8C 86.1631,70.8 85.4631,70.4245 84.9881,69.6734C 84.5131,68.9224 84.3371,67.8833 84.46,66.5563C 84.5579,65.4875 84.8037,64.5339 85.1975,63.6953C 85.5912,62.8568 86.0991,62.1979 86.7209,61.7188C 87.3428,61.2396 87.9954,61 88.6787,61C 89.2058,61 89.6777,61.0714 90.0944,61.2141C 90.511,61.3568 90.9798,61.6365 91.5006,62.0531L 90.9944,67.55C 90.8694,69.0792 91.286,69.8438 92.2444,69.8438C 92.9798,69.8438 93.5751,69.4693 94.0303,68.7203C 94.4855,67.9714 94.7329,66.9958 94.7725,65.7938C 94.8975,63.1917 94.4277,61.2089 93.3631,59.8453C 92.2985,58.4818 90.6787,57.8 88.5037,57.8C 87.1954,57.8 86.0334,58.126 85.0178,58.7781C 84.0022,59.4302 83.2011,60.3724 82.6147,61.6047C 82.0282,62.837 81.6996,64.2604 81.6287,65.875C 81.5496,67.5 81.7444,68.9109 82.2131,70.1078C 82.6819,71.3047 83.3965,72.2193 84.3569,72.8516C 85.3173,73.4839 86.4777,73.8 87.8381,73.8C 88.4256,73.8 89.0136,73.7281 89.6022,73.5844C 90.1907,73.4406 90.6808,73.2552 91.0725,73.0281L 91.4319,74.1469C 91.0298,74.3948 90.4949,74.599 89.8272,74.7594C 89.1595,74.9198 88.484,75 87.8006,75C 86.1735,75 84.7741,74.6339 83.6022,73.9016C 82.4303,73.1693 81.5527,72.1146 80.9694,70.7375C 80.386,69.3604 80.134,67.75 80.2131,65.9063C 80.2902,64.1167 80.6902,62.5073 81.4131,61.0781C 82.136,59.649 83.1162,58.5453 84.3538,57.7672C 85.5912,56.9891 86.9871,56.6 88.5413,56.6C 90.1642,56.6 91.5548,56.9651 92.7131,57.6953C 93.8715,58.4255 94.734,59.4792 95.3006,60.8563C 95.8673,62.2333 96.111,63.8448 96.0319,65.6906 Z M 86.0131,66.6531C 85.9215,67.601 86.0074,68.3292 86.2709,68.8375C 86.5345,69.3458 86.9527,69.6 87.5256,69.6C 87.9173,69.6 88.2939,69.4297 88.6553,69.0891C 89.0168,68.7484 89.3142,68.2604 89.5475,67.625L 89.5569,67.5344L 90.0069,62.4906C 89.6423,62.2969 89.2517,62.2 88.835,62.2C 88.0746,62.2 87.4449,62.5979 86.9459,63.3938C 86.447,64.1896 86.136,65.276 86.0131,66.6531 Z "/>
		<path fill="#FFFFFF" fill-opacity="0.745098" stroke-linejoin="round" d="M 101.132,56.4L 105.782,67.9875L 110.429,56.4L 112.86,56.4L 112.86,70.6L 110.985,70.6L 110.985,65.0688L 111.163,59.1L 106.494,70.6L 105.057,70.6L 100.401,59.1313L 100.585,65.0719L 100.585,70.6L 98.71,70.6L 98.71,56.4L 101.132,56.4 Z "/>
		<path fill="#FFFFFF" fill-opacity="0.745098" stroke-linejoin="round" d="M 122.31,70.6C 122.206,70.3917 122.121,70.0208 122.057,69.4875C 121.217,70.3625 120.214,70.8 119.047,70.8C 118.006,70.8 117.152,70.5057 116.485,69.9172C 115.818,69.3287 115.485,68.5813 115.485,67.675C 115.485,66.575 115.903,65.7208 116.74,65.1125C 117.576,64.5042 118.753,64.2 120.269,64.2L 122.026,64.2L 122.026,63.4C 122.026,62.7896 121.837,62.3036 121.46,61.9422C 121.083,61.5807 120.527,61.4 119.791,61.4C 119.145,61.4 118.605,61.5516 118.169,61.8547C 117.734,62.1578 117.516,62.525 117.516,62.9563L 115.697,62.9563C 115.697,62.4229 115.885,61.9083 116.26,61.4125C 116.635,60.9167 117.143,60.524 117.783,60.2344C 118.424,59.9448 119.129,59.8 119.897,59.8C 121.116,59.8 122.07,60.1052 122.76,60.7156C 123.45,61.326 123.808,62.1677 123.835,63.2406L 123.835,68.1219C 123.835,69.0948 123.958,69.8688 124.204,70.4438L 124.204,70.6L 122.31,70.6 Z M 119.31,69.2C 119.877,69.2 120.414,69.0672 120.921,68.8016C 121.428,68.5359 121.795,68.1906 122.022,67.7656L 122.022,65.8L 120.607,65.8C 118.394,65.8 117.288,66.3875 117.288,67.5625C 117.288,68.075 117.477,68.476 117.854,68.7656C 118.231,69.0552 118.716,69.2 119.31,69.2 Z "/>
		<path fill="#FFFFFF" fill-opacity="0.745098" stroke-linejoin="round" d="M 129.11,57.4L 129.11,60L 131.082,60L 131.082,61.6L 129.11,61.6L 129.11,67.9656C 129.11,68.3781 129.198,68.687 129.374,68.8922C 129.55,69.0974 129.85,69.2 130.272,69.2C 130.481,69.2 130.767,69.1604 131.132,69.0813L 131.132,70.5969C 130.657,70.7323 130.194,70.8 129.744,70.8C 128.938,70.8 128.33,70.5604 127.919,70.0813C 127.509,69.6021 127.304,68.9208 127.304,68.0375L 127.304,61.6L 125.379,61.6L 125.379,60L 127.304,60L 127.304,57.4L 129.11,57.4 Z "/>
		<path fill="#FFFFFF" fill-opacity="0.745098" stroke-linejoin="round" d="M 137.613,70.8C 136.18,70.8 135.014,70.3276 134.116,69.3828C 133.218,68.438 132.769,67.175 132.769,65.5938L 132.769,65.2594C 132.769,64.2073 132.969,63.2682 133.369,62.4422C 133.769,61.6161 134.329,60.9693 135.049,60.5016C 135.769,60.0339 136.549,59.8 137.388,59.8C 138.761,59.8 139.828,60.2677 140.59,61.2031C 141.351,62.1385 141.732,63.4781 141.732,65.2219L 141.732,66L 134.576,66C 134.601,66.9563 134.905,67.7287 135.488,68.3172C 136.071,68.9057 136.812,69.2 137.71,69.2C 138.347,69.2 138.888,69.0802 139.33,68.8406C 139.773,68.601 140.161,68.2833 140.494,67.8875L 141.597,68.75C 140.712,70.1167 139.384,70.8 137.613,70.8 Z M 137.388,61.4C 136.659,61.4 136.047,61.663 135.552,62.1891C 135.057,62.7151 134.752,63.4521 134.635,64.4L 139.926,64.4L 139.926,64.2656C 139.874,63.3552 139.626,62.65 139.183,62.15C 138.741,61.65 138.142,61.4 137.388,61.4 Z "/>
		<path fill="#FFFFFF" fill-opacity="0.745098" stroke-linejoin="round" d="M 148.947,61.4656C 148.675,61.4219 148.379,61.4 148.06,61.4C 146.875,61.4 146.07,61.9146 145.647,62.9438L 145.647,70.6L 143.841,70.6L 143.841,60L 145.597,60L 145.626,61.2219C 146.219,60.274 147.06,59.8 148.147,59.8C 148.497,59.8 148.764,59.8417 148.947,59.925L 148.947,61.4656 Z "/>
		<path fill="#FFFFFF" fill-opacity="0.745098" stroke-linejoin="round" d="M 152.569,70.6L 150.763,70.6L 150.763,60L 152.569,60L 152.569,70.6 Z M 150.616,57.2094C 150.616,56.926 150.706,56.687 150.885,56.4922C 151.064,56.2974 151.329,56.2 151.68,56.2C 152.031,56.2 152.298,56.2974 152.48,56.4922C 152.663,56.687 152.754,56.926 152.754,57.2094C 152.754,57.4927 152.663,57.7286 152.48,57.9172C 152.298,58.1057 152.031,58.2 151.68,58.2C 151.329,58.2 151.064,58.1057 150.885,57.9172C 150.706,57.7286 150.616,57.4927 150.616,57.2094 Z "/>
		<path fill="#FFFFFF" fill-opacity="0.745098" stroke-linejoin="round" d="M 161.91,70.6C 161.806,70.3917 161.721,70.0208 161.657,69.4875C 160.817,70.3625 159.814,70.8 158.648,70.8C 157.606,70.8 156.752,70.5057 156.085,69.9172C 155.418,69.3287 155.085,68.5813 155.085,67.675C 155.085,66.575 155.503,65.7208 156.34,65.1125C 157.176,64.5042 158.353,64.2 159.869,64.2L 161.626,64.2L 161.626,63.4C 161.626,62.7896 161.437,62.3036 161.06,61.9422C 160.683,61.5807 160.127,61.4 159.391,61.4C 158.745,61.4 158.205,61.5516 157.769,61.8547C 157.334,62.1578 157.116,62.525 157.116,62.9563L 155.298,62.9563C 155.298,62.4229 155.485,61.9083 155.86,61.4125C 156.235,60.9167 156.743,60.524 157.383,60.2344C 158.024,59.9448 158.729,59.8 159.497,59.8C 160.716,59.8 161.67,60.1052 162.36,60.7156C 163.05,61.326 163.408,62.1677 163.435,63.2406L 163.435,68.1219C 163.435,69.0948 163.558,69.8688 163.804,70.4438L 163.804,70.6L 161.91,70.6 Z M 158.91,69.2C 159.477,69.2 160.014,69.0672 160.521,68.8016C 161.028,68.5359 161.395,68.1906 161.622,67.7656L 161.622,65.8L 160.207,65.8C 157.994,65.8 156.888,66.3875 156.888,67.5625C 156.888,68.075 157.077,68.476 157.454,68.7656C 157.831,69.0552 158.316,69.2 158.91,69.2 Z "/>
		<rect x="166.385" y="55.6" fill="#FFFFFF" fill-opacity="0.745098" stroke-linejoin="round" width="1.80624" height="15"/>
		<rect x="171.448" y="56.4" fill="#FFFFFF" fill-opacity="0.745098" stroke-linejoin="round" width="1.875" height="14.2"/>
		<path fill="#FFFFFF" fill-opacity="0.745098" stroke-linejoin="round" d="M 180.629,69.2C 181.273,69.2 181.836,69.0167 182.318,68.65C 182.8,68.2833 183.067,67.825 183.119,67.275L 184.829,67.275C 184.795,67.8813 184.587,68.4578 184.202,69.0047C 183.818,69.5516 183.305,69.9875 182.665,70.3125C 182.024,70.6375 181.345,70.8 180.629,70.8C 179.189,70.8 178.045,70.3182 177.196,69.3547C 176.347,68.3912 175.923,67.0719 175.923,65.3969L 175.923,65.0938C 175.923,64.0604 176.111,63.1422 176.488,62.3391C 176.865,61.5359 177.407,60.912 178.113,60.4672C 178.819,60.0224 179.655,59.8 180.619,59.8C 181.803,59.8 182.787,60.1547 183.573,60.8641C 184.358,61.5734 184.777,62.4948 184.829,63.6281L 183.119,63.6281C 183.067,62.9781 182.808,62.4443 182.343,62.0266C 181.877,61.6089 181.303,61.4 180.619,61.4C 179.701,61.4 178.989,61.7224 178.485,62.3672C 177.981,63.012 177.729,63.9438 177.729,65.1625L 177.729,65.4938C 177.729,66.6813 177.979,67.5958 178.48,68.2375C 178.981,68.8792 179.698,69.2 180.629,69.2 Z "/>
		<path fill="#FFFFFF" fill-opacity="0.745098" stroke-linejoin="round" d="M 186.344,65.2031C 186.344,64.1635 186.548,63.2286 186.955,62.3984C 187.363,61.5682 187.929,60.9276 188.655,60.4766C 189.381,60.0255 190.21,59.8 191.141,59.8C 192.579,59.8 193.742,60.3 194.632,61.3C 195.521,62.3 195.966,63.6302 195.966,65.2906L 195.966,65.4188C 195.966,66.45 195.769,67.376 195.374,68.1969C 194.979,69.0177 194.416,69.6568 193.683,70.1141C 192.951,70.5714 192.11,70.8 191.16,70.8C 189.729,70.8 188.568,70.3 187.679,69.3C 186.789,68.3 186.344,66.976 186.344,65.3281L 186.344,65.2031 Z M 188.163,65.4094C 188.163,66.5531 188.435,67.4708 188.979,68.1625C 189.523,68.8542 190.25,69.2 191.16,69.2C 192.079,69.2 192.808,68.849 193.348,68.1469C 193.887,67.4448 194.157,66.4625 194.157,65.2C 194.157,64.0708 193.882,63.1552 193.332,62.4531C 192.782,61.751 192.052,61.4 191.141,61.4C 190.25,61.4 189.53,61.7458 188.983,62.4375C 188.437,63.1292 188.163,64.1198 188.163,65.4094 Z "/>
		<path fill="#FFFFFF" fill-opacity="0.745098" stroke-linejoin="round" d="M 199.916,60L 199.976,61.3281C 200.784,60.3094 201.839,59.8 203.141,59.8C 205.375,59.8 206.501,61.0646 206.519,63.5938L 206.519,70.6L 204.713,70.6L 204.713,63.6281C 204.707,62.8698 204.533,62.3089 204.191,61.9453C 203.85,61.5818 203.317,61.4 202.594,61.4C 202.007,61.4 201.492,61.5557 201.049,61.8672C 200.606,62.1786 200.262,62.5875 200.016,63.0938L 200.016,70.6L 198.21,70.6L 198.21,60L 199.916,60 Z "/>
		<path fill="#FFFFFF" fill-opacity="0.745098" stroke-linejoin="round" d="M 215.423,67.7219C 215.423,67.2469 215.239,66.8781 214.871,66.6156C 214.503,66.3531 213.862,66.1271 212.948,65.9375C 212.033,65.7479 211.307,65.5156 210.769,65.2406C 210.232,64.9656 209.835,64.6391 209.579,64.2609C 209.323,63.8828 209.194,63.4323 209.194,62.9094C 209.194,62.0385 209.561,61.3026 210.293,60.7016C 211.025,60.1005 211.961,59.8 213.101,59.8C 214.299,59.8 215.27,60.1094 216.015,60.7281C 216.76,61.3469 217.132,62.1375 217.132,63.1L 215.316,63.1C 215.316,62.6375 215.106,62.2385 214.687,61.9031C 214.267,61.5677 213.738,61.4 213.101,61.4C 212.442,61.4 211.928,61.5323 211.557,61.7969C 211.186,62.0615 211.001,62.4073 211.001,62.8344C 211.001,63.2385 211.173,63.5427 211.518,63.7469C 211.863,63.951 212.486,64.1563 213.388,64.3625C 214.29,64.5688 215.021,64.8151 215.58,65.1016C 216.14,65.388 216.554,65.7323 216.824,66.1344C 217.094,66.5365 217.229,67.0271 217.229,67.6063C 217.229,68.5708 216.851,69.3443 216.096,69.9266C 215.341,70.5089 214.361,70.8 213.157,70.8C 212.311,70.8 211.563,70.6505 210.912,70.3516C 210.261,70.0526 209.751,69.6344 209.383,69.0969C 209.016,68.5594 208.832,67.9781 208.832,67.3531L 210.638,67.3531C 210.671,67.9198 210.914,68.3693 211.366,68.7016C 211.818,69.0339 212.415,69.2 213.157,69.2C 213.84,69.2 214.389,69.0656 214.802,68.7969C 215.216,68.5281 215.423,68.1698 215.423,67.7219 Z "/>
	</g>
</svg>
