<?xml version="1.0" encoding="utf-8"?>
<!DOCTYPE svg PUBLIC "-//W3C//DTD SVG 1.1//EN" "http://www.w3.org/Graphics/SVG/1.1/DTD/svg11.dtd">
<svg xmlns="http://www.w3.org/2000/svg" xmlns:xlink="http://www.w3.org/1999/xlink" version="1.1" baseProfile="full" width="420" height="420" viewBox="0 0 420.00 420.00" enable-background="new 0 0 420.00 420.00" xml:space="preserve">
	<g>
		<path fill="#03A9F4" fill-opacity="1" stroke-linejoin="round" d="M 50.0667,29L 39.4,29L 39.4,26.8667L 43.6667,26.8667L 43.6667,14.0667L 39.6833,16.7333L 38.8667,14.8667L 44.175,11.9333L 46.3333,11.9333L 46.3333,26.8667L 50.0667,26.8667L 50.0667,29 Z "/>
		<path fill="#03A9F4" fill-opacity="1" stroke-linejoin="round" d="M 65,22.2708C 65,23.4458 64.8389,24.4715 64.5167,25.3479C 64.1944,26.2243 63.7507,26.9521 63.1854,27.5313C 62.6201,28.1104 61.9514,28.5444 61.1792,28.8333C 60.4069,29.1222 59.5708,29.2667 58.6708,29.2667C 58.2597,29.2667 57.85,29.2368 57.4417,29.1771C 57.0333,29.1173 56.6194,29.0153 56.2,28.8708L 56.2,34.3333L 53.8,34.3333L 53.8,15.9333L 55.9417,15.9333L 56.0917,18.1208C 56.7361,17.2153 57.4229,16.5799 58.1521,16.2146C 58.8813,15.8493 59.6708,15.6667 60.5208,15.6667C 61.2597,15.6667 61.9076,15.8243 62.4646,16.1396C 63.0215,16.4549 63.4889,16.9 63.8667,17.475C 64.2444,18.05 64.5278,18.743 64.7167,19.5542C 64.9056,20.3653 65,21.2708 65,22.2708 Z M 62.6,22.3C 62.6,21.6 62.5514,20.9569 62.4542,20.3708C 62.3569,19.7847 62.2028,19.2826 61.9917,18.8646C 61.7806,18.4465 61.5111,18.1201 61.1833,17.8854C 60.8556,17.6507 60.4639,17.5333 60.0083,17.5333C 59.7306,17.5333 59.4479,17.5799 59.1604,17.6729C 58.8729,17.766 58.5757,17.9215 58.2687,18.1396C 57.9618,18.3576 57.6375,18.6465 57.2958,19.0063C 56.9542,19.366 56.5889,19.8111 56.2,20.3417L 56.2,26.8292C 56.6056,27.0042 57.0313,27.1431 57.4771,27.2458C 57.9229,27.3486 58.3611,27.4 58.7917,27.4C 59.9806,27.4 60.9125,26.9764 61.5875,26.1292C 62.2625,25.282 62.6,24.0056 62.6,22.3 Z "/>
		<path fill="#03A9F4" fill-opacity="1" stroke-linejoin="round" d="M 80.2,29L 77.1917,29L 73.7208,24.0167L 70.0625,29L 67.1333,29L 72.2167,22.3625L 67.4,15.9333L 70.3042,15.9333L 73.6917,20.9667L 77.1333,15.9333L 79.9333,15.9333L 75.0083,22.45L 80.2,29 Z "/>
	</g>
	<g>
		<path fill="#03A9F4" fill-opacity="1" stroke-linejoin="round" d="M 367.733,225L 356.533,225L 356.533,222.996L 360.867,218.571C 361.578,217.851 362.156,217.23 362.6,216.706C 363.044,216.183 363.39,215.705 363.637,215.273C 363.885,214.841 364.051,214.433 364.137,214.05C 364.224,213.667 364.267,213.253 364.267,212.808C 364.267,212.406 364.21,212.022 364.098,211.656C 363.985,211.291 363.813,210.97 363.581,210.694C 363.349,210.417 363.048,210.199 362.677,210.04C 362.306,209.88 361.863,209.8 361.346,209.8C 360.629,209.8 359.978,209.973 359.392,210.319C 358.806,210.665 358.267,211.114 357.775,211.667L 356.533,210.063C 357.186,209.338 357.938,208.757 358.79,208.321C 359.641,207.885 360.631,207.667 361.758,207.667C 362.528,207.667 363.228,207.781 363.858,208.008C 364.489,208.236 365.033,208.564 365.492,208.992C 365.95,209.419 366.305,209.944 366.556,210.565C 366.808,211.185 366.933,211.885 366.933,212.662C 366.933,213.318 366.849,213.926 366.679,214.485C 366.51,215.045 366.253,215.603 365.908,216.158C 365.564,216.714 365.131,217.289 364.608,217.883C 364.086,218.478 363.468,219.129 362.754,219.838L 359.733,222.867L 367.733,222.867L 367.733,225 Z "/>
		<path fill="#03A9F4" fill-opacity="1" stroke-linejoin="round" d="M 383.2,221.267L 380.533,221.267L 380.533,225L 378.133,225L 378.133,221.267L 369.867,221.267L 369.867,219.4L 377.196,207.933L 380.533,207.933L 380.533,219.4L 383.2,219.4L 383.2,221.267 Z M 378.133,210.133L 372.133,219.4L 378.133,219.4L 378.133,210.133 Z "/>
		<path fill="#03A9F4" fill-opacity="1" stroke-linejoin="round" d="M 397.333,218.271C 397.333,219.446 397.172,220.472 396.85,221.348C 396.528,222.224 396.084,222.952 395.519,223.531C 394.953,224.11 394.285,224.544 393.512,224.833C 392.74,225.122 391.904,225.267 391.004,225.267C 390.593,225.267 390.183,225.237 389.775,225.177C 389.367,225.117 388.953,225.015 388.533,224.871L 388.533,230.333L 386.133,230.333L 386.133,211.933L 388.275,211.933L 388.425,214.121C 389.069,213.215 389.756,212.58 390.485,212.215C 391.215,211.849 392.004,211.667 392.854,211.667C 393.593,211.667 394.241,211.824 394.798,212.14C 395.355,212.455 395.822,212.9 396.2,213.475C 396.578,214.05 396.861,214.743 397.05,215.554C 397.239,216.365 397.333,217.271 397.333,218.271 Z M 394.933,218.3C 394.933,217.6 394.885,216.957 394.787,216.371C 394.69,215.785 394.536,215.283 394.325,214.865C 394.114,214.447 393.844,214.12 393.517,213.885C 393.189,213.651 392.797,213.533 392.342,213.533C 392.064,213.533 391.781,213.58 391.494,213.673C 391.206,213.766 390.909,213.922 390.602,214.14C 390.295,214.358 389.971,214.647 389.629,215.006C 389.287,215.366 388.922,215.811 388.533,216.342L 388.533,222.829C 388.939,223.004 389.365,223.143 389.81,223.246C 390.256,223.349 390.694,223.4 391.125,223.4C 392.314,223.4 393.246,222.976 393.921,222.129C 394.596,221.282 394.933,220.006 394.933,218.3 Z "/>
		<path fill="#03A9F4" fill-opacity="1" stroke-linejoin="round" d="M 412.533,225L 409.525,225L 406.054,220.017L 402.396,225L 399.467,225L 404.55,218.363L 399.733,211.933L 402.637,211.933L 406.025,216.967L 409.467,211.933L 412.267,211.933L 407.342,218.45L 412.533,225 Z "/>
	</g>
	<g>
		<path fill="#03A9F4" fill-opacity="1" stroke-linejoin="round" d="M 167.733,408L 156.533,408L 156.533,405.996L 160.867,401.571C 161.578,400.851 162.156,400.23 162.6,399.706C 163.044,399.183 163.39,398.705 163.638,398.273C 163.885,397.841 164.051,397.433 164.138,397.05C 164.224,396.667 164.267,396.253 164.267,395.808C 164.267,395.406 164.21,395.022 164.098,394.656C 163.985,394.291 163.813,393.97 163.581,393.694C 163.349,393.417 163.048,393.199 162.677,393.04C 162.306,392.88 161.863,392.8 161.346,392.8C 160.629,392.8 159.978,392.973 159.392,393.319C 158.806,393.665 158.267,394.114 157.775,394.667L 156.533,393.063C 157.186,392.337 157.938,391.757 158.79,391.321C 159.641,390.885 160.631,390.667 161.758,390.667C 162.528,390.667 163.228,390.781 163.858,391.008C 164.489,391.236 165.033,391.564 165.492,391.992C 165.95,392.419 166.305,392.944 166.556,393.565C 166.808,394.185 166.933,394.885 166.933,395.663C 166.933,396.318 166.849,396.926 166.679,397.485C 166.51,398.045 166.253,398.603 165.908,399.158C 165.564,399.714 165.131,400.289 164.608,400.883C 164.086,401.478 163.468,402.129 162.754,402.837L 159.733,405.867L 167.733,405.867L 167.733,408 Z "/>
		<path fill="#03A9F4" fill-opacity="1" stroke-linejoin="round" d="M 183.2,404.267L 180.533,404.267L 180.533,408L 178.133,408L 178.133,404.267L 169.867,404.267L 169.867,402.4L 177.196,390.933L 180.533,390.933L 180.533,402.4L 183.2,402.4L 183.2,404.267 Z M 178.133,393.133L 172.133,402.4L 178.133,402.4L 178.133,393.133 Z "/>
		<path fill="#03A9F4" fill-opacity="1" stroke-linejoin="round" d="M 197.333,401.271C 197.333,402.446 197.172,403.472 196.85,404.348C 196.528,405.224 196.084,405.952 195.519,406.531C 194.953,407.11 194.285,407.544 193.513,407.833C 192.74,408.122 191.904,408.267 191.004,408.267C 190.593,408.267 190.183,408.237 189.775,408.177C 189.367,408.117 188.953,408.015 188.533,407.871L 188.533,413.333L 186.133,413.333L 186.133,394.933L 188.275,394.933L 188.425,397.121C 189.069,396.215 189.756,395.58 190.485,395.215C 191.215,394.849 192.004,394.667 192.854,394.667C 193.593,394.667 194.241,394.824 194.798,395.14C 195.355,395.455 195.822,395.9 196.2,396.475C 196.578,397.05 196.861,397.743 197.05,398.554C 197.239,399.365 197.333,400.271 197.333,401.271 Z M 194.933,401.3C 194.933,400.6 194.885,399.957 194.787,399.371C 194.69,398.785 194.536,398.283 194.325,397.865C 194.114,397.447 193.844,397.12 193.517,396.885C 193.189,396.651 192.797,396.533 192.342,396.533C 192.064,396.533 191.781,396.58 191.494,396.673C 191.206,396.766 190.909,396.922 190.602,397.14C 190.295,397.358 189.971,397.647 189.629,398.006C 189.287,398.366 188.922,398.811 188.533,399.342L 188.533,405.829C 188.939,406.004 189.365,406.143 189.81,406.246C 190.256,406.349 190.694,406.4 191.125,406.4C 192.314,406.4 193.246,405.976 193.921,405.129C 194.596,404.282 194.933,403.006 194.933,401.3 Z "/>
		<path fill="#03A9F4" fill-opacity="1" stroke-linejoin="round" d="M 212.533,408L 209.525,408L 206.054,403.017L 202.396,408L 199.467,408L 204.55,401.362L 199.733,394.933L 202.637,394.933L 206.025,399.967L 209.467,394.933L 212.267,394.933L 207.342,401.45L 212.533,408 Z "/>
	</g>
	<path fill="#676767" fill-opacity="0.501961" stroke-linejoin="round" d="M 10,40L 352,40L 351.999,382L 9.99998,382L 10,40 Z M 13.9999,44L 13.9999,378L 347.999,378L 348,44L 13.9999,44 Z "/>
	<path fill="#A8A8A8" fill-opacity="0.501961" stroke-linejoin="round" d="M 25.9999,44.0001L 27.9999,44.0001L 28,378L 26,378L 25.9999,44.0001 Z "/>
	<path fill="#03A9F4" fill-opacity="1" stroke-linejoin="round" d="M 14,40L 12,40L 12,8.00003L 14,8.00003L 14,40 Z M 28,40L 26,40L 26,8.00009L 28,8.00009L 28,40 Z "/>
	<path fill="#A8A8A8" fill-opacity="0.501961" stroke-linejoin="round" d="M 40,44L 42,44L 42,378L 40,378L 40,44 Z "/>
	<rect x="53.9999" y="44.0001" fill="#A8A8A8" fill-opacity="0.501961" stroke-linejoin="round" width="2" height="334"/>
	<rect x="68" y="44" fill="#A8A8A8" fill-opacity="0.501961" stroke-linejoin="round" width="2" height="334"/>
	<path fill="#A8A8A8" fill-opacity="0.501961" stroke-linejoin="round" d="M 81.9999,44.0001L 83.9999,44.0001L 84.0001,378L 82.0001,378L 81.9999,44.0001 Z "/>
	<rect x="96" y="44" fill="#A8A8A8" fill-opacity="0.501961" stroke-linejoin="round" width="2" height="334"/>
	<rect x="110" y="44.0001" fill="#A8A8A8" fill-opacity="0.501961" stroke-linejoin="round" width="2" height="334"/>
	<path fill="#A8A8A8" fill-opacity="0.501961" stroke-linejoin="round" d="M 124,44L 126,44L 126,378L 124,378L 124,44 Z "/>
	<rect x="138" y="44" fill="#A8A8A8" fill-opacity="0.501961" stroke-linejoin="round" width="2" height="334"/>
	<rect x="152" y="44" fill="#A8A8A8" fill-opacity="0.501961" stroke-linejoin="round" width="2" height="334"/>
	<path fill="#A8A8A8" fill-opacity="0.501961" stroke-linejoin="round" d="M 166,44L 168,44L 168,378L 166,378L 166,44 Z "/>
	<path fill="#A8A8A8" fill-opacity="0.501961" stroke-linejoin="round" d="M 180,44L 182,44L 182,378L 180,378L 180,44 Z "/>
	<rect x="194" y="44" fill="#A8A8A8" fill-opacity="0.501961" stroke-linejoin="round" width="2" height="334"/>
	<rect x="208" y="44" fill="#A8A8A8" fill-opacity="0.501961" stroke-linejoin="round" width="2" height="334"/>
	<path fill="#A8A8A8" fill-opacity="0.501961" stroke-linejoin="round" d="M 222,44L 224,44L 224,378L 222,378L 222,44 Z "/>
	<path fill="#A8A8A8" fill-opacity="0.501961" stroke-linejoin="round" d="M 236,44L 238,44L 238,378L 236,378L 236,44 Z "/>
	<path fill="#A8A8A8" fill-opacity="0.501961" stroke-linejoin="round" d="M 250,44L 252,44L 252,378L 250,378L 250,44 Z "/>
	<path fill="#A8A8A8" fill-opacity="0.501961" stroke-linejoin="round" d="M 264,44L 266,44L 266,378L 264,378L 264,44 Z "/>
	<path fill="#A8A8A8" fill-opacity="0.501961" stroke-linejoin="round" d="M 278,44L 280,44L 280,378L 278,378L 278,44 Z "/>
	<path fill="#A8A8A8" fill-opacity="0.501961" stroke-linejoin="round" d="M 292,44L 294,44L 294.001,378L 292.001,378L 292,44 Z "/>
	<path fill="#A8A8A8" fill-opacity="0.501961" stroke-linejoin="round" d="M 306,44L 308,44L 308.001,378L 306.001,378L 306,44 Z "/>
	<path fill="#A8A8A8" fill-opacity="0.501961" stroke-linejoin="round" d="M 320,44L 322,44L 322.001,378L 320.001,378L 320,44 Z "/>
	<rect x="334" y="44" fill="#A8A8A8" fill-opacity="0.501961" stroke-linejoin="round" width="2" height="334"/>
	<path fill="#A8A8A8" fill-opacity="0.501961" stroke-linejoin="round" d="M 14,352L 14,350L 348,350L 348,352L 14,352 Z "/>
	<path fill="#A8A8A8" fill-opacity="0.501961" stroke-linejoin="round" d="M 14,338L 14,336L 348,336L 348,338L 14,338 Z "/>
	<path fill="#A8A8A8" fill-opacity="0.501961" stroke-linejoin="round" d="M 14,324L 14,322L 348,322L 348,324L 14,324 Z "/>
	<path fill="#A8A8A8" fill-opacity="0.501961" stroke-linejoin="round" d="M 14,310L 14,308L 348,308L 348,310L 14,310 Z "/>
	<path fill="#A8A8A8" fill-opacity="0.501961" stroke-linejoin="round" d="M 14,296L 14,294L 348,294L 348,296L 14,296 Z "/>
	<path fill="#A8A8A8" fill-opacity="0.501961" stroke-linejoin="round" d="M 14,282L 14,280L 348,280L 348,282L 14,282 Z "/>
	<path fill="#A8A8A8" fill-opacity="0.501961" stroke-linejoin="round" d="M 14,268L 14,266L 348,266L 348,268L 14,268 Z "/>
	<path fill="#A8A8A8" fill-opacity="0.501961" stroke-linejoin="round" d="M 14,254L 14,252L 348,252L 348,254L 14,254 Z "/>
	<path fill="#A8A8A8" fill-opacity="0.501961" stroke-linejoin="round" d="M 14,240L 14,238L 348.001,238L 348.001,240L 14,240 Z "/>
	<path fill="#A8A8A8" fill-opacity="0.501961" stroke-linejoin="round" d="M 14,226L 14,224L 348,224L 348,226L 14,226 Z "/>
	<path fill="#A8A8A8" fill-opacity="0.501961" stroke-linejoin="round" d="M 14,212L 14,210L 348.001,210L 348.001,212L 14,212 Z "/>
	<path fill="#A8A8A8" fill-opacity="0.501961" stroke-linejoin="round" d="M 14,198L 14,196L 348,196L 348,198L 14,198 Z "/>
	<path fill="#A8A8A8" fill-opacity="0.501961" stroke-linejoin="round" d="M 14,184L 14,182L 348.001,182L 348.001,184L 14,184 Z "/>
	<path fill="#A8A8A8" fill-opacity="0.501961" stroke-linejoin="round" d="M 14,170L 14,168L 348,168L 348,170L 14,170 Z "/>
	<rect x="14" y="154" fill="#A8A8A8" fill-opacity="0.501961" stroke-linejoin="round" width="334.001" height="2"/>
	<rect x="14" y="140" fill="#A8A8A8" fill-opacity="0.501961" stroke-linejoin="round" width="334" height="2"/>
	<path fill="#A8A8A8" fill-opacity="0.501961" stroke-linejoin="round" d="M 14,128L 14,126L 348,125.999L 348,127.999L 14,128 Z "/>
	<rect x="14" y="112" fill="#A8A8A8" fill-opacity="0.501961" stroke-linejoin="round" width="334" height="2"/>
	<path fill="#A8A8A8" fill-opacity="0.501961" stroke-linejoin="round" d="M 14,100L 14,98L 348,97.9999L 348,99.9999L 14,100 Z "/>
	<path fill="#A8A8A8" fill-opacity="0.501961" stroke-linejoin="round" d="M 14,86L 14,84L 348,83.9992L 348,85.9992L 14,86 Z "/>
	<path fill="#A8A8A8" fill-opacity="0.501961" stroke-linejoin="round" d="M 14,72L 14,70L 348,69.9999L 348,71.9999L 14,72 Z "/>
	<path fill="#A8A8A8" fill-opacity="0.501961" stroke-linejoin="round" d="M 14,58L 14,56L 348,55.9992L 348,57.9992L 14,58 Z "/>
	<path fill="#A8A8A8" fill-opacity="0.501961" stroke-linejoin="round" d="M 14,366L 14,364L 348,364L 348,366L 14,366 Z "/>
	<rect x="352" y="42" fill="#03A9F4" fill-opacity="1" stroke-linejoin="round" width="32" height="2"/>
	<rect x="352" y="378" fill="#03A9F4" fill-opacity="1" stroke-linejoin="round" width="32" height="2"/>
	<rect x="12" y="382" fill="#03A9F4" fill-opacity="1" stroke-linejoin="round" width="2" height="32"/>
	<rect x="348" y="382" fill="#03A9F4" fill-opacity="1" stroke-linejoin="round" width="2" height="31.9999"/>
</svg>
